<svg width="266" height="143" viewBox="0 0 266 143" fill="none" xmlns="http://www.w3.org/2000/svg">
<rect x="2.03899" y="34.1956" width="261.542" height="106.19" rx="17.6983" fill="white" stroke="#DFDFDF" stroke-width="3.93296"/>
<path d="M130.124 3.7151C130.881 2.40411 132.773 2.40411 133.53 3.7151L150.56 33.2123C151.317 34.5233 150.371 36.162 148.857 36.162H114.797C113.283 36.162 112.337 34.5233 113.094 33.2123L130.124 3.7151Z" fill="white"/>
<path d="M68.7626 75.7844V78.8128H63.3391V95.0559H60.1731V78.8128H54.722V75.7844H68.7626ZM76.901 80.9326C78.7914 80.9326 80.4066 81.6393 81.7464 83.0525C83.0862 84.4474 83.7561 86.1543 83.7561 88.1732C83.7561 90.2105 83.0862 91.9266 81.7464 93.3215C80.4066 94.7164 78.7914 95.4138 76.901 95.4138C74.8086 95.4138 73.2027 94.6429 72.0831 93.1012V100.562H69.1098V81.2905H72.0831V83.2728C73.2027 81.7127 74.8086 80.9326 76.901 80.9326ZM73.322 91.3393C74.1479 92.1652 75.1849 92.5781 76.433 92.5781C77.681 92.5781 78.718 92.1652 79.5439 91.3393C80.3699 90.495 80.7828 89.4396 80.7828 88.1732C80.7828 86.9068 80.3699 85.8606 79.5439 85.0347C78.718 84.1904 77.681 83.7683 76.433 83.7683C75.1849 83.7683 74.1479 84.1904 73.322 85.0347C72.4961 85.8606 72.0831 86.9068 72.0831 88.1732C72.0831 89.4396 72.4961 90.495 73.322 91.3393ZM97.3531 81.2905H100.326V95.0559H97.3531V93.0737C96.2335 94.6338 94.6275 95.4138 92.5352 95.4138C90.6448 95.4138 89.0296 94.7164 87.6898 93.3215C86.35 91.9082 85.6801 90.1921 85.6801 88.1732C85.6801 86.136 86.35 84.4199 87.6898 83.025C89.0296 81.6301 90.6448 80.9326 92.5352 80.9326C94.6275 80.9326 96.2335 81.7035 97.3531 83.2452V81.2905ZM89.8923 91.3393C90.7182 92.1652 91.7552 92.5781 93.0032 92.5781C94.2513 92.5781 95.2883 92.1652 96.1142 91.3393C96.9401 90.495 97.3531 89.4396 97.3531 88.1732C97.3531 86.9068 96.9401 85.8606 96.1142 85.0347C95.2883 84.1904 94.2513 83.7683 93.0032 83.7683C91.7552 83.7683 90.7182 84.1904 89.8923 85.0347C89.0663 85.8606 88.6534 86.9068 88.6534 88.1732C88.6534 89.4396 89.0663 90.495 89.8923 91.3393ZM110.289 95.4138C108.215 95.4138 106.481 94.7164 105.086 93.3215C103.709 91.9266 103.021 90.2105 103.021 88.1732C103.021 86.1176 103.709 84.4015 105.086 83.025C106.481 81.6301 108.215 80.9326 110.289 80.9326C111.629 80.9326 112.85 81.2538 113.951 81.8962C115.052 82.5386 115.878 83.4012 116.429 84.4841L113.868 85.9708C113.556 85.31 113.079 84.7961 112.437 84.429C111.813 84.0436 111.088 83.8509 110.262 83.8509C109.05 83.8509 108.032 84.2639 107.206 85.0898C106.398 85.9157 105.995 86.9435 105.995 88.1732C105.995 89.4029 106.398 90.4307 107.206 91.2567C108.032 92.0826 109.05 92.4956 110.262 92.4956C111.069 92.4956 111.794 92.3028 112.437 91.9174C113.097 91.532 113.593 91.0181 113.923 90.3757L116.484 91.8348C115.896 92.936 115.052 93.8078 113.951 94.4502C112.85 95.0926 111.629 95.4138 110.289 95.4138ZM124.915 95.4138C122.841 95.4138 121.107 94.7164 119.712 93.3215C118.335 91.9266 117.647 90.2105 117.647 88.1732C117.647 86.1176 118.335 84.4015 119.712 83.025C121.107 81.6301 122.841 80.9326 124.915 80.9326C126.255 80.9326 127.475 81.2538 128.577 81.8962C129.678 82.5386 130.504 83.4012 131.054 84.4841L128.494 85.9708C128.182 85.31 127.705 84.7961 127.062 84.429C126.438 84.0436 125.713 83.8509 124.887 83.8509C123.676 83.8509 122.657 84.2639 121.832 85.0898C121.024 85.9157 120.62 86.9435 120.62 88.1732C120.62 89.4029 121.024 90.4307 121.832 91.2567C122.657 92.0826 123.676 92.4956 124.887 92.4956C125.695 92.4956 126.42 92.3028 127.062 91.9174C127.723 91.532 128.219 91.0181 128.549 90.3757L131.109 91.8348C130.522 92.936 129.678 93.8078 128.577 94.4502C127.475 95.0926 126.255 95.4138 124.915 95.4138ZM143.946 81.2905H146.919V95.0559H143.946V93.0737C142.826 94.6338 141.22 95.4138 139.128 95.4138C137.237 95.4138 135.622 94.7164 134.282 93.3215C132.943 91.9082 132.273 90.1921 132.273 88.1732C132.273 86.136 132.943 84.4199 134.282 83.025C135.622 81.6301 137.237 80.9326 139.128 80.9326C141.22 80.9326 142.826 81.7035 143.946 83.2452V81.2905ZM136.485 91.3393C137.311 92.1652 138.348 92.5781 139.596 92.5781C140.844 92.5781 141.881 92.1652 142.707 91.3393C143.533 90.495 143.946 89.4396 143.946 88.1732C143.946 86.9068 143.533 85.8606 142.707 85.0347C141.881 84.1904 140.844 83.7683 139.596 83.7683C138.348 83.7683 137.311 84.1904 136.485 85.0347C135.659 85.8606 135.246 86.9068 135.246 88.1732C135.246 89.4396 135.659 90.495 136.485 91.3393ZM168.803 85.0623C169.647 85.5027 170.308 86.1084 170.785 86.8793C171.262 87.6501 171.501 88.5403 171.501 89.5498C171.501 91.1282 170.941 92.4405 169.821 93.4867C168.702 94.5328 167.334 95.0559 165.719 95.0559H157.46V75.7844H165.114C166.692 75.7844 168.023 76.2983 169.105 77.3261C170.207 78.3356 170.757 79.602 170.757 81.1254C170.757 82.7956 170.106 84.1079 168.803 85.0623ZM165.114 78.7577H160.626V83.8234H165.114C165.811 83.8234 166.398 83.5848 166.875 83.1076C167.353 82.612 167.591 82.0063 167.591 81.2905C167.591 80.5747 167.353 79.9782 166.875 79.501C166.398 79.0055 165.811 78.7577 165.114 78.7577ZM165.719 92.0826C166.453 92.0826 167.068 91.8256 167.564 91.3117C168.078 90.7795 168.335 90.1371 168.335 89.3846C168.335 88.6321 168.078 87.9989 167.564 87.485C167.068 86.9527 166.453 86.6866 165.719 86.6866H160.626V92.0826H165.719ZM192.709 75.7844V95.0559H189.543V81.3181L183.679 91.0089H183.293L177.429 81.2905V95.0559H174.263V75.7844H177.677L183.486 85.4202L189.323 75.7844H192.709ZM210.73 95.0559H207.123L202.884 88.0906L198.644 95.0559H195.037L201.094 85.1448L195.395 75.7844H198.974L202.884 82.1991L206.793 75.7844H210.399L204.701 85.1448L210.73 95.0559Z" fill="#333333"/>
</svg>
