<svg width="31" height="30" viewBox="0 0 31 30" fill="none" xmlns="http://www.w3.org/2000/svg">
<path d="M24.082 0H6.58203C4.92504 0.00198482 3.33648 0.661102 2.16481 1.83277C0.993134 3.00445 0.334016 4.59301 0.332031 6.25L0.332031 23.75C0.334016 25.407 0.993134 26.9956 2.16481 28.1672C3.33648 29.3389 4.92504 29.998 6.58203 30H24.082C25.739 29.998 27.3276 29.3389 28.4993 28.1672C29.6709 26.9956 30.33 25.407 30.332 23.75V6.25C30.33 4.59301 29.6709 3.00445 28.4993 1.83277C27.3276 0.661102 25.739 0.00198482 24.082 0V0ZM27.832 23.75C27.832 24.7446 27.4369 25.6984 26.7337 26.4017C26.0304 27.1049 25.0766 27.5 24.082 27.5H6.58203C5.58747 27.5 4.63364 27.1049 3.93038 26.4017C3.22712 25.6984 2.83203 24.7446 2.83203 23.75V6.25C2.83203 5.25544 3.22712 4.30161 3.93038 3.59835C4.63364 2.89509 5.58747 2.5 6.58203 2.5H24.082C25.0766 2.5 26.0304 2.89509 26.7337 3.59835C27.4369 4.30161 27.832 5.25544 27.832 6.25V23.75Z" fill="white"/>
<path d="M11.9984 19.8983L7.09967 14.9995C6.86526 14.7652 6.54737 14.6335 6.21592 14.6335C5.88446 14.6335 5.56658 14.7652 5.33217 14.9995C5.09783 15.2339 4.96619 15.5518 4.96619 15.8833C4.96619 16.2147 5.09783 16.5326 5.33217 16.767L10.2309 21.6658C10.4631 21.898 10.7387 22.0823 11.0421 22.208C11.3455 22.3337 11.6707 22.3984 11.999 22.3984C12.3274 22.3984 12.6526 22.3337 12.956 22.208C13.2594 22.0823 13.535 21.898 13.7672 21.6658L25.3322 10.1008C25.5665 9.86636 25.6981 9.54847 25.6981 9.21702C25.6981 8.88556 25.5665 8.56768 25.3322 8.33327C25.0978 8.09893 24.7799 7.96729 24.4484 7.96729C24.117 7.96729 23.7991 8.09893 23.5647 8.33327L11.9984 19.8983Z" fill="white"/>
</svg>
