<svg width="34" height="34" viewBox="0 0 34 34" fill="none" xmlns="http://www.w3.org/2000/svg">
<path d="M9.91667 19.8333C9.91667 20.2091 9.76741 20.5694 9.50173 20.8351C9.23606 21.1007 8.87572 21.25 8.5 21.25H7.08333C6.70761 21.25 6.34728 21.1007 6.0816 20.8351C5.81592 20.5694 5.66667 20.2091 5.66667 19.8333C5.66667 19.4576 5.81592 19.0973 6.0816 18.8316C6.34728 18.5659 6.70761 18.4167 7.08333 18.4167H8.5C8.87572 18.4167 9.23606 18.5659 9.50173 18.8316C9.76741 19.0973 9.91667 19.4576 9.91667 19.8333ZM15.5833 18.4167H14.1667C13.7909 18.4167 13.4306 18.5659 13.1649 18.8316C12.8993 19.0973 12.75 19.4576 12.75 19.8333C12.75 20.2091 12.8993 20.5694 13.1649 20.8351C13.4306 21.1007 13.7909 21.25 14.1667 21.25H15.5833C15.9591 21.25 16.3194 21.1007 16.5851 20.8351C16.8507 20.5694 17 20.2091 17 19.8333C17 19.4576 16.8507 19.0973 16.5851 18.8316C16.3194 18.5659 15.9591 18.4167 15.5833 18.4167ZM8.5 24.0833H7.08333C6.70761 24.0833 6.34728 24.2326 6.0816 24.4983C5.81592 24.7639 5.66667 25.1243 5.66667 25.5C5.66667 25.8757 5.81592 26.2361 6.0816 26.5017C6.34728 26.7674 6.70761 26.9167 7.08333 26.9167H8.5C8.87572 26.9167 9.23606 26.7674 9.50173 26.5017C9.76741 26.2361 9.91667 25.8757 9.91667 25.5C9.91667 25.1243 9.76741 24.7639 9.50173 24.4983C9.23606 24.2326 8.87572 24.0833 8.5 24.0833ZM15.5833 24.0833H14.1667C13.7909 24.0833 13.4306 24.2326 13.1649 24.4983C12.8993 24.7639 12.75 25.1243 12.75 25.5C12.75 25.8757 12.8993 26.2361 13.1649 26.5017C13.4306 26.7674 13.7909 26.9167 14.1667 26.9167H15.5833C15.9591 26.9167 16.3194 26.7674 16.5851 26.5017C16.8507 26.2361 17 25.8757 17 25.5C17 25.1243 16.8507 24.7639 16.5851 24.4983C16.3194 24.2326 15.9591 24.0833 15.5833 24.0833ZM8.5 7.08333H7.08333C6.70761 7.08333 6.34728 7.23259 6.0816 7.49827C5.81592 7.76394 5.66667 8.12428 5.66667 8.5C5.66667 8.87572 5.81592 9.23606 6.0816 9.50173C6.34728 9.76741 6.70761 9.91667 7.08333 9.91667H8.5C8.87572 9.91667 9.23606 9.76741 9.50173 9.50173C9.76741 9.23606 9.91667 8.87572 9.91667 8.5C9.91667 8.12428 9.76741 7.76394 9.50173 7.49827C9.23606 7.23259 8.87572 7.08333 8.5 7.08333ZM15.5833 7.08333H14.1667C13.7909 7.08333 13.4306 7.23259 13.1649 7.49827C12.8993 7.76394 12.75 8.12428 12.75 8.5C12.75 8.87572 12.8993 9.23606 13.1649 9.50173C13.4306 9.76741 13.7909 9.91667 14.1667 9.91667H15.5833C15.9591 9.91667 16.3194 9.76741 16.5851 9.50173C16.8507 9.23606 17 8.87572 17 8.5C17 8.12428 16.8507 7.76394 16.5851 7.49827C16.3194 7.23259 15.9591 7.08333 15.5833 7.08333ZM8.5 12.75H7.08333C6.70761 12.75 6.34728 12.8993 6.0816 13.1649C5.81592 13.4306 5.66667 13.7909 5.66667 14.1667C5.66667 14.5424 5.81592 14.9027 6.0816 15.1684C6.34728 15.4341 6.70761 15.5833 7.08333 15.5833H8.5C8.87572 15.5833 9.23606 15.4341 9.50173 15.1684C9.76741 14.9027 9.91667 14.5424 9.91667 14.1667C9.91667 13.7909 9.76741 13.4306 9.50173 13.1649C9.23606 12.8993 8.87572 12.75 8.5 12.75ZM15.5833 12.75H14.1667C13.7909 12.75 13.4306 12.8993 13.1649 13.1649C12.8993 13.4306 12.75 13.7909 12.75 14.1667C12.75 14.5424 12.8993 14.9027 13.1649 15.1684C13.4306 15.4341 13.7909 15.5833 14.1667 15.5833H15.5833C15.9591 15.5833 16.3194 15.4341 16.5851 15.1684C16.8507 14.9027 17 14.5424 17 14.1667C17 13.7909 16.8507 13.4306 16.5851 13.1649C16.3194 12.8993 15.9591 12.75 15.5833 12.75ZM34 14.1667V26.9167C33.9977 28.7946 33.2508 30.595 31.9229 31.9229C30.595 33.2508 28.7946 33.9977 26.9167 34H7.08333C5.20541 33.9977 3.40504 33.2508 2.07714 31.9229C0.749249 30.595 0.00224946 28.7946 0 26.9167L0 7.08333C0.00224946 5.20541 0.749249 3.40504 2.07714 2.07714C3.40504 0.749249 5.20541 0.00224946 7.08333 0L15.5833 0C17.4613 0.00224946 19.2616 0.749249 20.5895 2.07714C21.9174 3.40504 22.6644 5.20541 22.6667 7.08333H26.9167C28.7946 7.08558 30.595 7.83258 31.9229 9.16048C33.2508 10.4884 33.9977 12.2887 34 14.1667ZM7.08333 31.1667H19.8333V7.08333C19.8333 5.95616 19.3856 4.87516 18.5885 4.07813C17.7915 3.2811 16.7105 2.83333 15.5833 2.83333H7.08333C5.95616 2.83333 4.87516 3.2811 4.07813 4.07813C3.2811 4.87516 2.83333 5.95616 2.83333 7.08333V26.9167C2.83333 28.0438 3.2811 29.1248 4.07813 29.9219C4.87516 30.7189 5.95616 31.1667 7.08333 31.1667ZM31.1667 14.1667C31.1667 13.0395 30.7189 11.9585 29.9219 11.1615C29.1248 10.3644 28.0438 9.91667 26.9167 9.91667H22.6667V31.1667H26.9167C28.0438 31.1667 29.1248 30.7189 29.9219 29.9219C30.7189 29.1248 31.1667 28.0438 31.1667 26.9167V14.1667ZM26.9167 18.4167C26.6365 18.4167 26.3626 18.4998 26.1296 18.6554C25.8966 18.8111 25.7151 19.0323 25.6078 19.2912C25.5006 19.5501 25.4726 19.8349 25.5272 20.1097C25.5819 20.3845 25.7168 20.6369 25.9149 20.8351C26.1131 21.0332 26.3655 21.1681 26.6403 21.2228C26.9151 21.2774 27.1999 21.2494 27.4588 21.1422C27.7177 21.0349 27.9389 20.8534 28.0946 20.6204C28.2502 20.3874 28.3333 20.1135 28.3333 19.8333C28.3333 19.4576 28.1841 19.0973 27.9184 18.8316C27.6527 18.5659 27.2924 18.4167 26.9167 18.4167ZM26.9167 24.0833C26.6365 24.0833 26.3626 24.1664 26.1296 24.3221C25.8966 24.4777 25.7151 24.699 25.6078 24.9579C25.5006 25.2167 25.4726 25.5016 25.5272 25.7764C25.5819 26.0512 25.7168 26.3036 25.9149 26.5017C26.1131 26.6999 26.3655 26.8348 26.6403 26.8894C26.9151 26.9441 27.1999 26.9161 27.4588 26.8088C27.7177 26.7016 27.9389 26.52 28.0946 26.2871C28.2502 26.0541 28.3333 25.7802 28.3333 25.5C28.3333 25.1243 28.1841 24.7639 27.9184 24.4983C27.6527 24.2326 27.2924 24.0833 26.9167 24.0833ZM26.9167 12.75C26.6365 12.75 26.3626 12.8331 26.1296 12.9888C25.8966 13.1444 25.7151 13.3657 25.6078 13.6245C25.5006 13.8834 25.4726 14.1682 25.5272 14.443C25.5819 14.7179 25.7168 14.9703 25.9149 15.1684C26.1131 15.3665 26.3655 15.5014 26.6403 15.5561C26.9151 15.6108 27.1999 15.5827 27.4588 15.4755C27.7177 15.3683 27.9389 15.1867 28.0946 14.9537C28.2502 14.7208 28.3333 14.4469 28.3333 14.1667C28.3333 13.7909 28.1841 13.4306 27.9184 13.1649C27.6527 12.8993 27.2924 12.75 26.9167 12.75Z" fill="white"/>
</svg>
