<svg width="1860" height="835" viewBox="0 0 1860 835" fill="none" xmlns="http://www.w3.org/2000/svg">
<path d="M13.1149 186.765V183.993L20.63 176.324C22.4574 174.497 23.3711 172.916 23.3711 171.581C23.3711 170.534 23.0529 169.723 22.4163 169.148C21.8004 168.553 21.0098 168.255 20.0448 168.255C18.2379 168.255 16.9033 169.148 16.0409 170.935L13.0533 169.179C13.7309 167.742 14.6857 166.653 15.9177 165.914C17.1497 165.175 18.5151 164.805 20.014 164.805C21.903 164.805 23.5251 165.401 24.8803 166.592C26.2355 167.783 26.913 169.405 26.913 171.458C26.913 173.655 25.6913 175.996 23.2479 178.48L18.3816 183.347H27.3134V186.765H13.1149Z" fill="white"/>
<line x1="0.581055" y1="193.661" x2="39.0802" y2="193.661" stroke="white" stroke-width="1.92496"/>
<path d="M88.0696 174.014C89.6301 174.384 90.8928 175.113 91.8579 176.201C92.8435 177.269 93.3362 178.614 93.3362 180.236C93.3362 182.392 92.6073 184.086 91.1495 185.318C89.6917 186.55 87.9053 187.166 85.7904 187.166C84.1478 187.166 82.6694 186.786 81.3553 186.026C80.0617 185.266 79.1275 184.158 78.5526 182.7L81.5709 180.944C82.2074 182.792 83.6139 183.716 85.7904 183.716C87.0224 183.716 87.9977 183.408 88.7163 182.792C89.435 182.156 89.7943 181.304 89.7943 180.236C89.7943 179.168 89.435 178.326 88.7163 177.71C87.9977 177.094 87.0224 176.786 85.7904 176.786H84.9896L83.5729 174.661L88.2236 168.532H79.1994V165.206L92.4431 165.206V168.224L88.0696 174.014Z" fill="white"/>
<line x1="66.3687" y1="193.661" x2="104.868" y2="193.661" stroke="white" stroke-width="1.92496"/>
<path d="M154.825 174.767C156.879 174.767 158.614 175.383 160.03 176.615C161.447 177.826 162.156 179.51 162.156 181.666C162.156 183.822 161.427 185.516 159.969 186.748C158.511 187.98 156.725 188.596 154.61 188.596C152.906 188.596 151.396 188.206 150.082 187.426C148.768 186.625 147.834 185.475 147.28 183.976L150.329 182.22C150.904 184.171 152.331 185.146 154.61 185.146C155.821 185.146 156.786 184.838 157.505 184.222C158.244 183.586 158.614 182.734 158.614 181.666C158.614 180.598 158.254 179.757 157.536 179.141C156.817 178.525 155.862 178.217 154.671 178.217H148.388L149.22 166.636L161.232 166.636V169.962H152.485L152.115 174.767H154.825Z" fill="white"/>
<line x1="135.017" y1="195.091" x2="173.516" y2="195.091" stroke="white" stroke-width="1.92496"/>
<path d="M32.0903 65.094H35.1702V86.6536H31.6283V68.8823L27.2856 70.1143L26.4232 67.096L32.0903 65.094Z" fill="white"/>
<line x1="12.0222" y1="93.5494" x2="50.5214" y2="93.5494" stroke="white" stroke-width="1.92496"/>
<path d="M154.573 62.3155V65.611H152.109V69.4917H148.536V65.611H137.942V62.3155L145.364 47.9322H149.214L141.791 62.3155H148.536V56.71H152.109V62.3155H154.573Z" fill="white"/>
<line x1="126.436" y1="76.3875" x2="164.935" y2="76.3875" stroke="white" stroke-width="1.92496"/>
<path d="M246.383 42.5488C248.498 43.7192 249.556 45.4645 249.556 47.7847C249.556 49.7559 248.868 51.3163 247.492 52.4662C246.116 53.5955 244.289 54.1602 242.01 54.1602C239.731 54.1602 237.893 53.5955 236.497 52.4662C235.121 51.3163 234.433 49.7559 234.433 47.7847C234.433 46.6759 234.71 45.6698 235.265 44.7664C235.819 43.8424 236.599 43.1032 237.606 42.5488C235.983 41.4811 235.172 39.9617 235.172 37.9905C235.172 36.0193 235.829 34.4999 237.144 33.4322C238.458 32.344 240.08 31.7998 242.01 31.7998C243.919 31.7998 245.531 32.344 246.845 33.4322C248.18 34.4999 248.847 36.0193 248.847 37.9905C248.847 39.9617 248.026 41.4811 246.383 42.5488ZM242.01 35.157C241.045 35.157 240.254 35.4136 239.638 35.9269C239.022 36.4403 238.714 37.1795 238.714 38.1445C238.714 39.0685 239.022 39.7974 239.638 40.3313C240.275 40.8651 241.065 41.132 242.01 41.132C242.934 41.132 243.714 40.8651 244.351 40.3313C244.987 39.7974 245.305 39.0685 245.305 38.1445C245.305 37.1795 244.987 36.4403 244.351 35.9269C243.735 35.4136 242.954 35.157 242.01 35.157ZM242.01 50.803C243.201 50.803 244.166 50.5156 244.905 49.9406C245.644 49.3452 246.014 48.5136 246.014 47.4459C246.014 46.3782 245.644 45.5569 244.905 44.982C244.166 44.3865 243.201 44.0888 242.01 44.0888C240.798 44.0888 239.823 44.3865 239.084 44.982C238.345 45.5569 237.975 46.3782 237.975 47.4459C237.975 48.5136 238.345 49.3452 239.084 49.9406C239.823 50.5156 240.798 50.803 242.01 50.803Z" fill="white"/>
<line x1="222.257" y1="60.6556" x2="260.757" y2="60.6556" stroke="white" stroke-width="1.92496"/>
<path d="M332.561 47.7418C332.561 49.3844 332.13 50.832 331.268 52.0845L324.461 62.3407H320.395L325.323 55.1029H324.954C322.716 55.1029 320.878 54.4253 319.441 53.0701C318.024 51.6944 317.316 49.9183 317.316 47.7418C317.316 45.5653 318.024 43.7995 319.441 42.4443C320.878 41.0686 322.716 40.3808 324.954 40.3808C327.192 40.3808 329.019 41.0686 330.436 42.4443C331.853 43.7995 332.561 45.5653 332.561 47.7418ZM320.857 47.7418C320.857 48.9327 321.237 49.8978 321.997 50.6369C322.777 51.3761 323.763 51.7457 324.954 51.7457C326.145 51.7457 327.12 51.3864 327.88 50.6677C328.639 49.9286 329.019 48.9533 329.019 47.7418C329.019 46.5304 328.639 45.5653 327.88 44.8467C327.12 44.1075 326.145 43.7379 324.954 43.7379C323.763 43.7379 322.777 44.1075 321.997 44.8467C321.237 45.5653 320.857 46.5304 320.857 47.7418Z" fill="white"/>
<line x1="305.207" y1="69.2365" x2="343.706" y2="69.2365" stroke="white" stroke-width="1.92496"/>
<path d="M244.911 173.787L258.616 173.787V176.867L251.04 195.346H247.313L254.767 177.175H244.911V173.787Z" fill="white"/>
<line x1="232.268" y1="202.242" x2="270.767" y2="202.242" stroke="white" stroke-width="1.92496"/>
<path d="M309.854 179.507H312.934V201.067H309.392V183.296L305.049 184.528L304.187 181.509L309.854 179.507ZM331.169 198.418C329.691 200.451 327.617 201.467 324.948 201.467C322.279 201.467 320.195 200.451 318.696 198.418C317.217 196.386 316.478 193.675 316.478 190.287C316.478 186.899 317.217 184.189 318.696 182.156C320.195 180.123 322.279 179.107 324.948 179.107C327.617 179.107 329.691 180.123 331.169 182.156C332.668 184.189 333.418 186.899 333.418 190.287C333.418 193.675 332.668 196.386 331.169 198.418ZM324.948 198.018C326.55 198.018 327.771 197.351 328.613 196.016C329.455 194.681 329.876 192.772 329.876 190.287C329.876 187.803 329.455 185.893 328.613 184.559C327.771 183.224 326.55 182.557 324.948 182.557C323.367 182.557 322.145 183.224 321.283 184.559C320.441 185.893 320.02 187.803 320.02 190.287C320.02 192.772 320.441 194.681 321.283 196.016C322.145 197.351 323.367 198.018 324.948 198.018Z" fill="white"/>
<line x1="299.486" y1="207.963" x2="337.986" y2="207.963" stroke="white" stroke-width="1.92496"/>
<path d="M409.919 210.971H412.999V232.531H409.457V214.76L405.115 215.992L404.252 212.973L409.919 210.971ZM425.598 219.78C427.159 220.149 428.422 220.878 429.387 221.967C430.372 223.034 430.865 224.379 430.865 226.001C430.865 228.157 430.136 229.851 428.678 231.083C427.22 232.315 425.434 232.931 423.319 232.931C421.677 232.931 420.198 232.551 418.884 231.792C417.591 231.032 416.656 229.923 416.081 228.465L419.1 226.71C419.736 228.558 421.143 229.482 423.319 229.482C424.551 229.482 425.527 229.174 426.245 228.558C426.964 227.921 427.323 227.069 427.323 226.001C427.323 224.934 426.964 224.092 426.245 223.476C425.527 222.86 424.551 222.552 423.319 222.552H422.518L421.102 220.427L425.752 214.298H416.728V210.971L429.972 210.971V213.99L425.598 219.78Z" fill="white"/>
<line x1="398.168" y1="239.427" x2="436.667" y2="239.427" stroke="white" stroke-width="1.92496"/>
<path d="M409.303 148.044H412.383V169.603H408.841V151.832L404.498 153.064L403.636 150.046L409.303 148.044ZM432.035 162.427V165.723H429.571V169.603H425.998V165.723H415.403V162.427L422.826 148.044H426.676L419.253 162.427H425.998V156.822H429.571V162.427H432.035Z" fill="white"/>
<line x1="398.168" y1="176.499" x2="436.667" y2="176.499" stroke="white" stroke-width="1.92496"/>
<path d="M414.135 80.826H417.215V102.385H413.673V84.6143L409.33 85.8463L408.468 82.8279L414.135 80.826ZM427.997 88.957C430.05 88.957 431.785 89.573 433.202 90.8049C434.618 92.0164 435.327 93.7001 435.327 95.856C435.327 98.012 434.598 99.706 433.14 100.938C431.682 102.17 429.896 102.786 427.781 102.786C426.077 102.786 424.568 102.396 423.253 101.616C421.939 100.815 421.005 99.6649 420.451 98.166L423.5 96.4104C424.075 98.361 425.502 99.3364 427.781 99.3364C428.992 99.3364 429.957 99.0284 430.676 98.4124C431.415 97.7759 431.785 96.9237 431.785 95.856C431.785 94.7883 431.426 93.9465 430.707 93.3305C429.988 92.7145 429.033 92.4065 427.843 92.4065H421.56L422.391 80.826H434.403V84.1523H425.656L425.286 88.957H427.997Z" fill="white"/>
<line x1="402.458" y1="109.281" x2="440.957" y2="109.281" stroke="white" stroke-width="1.92496"/>
<path d="M419.855 7.88736H422.935V29.4469H419.393V11.6757L415.05 12.9077L414.188 9.88932L419.855 7.88736ZM433.655 15.1252C435.893 15.1252 437.721 15.8131 439.137 17.1888C440.554 18.5439 441.263 20.3098 441.263 22.4862C441.263 24.6627 440.554 26.4388 439.137 27.8145C437.721 29.1697 435.893 29.8473 433.655 29.8473C431.397 29.8473 429.559 29.1697 428.142 27.8145C426.725 26.4388 426.017 24.6627 426.017 22.4862C426.017 20.8436 426.448 19.396 427.311 18.1435L434.148 7.88736H438.183L433.255 15.1252H433.655ZM433.655 26.4902C434.846 26.4902 435.821 26.1308 436.581 25.4122C437.341 24.673 437.721 23.6977 437.721 22.4862C437.721 21.2748 437.341 20.3098 436.581 19.5911C435.821 18.8519 434.846 18.4823 433.655 18.4823C432.444 18.4823 431.458 18.8519 430.698 19.5911C429.939 20.3098 429.559 21.2748 429.559 22.4862C429.559 23.6977 429.939 24.673 430.698 25.4122C431.458 26.1308 432.444 26.4902 433.655 26.4902Z" fill="white"/>
<line x1="408.179" y1="36.3427" x2="446.678" y2="36.3427" stroke="white" stroke-width="1.92496"/>
<path d="M599.468 9.31754H602.548V30.8771H599.006V13.1059L594.663 14.3378L593.801 11.3195L599.468 9.31754ZM605.322 9.31754H619.028V12.3975L611.451 30.8771H607.724L615.178 12.7055H605.322V9.31754Z" fill="white"/>
<line x1="586.95" y1="37.7729" x2="625.449" y2="37.7729" stroke="white" stroke-width="1.92496"/>
<path d="M743.833 36.5978V33.8258L751.348 26.1568C753.175 24.3294 754.089 22.7483 754.089 21.4137C754.089 20.3665 753.771 19.5555 753.134 18.9806C752.518 18.3851 751.727 18.0874 750.762 18.0874C748.956 18.0874 747.621 18.9806 746.759 20.7669L743.771 19.0114C744.449 17.5741 745.403 16.4858 746.635 15.7466C747.867 15.0074 749.233 14.6378 750.732 14.6378C752.621 14.6378 754.243 15.2333 755.598 16.4242C756.953 17.6151 757.631 19.2372 757.631 21.2905C757.631 23.4875 756.409 25.8283 753.966 28.3128L749.099 33.1791H758.031V36.5978H743.833ZM759.04 15.0382H772.746V18.1182L765.169 36.5978H761.443L768.896 18.4262H759.04V15.0382Z" fill="white"/>
<line x1="738.547" y1="43.4936" x2="777.047" y2="43.4936" stroke="white" stroke-width="1.92496"/>
<path d="M898.412 46.6089V43.8369L905.927 36.1679C907.755 34.3405 908.669 32.7594 908.669 31.4248C908.669 30.3776 908.35 29.5666 907.714 28.9917C907.098 28.3962 906.307 28.0985 905.342 28.0985C903.535 28.0985 902.201 28.9917 901.338 30.778L898.351 29.0225C899.028 27.5852 899.983 26.4969 901.215 25.7577C902.447 25.0185 903.813 24.649 905.311 24.649C907.2 24.649 908.823 25.2444 910.178 26.4353C911.533 27.6262 912.21 29.2483 912.21 31.3016C912.21 33.4986 910.989 35.8394 908.545 38.3239L903.679 43.1902H912.611V46.6089H898.412ZM926.637 35.3979C928.752 36.5683 929.81 38.3136 929.81 40.6338C929.81 42.605 929.122 44.1655 927.746 45.3153C926.37 46.4446 924.543 47.0093 922.264 47.0093C919.985 47.0093 918.147 46.4446 916.751 45.3153C915.375 44.1655 914.687 42.605 914.687 40.6338C914.687 39.525 914.964 38.5189 915.519 37.6155C916.073 36.6915 916.853 35.9523 917.86 35.3979C916.237 34.3302 915.426 32.8108 915.426 30.8396C915.426 28.8685 916.083 27.349 917.398 26.2813C918.712 25.1931 920.334 24.649 922.264 24.649C924.173 24.649 925.785 25.1931 927.099 26.2813C928.434 27.349 929.101 28.8685 929.101 30.8396C929.101 32.8108 928.28 34.3302 926.637 35.3979ZM922.264 28.0061C921.299 28.0061 920.508 28.2627 919.892 28.7761C919.276 29.2894 918.968 30.0286 918.968 30.9936C918.968 31.9176 919.276 32.6465 919.892 33.1804C920.529 33.7142 921.319 33.9812 922.264 33.9812C923.188 33.9812 923.968 33.7142 924.605 33.1804C925.241 32.6465 925.559 31.9176 925.559 30.9936C925.559 30.0286 925.241 29.2894 924.605 28.7761C923.989 28.2627 923.208 28.0061 922.264 28.0061ZM922.264 43.6521C923.455 43.6521 924.42 43.3647 925.159 42.7898C925.898 42.1943 926.268 41.3627 926.268 40.295C926.268 39.2273 925.898 38.406 925.159 37.8311C924.42 37.2356 923.455 36.9379 922.264 36.9379C921.052 36.9379 920.077 37.2356 919.338 37.8311C918.599 38.406 918.229 39.2273 918.229 40.295C918.229 41.3627 918.599 42.1943 919.338 42.7898C920.077 43.3647 921.052 43.6521 922.264 43.6521Z" fill="white"/>
<line x1="894.436" y1="53.5047" x2="932.935" y2="53.5047" stroke="white" stroke-width="1.92496"/>
<path d="M1052.42 33.858C1053.98 34.2276 1055.24 34.9565 1056.21 36.0447C1057.19 37.1124 1057.68 38.4573 1057.68 40.0794C1057.68 42.2354 1056.96 43.9293 1055.5 45.1613C1054.04 46.3933 1052.25 47.0093 1050.14 47.0093C1048.5 47.0093 1047.02 46.6294 1045.7 45.8697C1044.41 45.11 1043.48 44.0012 1042.9 42.5434L1045.92 40.7878C1046.56 42.6358 1047.96 43.5598 1050.14 43.5598C1051.37 43.5598 1052.35 43.2518 1053.06 42.6358C1053.78 41.9993 1054.14 41.1471 1054.14 40.0794C1054.14 39.0117 1053.78 38.1699 1053.06 37.5539C1052.35 36.9379 1051.37 36.6299 1050.14 36.6299H1049.34L1047.92 34.5047L1052.57 28.3757H1043.55V25.0493H1056.79V28.0677L1052.42 33.858ZM1074.33 32.01C1074.33 33.6526 1073.9 35.1002 1073.03 36.3527L1066.23 46.6089H1062.16L1067.09 39.371H1066.72C1064.48 39.371 1062.64 38.6935 1061.21 37.3383C1059.79 35.9626 1059.08 34.1865 1059.08 32.01C1059.08 29.8335 1059.79 28.0677 1061.21 26.7125C1062.64 25.3368 1064.48 24.649 1066.72 24.649C1068.96 24.649 1070.79 25.3368 1072.2 26.7125C1073.62 28.0677 1074.33 29.8335 1074.33 32.01ZM1062.62 32.01C1062.62 33.2009 1063 34.166 1063.76 34.9051C1064.54 35.6443 1065.53 36.0139 1066.72 36.0139C1067.91 36.0139 1068.89 35.6546 1069.65 34.9359C1070.41 34.1968 1070.79 33.2214 1070.79 32.01C1070.79 30.7986 1070.41 29.8335 1069.65 29.1149C1068.89 28.3757 1067.91 28.0061 1066.72 28.0061C1065.53 28.0061 1064.54 28.3757 1063.76 29.1149C1063 29.8335 1062.62 30.7986 1062.62 32.01Z" fill="white"/>
<line x1="1038.88" y1="53.5047" x2="1077.38" y2="53.5047" stroke="white" stroke-width="1.92496"/>
<path d="M1197.08 40.8628V44.1583H1194.62V48.0391H1191.04V44.1583H1180.45V40.8628L1187.87 26.4795H1191.72L1184.3 40.8628H1191.04V35.2573H1194.62V40.8628H1197.08ZM1213.53 45.3903C1212.05 47.4231 1209.98 48.4395 1207.31 48.4395C1204.64 48.4395 1202.55 47.4231 1201.06 45.3903C1199.58 43.3576 1198.84 40.6472 1198.84 37.2593C1198.84 33.8714 1199.58 31.161 1201.06 29.1283C1202.55 27.0955 1204.64 26.0791 1207.31 26.0791C1209.98 26.0791 1212.05 27.0955 1213.53 29.1283C1215.03 31.161 1215.78 33.8714 1215.78 37.2593C1215.78 40.6472 1215.03 43.3576 1213.53 45.3903ZM1207.31 44.9899C1208.91 44.9899 1210.13 44.3226 1210.97 42.988C1211.81 41.6533 1212.24 39.7438 1212.24 37.2593C1212.24 34.7748 1211.81 32.8653 1210.97 31.5306C1210.13 30.196 1208.91 29.5287 1207.31 29.5287C1205.73 29.5287 1204.5 30.196 1203.64 31.5306C1202.8 32.8653 1202.38 34.7748 1202.38 37.2593C1202.38 39.7438 1202.8 41.6533 1203.64 42.988C1204.5 44.3226 1205.73 44.9899 1207.31 44.9899Z" fill="white"/>
<line x1="1179.04" y1="54.9349" x2="1217.54" y2="54.9349" stroke="white" stroke-width="1.92496"/>
<path d="M1312.58 37.4709C1314.63 37.4709 1316.37 38.0869 1317.79 39.3189C1319.2 40.5303 1319.91 42.214 1319.91 44.37C1319.91 46.5259 1319.18 48.2199 1317.72 49.4518C1316.27 50.6838 1314.48 51.2998 1312.37 51.2998C1310.66 51.2998 1309.15 50.9097 1307.84 50.1294C1306.52 49.3286 1305.59 48.1788 1305.04 46.6799L1308.08 44.9243C1308.66 46.875 1310.09 47.8503 1312.37 47.8503C1313.58 47.8503 1314.54 47.5423 1315.26 46.9263C1316 46.2898 1316.37 45.4377 1316.37 44.37C1316.37 43.3022 1316.01 42.4604 1315.29 41.8444C1314.57 41.2284 1313.62 40.9204 1312.43 40.9204H1306.14L1306.98 29.3399H1318.99V32.6662H1310.24L1309.87 37.4709H1312.58ZM1336.58 48.2507C1335.1 50.2834 1333.02 51.2998 1330.36 51.2998C1327.69 51.2998 1325.6 50.2834 1324.1 48.2507C1322.62 46.2179 1321.89 43.5076 1321.89 40.1196C1321.89 36.7317 1322.62 34.0214 1324.1 31.9886C1325.6 29.9559 1327.69 28.9395 1330.36 28.9395C1333.02 28.9395 1335.1 29.9559 1336.58 31.9886C1338.08 34.0214 1338.83 36.7317 1338.83 40.1196C1338.83 43.5076 1338.08 46.2179 1336.58 48.2507ZM1330.36 47.8503C1331.96 47.8503 1333.18 47.183 1334.02 45.8483C1334.86 44.5137 1335.28 42.6041 1335.28 40.1196C1335.28 37.6352 1334.86 35.7256 1334.02 34.391C1333.18 33.0563 1331.96 32.389 1330.36 32.389C1328.77 32.389 1327.55 33.0563 1326.69 34.391C1325.85 35.7256 1325.43 37.6352 1325.43 40.1196C1325.43 42.6041 1325.85 44.5137 1326.69 45.8483C1327.55 47.183 1328.77 47.8503 1330.36 47.8503Z" fill="white"/>
<line x1="1303.46" y1="57.7952" x2="1341.96" y2="57.7952" stroke="white" stroke-width="1.92496"/>
<path d="M1435.39 36.5777C1437.63 36.5777 1439.46 37.2656 1440.88 38.6413C1442.29 39.9964 1443 41.7623 1443 43.9388C1443 46.1152 1442.29 47.8913 1440.88 49.267C1439.46 50.6222 1437.63 51.2998 1435.39 51.2998C1433.14 51.2998 1431.3 50.6222 1429.88 49.267C1428.46 47.8913 1427.76 46.1152 1427.76 43.9388C1427.76 42.2961 1428.19 40.8486 1429.05 39.5961L1435.89 29.3399H1439.92L1434.99 36.5777H1435.39ZM1435.39 47.9427C1436.58 47.9427 1437.56 47.5834 1438.32 46.8647C1439.08 46.1255 1439.46 45.1502 1439.46 43.9388C1439.46 42.7273 1439.08 41.7623 1438.32 41.0436C1437.56 40.3044 1436.58 39.9348 1435.39 39.9348C1434.18 39.9348 1433.2 40.3044 1432.44 41.0436C1431.68 41.7623 1431.3 42.7273 1431.3 43.9388C1431.3 45.1502 1431.68 46.1255 1432.44 46.8647C1433.2 47.5834 1434.18 47.9427 1435.39 47.9427ZM1459.69 48.2507C1458.21 50.2834 1456.14 51.2998 1453.47 51.2998C1450.8 51.2998 1448.72 50.2834 1447.22 48.2507C1445.74 46.2179 1445 43.5076 1445 40.1196C1445 36.7317 1445.74 34.0214 1447.22 31.9886C1448.72 29.9559 1450.8 28.9395 1453.47 28.9395C1456.14 28.9395 1458.21 29.9559 1459.69 31.9886C1461.19 34.0214 1461.94 36.7317 1461.94 40.1196C1461.94 43.5076 1461.19 46.2179 1459.69 48.2507ZM1453.47 47.8503C1455.07 47.8503 1456.29 47.183 1457.14 45.8483C1457.98 44.5137 1458.4 42.6041 1458.4 40.1196C1458.4 37.6352 1457.98 35.7256 1457.14 34.391C1456.29 33.0563 1455.07 32.389 1453.47 32.389C1451.89 32.389 1450.67 33.0563 1449.81 34.391C1448.96 35.7256 1448.54 37.6352 1448.54 40.1196C1448.54 42.6041 1448.96 44.5137 1449.81 45.8483C1450.67 47.183 1451.89 47.8503 1453.47 47.8503Z" fill="white"/>
<line x1="1426.46" y1="57.7952" x2="1464.96" y2="57.7952" stroke="white" stroke-width="1.92496"/>
<path d="M1563.69 40.8682C1565.93 40.8682 1567.76 41.5561 1569.17 42.9318C1570.59 44.287 1571.3 46.0528 1571.3 48.2293C1571.3 50.4058 1570.59 52.1819 1569.17 53.5576C1567.76 54.9127 1565.93 55.5903 1563.69 55.5903C1561.43 55.5903 1559.59 54.9127 1558.18 53.5576C1556.76 52.1819 1556.05 50.4058 1556.05 48.2293C1556.05 46.5867 1556.48 45.1391 1557.35 43.8866L1564.18 33.6304H1568.22L1563.29 40.8682H1563.69ZM1563.69 52.2332C1564.88 52.2332 1565.86 51.8739 1566.62 51.1552C1567.38 50.416 1567.76 49.4407 1567.76 48.2293C1567.76 47.0178 1567.38 46.0528 1566.62 45.3342C1565.86 44.595 1564.88 44.2254 1563.69 44.2254C1562.48 44.2254 1561.49 44.595 1560.73 45.3342C1559.97 46.0528 1559.59 47.0178 1559.59 48.2293C1559.59 49.4407 1559.97 50.416 1560.73 51.1552C1561.49 51.8739 1562.48 52.2332 1563.69 52.2332ZM1576.9 33.6304H1579.98V55.1899H1576.44V37.4187L1572.09 38.6507L1571.23 35.6324L1576.9 33.6304Z" fill="white"/>
<line x1="1549.45" y1="62.0857" x2="1587.95" y2="62.0857" stroke="white" stroke-width="1.92496"/>
<path d="M1678.91 42.2115H1692.62V45.2914L1685.04 63.771H1681.32L1688.77 45.5994H1678.91V42.2115ZM1701.09 50.3425C1703.14 50.3425 1704.88 50.9585 1706.29 52.1904C1707.71 53.4019 1708.42 55.0856 1708.42 57.2415C1708.42 59.3975 1707.69 61.0915 1706.23 62.3234C1704.77 63.5554 1702.99 64.1714 1700.87 64.1714C1699.17 64.1714 1697.66 63.7813 1696.34 63.001C1695.03 62.2002 1694.1 61.0504 1693.54 59.5515L1696.59 57.7959C1697.17 59.7465 1698.59 60.7219 1700.87 60.7219C1702.08 60.7219 1703.05 60.4139 1703.77 59.7979C1704.51 59.1614 1704.88 58.3092 1704.88 57.2415C1704.88 56.1738 1704.52 55.332 1703.8 54.716C1703.08 54.1 1702.12 53.792 1700.93 53.792H1694.65L1695.48 42.2115H1707.49V45.5378H1698.75L1698.38 50.3425H1701.09Z" fill="white"/>
<line x1="1675.31" y1="70.6668" x2="1713.81" y2="70.6668" stroke="white" stroke-width="1.92496"/>
<path d="M1823.51 40.7813H1837.22V43.8612L1829.64 62.3408H1825.91L1833.37 44.1692H1823.51V40.7813ZM1845.32 48.0191C1847.56 48.0191 1849.39 48.707 1850.8 50.0827C1852.22 51.4379 1852.93 53.2037 1852.93 55.3802C1852.93 57.5567 1852.22 59.3328 1850.8 60.7085C1849.39 62.0636 1847.56 62.7412 1845.32 62.7412C1843.06 62.7412 1841.23 62.0636 1839.81 60.7085C1838.39 59.3328 1837.68 57.5567 1837.68 55.3802C1837.68 53.7375 1838.11 52.29 1838.98 51.0375L1845.81 40.7813H1849.85L1844.92 48.0191H1845.32ZM1845.32 59.3841C1846.51 59.3841 1847.49 59.0248 1848.25 58.3061C1849.01 57.5669 1849.39 56.5916 1849.39 55.3802C1849.39 54.1687 1849.01 53.2037 1848.25 52.485C1847.49 51.7458 1846.51 51.3763 1845.32 51.3763C1844.11 51.3763 1843.12 51.7458 1842.37 52.485C1841.61 53.2037 1841.23 54.1687 1841.23 55.3802C1841.23 56.5916 1841.61 57.5669 1842.37 58.3061C1843.12 59.0248 1844.11 59.3841 1845.32 59.3841Z" fill="white"/>
<line x1="1819.75" y1="69.2366" x2="1858.25" y2="69.2366" stroke="white" stroke-width="1.92496"/>
<path d="M1825.17 160.915H1838.87V163.995L1831.3 182.475H1827.57L1835.02 164.303H1825.17V160.915ZM1840.27 160.915H1853.97V163.995L1846.39 182.475H1842.67L1850.12 164.303H1840.27V160.915Z" fill="white"/>
<line x1="1821.18" y1="189.371" x2="1859.68" y2="189.371" stroke="white" stroke-width="1.92496"/>
<path d="M1823.67 251.016H1837.37V254.096L1829.8 272.575H1826.07L1833.52 254.404H1823.67V251.016ZM1850.73 261.364C1852.85 262.535 1853.9 264.28 1853.9 266.6C1853.9 268.572 1853.22 270.132 1851.84 271.282C1850.47 272.411 1848.64 272.976 1846.36 272.976C1844.08 272.976 1842.24 272.411 1840.85 271.282C1839.47 270.132 1838.78 268.572 1838.78 266.6C1838.78 265.492 1839.06 264.485 1839.61 263.582C1840.17 262.658 1840.95 261.919 1841.95 261.364C1840.33 260.297 1839.52 258.777 1839.52 256.806C1839.52 254.835 1840.18 253.316 1841.49 252.248C1842.81 251.16 1844.43 250.616 1846.36 250.616C1848.27 250.616 1849.88 251.16 1851.19 252.248C1852.53 253.316 1853.2 254.835 1853.2 256.806C1853.2 258.777 1852.37 260.297 1850.73 261.364ZM1846.36 253.973C1845.39 253.973 1844.6 254.229 1843.99 254.743C1843.37 255.256 1843.06 255.995 1843.06 256.96C1843.06 257.884 1843.37 258.613 1843.99 259.147C1844.62 259.681 1845.41 259.948 1846.36 259.948C1847.28 259.948 1848.06 259.681 1848.7 259.147C1849.34 258.613 1849.65 257.884 1849.65 256.96C1849.65 255.995 1849.34 255.256 1848.7 254.743C1848.08 254.229 1847.3 253.973 1846.36 253.973ZM1846.36 269.619C1847.55 269.619 1848.51 269.331 1849.25 268.756C1849.99 268.161 1850.36 267.329 1850.36 266.262C1850.36 265.194 1849.99 264.373 1849.25 263.798C1848.51 263.202 1847.55 262.904 1846.36 262.904C1845.15 262.904 1844.17 263.202 1843.43 263.798C1842.69 264.373 1842.32 265.194 1842.32 266.262C1842.32 267.329 1842.69 268.161 1843.43 268.756C1844.17 269.331 1845.15 269.619 1846.36 269.619Z" fill="white"/>
<line x1="1819.75" y1="279.471" x2="1858.25" y2="279.471" stroke="white" stroke-width="1.92496"/>
<path d="M1734.94 346.837H1748.64V349.917L1741.07 368.397H1737.34L1744.79 350.225H1734.94V346.837ZM1765.59 353.798C1765.59 355.44 1765.16 356.888 1764.3 358.14L1757.49 368.397H1753.43L1758.35 361.159H1757.98C1755.75 361.159 1753.91 360.481 1752.47 359.126C1751.05 357.75 1750.35 355.974 1750.35 353.798C1750.35 351.621 1751.05 349.855 1752.47 348.5C1753.91 347.125 1755.75 346.437 1757.98 346.437C1760.22 346.437 1762.05 347.125 1763.47 348.5C1764.88 349.855 1765.59 351.621 1765.59 353.798ZM1753.89 353.798C1753.89 354.989 1754.27 355.954 1755.03 356.693C1755.81 357.432 1756.79 357.802 1757.98 357.802C1759.17 357.802 1760.15 357.442 1760.91 356.724C1761.67 355.984 1762.05 355.009 1762.05 353.798C1762.05 352.586 1761.67 351.621 1760.91 350.903C1760.15 350.163 1759.17 349.794 1757.98 349.794C1756.79 349.794 1755.81 350.163 1755.03 350.903C1754.27 351.621 1753.89 352.586 1753.89 353.798Z" fill="white"/>
<line x1="1731.08" y1="375.292" x2="1769.58" y2="375.292" stroke="white" stroke-width="1.92496"/>
<path d="M1668.6 533.096C1670.71 534.267 1671.77 536.012 1671.77 538.332C1671.77 540.303 1671.08 541.864 1669.71 543.014C1668.33 544.143 1666.51 544.708 1664.23 544.708C1661.95 544.708 1660.11 544.143 1658.71 543.014C1657.34 541.864 1656.65 540.303 1656.65 538.332C1656.65 537.223 1656.93 536.217 1657.48 535.314C1658.04 534.39 1658.82 533.651 1659.82 533.096C1658.2 532.029 1657.39 530.509 1657.39 528.538C1657.39 526.567 1658.05 525.047 1659.36 523.98C1660.67 522.891 1662.3 522.347 1664.23 522.347C1666.14 522.347 1667.75 522.891 1669.06 523.98C1670.4 525.047 1671.06 526.567 1671.06 528.538C1671.06 530.509 1670.24 532.029 1668.6 533.096ZM1664.23 525.704C1663.26 525.704 1662.47 525.961 1661.85 526.474C1661.24 526.988 1660.93 527.727 1660.93 528.692C1660.93 529.616 1661.24 530.345 1661.85 530.879C1662.49 531.413 1663.28 531.68 1664.23 531.68C1665.15 531.68 1665.93 531.413 1666.57 530.879C1667.2 530.345 1667.52 529.616 1667.52 528.692C1667.52 527.727 1667.2 526.988 1666.57 526.474C1665.95 525.961 1665.17 525.704 1664.23 525.704ZM1664.23 541.351C1665.42 541.351 1666.38 541.063 1667.12 540.488C1667.86 539.893 1668.23 539.061 1668.23 537.993C1668.23 536.926 1667.86 536.104 1667.12 535.529C1666.38 534.934 1665.42 534.636 1664.23 534.636C1663.01 534.636 1662.04 534.934 1661.3 535.529C1660.56 536.104 1660.19 536.926 1660.19 537.993C1660.19 539.061 1660.56 539.893 1661.3 540.488C1662.04 541.063 1663.01 541.351 1664.23 541.351ZM1688.76 541.659C1687.28 543.691 1685.21 544.708 1682.54 544.708C1679.87 544.708 1677.78 543.691 1676.29 541.659C1674.81 539.626 1674.07 536.915 1674.07 533.527C1674.07 530.14 1674.81 527.429 1676.29 525.396C1677.78 523.364 1679.87 522.347 1682.54 522.347C1685.21 522.347 1687.28 523.364 1688.76 525.396C1690.26 527.429 1691.01 530.14 1691.01 533.527C1691.01 536.915 1690.26 539.626 1688.76 541.659ZM1682.54 541.258C1684.14 541.258 1685.36 540.591 1686.2 539.256C1687.04 537.922 1687.47 536.012 1687.47 533.527C1687.47 531.043 1687.04 529.133 1686.2 527.799C1685.36 526.464 1684.14 525.797 1682.54 525.797C1680.96 525.797 1679.74 526.464 1678.87 527.799C1678.03 529.133 1677.61 531.043 1677.61 533.527C1677.61 536.012 1678.03 537.922 1678.87 539.256C1679.74 540.591 1680.96 541.258 1682.54 541.258Z" fill="white"/>
<line x1="1655.29" y1="551.203" x2="1693.78" y2="551.203" stroke="white" stroke-width="1.92496"/>
<path d="M1666.83 631.778C1668.95 632.948 1670 634.693 1670 637.014C1670 638.985 1669.32 640.545 1667.94 641.695C1666.56 642.825 1664.74 643.389 1662.46 643.389C1660.18 643.389 1658.34 642.825 1656.94 641.695C1655.57 640.545 1654.88 638.985 1654.88 637.014C1654.88 635.905 1655.16 634.899 1655.71 633.995C1656.27 633.071 1657.05 632.332 1658.05 631.778C1656.43 630.71 1655.62 629.191 1655.62 627.22C1655.62 625.248 1656.28 623.729 1657.59 622.661C1658.91 621.573 1660.53 621.029 1662.46 621.029C1664.37 621.029 1665.98 621.573 1667.29 622.661C1668.63 623.729 1669.29 625.248 1669.29 627.22C1669.29 629.191 1668.47 630.71 1666.83 631.778ZM1662.46 624.386C1661.49 624.386 1660.7 624.643 1660.09 625.156C1659.47 625.669 1659.16 626.408 1659.16 627.374C1659.16 628.297 1659.47 629.026 1660.09 629.56C1660.72 630.094 1661.51 630.361 1662.46 630.361C1663.38 630.361 1664.16 630.094 1664.8 629.56C1665.43 629.026 1665.75 628.297 1665.75 627.374C1665.75 626.408 1665.43 625.669 1664.8 625.156C1664.18 624.643 1663.4 624.386 1662.46 624.386ZM1662.46 640.032C1663.65 640.032 1664.61 639.745 1665.35 639.17C1666.09 638.574 1666.46 637.743 1666.46 636.675C1666.46 635.607 1666.09 634.786 1665.35 634.211C1664.61 633.616 1663.65 633.318 1662.46 633.318C1661.25 633.318 1660.27 633.616 1659.53 634.211C1658.79 634.786 1658.42 635.607 1658.42 636.675C1658.42 637.743 1658.79 638.574 1659.53 639.17C1660.27 639.745 1661.25 640.032 1662.46 640.032ZM1676.53 621.429H1679.61V642.989H1676.07V625.218L1671.73 626.45L1670.87 623.431L1676.53 621.429Z" fill="white"/>
<line x1="1648.13" y1="649.885" x2="1686.63" y2="649.885" stroke="white" stroke-width="1.92496"/>
<path d="M1635.45 711.867C1637.56 713.038 1638.62 714.783 1638.62 717.103C1638.62 719.074 1637.93 720.635 1636.55 721.785C1635.18 722.914 1633.35 723.479 1631.07 723.479C1628.79 723.479 1626.96 722.914 1625.56 721.785C1624.18 720.635 1623.5 719.074 1623.5 717.103C1623.5 715.994 1623.77 714.988 1624.33 714.085C1624.88 713.161 1625.66 712.422 1626.67 711.867C1625.05 710.8 1624.23 709.28 1624.23 707.309C1624.23 705.338 1624.89 703.818 1626.21 702.751C1627.52 701.662 1629.14 701.118 1631.07 701.118C1632.98 701.118 1634.59 701.662 1635.91 702.751C1637.24 703.818 1637.91 705.338 1637.91 707.309C1637.91 709.28 1637.09 710.8 1635.45 711.867ZM1631.07 704.475C1630.11 704.475 1629.32 704.732 1628.7 705.245C1628.08 705.759 1627.78 706.498 1627.78 707.463C1627.78 708.387 1628.08 709.116 1628.7 709.65C1629.34 710.184 1630.13 710.451 1631.07 710.451C1632 710.451 1632.78 710.184 1633.41 709.65C1634.05 709.116 1634.37 708.387 1634.37 707.463C1634.37 706.498 1634.05 705.759 1633.41 705.245C1632.8 704.732 1632.02 704.475 1631.07 704.475ZM1631.07 720.122C1632.26 720.122 1633.23 719.834 1633.97 719.259C1634.71 718.664 1635.08 717.832 1635.08 716.764C1635.08 715.697 1634.71 714.875 1633.97 714.3C1633.23 713.705 1632.26 713.407 1631.07 713.407C1629.86 713.407 1628.89 713.705 1628.15 714.3C1627.41 714.875 1627.04 715.697 1627.04 716.764C1627.04 717.832 1627.41 718.664 1628.15 719.259C1628.89 719.834 1629.86 720.122 1631.07 720.122ZM1640.34 723.078V720.306L1647.85 712.637C1649.68 710.81 1650.59 709.229 1650.59 707.894C1650.59 706.847 1650.27 706.036 1649.64 705.461C1649.02 704.866 1648.23 704.568 1647.27 704.568C1645.46 704.568 1644.12 705.461 1643.26 707.247L1640.27 705.492C1640.95 704.055 1641.91 702.966 1643.14 702.227C1644.37 701.488 1645.74 701.118 1647.24 701.118C1649.12 701.118 1650.75 701.714 1652.1 702.905C1653.46 704.096 1654.13 705.718 1654.13 707.771C1654.13 709.968 1652.91 712.309 1650.47 714.793L1645.6 719.66H1654.53V723.078H1640.34Z" fill="white"/>
<line x1="1619.53" y1="729.974" x2="1658.03" y2="729.974" stroke="white" stroke-width="1.92496"/>
<path d="M1585.83 814.839C1587.94 816.01 1589 817.755 1589 820.075C1589 822.046 1588.31 823.607 1586.94 824.757C1585.56 825.886 1583.73 826.451 1581.46 826.451C1579.18 826.451 1577.34 825.886 1575.94 824.757C1574.57 823.607 1573.88 822.046 1573.88 820.075C1573.88 818.966 1574.16 817.96 1574.71 817.057C1575.26 816.133 1576.04 815.394 1577.05 814.839C1575.43 813.772 1574.62 812.252 1574.62 810.281C1574.62 808.31 1575.27 806.79 1576.59 805.723C1577.9 804.634 1579.53 804.09 1581.46 804.09C1583.36 804.09 1584.98 804.634 1586.29 805.723C1587.63 806.79 1588.29 808.31 1588.29 810.281C1588.29 812.252 1587.47 813.772 1585.83 814.839ZM1581.46 807.447C1580.49 807.447 1579.7 807.704 1579.08 808.217C1578.47 808.731 1578.16 809.47 1578.16 810.435C1578.16 811.359 1578.47 812.088 1579.08 812.622C1579.72 813.156 1580.51 813.423 1581.46 813.423C1582.38 813.423 1583.16 813.156 1583.8 812.622C1584.43 812.088 1584.75 811.359 1584.75 810.435C1584.75 809.47 1584.43 808.731 1583.8 808.217C1583.18 807.704 1582.4 807.447 1581.46 807.447ZM1581.46 823.094C1582.65 823.094 1583.61 822.806 1584.35 822.231C1585.09 821.636 1585.46 820.804 1585.46 819.736C1585.46 818.669 1585.09 817.847 1584.35 817.272C1583.61 816.677 1582.65 816.379 1581.46 816.379C1580.24 816.379 1579.27 816.677 1578.53 817.272C1577.79 817.847 1577.42 818.669 1577.42 819.736C1577.42 820.804 1577.79 821.636 1578.53 822.231C1579.27 822.806 1580.24 823.094 1581.46 823.094ZM1599.9 813.299C1601.46 813.669 1602.72 814.398 1603.69 815.486C1604.67 816.554 1605.17 817.899 1605.17 819.521C1605.17 821.677 1604.44 823.371 1602.98 824.603C1601.52 825.835 1599.74 826.451 1597.62 826.451C1595.98 826.451 1594.5 826.071 1593.19 825.311C1591.89 824.551 1590.96 823.443 1590.38 821.985L1593.4 820.229C1594.04 822.077 1595.45 823.001 1597.62 823.001C1598.85 823.001 1599.83 822.693 1600.55 822.077C1601.27 821.441 1601.63 820.589 1601.63 819.521C1601.63 818.453 1601.27 817.611 1600.55 816.995C1599.83 816.379 1598.85 816.071 1597.62 816.071H1596.82L1595.4 813.946L1600.06 807.817H1591.03V804.491H1604.27V807.509L1599.9 813.299Z" fill="white"/>
<line x1="1570.91" y1="832.946" x2="1609.4" y2="832.946" stroke="white" stroke-width="1.92496"/>
<path d="M1454.92 758.812C1457.15 758.812 1458.98 759.5 1460.4 760.876C1461.81 762.231 1462.52 763.997 1462.52 766.173C1462.52 768.35 1461.81 770.126 1460.4 771.502C1458.98 772.857 1457.15 773.534 1454.92 773.534C1452.66 773.534 1450.82 772.857 1449.4 771.502C1447.99 770.126 1447.28 768.35 1447.28 766.173C1447.28 764.531 1447.71 763.083 1448.57 761.831L1455.41 751.574H1459.44L1454.51 758.812H1454.92ZM1454.92 770.177C1456.11 770.177 1457.08 769.818 1457.84 769.099C1458.6 768.36 1458.98 767.385 1458.98 766.173C1458.98 764.962 1458.6 763.997 1457.84 763.278C1457.08 762.539 1456.11 762.169 1454.92 762.169C1453.7 762.169 1452.72 762.539 1451.96 763.278C1451.2 763.997 1450.82 764.962 1450.82 766.173C1450.82 767.385 1451.2 768.36 1451.96 769.099C1452.72 769.818 1453.7 770.177 1454.92 770.177ZM1471.7 758.812C1473.94 758.812 1475.76 759.5 1477.18 760.876C1478.6 762.231 1479.31 763.997 1479.31 766.173C1479.31 768.35 1478.6 770.126 1477.18 771.502C1475.76 772.857 1473.94 773.534 1471.7 773.534C1469.44 773.534 1467.6 772.857 1466.19 771.502C1464.77 770.126 1464.06 768.35 1464.06 766.173C1464.06 764.531 1464.49 763.083 1465.35 761.831L1472.19 751.574H1476.23L1471.3 758.812H1471.7ZM1471.7 770.177C1472.89 770.177 1473.86 769.818 1474.62 769.099C1475.38 768.36 1475.76 767.385 1475.76 766.173C1475.76 764.962 1475.38 763.997 1474.62 763.278C1473.86 762.539 1472.89 762.169 1471.7 762.169C1470.49 762.169 1469.5 762.539 1468.74 763.278C1467.98 763.997 1467.6 764.962 1467.6 766.173C1467.6 767.385 1467.98 768.36 1468.74 769.099C1469.5 769.818 1470.49 770.177 1471.7 770.177Z" fill="white"/>
<line x1="1443.62" y1="780.03" x2="1482.12" y2="780.03" stroke="white" stroke-width="1.92496"/>
<path d="M1306.77 723.951C1308.82 723.951 1310.56 724.567 1311.97 725.799C1313.39 727.011 1314.1 728.694 1314.1 730.85C1314.1 733.006 1313.37 734.7 1311.91 735.932C1310.45 737.164 1308.67 737.78 1306.55 737.78C1304.85 737.78 1303.34 737.39 1302.03 736.61C1300.71 735.809 1299.78 734.659 1299.22 733.16L1302.27 731.405C1302.85 733.355 1304.27 734.331 1306.55 734.331C1307.76 734.331 1308.73 734.023 1309.45 733.407C1310.19 732.77 1310.56 731.918 1310.56 730.85C1310.56 729.783 1310.2 728.941 1309.48 728.325C1308.76 727.709 1307.81 727.401 1306.61 727.401H1300.33L1301.16 715.82H1313.17V719.147H1304.43L1304.06 723.951H1306.77ZM1323.25 723.951C1325.3 723.951 1327.04 724.567 1328.46 725.799C1329.87 727.011 1330.58 728.694 1330.58 730.85C1330.58 733.006 1329.85 734.7 1328.39 735.932C1326.94 737.164 1325.15 737.78 1323.04 737.78C1321.33 737.78 1319.82 737.39 1318.51 736.61C1317.19 735.809 1316.26 734.659 1315.71 733.16L1318.75 731.405C1319.33 733.355 1320.76 734.331 1323.04 734.331C1324.25 734.331 1325.21 734.023 1325.93 733.407C1326.67 732.77 1327.04 731.918 1327.04 730.85C1327.04 729.783 1326.68 728.941 1325.96 728.325C1325.24 727.709 1324.29 727.401 1323.1 727.401H1316.81L1317.65 715.82H1329.66V719.147H1320.91L1320.54 723.951H1323.25Z" fill="white"/>
<line x1="1296.31" y1="744.276" x2="1334.81" y2="744.276" stroke="white" stroke-width="1.92496"/>
<path d="M1141.18 678.718V682.013H1138.72V685.894H1135.14V682.013H1124.55V678.718L1131.97 664.334H1135.82L1128.4 678.718H1135.14V673.112H1138.72V678.718H1141.18ZM1150.18 672.465C1152.23 672.465 1153.97 673.081 1155.38 674.313C1156.8 675.525 1157.51 677.208 1157.51 679.364C1157.51 681.52 1156.78 683.214 1155.32 684.446C1153.86 685.678 1152.08 686.294 1149.96 686.294C1148.26 686.294 1146.75 685.904 1145.43 685.124C1144.12 684.323 1143.19 683.173 1142.63 681.674L1145.68 679.919C1146.26 681.869 1147.68 682.845 1149.96 682.845C1151.17 682.845 1152.14 682.537 1152.86 681.921C1153.6 681.284 1153.97 680.432 1153.97 679.364C1153.97 678.297 1153.61 677.455 1152.89 676.839C1152.17 676.223 1151.21 675.915 1150.02 675.915H1143.74L1144.57 664.334H1156.58V667.661H1147.84L1147.47 672.465H1150.18Z" fill="white"/>
<line x1="1121.83" y1="692.79" x2="1160.33" y2="692.79" stroke="white" stroke-width="1.92496"/>
<path d="M970.537 634.528C972.097 634.898 973.36 635.627 974.325 636.715C975.311 637.783 975.804 639.128 975.804 640.75C975.804 642.906 975.075 644.6 973.617 645.832C972.159 647.064 970.373 647.68 968.258 647.68C966.615 647.68 965.137 647.3 963.823 646.54C962.529 645.78 961.595 644.672 961.02 643.214L964.038 641.458C964.675 643.306 966.081 644.23 968.258 644.23C969.49 644.23 970.465 643.922 971.184 643.306C971.902 642.67 972.262 641.818 972.262 640.75C972.262 639.682 971.902 638.84 971.184 638.224C970.465 637.608 969.49 637.3 968.258 637.3H967.457L966.04 635.175L970.691 629.046H961.667V625.72H974.91V628.738L970.537 634.528ZM994.524 640.103V643.399H992.06V647.279H988.487V643.399H977.892V640.103L985.315 625.72H989.165L981.742 640.103H988.487V634.498H992.06V640.103H994.524Z" fill="white"/>
<line x1="957.363" y1="654.175" x2="995.862" y2="654.175" stroke="white" stroke-width="1.92496"/>
<path d="M803.568 593.054C805.129 593.423 806.392 594.152 807.357 595.24C808.342 596.308 808.835 597.653 808.835 599.275C808.835 601.431 808.106 603.125 806.648 604.357C805.19 605.589 803.404 606.205 801.289 606.205C799.647 606.205 798.168 605.825 796.854 605.065C795.56 604.306 794.626 603.197 794.051 601.739L797.07 599.983C797.706 601.831 799.113 602.755 801.289 602.755C802.521 602.755 803.496 602.447 804.215 601.831C804.934 601.195 805.293 600.343 805.293 599.275C805.293 598.207 804.934 597.365 804.215 596.749C803.496 596.133 802.521 595.825 801.289 595.825H800.488L799.072 593.7L803.722 587.571H794.698V584.245H807.942V587.263L803.568 593.054ZM819.9 593.054C821.461 593.423 822.724 594.152 823.689 595.24C824.674 596.308 825.167 597.653 825.167 599.275C825.167 601.431 824.438 603.125 822.98 604.357C821.522 605.589 819.736 606.205 817.621 606.205C815.979 606.205 814.5 605.825 813.186 605.065C811.893 604.306 810.958 603.197 810.383 601.739L813.402 599.983C814.038 601.831 815.445 602.755 817.621 602.755C818.853 602.755 819.829 602.447 820.547 601.831C821.266 601.195 821.625 600.343 821.625 599.275C821.625 598.207 821.266 597.365 820.547 596.749C819.829 596.133 818.853 595.825 817.621 595.825H816.82L815.404 593.7L820.054 587.571H811.03V584.245H824.274V587.263L819.9 593.054Z" fill="white"/>
<line x1="790.034" y1="612.7" x2="828.533" y2="612.7" stroke="white" stroke-width="1.92496"/>
<path d="M617.076 567.19V564.418L624.591 556.749C626.418 554.922 627.332 553.341 627.332 552.006C627.332 550.959 627.014 550.148 626.377 549.573C625.761 548.977 624.971 548.68 624.006 548.68C622.199 548.68 620.864 549.573 620.002 551.359L617.014 549.604C617.692 548.166 618.647 547.078 619.879 546.339C621.11 545.6 622.476 545.23 623.975 545.23C625.864 545.23 627.486 545.825 628.841 547.016C630.196 548.207 630.874 549.829 630.874 551.883C630.874 554.08 629.652 556.42 627.209 558.905L622.342 563.771H631.274V567.19H617.076ZM633.378 567.19V564.418L640.893 556.749C642.72 554.922 643.634 553.341 643.634 552.006C643.634 550.959 643.316 550.148 642.679 549.573C642.063 548.977 641.273 548.68 640.308 548.68C638.501 548.68 637.166 549.573 636.304 551.359L633.316 549.604C633.994 548.166 634.949 547.078 636.18 546.339C637.412 545.6 638.778 545.23 640.277 545.23C642.166 545.23 643.788 545.825 645.143 547.016C646.498 548.207 647.176 549.829 647.176 551.883C647.176 554.08 645.954 556.42 643.511 558.905L638.644 563.771H647.576V567.19H633.378Z" fill="white"/>
<line x1="612.693" y1="574.086" x2="651.192" y2="574.086" stroke="white" stroke-width="1.92496"/>
<path d="M765.044 470.059C766.604 470.429 767.867 471.158 768.832 472.246C769.818 473.314 770.31 474.658 770.31 476.281C770.31 478.437 769.582 480.131 768.124 481.362C766.666 482.594 764.88 483.21 762.765 483.21C761.122 483.21 759.644 482.831 758.33 482.071C757.036 481.311 756.102 480.202 755.527 478.745L758.545 476.989C759.182 478.837 760.588 479.761 762.765 479.761C763.997 479.761 764.972 479.453 765.691 478.837C766.409 478.2 766.769 477.348 766.769 476.281C766.769 475.213 766.409 474.371 765.691 473.755C764.972 473.139 763.997 472.831 762.765 472.831H761.964L760.547 470.706L765.198 464.577H756.174V461.251H769.417V464.269L765.044 470.059ZM772.194 482.81V480.038L779.709 472.369C781.537 470.542 782.45 468.961 782.45 467.626C782.45 466.579 782.132 465.768 781.495 465.193C780.879 464.597 780.089 464.3 779.124 464.3C777.317 464.3 775.982 465.193 775.12 466.979L772.132 465.224C772.81 463.786 773.765 462.698 774.997 461.959C776.229 461.22 777.594 460.85 779.093 460.85C780.982 460.85 782.604 461.446 783.959 462.636C785.315 463.827 785.992 465.449 785.992 467.503C785.992 469.7 784.77 472.041 782.327 474.525L777.461 479.391H786.393V482.81H772.194Z" fill="white"/>
<line x1="751.419" y1="489.706" x2="789.918" y2="489.706" stroke="white" stroke-width="1.92496"/>
<path d="M661.396 464.218V461.446L668.911 453.777C670.738 451.949 671.652 450.368 671.652 449.034C671.652 447.987 671.334 447.176 670.697 446.601C670.081 446.005 669.291 445.707 668.326 445.707C666.519 445.707 665.184 446.601 664.322 448.387L661.334 446.631C662.012 445.194 662.966 444.106 664.198 443.367C665.43 442.628 666.796 442.258 668.295 442.258C670.184 442.258 671.806 442.853 673.161 444.044C674.516 445.235 675.194 446.857 675.194 448.911C675.194 451.108 673.972 453.448 671.529 455.933L666.662 460.799H675.594V464.218H661.396ZM686.729 451.467C688.29 451.837 689.552 452.565 690.517 453.654C691.503 454.721 691.996 456.066 691.996 457.688C691.996 459.844 691.267 461.538 689.809 462.77C688.351 464.002 686.565 464.618 684.45 464.618C682.807 464.618 681.329 464.238 680.015 463.479C678.721 462.719 677.787 461.61 677.212 460.152L680.23 458.397C680.867 460.245 682.273 461.169 684.45 461.169C685.682 461.169 686.657 460.861 687.376 460.245C688.095 459.608 688.454 458.756 688.454 457.688C688.454 456.621 688.095 455.779 687.376 455.163C686.657 454.547 685.682 454.239 684.45 454.239H683.649L682.232 452.114L686.883 445.985H677.859V442.658H691.103V445.677L686.729 451.467Z" fill="white"/>
<line x1="657.028" y1="471.114" x2="695.527" y2="471.114" stroke="white" stroke-width="1.92496"/>
<path d="M563.871 442.765V439.993L571.386 432.324C573.213 430.497 574.127 428.916 574.127 427.581C574.127 426.534 573.808 425.723 573.172 425.148C572.556 424.553 571.765 424.255 570.8 424.255C568.993 424.255 567.659 425.148 566.796 426.935L563.809 425.179C564.487 423.742 565.441 422.653 566.673 421.914C567.905 421.175 569.271 420.805 570.77 420.805C572.659 420.805 574.281 421.401 575.636 422.592C576.991 423.783 577.669 425.405 577.669 427.458C577.669 429.655 576.447 431.996 574.004 434.48L569.137 439.347H578.069V442.765H563.871ZM584.984 421.206H588.064V442.765H584.522V424.994L580.18 426.226L579.317 423.208L584.984 421.206Z" fill="white"/>
<line x1="556.916" y1="449.661" x2="595.415" y2="449.661" stroke="white" stroke-width="1.92496"/>
<path d="M562.364 364.106V361.334L569.879 353.665C571.707 351.838 572.62 350.257 572.62 348.922C572.62 347.875 572.302 347.064 571.666 346.489C571.05 345.894 570.259 345.596 569.294 345.596C567.487 345.596 566.153 346.489 565.29 348.275L562.303 346.52C562.98 345.082 563.935 343.994 565.167 343.255C566.399 342.516 567.764 342.146 569.263 342.146C571.152 342.146 572.774 342.742 574.13 343.933C575.485 345.124 576.162 346.746 576.162 348.799C576.162 350.996 574.941 353.337 572.497 355.821L567.631 360.687H576.563V364.106H562.364ZM593.334 361.457C591.856 363.49 589.782 364.507 587.112 364.507C584.443 364.507 582.359 363.49 580.86 361.457C579.382 359.425 578.643 356.714 578.643 353.326C578.643 349.939 579.382 347.228 580.86 345.195C582.359 343.163 584.443 342.146 587.112 342.146C589.782 342.146 591.856 343.163 593.334 345.195C594.833 347.228 595.582 349.939 595.582 353.326C595.582 356.714 594.833 359.425 593.334 361.457ZM587.112 361.057C588.714 361.057 589.936 360.39 590.778 359.055C591.619 357.72 592.04 355.811 592.04 353.326C592.04 350.842 591.619 348.932 590.778 347.598C589.936 346.263 588.714 345.596 587.112 345.596C585.531 345.596 584.31 346.263 583.447 347.598C582.605 348.932 582.185 350.842 582.185 353.326C582.185 355.811 582.605 357.72 583.447 359.055C584.31 360.39 585.531 361.057 587.112 361.057Z" fill="white"/>
<line x1="559.776" y1="371.002" x2="598.276" y2="371.002" stroke="white" stroke-width="1.92496"/>
<path d="M672.614 384.129V381.357L680.129 373.688C681.957 371.86 682.871 370.279 682.871 368.944C682.871 367.897 682.552 367.086 681.916 366.511C681.3 365.916 680.509 365.618 679.544 365.618C677.737 365.618 676.403 366.511 675.54 368.298L672.553 366.542C673.23 365.105 674.185 364.017 675.417 363.277C676.649 362.538 678.014 362.169 679.513 362.169C681.402 362.169 683.024 362.764 684.38 363.955C685.735 365.146 686.412 366.768 686.412 368.821C686.412 371.018 685.191 373.359 682.747 375.844L677.881 380.71H686.813V384.129H672.614ZM704.85 376.952V380.248H702.386V384.129H698.814V380.248H688.219V376.952L695.641 362.569H699.491L692.069 376.952H698.814V371.347H702.386V376.952H704.85Z" fill="white"/>
<line x1="668.469" y1="391.024" x2="706.968" y2="391.024" stroke="white" stroke-width="1.92496"/>
<path d="M784.778 384.249C786.338 384.619 787.601 385.348 788.566 386.436C789.551 387.504 790.044 388.848 790.044 390.471C790.044 392.626 789.315 394.32 787.857 395.552C786.4 396.784 784.613 397.4 782.498 397.4C780.856 397.4 779.377 397.021 778.063 396.261C776.77 395.501 775.835 394.392 775.261 392.934L778.279 391.179C778.915 393.027 780.322 393.951 782.498 393.951C783.73 393.951 784.706 393.643 785.424 393.027C786.143 392.39 786.502 391.538 786.502 390.471C786.502 389.403 786.143 388.561 785.424 387.945C784.706 387.329 783.73 387.021 782.498 387.021H781.698L780.281 384.896L784.932 378.767H775.907V375.44H789.151V378.459L784.778 384.249ZM796.74 375.44H799.82V397H796.278V379.229L791.935 380.461L791.073 377.442L796.74 375.44Z" fill="white"/>
<line x1="768.581" y1="403.896" x2="807.08" y2="403.896" stroke="white" stroke-width="1.92496"/>
<path d="M970.672 415.713C972.233 416.082 973.496 416.811 974.461 417.899C975.446 418.967 975.939 420.312 975.939 421.934C975.939 424.09 975.21 425.784 973.752 427.016C972.294 428.248 970.508 428.864 968.393 428.864C966.751 428.864 965.272 428.484 963.958 427.724C962.665 426.965 961.73 425.856 961.155 424.398L964.174 422.643C964.81 424.491 966.217 425.414 968.393 425.414C969.625 425.414 970.6 425.106 971.319 424.491C972.038 423.854 972.397 423.002 972.397 421.934C972.397 420.866 972.038 420.025 971.319 419.409C970.6 418.793 969.625 418.485 968.393 418.485H967.592L966.176 416.359L970.826 410.23H961.802V406.904H975.046V409.922L970.672 415.713ZM985.426 414.142C987.664 414.142 989.492 414.83 990.909 416.205C992.325 417.561 993.034 419.326 993.034 421.503C993.034 423.679 992.325 425.456 990.909 426.831C989.492 428.186 987.664 428.864 985.426 428.864C983.168 428.864 981.33 428.186 979.913 426.831C978.497 425.456 977.788 423.679 977.788 421.503C977.788 419.86 978.219 418.413 979.082 417.16L985.919 406.904H989.954L985.026 414.142H985.426ZM985.426 425.507C986.617 425.507 987.593 425.148 988.352 424.429C989.112 423.69 989.492 422.714 989.492 421.503C989.492 420.292 989.112 419.326 988.352 418.608C987.593 417.869 986.617 417.499 985.426 417.499C984.215 417.499 983.229 417.869 982.47 418.608C981.71 419.326 981.33 420.292 981.33 421.503C981.33 422.714 981.71 423.69 982.47 424.429C983.229 425.148 984.215 425.507 985.426 425.507Z" fill="white"/>
<line x1="957.363" y1="435.359" x2="995.862" y2="435.359" stroke="white" stroke-width="1.92496"/>
<path d="M1065.46 434.159V437.454H1062.99V441.335H1059.42V437.454H1048.83V434.159L1056.25 419.776H1060.1L1052.68 434.159H1059.42V428.553H1062.99V434.159H1065.46ZM1076.27 428.584C1077.83 428.954 1079.09 429.683 1080.06 430.771C1081.04 431.839 1081.54 433.184 1081.54 434.806C1081.54 436.962 1080.81 438.656 1079.35 439.888C1077.89 441.12 1076.11 441.736 1073.99 441.736C1072.35 441.736 1070.87 441.356 1069.56 440.596C1068.26 439.836 1067.33 438.728 1066.75 437.27L1069.77 435.514C1070.41 437.362 1071.82 438.286 1073.99 438.286C1075.22 438.286 1076.2 437.978 1076.92 437.362C1077.64 436.726 1078 435.873 1078 434.806C1078 433.738 1077.64 432.896 1076.92 432.28C1076.2 431.664 1075.22 431.356 1073.99 431.356H1073.19L1071.77 429.231L1076.42 423.102H1067.4V419.776H1080.64V422.794L1076.27 428.584Z" fill="white"/>
<line x1="1046.03" y1="448.231" x2="1084.53" y2="448.231" stroke="white" stroke-width="1.92496"/>
<path d="M1156.63 449.891V453.186H1154.16V457.067H1150.59V453.186H1139.99V449.891L1147.42 435.507H1151.27L1143.84 449.891H1150.59V444.285H1154.16V449.891H1156.63ZM1157.01 435.507H1170.72V438.587L1163.14 457.067H1159.41L1166.87 438.895H1157.01V435.507Z" fill="white"/>
<line x1="1136.13" y1="463.963" x2="1174.63" y2="463.963" stroke="white" stroke-width="1.92496"/>
<path d="M1132.37 548.572V551.868H1129.91V555.749H1126.34V551.868H1115.74V548.572L1123.17 534.189H1127.02L1119.59 548.572H1126.34V542.967H1129.91V548.572H1132.37ZM1141.76 541.427C1144 541.427 1145.83 542.115 1147.24 543.491C1148.66 544.846 1149.37 546.612 1149.37 548.788C1149.37 550.964 1148.66 552.741 1147.24 554.116C1145.83 555.471 1144 556.149 1141.76 556.149C1139.5 556.149 1137.66 555.471 1136.25 554.116C1134.83 552.741 1134.12 550.964 1134.12 548.788C1134.12 547.145 1134.55 545.698 1135.42 544.445L1142.25 534.189H1146.29L1141.36 541.427H1141.76ZM1141.76 552.792C1142.95 552.792 1143.93 552.433 1144.69 551.714C1145.45 550.975 1145.83 549.999 1145.83 548.788C1145.83 547.577 1145.45 546.612 1144.69 545.893C1143.93 545.154 1142.95 544.784 1141.76 544.784C1140.55 544.784 1139.56 545.154 1138.8 545.893C1138.04 546.612 1137.66 547.577 1137.66 548.788C1137.66 549.999 1138.04 550.975 1138.8 551.714C1139.56 552.433 1140.55 552.792 1141.76 552.792Z" fill="white"/>
<line x1="1113.25" y1="562.644" x2="1151.75" y2="562.644" stroke="white" stroke-width="1.92496"/>
<path d="M1043.95 534.271V537.566H1041.49V541.447H1037.92V537.566H1027.32V534.271L1034.74 519.887H1038.59L1031.17 534.271H1037.92V528.665H1041.49V534.271H1043.95ZM1062.12 534.271V537.566H1059.66V541.447H1056.08V537.566H1045.49V534.271L1052.91 519.887H1056.76L1049.34 534.271H1056.08V528.665H1059.66V534.271H1062.12Z" fill="white"/>
<line x1="1026.01" y1="548.343" x2="1064.51" y2="548.343" stroke="white" stroke-width="1.92496"/>
<path d="M950.725 512.964C952.286 513.334 953.548 514.063 954.513 515.151C955.499 516.219 955.992 517.564 955.992 519.186C955.992 521.342 955.263 523.036 953.805 524.268C952.347 525.499 950.561 526.115 948.446 526.115C946.803 526.115 945.325 525.736 944.011 524.976C942.717 524.216 941.783 523.107 941.208 521.65L944.226 519.894C944.863 521.742 946.269 522.666 948.446 522.666C949.678 522.666 950.653 522.358 951.372 521.742C952.09 521.105 952.45 520.253 952.45 519.186C952.45 518.118 952.09 517.276 951.372 516.66C950.653 516.044 949.678 515.736 948.446 515.736H947.645L946.228 513.611L950.879 507.482H941.855V504.156H955.099V507.174L950.725 512.964ZM965.39 512.287C967.444 512.287 969.179 512.903 970.595 514.135C972.012 515.346 972.721 517.03 972.721 519.186C972.721 521.342 971.992 523.036 970.534 524.268C969.076 525.499 967.29 526.115 965.175 526.115C963.471 526.115 961.961 525.725 960.647 524.945C959.333 524.144 958.399 522.994 957.845 521.496L960.894 519.74C961.469 521.691 962.896 522.666 965.175 522.666C966.386 522.666 967.351 522.358 968.07 521.742C968.809 521.105 969.179 520.253 969.179 519.186C969.179 518.118 968.819 517.276 968.101 516.66C967.382 516.044 966.427 515.736 965.236 515.736H958.953L959.785 504.156H971.797V507.482H963.05L962.68 512.287H965.39Z" fill="white"/>
<line x1="937.341" y1="532.611" x2="975.84" y2="532.611" stroke="white" stroke-width="1.92496"/>
<path d="M1235.28 552.331C1237.34 552.331 1239.07 552.947 1240.49 554.179C1241.91 555.391 1242.61 557.074 1242.61 559.23C1242.61 561.386 1241.88 563.08 1240.43 564.312C1238.97 565.544 1237.18 566.16 1235.07 566.16C1233.36 566.16 1231.85 565.77 1230.54 564.99C1229.23 564.189 1228.29 563.039 1227.74 561.54L1230.79 559.785C1231.36 561.735 1232.79 562.711 1235.07 562.711C1236.28 562.711 1237.24 562.403 1237.96 561.787C1238.7 561.15 1239.07 560.298 1239.07 559.23C1239.07 558.163 1238.71 557.321 1237.99 556.705C1237.28 556.089 1236.32 555.781 1235.13 555.781H1228.85L1229.68 544.2H1241.69V547.527H1232.94L1232.57 552.331H1235.28ZM1260.94 558.584V561.879H1258.47V565.76H1254.9V561.879H1244.31V558.584L1251.73 544.2H1255.58L1248.16 558.584H1254.9V552.978H1258.47V558.584H1260.94Z" fill="white"/>
<line x1="1224.8" y1="572.656" x2="1263.3" y2="572.656" stroke="white" stroke-width="1.92496"/>
<path d="M1259.65 443.639C1261.7 443.639 1263.44 444.254 1264.85 445.486C1266.27 446.698 1266.98 448.382 1266.98 450.538C1266.98 452.694 1266.25 454.387 1264.79 455.619C1263.33 456.851 1261.55 457.467 1259.43 457.467C1257.73 457.467 1256.22 457.077 1254.9 456.297C1253.59 455.496 1252.66 454.346 1252.1 452.848L1255.15 451.092C1255.73 453.043 1257.15 454.018 1259.43 454.018C1260.64 454.018 1261.61 453.71 1262.33 453.094C1263.07 452.457 1263.44 451.605 1263.44 450.538C1263.44 449.47 1263.08 448.628 1262.36 448.012C1261.64 447.396 1260.68 447.088 1259.49 447.088H1253.21L1254.04 435.507H1266.05V438.834H1257.31L1256.94 443.639H1259.65ZM1277.95 444.316C1279.51 444.686 1280.77 445.415 1281.74 446.503C1282.72 447.571 1283.21 448.915 1283.21 450.538C1283.21 452.694 1282.49 454.387 1281.03 455.619C1279.57 456.851 1277.78 457.467 1275.67 457.467C1274.03 457.467 1272.55 457.088 1271.23 456.328C1269.94 455.568 1269.01 454.459 1268.43 453.002L1271.45 451.246C1272.09 453.094 1273.49 454.018 1275.67 454.018C1276.9 454.018 1277.88 453.71 1278.59 453.094C1279.31 452.457 1279.67 451.605 1279.67 450.538C1279.67 449.47 1279.31 448.628 1278.59 448.012C1277.88 447.396 1276.9 447.088 1275.67 447.088H1274.87L1273.45 444.963L1278.1 438.834H1269.08V435.507H1282.32V438.526L1277.95 444.316Z" fill="white"/>
<line x1="1249.12" y1="463.963" x2="1287.62" y2="463.963" stroke="white" stroke-width="1.92496"/>
<path d="M1352.66 473.672C1354.71 473.672 1356.45 474.288 1357.87 475.52C1359.28 476.731 1359.99 478.415 1359.99 480.571C1359.99 482.727 1359.26 484.421 1357.8 485.653C1356.35 486.885 1354.56 487.501 1352.45 487.501C1350.74 487.501 1349.23 487.111 1347.92 486.331C1346.6 485.53 1345.67 484.38 1345.12 482.881L1348.16 481.126C1348.74 483.076 1350.17 484.051 1352.45 484.051C1353.66 484.051 1354.62 483.743 1355.34 483.127C1356.08 482.491 1356.45 481.639 1356.45 480.571C1356.45 479.503 1356.09 478.662 1355.37 478.046C1354.65 477.43 1353.7 477.122 1352.51 477.122H1346.22L1347.06 465.541H1359.07V468.867H1350.32L1349.95 473.672H1352.66ZM1361.14 465.541H1374.84V468.621L1367.26 487.101H1363.54L1370.99 468.929H1361.14V465.541Z" fill="white"/>
<line x1="1340.65" y1="493.996" x2="1379.15" y2="493.996" stroke="white" stroke-width="1.92496"/>
<path d="M1413.84 482.79C1416.08 482.79 1417.91 483.478 1419.32 484.854C1420.74 486.209 1421.45 487.975 1421.45 490.151C1421.45 492.328 1420.74 494.104 1419.32 495.479C1417.91 496.834 1416.08 497.512 1413.84 497.512C1411.58 497.512 1409.75 496.834 1408.33 495.479C1406.91 494.104 1406.2 492.328 1406.2 490.151C1406.2 488.508 1406.63 487.061 1407.5 485.808L1414.33 475.552H1418.37L1413.44 482.79H1413.84ZM1413.84 494.155C1415.03 494.155 1416.01 493.796 1416.77 493.077C1417.53 492.338 1417.91 491.362 1417.91 490.151C1417.91 488.94 1417.53 487.975 1416.77 487.256C1416.01 486.517 1415.03 486.147 1413.84 486.147C1412.63 486.147 1411.65 486.517 1410.89 487.256C1410.13 487.975 1409.75 488.94 1409.75 490.151C1409.75 491.362 1410.13 492.338 1410.89 493.077C1411.65 493.796 1412.63 494.155 1413.84 494.155ZM1439.86 489.935V493.231H1437.39V497.112H1433.82V493.231H1423.23V489.935L1430.65 475.552H1434.5L1427.08 489.935H1433.82V484.33H1437.39V489.935H1439.86Z" fill="white"/>
<line x1="1403.58" y1="504.007" x2="1442.07" y2="504.007" stroke="white" stroke-width="1.92496"/>
<path d="M1480.79 497.092C1483.03 497.092 1484.85 497.78 1486.27 499.155C1487.69 500.51 1488.4 502.276 1488.4 504.453C1488.4 506.629 1487.69 508.405 1486.27 509.781C1484.85 511.136 1483.03 511.814 1480.79 511.814C1478.53 511.814 1476.69 511.136 1475.28 509.781C1473.86 508.405 1473.15 506.629 1473.15 504.453C1473.15 502.81 1473.58 501.363 1474.44 500.11L1481.28 489.854H1485.32L1480.39 497.092H1480.79ZM1480.79 508.457C1481.98 508.457 1482.95 508.097 1483.71 507.379C1484.47 506.64 1484.85 505.664 1484.85 504.453C1484.85 503.241 1484.47 502.276 1483.71 501.558C1482.95 500.818 1481.98 500.449 1480.79 500.449C1479.58 500.449 1478.59 500.818 1477.83 501.558C1477.07 502.276 1476.69 503.241 1476.69 504.453C1476.69 505.664 1477.07 506.64 1477.83 507.379C1478.59 508.097 1479.58 508.457 1480.79 508.457ZM1504.25 496.815C1504.25 498.457 1503.82 499.905 1502.95 501.157L1496.15 511.413H1492.08L1497.01 504.176H1496.64C1494.4 504.176 1492.56 503.498 1491.13 502.143C1489.71 500.767 1489 498.991 1489 496.815C1489 494.638 1489.71 492.872 1491.13 491.517C1492.56 490.141 1494.4 489.454 1496.64 489.454C1498.88 489.454 1500.7 490.141 1502.12 491.517C1503.54 492.872 1504.25 494.638 1504.25 496.815ZM1492.54 496.815C1492.54 498.005 1492.92 498.971 1493.68 499.71C1494.46 500.449 1495.45 500.818 1496.64 500.818C1497.83 500.818 1498.81 500.459 1499.56 499.741C1500.32 499.001 1500.7 498.026 1500.7 496.815C1500.7 495.603 1500.32 494.638 1499.56 493.919C1498.81 493.18 1497.83 492.811 1496.64 492.811C1495.45 492.811 1494.46 493.18 1493.68 493.919C1492.92 494.638 1492.54 495.603 1492.54 496.815Z" fill="white"/>
<line x1="1469.36" y1="518.309" x2="1507.86" y2="518.309" stroke="white" stroke-width="1.92496"/>
<path d="M1547.29 499.865H1561V502.945L1553.42 521.425H1549.7L1557.15 503.253H1547.29V499.865ZM1577.25 518.776C1575.77 520.809 1573.7 521.825 1571.03 521.825C1568.36 521.825 1566.28 520.809 1564.78 518.776C1563.3 516.743 1562.56 514.033 1562.56 510.645C1562.56 507.257 1563.3 504.547 1564.78 502.514C1566.28 500.481 1568.36 499.465 1571.03 499.465C1573.7 499.465 1575.77 500.481 1577.25 502.514C1578.75 504.547 1579.5 507.257 1579.5 510.645C1579.5 514.033 1578.75 516.743 1577.25 518.776ZM1571.03 518.375C1572.63 518.375 1573.85 517.708 1574.7 516.373C1575.54 515.039 1575.96 513.129 1575.96 510.645C1575.96 508.16 1575.54 506.251 1574.7 504.916C1573.85 503.581 1572.63 502.914 1571.03 502.914C1569.45 502.914 1568.23 503.581 1567.37 504.916C1566.52 506.251 1566.1 508.16 1566.1 510.645C1566.1 513.129 1566.52 515.039 1567.37 516.373C1568.23 517.708 1569.45 518.375 1571.03 518.375Z" fill="white"/>
<line x1="1545.16" y1="528.32" x2="1583.66" y2="528.32" stroke="white" stroke-width="1.92496"/>
<path d="M1516.55 624.377C1518.79 624.377 1520.62 625.064 1522.03 626.44C1523.45 627.795 1524.16 629.561 1524.16 631.738C1524.16 633.914 1523.45 635.69 1522.03 637.066C1520.62 638.421 1518.79 639.099 1516.55 639.099C1514.29 639.099 1512.45 638.421 1511.04 637.066C1509.62 635.69 1508.91 633.914 1508.91 631.738C1508.91 630.095 1509.34 628.647 1510.21 627.395L1517.04 617.139H1521.08L1516.15 624.377H1516.55ZM1516.55 635.742C1517.74 635.742 1518.72 635.382 1519.48 634.664C1520.24 633.924 1520.62 632.949 1520.62 631.738C1520.62 630.526 1520.24 629.561 1519.48 628.842C1518.72 628.103 1517.74 627.734 1516.55 627.734C1515.34 627.734 1514.35 628.103 1513.59 628.842C1512.83 629.561 1512.45 630.526 1512.45 631.738C1512.45 632.949 1512.83 633.924 1513.59 634.664C1514.35 635.382 1515.34 635.742 1516.55 635.742ZM1537.95 627.487C1540.07 628.658 1541.13 630.403 1541.13 632.723C1541.13 634.694 1540.44 636.255 1539.06 637.405C1537.69 638.534 1535.86 639.099 1533.58 639.099C1531.3 639.099 1529.46 638.534 1528.07 637.405C1526.69 636.255 1526 634.694 1526 632.723C1526 631.614 1526.28 630.608 1526.83 629.705C1527.39 628.781 1528.17 628.042 1529.18 627.487C1527.55 626.42 1526.74 624.9 1526.74 622.929C1526.74 620.958 1527.4 619.438 1528.71 618.371C1530.03 617.282 1531.65 616.738 1533.58 616.738C1535.49 616.738 1537.1 617.282 1538.42 618.371C1539.75 619.438 1540.42 620.958 1540.42 622.929C1540.42 624.9 1539.6 626.42 1537.95 627.487ZM1533.58 620.095C1532.61 620.095 1531.82 620.352 1531.21 620.865C1530.59 621.379 1530.28 622.118 1530.28 623.083C1530.28 624.007 1530.59 624.736 1531.21 625.27C1531.84 625.804 1532.64 626.071 1533.58 626.071C1534.5 626.071 1535.28 625.804 1535.92 625.27C1536.56 624.736 1536.88 624.007 1536.88 623.083C1536.88 622.118 1536.56 621.379 1535.92 620.865C1535.3 620.352 1534.52 620.095 1533.58 620.095ZM1533.58 635.742C1534.77 635.742 1535.74 635.454 1536.48 634.879C1537.21 634.284 1537.58 633.452 1537.58 632.384C1537.58 631.317 1537.21 630.495 1536.48 629.92C1535.74 629.325 1534.77 629.027 1533.58 629.027C1532.37 629.027 1531.39 629.325 1530.65 629.92C1529.91 630.495 1529.55 631.317 1529.55 632.384C1529.55 633.452 1529.91 634.284 1530.65 634.879C1531.39 635.454 1532.37 635.742 1533.58 635.742Z" fill="white"/>
<line x1="1506.55" y1="645.594" x2="1545.05" y2="645.594" stroke="white" stroke-width="1.92496"/>
<path d="M1453.48 611.505C1455.72 611.505 1457.55 612.193 1458.97 613.569C1460.38 614.924 1461.09 616.69 1461.09 618.866C1461.09 621.043 1460.38 622.819 1458.97 624.194C1457.55 625.55 1455.72 626.227 1453.48 626.227C1451.23 626.227 1449.39 625.55 1447.97 624.194C1446.56 622.819 1445.85 621.043 1445.85 618.866C1445.85 617.223 1446.28 615.776 1447.14 614.523L1453.98 604.267H1458.01L1453.08 611.505H1453.48ZM1453.48 622.87C1454.68 622.87 1455.65 622.511 1456.41 621.792C1457.17 621.053 1457.55 620.078 1457.55 618.866C1457.55 617.655 1457.17 616.69 1456.41 615.971C1455.65 615.232 1454.68 614.862 1453.48 614.862C1452.27 614.862 1451.29 615.232 1450.53 615.971C1449.77 616.69 1449.39 617.655 1449.39 618.866C1449.39 620.078 1449.77 621.053 1450.53 621.792C1451.29 622.511 1452.27 622.87 1453.48 622.87ZM1461.39 604.267H1475.1V607.347L1467.52 625.827H1463.79L1471.25 607.655H1461.39V604.267Z" fill="white"/>
<line x1="1442.19" y1="632.723" x2="1480.69" y2="632.723" stroke="white" stroke-width="1.92496"/>
<path d="M1389.34 595.773C1391.58 595.773 1393.4 596.461 1394.82 597.837C1396.24 599.192 1396.95 600.958 1396.95 603.134C1396.95 605.311 1396.24 607.087 1394.82 608.463C1393.4 609.818 1391.58 610.495 1389.34 610.495C1387.08 610.495 1385.24 609.818 1383.82 608.463C1382.41 607.087 1381.7 605.311 1381.7 603.134C1381.7 601.492 1382.13 600.044 1382.99 598.792L1389.83 588.535H1393.87L1388.94 595.773H1389.34ZM1389.34 607.138C1390.53 607.138 1391.5 606.779 1392.26 606.06C1393.02 605.321 1393.4 604.346 1393.4 603.134C1393.4 601.923 1393.02 600.958 1392.26 600.239C1391.5 599.5 1390.53 599.13 1389.34 599.13C1388.13 599.13 1387.14 599.5 1386.38 600.239C1385.62 600.958 1385.24 601.923 1385.24 603.134C1385.24 604.346 1385.62 605.321 1386.38 606.06C1387.14 606.779 1388.13 607.138 1389.34 607.138ZM1405.88 596.666C1407.94 596.666 1409.67 597.282 1411.09 598.514C1412.5 599.726 1413.21 601.41 1413.21 603.566C1413.21 605.721 1412.48 607.415 1411.03 608.647C1409.57 609.879 1407.78 610.495 1405.67 610.495C1403.96 610.495 1402.45 610.105 1401.14 609.325C1399.82 608.524 1398.89 607.374 1398.34 605.875L1401.39 604.12C1401.96 606.071 1403.39 607.046 1405.67 607.046C1406.88 607.046 1407.84 606.738 1408.56 606.122C1409.3 605.485 1409.67 604.633 1409.67 603.566C1409.67 602.498 1409.31 601.656 1408.59 601.04C1407.87 600.424 1406.92 600.116 1405.73 600.116H1399.44L1400.28 588.535H1412.29V591.862H1403.54L1403.17 596.666H1405.88Z" fill="white"/>
<line x1="1377.83" y1="616.991" x2="1416.33" y2="616.991" stroke="white" stroke-width="1.92496"/>
<path d="M1325.21 580.935C1327.26 580.935 1329 581.551 1330.42 582.782C1331.83 583.994 1332.54 585.678 1332.54 587.834C1332.54 589.99 1331.81 591.683 1330.35 592.915C1328.9 594.147 1327.11 594.763 1324.99 594.763C1323.29 594.763 1321.78 594.373 1320.47 593.593C1319.15 592.792 1318.22 591.642 1317.66 590.144L1320.71 588.388C1321.29 590.339 1322.72 591.314 1324.99 591.314C1326.21 591.314 1327.17 591.006 1327.89 590.39C1328.63 589.753 1329 588.901 1329 587.834C1329 586.766 1328.64 585.924 1327.92 585.308C1327.2 584.692 1326.25 584.384 1325.06 584.384H1318.77L1319.6 572.803H1331.62V576.13H1322.87L1322.5 580.935H1325.21ZM1341.93 580.041C1344.17 580.041 1346 580.729 1347.41 582.105C1348.83 583.46 1349.54 585.226 1349.54 587.402C1349.54 589.579 1348.83 591.355 1347.41 592.731C1346 594.086 1344.17 594.763 1341.93 594.763C1339.67 594.763 1337.84 594.086 1336.42 592.731C1335 591.355 1334.29 589.579 1334.29 587.402C1334.29 585.76 1334.73 584.312 1335.59 583.06L1342.42 572.803H1346.46L1341.53 580.041H1341.93ZM1341.93 591.406C1343.12 591.406 1344.1 591.047 1344.86 590.328C1345.62 589.589 1346 588.614 1346 587.402C1346 586.191 1345.62 585.226 1344.86 584.507C1344.1 583.768 1343.12 583.398 1341.93 583.398C1340.72 583.398 1339.74 583.768 1338.98 584.507C1338.22 585.226 1337.84 586.191 1337.84 587.402C1337.84 588.614 1338.22 589.589 1338.98 590.328C1339.74 591.047 1340.72 591.406 1341.93 591.406Z" fill="white"/>
<line x1="1314.91" y1="601.259" x2="1353.4" y2="601.259" stroke="white" stroke-width="1.92496"/>
<path d="M1007.93 169.724C1009.49 170.094 1010.76 170.822 1011.72 171.911C1012.71 172.978 1013.2 174.323 1013.2 175.945C1013.2 178.101 1012.47 179.795 1011.01 181.027C1009.56 182.259 1007.77 182.875 1005.66 182.875C1004.01 182.875 1002.53 182.495 1001.22 181.736C999.927 180.976 998.992 179.867 998.417 178.409L1001.44 176.654C1002.07 178.502 1003.48 179.426 1005.66 179.426C1006.89 179.426 1007.86 179.118 1008.58 178.502C1009.3 177.865 1009.66 177.013 1009.66 175.945C1009.66 174.878 1009.3 174.036 1008.58 173.42C1007.86 172.804 1006.89 172.496 1005.66 172.496H1004.85L1003.44 170.371L1008.09 164.242H999.064V160.915H1012.31V163.934L1007.93 169.724ZM1027.31 171.264C1029.42 172.434 1030.48 174.18 1030.48 176.5C1030.48 178.471 1029.79 180.031 1028.42 181.181C1027.04 182.311 1025.21 182.875 1022.93 182.875C1020.66 182.875 1018.82 182.311 1017.42 181.181C1016.05 180.031 1015.36 178.471 1015.36 176.5C1015.36 175.391 1015.64 174.385 1016.19 173.481C1016.74 172.557 1017.52 171.818 1018.53 171.264C1016.91 170.196 1016.1 168.677 1016.1 166.706C1016.1 164.734 1016.75 163.215 1018.07 162.147C1019.38 161.059 1021 160.515 1022.93 160.515C1024.84 160.515 1026.46 161.059 1027.77 162.147C1029.11 163.215 1029.77 164.734 1029.77 166.706C1029.77 168.677 1028.95 170.196 1027.31 171.264ZM1022.93 163.872C1021.97 163.872 1021.18 164.129 1020.56 164.642C1019.95 165.155 1019.64 165.895 1019.64 166.86C1019.64 167.784 1019.95 168.512 1020.56 169.046C1021.2 169.58 1021.99 169.847 1022.93 169.847C1023.86 169.847 1024.64 169.58 1025.28 169.046C1025.91 168.512 1026.23 167.784 1026.23 166.86C1026.23 165.895 1025.91 165.155 1025.28 164.642C1024.66 164.129 1023.88 163.872 1022.93 163.872ZM1022.93 179.518C1024.13 179.518 1025.09 179.231 1025.83 178.656C1026.57 178.06 1026.94 177.229 1026.94 176.161C1026.94 175.093 1026.57 174.272 1025.83 173.697C1025.09 173.102 1024.13 172.804 1022.93 172.804C1021.72 172.804 1020.75 173.102 1020.01 173.697C1019.27 174.272 1018.9 175.093 1018.9 176.161C1018.9 177.229 1019.27 178.06 1020.01 178.656C1020.75 179.231 1021.72 179.518 1022.93 179.518Z" fill="white"/>
<line x1="995.978" y1="189.371" x2="1034.48" y2="189.371" stroke="white" stroke-width="1.92496"/>
<path d="M1120.64 179.589V182.885H1118.17V186.765H1114.6V182.885H1104V179.589L1111.43 165.206H1115.28L1107.85 179.589H1114.6V173.984H1118.17V179.589H1120.64ZM1126.45 165.206H1129.53V186.765H1125.99V168.994L1121.64 170.226L1120.78 167.208L1126.45 165.206Z" fill="white"/>
<line x1="1098.95" y1="193.661" x2="1137.45" y2="193.661" stroke="white" stroke-width="1.92496"/>
<path d="M1220.86 186.74V190.036H1218.39V193.916H1214.82V190.036H1204.22V186.74L1211.65 172.357H1215.5L1208.07 186.74H1214.82V181.135H1218.39V186.74H1220.86ZM1236.8 179.317C1236.8 180.96 1236.37 182.408 1235.5 183.66L1228.7 193.916H1224.63L1229.56 186.678H1229.19C1226.95 186.678 1225.11 186.001 1223.68 184.646C1222.26 183.27 1221.55 181.494 1221.55 179.317C1221.55 177.141 1222.26 175.375 1223.68 174.02C1225.11 172.644 1226.95 171.956 1229.19 171.956C1231.43 171.956 1233.25 172.644 1234.67 174.02C1236.09 175.375 1236.8 177.141 1236.8 179.317ZM1225.09 179.317C1225.09 180.508 1225.47 181.473 1226.23 182.213C1227.01 182.952 1228 183.321 1229.19 183.321C1230.38 183.321 1231.36 182.962 1232.12 182.243C1232.87 181.504 1233.25 180.529 1233.25 179.317C1233.25 178.106 1232.87 177.141 1232.12 176.422C1231.36 175.683 1230.38 175.313 1229.19 175.313C1228 175.313 1227.01 175.683 1226.23 176.422C1225.47 177.141 1225.09 178.106 1225.09 179.317Z" fill="white"/>
<line x1="1201.92" y1="200.812" x2="1240.42" y2="200.812" stroke="white" stroke-width="1.92496"/>
<path d="M1315.23 187.639C1317.28 187.639 1319.01 188.254 1320.43 189.486C1321.85 190.698 1322.56 192.382 1322.56 194.538C1322.56 196.694 1321.83 198.387 1320.37 199.619C1318.91 200.851 1317.13 201.467 1315.01 201.467C1313.31 201.467 1311.8 201.077 1310.48 200.297C1309.17 199.496 1308.23 198.346 1307.68 196.848L1310.73 195.092C1311.3 197.043 1312.73 198.018 1315.01 198.018C1316.22 198.018 1317.19 197.71 1317.91 197.094C1318.65 196.457 1319.01 195.605 1319.01 194.538C1319.01 193.47 1318.66 192.628 1317.94 192.012C1317.22 191.396 1316.26 191.088 1315.07 191.088H1308.79L1309.62 179.507H1321.63V182.834H1312.89L1312.52 187.639H1315.23ZM1329.16 179.507H1332.24V201.067H1328.69V183.296L1324.35 184.528L1323.49 181.509L1329.16 179.507Z" fill="white"/>
<line x1="1302.03" y1="207.963" x2="1340.53" y2="207.963" stroke="white" stroke-width="1.92496"/>
<path d="M1416.49 191.929C1418.55 191.929 1420.28 192.545 1421.7 193.777C1423.11 194.988 1423.82 196.672 1423.82 198.828C1423.82 200.984 1423.09 202.678 1421.64 203.91C1420.18 205.142 1418.39 205.758 1416.28 205.758C1414.57 205.758 1413.06 205.368 1411.75 204.588C1410.44 203.787 1409.5 202.637 1408.95 201.138L1412 199.382C1412.57 201.333 1414 202.308 1416.28 202.308C1417.49 202.308 1418.45 202 1419.17 201.384C1419.91 200.748 1420.28 199.896 1420.28 198.828C1420.28 197.76 1419.92 196.919 1419.2 196.303C1418.48 195.687 1417.53 195.379 1416.34 195.379H1410.06L1410.89 183.798H1422.9V187.124H1414.15L1413.78 191.929H1416.49ZM1439.89 190.759C1439.89 192.401 1439.46 193.849 1438.6 195.101L1431.79 205.358H1427.72L1432.65 198.12H1432.28C1430.04 198.12 1428.21 197.442 1426.77 196.087C1425.35 194.711 1424.64 192.935 1424.64 190.759C1424.64 188.582 1425.35 186.816 1426.77 185.461C1428.21 184.085 1430.04 183.398 1432.28 183.398C1434.52 183.398 1436.35 184.085 1437.76 185.461C1439.18 186.816 1439.89 188.582 1439.89 190.759ZM1428.19 190.759C1428.19 191.95 1428.57 192.915 1429.32 193.654C1430.11 194.393 1431.09 194.763 1432.28 194.763C1433.47 194.763 1434.45 194.403 1435.21 193.685C1435.97 192.945 1436.35 191.97 1436.35 190.759C1436.35 189.547 1435.97 188.582 1435.21 187.864C1434.45 187.124 1433.47 186.755 1432.28 186.755C1431.09 186.755 1430.11 187.124 1429.32 187.864C1428.57 188.582 1428.19 189.547 1428.19 190.759Z" fill="white"/>
<line x1="1405.01" y1="212.253" x2="1443.51" y2="212.253" stroke="white" stroke-width="1.92496"/>
<path d="M1520.83 199.617C1523.07 199.617 1524.9 200.305 1526.31 201.68C1527.73 203.036 1528.44 204.801 1528.44 206.978C1528.44 209.154 1527.73 210.931 1526.31 212.306C1524.9 213.661 1523.07 214.339 1520.83 214.339C1518.57 214.339 1516.74 213.661 1515.32 212.306C1513.9 210.931 1513.19 209.154 1513.19 206.978C1513.19 205.335 1513.63 203.888 1514.49 202.635L1521.33 192.379H1525.36L1520.43 199.617H1520.83ZM1520.83 210.982C1522.02 210.982 1523 210.623 1523.76 209.904C1524.52 209.165 1524.9 208.189 1524.9 206.978C1524.9 205.767 1524.52 204.801 1523.76 204.083C1523 203.344 1522.02 202.974 1520.83 202.974C1519.62 202.974 1518.64 203.344 1517.88 204.083C1517.12 204.801 1516.74 205.767 1516.74 206.978C1516.74 208.189 1517.12 209.165 1517.88 209.904C1518.64 210.623 1519.62 210.982 1520.83 210.982ZM1529.71 213.939V211.167L1537.23 203.498C1539.05 201.67 1539.97 200.089 1539.97 198.755C1539.97 197.707 1539.65 196.896 1539.01 196.321C1538.4 195.726 1537.61 195.428 1536.64 195.428C1534.83 195.428 1533.5 196.321 1532.64 198.108L1529.65 196.352C1530.33 194.915 1531.28 193.827 1532.51 193.087C1533.75 192.348 1535.11 191.979 1536.61 191.979C1538.5 191.979 1540.12 192.574 1541.48 193.765C1542.83 194.956 1543.51 196.578 1543.51 198.631C1543.51 200.828 1542.29 203.169 1539.84 205.654L1534.98 210.52H1543.91V213.939H1529.71Z" fill="white"/>
<line x1="1509.41" y1="220.834" x2="1547.91" y2="220.834" stroke="white" stroke-width="1.92496"/>
<path d="M1603.44 198.1H1617.14V201.18L1609.57 219.659H1605.84L1613.29 201.488H1603.44V198.1ZM1628.36 206.908C1629.92 207.278 1631.19 208.007 1632.15 209.095C1633.14 210.163 1633.63 211.508 1633.63 213.13C1633.63 215.286 1632.9 216.98 1631.44 218.212C1629.98 219.444 1628.2 220.06 1626.08 220.06C1624.44 220.06 1622.96 219.68 1621.65 218.92C1620.35 218.16 1619.42 217.052 1618.84 215.594L1621.86 213.838C1622.5 215.686 1623.91 216.61 1626.08 216.61C1627.31 216.61 1628.29 216.302 1629.01 215.686C1629.73 215.05 1630.09 214.197 1630.09 213.13C1630.09 212.062 1629.73 211.22 1629.01 210.604C1628.29 209.988 1627.31 209.68 1626.08 209.68H1625.28L1623.87 207.555L1628.52 201.426H1619.49V198.1H1632.74V201.118L1628.36 206.908Z" fill="white"/>
<line x1="1599.51" y1="226.555" x2="1638.01" y2="226.555" stroke="white" stroke-width="1.92496"/>
<path d="M1681.68 203.82H1695.39V206.9L1687.81 225.38H1684.09L1691.54 207.208H1681.68V203.82ZM1711.83 218.204V221.499H1709.36V225.38H1705.79V221.499H1695.19V218.204L1702.62 203.82H1706.47L1699.04 218.204H1705.79V212.598H1709.36V218.204H1711.83Z" fill="white"/>
<line x1="1678.17" y1="232.276" x2="1716.67" y2="232.276" stroke="white" stroke-width="1.92496"/>
<path d="M1624.49 296.781H1638.2V299.861L1630.62 318.341H1626.89L1634.35 300.169H1624.49V296.781ZM1639.78 318.341V315.569L1647.3 307.9C1649.12 306.072 1650.04 304.491 1650.04 303.157C1650.04 302.11 1649.72 301.299 1649.08 300.724C1648.47 300.128 1647.68 299.83 1646.71 299.83C1644.91 299.83 1643.57 300.724 1642.71 302.51L1639.72 300.754C1640.4 299.317 1641.35 298.229 1642.59 297.49C1643.82 296.75 1645.18 296.381 1646.68 296.381C1648.57 296.381 1650.19 296.976 1651.55 298.167C1652.9 299.358 1653.58 300.98 1653.58 303.034C1653.58 305.231 1652.36 307.571 1649.92 310.056L1645.05 314.922H1653.98V318.341H1639.78Z" fill="white"/>
<line x1="1620.96" y1="325.236" x2="1659.46" y2="325.236" stroke="white" stroke-width="1.92496"/>
<path d="M1604.52 361.139H1618.23V364.219L1610.65 382.698H1606.92L1614.38 364.527H1604.52V361.139ZM1625.37 361.139H1628.45V382.698H1624.91V364.927L1620.57 366.159L1619.71 363.141L1625.37 361.139Z" fill="white"/>
<line x1="1598.08" y1="389.594" x2="1636.58" y2="389.594" stroke="white" stroke-width="1.92496"/>
<path d="M1508.36 322.611C1510.6 322.611 1512.43 323.299 1513.84 324.675C1515.26 326.03 1515.97 327.796 1515.97 329.972C1515.97 332.149 1515.26 333.925 1513.84 335.301C1512.43 336.656 1510.6 337.333 1508.36 337.333C1506.1 337.333 1504.26 336.656 1502.85 335.301C1501.43 333.925 1500.72 332.149 1500.72 329.972C1500.72 328.33 1501.15 326.882 1502.02 325.63L1508.85 315.373H1512.89L1507.96 322.611H1508.36ZM1508.36 333.976C1509.55 333.976 1510.53 333.617 1511.29 332.898C1512.05 332.159 1512.43 331.184 1512.43 329.972C1512.43 328.761 1512.05 327.796 1511.29 327.077C1510.53 326.338 1509.55 325.968 1508.36 325.968C1507.15 325.968 1506.16 326.338 1505.4 327.077C1504.64 327.796 1504.26 328.761 1504.26 329.972C1504.26 331.184 1504.64 332.159 1505.4 332.898C1506.16 333.617 1507.15 333.976 1508.36 333.976ZM1526.87 324.182C1528.43 324.552 1529.7 325.281 1530.66 326.369C1531.65 327.437 1532.14 328.781 1532.14 330.404C1532.14 332.559 1531.41 334.253 1529.95 335.485C1528.49 336.717 1526.71 337.333 1524.59 337.333C1522.95 337.333 1521.47 336.954 1520.16 336.194C1518.86 335.434 1517.93 334.325 1517.35 332.867L1520.37 331.112C1521.01 332.96 1522.42 333.884 1524.59 333.884C1525.82 333.884 1526.8 333.576 1527.52 332.96C1528.24 332.323 1528.6 331.471 1528.6 330.404C1528.6 329.336 1528.24 328.494 1527.52 327.878C1526.8 327.262 1525.82 326.954 1524.59 326.954H1523.79L1522.38 324.829L1527.03 318.7H1518V315.373H1531.25V318.392L1526.87 324.182Z" fill="white"/>
<line x1="1497.97" y1="343.829" x2="1536.47" y2="343.829" stroke="white" stroke-width="1.92496"/>
<path d="M1403.63 310.633C1405.68 310.633 1407.42 311.249 1408.83 312.481C1410.25 313.692 1410.96 315.376 1410.96 317.532C1410.96 319.688 1410.23 321.382 1408.77 322.614C1407.31 323.846 1405.53 324.462 1403.41 324.462C1401.71 324.462 1400.2 324.072 1398.89 323.292C1397.57 322.491 1396.64 321.341 1396.08 319.842L1399.13 318.086C1399.71 320.037 1401.13 321.012 1403.41 321.012C1404.62 321.012 1405.59 320.704 1406.31 320.088C1407.05 319.452 1407.42 318.6 1407.42 317.532C1407.42 316.464 1407.06 315.623 1406.34 315.007C1405.62 314.391 1404.67 314.083 1403.47 314.083H1397.19L1398.02 302.502H1410.04V305.828H1401.29L1400.92 310.633H1403.63ZM1424.97 312.851C1427.09 314.021 1428.14 315.766 1428.14 318.086C1428.14 320.058 1427.45 321.618 1426.08 322.768C1424.7 323.897 1422.88 324.462 1420.6 324.462C1418.32 324.462 1416.48 323.897 1415.08 322.768C1413.71 321.618 1413.02 320.058 1413.02 318.086C1413.02 316.978 1413.3 315.972 1413.85 315.068C1414.41 314.144 1415.19 313.405 1416.19 312.851C1414.57 311.783 1413.76 310.263 1413.76 308.292C1413.76 306.321 1414.42 304.802 1415.73 303.734C1417.04 302.646 1418.67 302.102 1420.6 302.102C1422.51 302.102 1424.12 302.646 1425.43 303.734C1426.77 304.802 1427.43 306.321 1427.43 308.292C1427.43 310.263 1426.61 311.783 1424.97 312.851ZM1420.6 305.459C1419.63 305.459 1418.84 305.715 1418.23 306.229C1417.61 306.742 1417.3 307.481 1417.3 308.446C1417.3 309.37 1417.61 310.099 1418.23 310.633C1418.86 311.167 1419.65 311.434 1420.6 311.434C1421.52 311.434 1422.3 311.167 1422.94 310.633C1423.57 310.099 1423.89 309.37 1423.89 308.446C1423.89 307.481 1423.57 306.742 1422.94 306.229C1422.32 305.715 1421.54 305.459 1420.6 305.459ZM1420.6 321.105C1421.79 321.105 1422.75 320.817 1423.49 320.242C1424.23 319.647 1424.6 318.815 1424.6 317.748C1424.6 316.68 1424.23 315.859 1423.49 315.284C1422.75 314.688 1421.79 314.391 1420.6 314.391C1419.39 314.391 1418.41 314.688 1417.67 315.284C1416.93 315.859 1416.56 316.68 1416.56 317.748C1416.56 318.815 1416.93 319.647 1417.67 320.242C1418.41 320.817 1419.39 321.105 1420.6 321.105Z" fill="white"/>
<line x1="1393.56" y1="330.957" x2="1432.06" y2="330.957" stroke="white" stroke-width="1.92496"/>
<path d="M1304.94 302.052C1306.99 302.052 1308.73 302.668 1310.14 303.9C1311.56 305.111 1312.27 306.795 1312.27 308.951C1312.27 311.107 1311.54 312.801 1310.08 314.033C1308.62 315.265 1306.84 315.881 1304.72 315.881C1303.02 315.881 1301.51 315.491 1300.2 314.71C1298.88 313.91 1297.95 312.76 1297.39 311.261L1300.44 309.505C1301.02 311.456 1302.44 312.431 1304.72 312.431C1305.93 312.431 1306.9 312.123 1307.62 311.507C1308.36 310.871 1308.73 310.019 1308.73 308.951C1308.73 307.883 1308.37 307.041 1307.65 306.425C1306.93 305.809 1305.98 305.501 1304.79 305.501H1298.5L1299.33 293.921H1311.35V297.247H1302.6L1302.23 302.052H1304.94ZM1313.76 315.48V312.709L1321.27 305.039C1323.1 303.212 1324.01 301.631 1324.01 300.296C1324.01 299.249 1323.69 298.438 1323.06 297.863C1322.44 297.268 1321.65 296.97 1320.69 296.97C1318.88 296.97 1317.54 297.863 1316.68 299.65L1313.69 297.894C1314.37 296.457 1315.33 295.368 1316.56 294.629C1317.79 293.89 1319.16 293.521 1320.66 293.521C1322.54 293.521 1324.17 294.116 1325.52 295.307C1326.88 296.498 1327.55 298.12 1327.55 300.173C1327.55 302.37 1326.33 304.711 1323.89 307.195L1319.02 312.062H1327.95V315.48H1313.76Z" fill="white"/>
<line x1="1293.45" y1="322.376" x2="1331.95" y2="322.376" stroke="white" stroke-width="1.92496"/>
<path d="M1210.94 298.293V301.589H1208.48V305.469H1204.91V301.589H1194.31V298.293L1201.73 283.91H1205.58L1198.16 298.293H1204.91V292.688H1208.48V298.293H1210.94ZM1224.65 294.258C1226.76 295.429 1227.82 297.174 1227.82 299.494C1227.82 301.465 1227.13 303.026 1225.76 304.176C1224.38 305.305 1222.55 305.87 1220.27 305.87C1218 305.87 1216.16 305.305 1214.76 304.176C1213.39 303.026 1212.7 301.465 1212.7 299.494C1212.7 298.385 1212.98 297.379 1213.53 296.476C1214.08 295.552 1214.86 294.813 1215.87 294.258C1214.25 293.191 1213.44 291.671 1213.44 289.7C1213.44 287.729 1214.09 286.209 1215.41 285.142C1216.72 284.053 1218.34 283.509 1220.27 283.509C1222.18 283.509 1223.8 284.053 1225.11 285.142C1226.44 286.209 1227.11 287.729 1227.11 289.7C1227.11 291.671 1226.29 293.191 1224.65 294.258ZM1220.27 286.866C1219.31 286.866 1218.52 287.123 1217.9 287.636C1217.29 288.15 1216.98 288.889 1216.98 289.854C1216.98 290.778 1217.29 291.507 1217.9 292.041C1218.54 292.575 1219.33 292.842 1220.27 292.842C1221.2 292.842 1221.98 292.575 1222.62 292.041C1223.25 291.507 1223.57 290.778 1223.57 289.854C1223.57 288.889 1223.25 288.15 1222.62 287.636C1222 287.123 1221.22 286.866 1220.27 286.866ZM1220.27 302.513C1221.47 302.513 1222.43 302.225 1223.17 301.65C1223.91 301.055 1224.28 300.223 1224.28 299.155C1224.28 298.088 1223.91 297.266 1223.17 296.691C1222.43 296.096 1221.47 295.798 1220.27 295.798C1219.06 295.798 1218.09 296.096 1217.35 296.691C1216.61 297.266 1216.24 298.088 1216.24 299.155C1216.24 300.223 1216.61 301.055 1217.35 301.65C1218.09 302.225 1219.06 302.513 1220.27 302.513Z" fill="white"/>
<line x1="1191.91" y1="312.365" x2="1230.41" y2="312.365" stroke="white" stroke-width="1.92496"/>
<path d="M1110.67 286.852V290.147H1108.21V294.028H1104.64V290.147H1094.04V286.852L1101.46 272.468H1105.31L1097.89 286.852H1104.64V281.246H1108.21V286.852H1110.67ZM1112.15 294.028V291.256L1119.67 283.587C1121.5 281.76 1122.41 280.179 1122.41 278.844C1122.41 277.797 1122.09 276.986 1121.46 276.411C1120.84 275.815 1120.05 275.518 1119.08 275.518C1117.28 275.518 1115.94 276.411 1115.08 278.197L1112.09 276.442C1112.77 275.004 1113.72 273.916 1114.96 273.177C1116.19 272.438 1117.55 272.068 1119.05 272.068C1120.94 272.068 1122.56 272.663 1123.92 273.854C1125.27 275.045 1125.95 276.667 1125.95 278.721C1125.95 280.918 1124.73 283.258 1122.29 285.743L1117.42 290.609H1126.35V294.028H1112.15Z" fill="white"/>
<line x1="1090.37" y1="300.924" x2="1128.87" y2="300.924" stroke="white" stroke-width="1.92496"/>
<path d="M1004.41 268.405C1005.97 268.775 1007.23 269.504 1008.2 270.592C1009.18 271.66 1009.67 273.005 1009.67 274.627C1009.67 276.783 1008.95 278.477 1007.49 279.709C1006.03 280.941 1004.24 281.557 1002.13 281.557C1000.49 281.557 999.008 281.177 997.694 280.417C996.4 279.657 995.466 278.549 994.891 277.091L997.909 275.335C998.546 277.183 999.952 278.107 1002.13 278.107C1003.36 278.107 1004.34 277.799 1005.05 277.183C1005.77 276.547 1006.13 275.695 1006.13 274.627C1006.13 273.559 1005.77 272.717 1005.05 272.101C1004.34 271.485 1003.36 271.177 1002.13 271.177H1001.33L999.911 269.052L1004.56 262.923H995.538V259.597H1008.78V262.615L1004.41 268.405ZM1011.22 259.597H1024.92V262.677L1017.34 281.156H1013.62L1021.07 262.985H1011.22V259.597Z" fill="white"/>
<line x1="990.257" y1="288.052" x2="1028.76" y2="288.052" stroke="white" stroke-width="1.92496"/>
<path d="M796.632 248.383C798.193 248.753 799.456 249.482 800.421 250.57C801.406 251.638 801.899 252.982 801.899 254.605C801.899 256.761 801.17 258.454 799.712 259.686C798.254 260.918 796.468 261.534 794.353 261.534C792.71 261.534 791.232 261.155 789.918 260.395C788.624 259.635 787.69 258.526 787.115 257.069L790.134 255.313C790.77 257.161 792.177 258.085 794.353 258.085C795.585 258.085 796.56 257.777 797.279 257.161C797.998 256.524 798.357 255.672 798.357 254.605C798.357 253.537 797.998 252.695 797.279 252.079C796.56 251.463 795.585 251.155 794.353 251.155H793.552L792.136 249.03L796.786 242.901H787.762V239.574H801.006V242.593L796.632 248.383ZM818.901 258.485C817.423 260.518 815.349 261.534 812.68 261.534C810.011 261.534 807.927 260.518 806.428 258.485C804.949 256.453 804.21 253.742 804.21 250.354C804.21 246.966 804.949 244.256 806.428 242.223C807.927 240.19 810.011 239.174 812.68 239.174C815.349 239.174 817.423 240.19 818.901 242.223C820.4 244.256 821.15 246.966 821.15 250.354C821.15 253.742 820.4 256.453 818.901 258.485ZM812.68 258.085C814.282 258.085 815.503 257.418 816.345 256.083C817.187 254.748 817.608 252.839 817.608 250.354C817.608 247.87 817.187 245.96 816.345 244.626C815.503 243.291 814.282 242.624 812.68 242.624C811.099 242.624 809.877 243.291 809.015 244.626C808.173 245.96 807.752 247.87 807.752 250.354C807.752 252.839 808.173 254.748 809.015 256.083C809.877 257.418 811.099 258.085 812.68 258.085Z" fill="white"/>
<line x1="785.743" y1="268.03" x2="824.242" y2="268.03" stroke="white" stroke-width="1.92496"/>
<path d="M797.112 168.173V165.401L804.627 157.732C806.454 155.905 807.368 154.324 807.368 152.989C807.368 151.942 807.049 151.131 806.413 150.556C805.797 149.961 805.006 149.663 804.041 149.663C802.234 149.663 800.9 150.556 800.037 152.342L797.05 150.587C797.727 149.149 798.682 148.061 799.914 147.322C801.146 146.583 802.512 146.213 804.011 146.213C805.9 146.213 807.522 146.809 808.877 148C810.232 149.191 810.91 150.813 810.91 152.866C810.91 155.063 809.688 157.404 807.244 159.888L802.378 164.754H811.31V168.173H797.112ZM828.324 153.574C828.324 155.217 827.893 156.665 827.03 157.917L820.224 168.173H816.158L821.086 160.935H820.717C818.478 160.935 816.641 160.258 815.203 158.903C813.787 157.527 813.078 155.751 813.078 153.574C813.078 151.398 813.787 149.632 815.203 148.277C816.641 146.901 818.478 146.213 820.717 146.213C822.955 146.213 824.782 146.901 826.199 148.277C827.616 149.632 828.324 151.398 828.324 153.574ZM816.62 153.574C816.62 154.765 817 155.73 817.76 156.469C818.54 157.209 819.526 157.578 820.717 157.578C821.907 157.578 822.883 157.219 823.642 156.5C824.402 155.761 824.782 154.786 824.782 153.574C824.782 152.363 824.402 151.398 823.642 150.679C822.883 149.94 821.907 149.57 820.717 149.57C819.526 149.57 818.54 149.94 817.76 150.679C817 151.398 816.62 152.363 816.62 153.574Z" fill="white"/>
<line x1="792.894" y1="175.069" x2="831.393" y2="175.069" stroke="white" stroke-width="1.92496"/>
<path d="M684.279 161.022V158.25L691.794 150.581C693.621 148.754 694.535 147.173 694.535 145.838C694.535 144.791 694.216 143.98 693.58 143.405C692.964 142.81 692.173 142.512 691.208 142.512C689.401 142.512 688.067 143.405 687.204 145.191L684.217 143.436C684.894 141.999 685.849 140.91 687.081 140.171C688.313 139.432 689.679 139.062 691.178 139.062C693.067 139.062 694.689 139.658 696.044 140.849C697.399 142.04 698.077 143.662 698.077 145.715C698.077 147.912 696.855 150.253 694.411 152.737L689.545 157.604H698.477V161.022H684.279ZM707.583 146.701C709.821 146.701 711.648 147.388 713.065 148.764C714.482 150.119 715.19 151.885 715.19 154.062C715.19 156.238 714.482 158.014 713.065 159.39C711.648 160.745 709.821 161.423 707.583 161.423C705.324 161.423 703.486 160.745 702.07 159.39C700.653 158.014 699.945 156.238 699.945 154.062C699.945 152.419 700.376 150.971 701.238 149.719L708.076 139.463H712.11L707.182 146.701H707.583ZM707.583 158.066C708.774 158.066 709.749 157.706 710.509 156.988C711.268 156.248 711.648 155.273 711.648 154.062C711.648 152.85 711.268 151.885 710.509 151.167C709.749 150.427 708.774 150.058 707.583 150.058C706.371 150.058 705.386 150.427 704.626 151.167C703.866 151.885 703.486 152.85 703.486 154.062C703.486 155.273 703.866 156.248 704.626 156.988C705.386 157.706 706.371 158.066 707.583 158.066Z" fill="white"/>
<line x1="679.911" y1="167.918" x2="718.41" y2="167.918" stroke="white" stroke-width="1.92496"/>
<path d="M677.052 252.553V249.781L684.567 242.112C686.395 240.285 687.309 238.704 687.309 237.369C687.309 236.322 686.99 235.511 686.354 234.936C685.738 234.34 684.947 234.043 683.982 234.043C682.175 234.043 680.841 234.936 679.978 236.722L676.991 234.967C677.668 233.529 678.623 232.441 679.855 231.702C681.087 230.963 682.453 230.593 683.951 230.593C685.841 230.593 687.463 231.189 688.818 232.38C690.173 233.57 690.851 235.193 690.851 237.246C690.851 239.443 689.629 241.784 687.185 244.268L682.319 249.134H691.251V252.553H677.052ZM700.569 239.125C702.622 239.125 704.357 239.741 705.774 240.973C707.191 242.184 707.899 243.868 707.899 246.024C707.899 248.18 707.17 249.874 705.712 251.106C704.254 252.338 702.468 252.953 700.353 252.953C698.649 252.953 697.14 252.563 695.826 251.783C694.511 250.982 693.577 249.832 693.023 248.334L696.072 246.578C696.647 248.529 698.074 249.504 700.353 249.504C701.565 249.504 702.53 249.196 703.248 248.58C703.987 247.943 704.357 247.091 704.357 246.024C704.357 244.956 703.998 244.114 703.279 243.498C702.56 242.882 701.606 242.574 700.415 242.574H694.132L694.963 230.994H706.975V234.32H698.228L697.858 239.125H700.569Z" fill="white"/>
<line x1="672.76" y1="259.449" x2="711.259" y2="259.449" stroke="white" stroke-width="1.92496"/>
<path d="M574.313 215.262H577.393V236.821H573.851V219.05L569.508 220.282L568.646 217.264L574.313 215.262ZM595.721 222.222C595.721 223.865 595.289 225.313 594.427 226.565L587.62 236.821H583.555L588.483 229.583H588.113C585.875 229.583 584.037 228.906 582.6 227.551C581.183 226.175 580.475 224.399 580.475 222.222C580.475 220.046 581.183 218.28 582.6 216.925C584.037 215.549 585.875 214.861 588.113 214.861C590.351 214.861 592.179 215.549 593.595 216.925C595.012 218.28 595.721 220.046 595.721 222.222ZM584.017 222.222C584.017 223.413 584.397 224.378 585.156 225.118C585.937 225.857 586.922 226.226 588.113 226.226C589.304 226.226 590.279 225.867 591.039 225.148C591.799 224.409 592.179 223.434 592.179 222.222C592.179 221.011 591.799 220.046 591.039 219.327C590.279 218.588 589.304 218.218 588.113 218.218C586.922 218.218 585.937 218.588 585.156 219.327C584.397 220.046 584.017 221.011 584.017 222.222Z" fill="white"/>
<line x1="562.637" y1="243.717" x2="601.136" y2="243.717" stroke="white" stroke-width="1.92496"/>
<path d="M574.451 132.312H577.531V153.871H573.989V136.1L569.647 137.332L568.784 134.314L574.451 132.312ZM592.871 142.66C594.986 143.831 596.044 145.576 596.044 147.896C596.044 149.868 595.356 151.428 593.98 152.578C592.604 153.707 590.777 154.272 588.498 154.272C586.219 154.272 584.381 153.707 582.985 152.578C581.609 151.428 580.921 149.868 580.921 147.896C580.921 146.788 581.198 145.781 581.753 144.878C582.307 143.954 583.088 143.215 584.094 142.66C582.472 141.593 581.66 140.073 581.66 138.102C581.66 136.131 582.318 134.612 583.632 133.544C584.946 132.456 586.568 131.912 588.498 131.912C590.407 131.912 592.019 132.456 593.333 133.544C594.668 134.612 595.335 136.131 595.335 138.102C595.335 140.073 594.514 141.593 592.871 142.66ZM588.498 135.269C587.533 135.269 586.742 135.525 586.126 136.039C585.51 136.552 585.202 137.291 585.202 138.256C585.202 139.18 585.51 139.909 586.126 140.443C586.763 140.977 587.553 141.244 588.498 141.244C589.422 141.244 590.202 140.977 590.839 140.443C591.475 139.909 591.793 139.18 591.793 138.256C591.793 137.291 591.475 136.552 590.839 136.039C590.223 135.525 589.442 135.269 588.498 135.269ZM588.498 150.915C589.689 150.915 590.654 150.627 591.393 150.052C592.132 149.457 592.502 148.625 592.502 147.558C592.502 146.49 592.132 145.669 591.393 145.094C590.654 144.498 589.689 144.2 588.498 144.2C587.286 144.2 586.311 144.498 585.572 145.094C584.833 145.669 584.463 146.49 584.463 147.558C584.463 148.625 584.833 149.457 585.572 150.052C586.311 150.627 587.286 150.915 588.498 150.915Z" fill="white"/>
<line x1="565.497" y1="160.767" x2="603.996" y2="160.767" stroke="white" stroke-width="1.92496"/>
<path d="M418.665 371.15H421.745V392.709H418.203V374.938L413.861 376.17L412.998 373.152L418.665 371.15ZM425.012 392.709V389.938L432.527 382.268C434.355 380.441 435.268 378.86 435.268 377.525C435.268 376.478 434.95 375.667 434.314 375.092C433.698 374.497 432.907 374.199 431.942 374.199C430.135 374.199 428.801 375.092 427.938 376.879L424.951 375.123C425.628 373.686 426.583 372.598 427.815 371.858C429.047 371.119 430.412 370.75 431.911 370.75C433.8 370.75 435.422 371.345 436.778 372.536C438.133 373.727 438.81 375.349 438.81 377.402C438.81 379.599 437.589 381.94 435.145 384.424L430.279 389.291H439.211V392.709H425.012Z" fill="white"/>
<line x1="406.749" y1="399.605" x2="445.248" y2="399.605" stroke="white" stroke-width="1.92496"/>
<path d="M308.104 352.558H311.184V374.117H307.642V356.346L303.299 357.578L302.437 354.56L308.104 352.558ZM319.563 352.558H322.643V374.117H319.101V356.346L314.759 357.578L313.896 354.56L319.563 352.558Z" fill="white"/>
<line x1="293.766" y1="381.013" x2="332.265" y2="381.013" stroke="white" stroke-width="1.92496"/>
<path d="M193.378 348.354C195.616 348.354 197.444 349.042 198.86 350.418C200.277 351.773 200.985 353.539 200.985 355.715C200.985 357.892 200.277 359.668 198.86 361.044C197.444 362.399 195.616 363.076 193.378 363.076C191.119 363.076 189.282 362.399 187.865 361.044C186.448 359.668 185.74 357.892 185.74 355.715C185.74 354.073 186.171 352.625 187.033 351.373L193.871 341.116H197.906L192.978 348.354H193.378ZM193.378 359.719C194.569 359.719 195.544 359.36 196.304 358.641C197.064 357.902 197.444 356.927 197.444 355.715C197.444 354.504 197.064 353.539 196.304 352.82C195.544 352.081 194.569 351.711 193.378 351.711C192.167 351.711 191.181 352.081 190.421 352.82C189.662 353.539 189.282 354.504 189.282 355.715C189.282 356.927 189.662 357.902 190.421 358.641C191.181 359.36 192.167 359.719 193.378 359.719Z" fill="white"/>
<line x1="173.631" y1="369.572" x2="212.131" y2="369.572" stroke="white" stroke-width="1.92496"/>
</svg>
