<svg width="1936" height="600" viewBox="0 0 1936 600" fill="none" xmlns="http://www.w3.org/2000/svg">
<path d="M212.292 574.519C214.407 575.689 215.464 577.435 215.464 579.755C215.464 581.726 214.776 583.286 213.401 584.436C212.025 585.566 210.197 586.13 207.918 586.13C205.639 586.13 203.801 585.566 202.405 584.436C201.029 583.286 200.342 581.726 200.342 579.755C200.342 578.646 200.619 577.64 201.173 576.736C201.728 575.812 202.508 575.073 203.514 574.519C201.892 573.451 201.081 571.932 201.081 569.961C201.081 567.989 201.738 566.47 203.052 565.402C204.366 564.314 205.988 563.77 207.918 563.77C209.828 563.77 211.44 564.314 212.754 565.402C214.088 566.47 214.756 567.989 214.756 569.961C214.756 571.932 213.934 573.451 212.292 574.519ZM207.918 567.127C206.953 567.127 206.163 567.384 205.547 567.897C204.931 568.41 204.623 569.15 204.623 570.115C204.623 571.039 204.931 571.767 205.547 572.301C206.183 572.835 206.974 573.102 207.918 573.102C208.842 573.102 209.622 572.835 210.259 572.301C210.896 571.767 211.214 571.039 211.214 570.115C211.214 569.15 210.896 568.41 210.259 567.897C209.643 567.384 208.863 567.127 207.918 567.127ZM207.918 582.773C209.109 582.773 210.074 582.486 210.813 581.911C211.553 581.315 211.922 580.484 211.922 579.416C211.922 578.348 211.553 577.527 210.813 576.952C210.074 576.357 209.109 576.059 207.918 576.059C206.707 576.059 205.732 576.357 204.992 576.952C204.253 577.527 203.884 578.348 203.884 579.416C203.884 580.484 204.253 581.315 204.992 581.911C205.732 582.486 206.707 582.773 207.918 582.773ZM225.237 571.408C227.475 571.408 229.303 572.096 230.719 573.472C232.136 574.827 232.845 576.593 232.845 578.769C232.845 580.946 232.136 582.722 230.719 584.097C229.303 585.453 227.475 586.13 225.237 586.13C222.978 586.13 221.141 585.453 219.724 584.097C218.307 582.722 217.599 580.946 217.599 578.769C217.599 577.127 218.03 575.679 218.892 574.426L225.73 564.17H229.765L224.837 571.408H225.237ZM225.237 582.773C226.428 582.773 227.403 582.414 228.163 581.695C228.923 580.956 229.303 579.981 229.303 578.769C229.303 577.558 228.923 576.593 228.163 575.874C227.403 575.135 226.428 574.765 225.237 574.765C224.026 574.765 223.04 575.135 222.28 575.874C221.521 576.593 221.141 577.558 221.141 578.769C221.141 579.981 221.521 580.956 222.28 581.695C223.04 582.414 224.026 582.773 225.237 582.773Z" fill="white"/>
<path d="M1336.74 414.961C1336.74 416.604 1336.31 418.052 1335.45 419.304L1328.64 429.56H1324.57L1329.5 422.322H1329.13C1326.89 422.322 1325.06 421.645 1323.62 420.29C1322.2 418.914 1321.49 417.138 1321.49 414.961C1321.49 412.785 1322.2 411.019 1323.62 409.664C1325.06 408.288 1326.89 407.6 1329.13 407.6C1331.37 407.6 1333.2 408.288 1334.61 409.664C1336.03 411.019 1336.74 412.785 1336.74 414.961ZM1325.04 414.961C1325.04 416.152 1325.42 417.117 1326.17 417.856C1326.96 418.596 1327.94 418.965 1329.13 418.965C1330.32 418.965 1331.3 418.606 1332.06 417.887C1332.82 417.148 1333.2 416.173 1333.2 414.961C1333.2 413.75 1332.82 412.785 1332.06 412.066C1331.3 411.327 1330.32 410.957 1329.13 410.957C1327.94 410.957 1326.96 411.327 1326.17 412.066C1325.42 412.785 1325.04 413.75 1325.04 414.961ZM1353.52 414.961C1353.52 416.604 1353.09 418.052 1352.23 419.304L1345.42 429.56H1341.36L1346.28 422.322H1345.91C1343.68 422.322 1341.84 421.645 1340.4 420.29C1338.99 418.914 1338.28 417.138 1338.28 414.961C1338.28 412.785 1338.99 411.019 1340.4 409.664C1341.84 408.288 1343.68 407.6 1345.91 407.6C1348.15 407.6 1349.98 408.288 1351.4 409.664C1352.81 411.019 1353.52 412.785 1353.52 414.961ZM1341.82 414.961C1341.82 416.152 1342.2 417.117 1342.96 417.856C1343.74 418.596 1344.72 418.965 1345.91 418.965C1347.11 418.965 1348.08 418.606 1348.84 417.887C1349.6 417.148 1349.98 416.173 1349.98 414.961C1349.98 413.75 1349.6 412.785 1348.84 412.066C1348.08 411.327 1347.11 410.957 1345.91 410.957C1344.72 410.957 1343.74 411.327 1342.96 412.066C1342.2 412.785 1341.82 413.75 1341.82 414.961Z" fill="white"/>
<path d="M1562.93 206.852H1566.01V228.412H1562.47V210.641L1558.13 211.873L1557.26 208.854L1562.93 206.852ZM1584.25 225.763C1582.77 227.796 1580.69 228.812 1578.02 228.812C1575.35 228.812 1573.27 227.796 1571.77 225.763C1570.29 223.73 1569.55 221.02 1569.55 217.632C1569.55 214.244 1570.29 211.534 1571.77 209.501C1573.27 207.468 1575.35 206.452 1578.02 206.452C1580.69 206.452 1582.77 207.468 1584.25 209.501C1585.74 211.534 1586.49 214.244 1586.49 217.632C1586.49 221.02 1585.74 223.73 1584.25 225.763ZM1578.02 225.363C1579.63 225.363 1580.85 224.695 1581.69 223.361C1582.53 222.026 1582.95 220.117 1582.95 217.632C1582.95 215.148 1582.53 213.238 1581.69 211.903C1580.85 210.569 1579.63 209.901 1578.02 209.901C1576.44 209.901 1575.22 210.569 1574.36 211.903C1573.52 213.238 1573.1 215.148 1573.1 217.632C1573.1 220.117 1573.52 222.026 1574.36 223.361C1575.22 224.695 1576.44 225.363 1578.02 225.363ZM1597.23 215.661C1598.79 216.03 1600.05 216.759 1601.02 217.848C1602 218.915 1602.49 220.26 1602.49 221.882C1602.49 224.038 1601.76 225.732 1600.31 226.964C1598.85 228.196 1597.06 228.812 1594.95 228.812C1593.31 228.812 1591.83 228.432 1590.51 227.673C1589.22 226.913 1588.29 225.804 1587.71 224.346L1590.73 222.591C1591.37 224.439 1592.77 225.363 1594.95 225.363C1596.18 225.363 1597.16 225.055 1597.87 224.439C1598.59 223.802 1598.95 222.95 1598.95 221.882C1598.95 220.815 1598.59 219.973 1597.87 219.357C1597.16 218.741 1596.18 218.433 1594.95 218.433H1594.15L1592.73 216.308L1597.38 210.179H1588.36V206.852H1601.6V209.871L1597.23 215.661Z" fill="white"/>
<path d="M1600.32 502.366H1603.4V523.925H1599.86V506.154L1595.52 507.386L1594.66 504.368L1600.32 502.366ZM1621.64 521.276C1620.16 523.309 1618.09 524.325 1615.42 524.325C1612.75 524.325 1610.66 523.309 1609.17 521.276C1607.69 519.244 1606.95 516.533 1606.95 513.145C1606.95 509.757 1607.69 507.047 1609.17 505.014C1610.66 502.982 1612.75 501.965 1615.42 501.965C1618.09 501.965 1620.16 502.982 1621.64 505.014C1623.14 507.047 1623.89 509.757 1623.89 513.145C1623.89 516.533 1623.14 519.244 1621.64 521.276ZM1615.42 520.876C1617.02 520.876 1618.24 520.209 1619.08 518.874C1619.92 517.539 1620.35 515.63 1620.35 513.145C1620.35 510.661 1619.92 508.751 1619.08 507.417C1618.24 506.082 1617.02 505.415 1615.42 505.415C1613.84 505.415 1612.61 506.082 1611.75 507.417C1610.91 508.751 1610.49 510.661 1610.49 513.145C1610.49 515.63 1610.91 517.539 1611.75 518.874C1612.61 520.209 1613.84 520.876 1615.42 520.876ZM1633.44 510.497C1635.49 510.497 1637.22 511.113 1638.64 512.345C1640.06 513.556 1640.77 515.24 1640.77 517.396C1640.77 519.552 1640.04 521.246 1638.58 522.478C1637.12 523.71 1635.33 524.325 1633.22 524.325C1631.52 524.325 1630.01 523.935 1628.69 523.155C1627.38 522.354 1626.44 521.205 1625.89 519.706L1628.94 517.95C1629.51 519.901 1630.94 520.876 1633.22 520.876C1634.43 520.876 1635.4 520.568 1636.11 519.952C1636.85 519.315 1637.22 518.463 1637.22 517.396C1637.22 516.328 1636.86 515.486 1636.15 514.87C1635.43 514.254 1634.47 513.946 1633.28 513.946H1627L1627.83 502.366H1639.84V505.692H1631.09L1630.72 510.497H1633.44Z" fill="white"/>
<path d="M1844.72 7.61914H1847.8V29.1787H1844.26V11.4075L1839.91 12.6394L1839.05 9.6211L1844.72 7.61914ZM1866.03 26.5299C1864.55 28.5627 1862.48 29.5791 1859.81 29.5791C1857.14 29.5791 1855.06 28.5627 1853.56 26.5299C1852.08 24.4972 1851.34 21.7868 1851.34 18.3989C1851.34 15.011 1852.08 12.3006 1853.56 10.2679C1855.06 8.23513 1857.14 7.21875 1859.81 7.21875C1862.48 7.21875 1864.55 8.23513 1866.03 10.2679C1867.53 12.3006 1868.28 15.011 1868.28 18.3989C1868.28 21.7868 1867.53 24.4972 1866.03 26.5299ZM1859.81 26.1295C1861.41 26.1295 1862.63 25.4622 1863.48 24.1276C1864.32 22.7929 1864.74 20.8834 1864.74 18.3989C1864.74 15.9144 1864.32 14.0049 1863.48 12.6702C1862.63 11.3356 1861.41 10.6683 1859.81 10.6683C1858.23 10.6683 1857.01 11.3356 1856.15 12.6702C1855.3 14.0049 1854.88 15.9144 1854.88 18.3989C1854.88 20.8834 1855.3 22.7929 1856.15 24.1276C1857.01 25.4622 1858.23 26.1295 1859.81 26.1295ZM1885.53 14.5798C1885.53 16.2224 1885.09 17.67 1884.23 18.9225L1877.43 29.1787H1873.36L1878.29 21.9408H1877.92C1875.68 21.9408 1873.84 21.2632 1872.4 19.9081C1870.99 18.5324 1870.28 16.7563 1870.28 14.5798C1870.28 12.4033 1870.99 10.6375 1872.4 9.28231C1873.84 7.9066 1875.68 7.21875 1877.92 7.21875C1880.16 7.21875 1881.98 7.9066 1883.4 9.28231C1884.82 10.6375 1885.53 12.4033 1885.53 14.5798ZM1873.82 14.5798C1873.82 15.7707 1874.2 16.7357 1874.96 17.4749C1875.74 18.2141 1876.73 18.5837 1877.92 18.5837C1879.11 18.5837 1880.08 18.2244 1880.84 17.5057C1881.6 16.7665 1881.98 15.7912 1881.98 14.5798C1881.98 13.3684 1881.6 12.4033 1880.84 11.6847C1880.08 10.9455 1879.11 10.5759 1877.92 10.5759C1876.73 10.5759 1875.74 10.9455 1874.96 11.6847C1874.2 12.4033 1873.82 13.3684 1873.82 14.5798Z" fill="white"/>
<path d="M203.14 403.922C205.255 405.092 206.312 406.838 206.312 409.158C206.312 411.129 205.625 412.69 204.249 413.839C202.873 414.969 201.046 415.533 198.767 415.533C196.487 415.533 194.65 414.969 193.254 413.839C191.878 412.69 191.19 411.129 191.19 409.158C191.19 408.049 191.467 407.043 192.022 406.14C192.576 405.216 193.356 404.476 194.362 403.922C192.74 402.854 191.929 401.335 191.929 399.364C191.929 397.393 192.586 395.873 193.9 394.805C195.214 393.717 196.837 393.173 198.767 393.173C200.676 393.173 202.288 393.717 203.602 394.805C204.937 395.873 205.604 397.393 205.604 399.364C205.604 401.335 204.783 402.854 203.14 403.922ZM198.767 396.53C197.802 396.53 197.011 396.787 196.395 397.3C195.779 397.814 195.471 398.553 195.471 399.518C195.471 400.442 195.779 401.171 196.395 401.705C197.032 402.238 197.822 402.505 198.767 402.505C199.691 402.505 200.471 402.238 201.107 401.705C201.744 401.171 202.062 400.442 202.062 399.518C202.062 398.553 201.744 397.814 201.107 397.3C200.491 396.787 199.711 396.53 198.767 396.53ZM198.767 412.176C199.958 412.176 200.923 411.889 201.662 411.314C202.401 410.718 202.771 409.887 202.771 408.819C202.771 407.751 202.401 406.93 201.662 406.355C200.923 405.76 199.958 405.462 198.767 405.462C197.555 405.462 196.58 405.76 195.841 406.355C195.102 406.93 194.732 407.751 194.732 408.819C194.732 409.887 195.102 410.718 195.841 411.314C196.58 411.889 197.555 412.176 198.767 412.176ZM215.696 401.705C217.749 401.705 219.484 402.321 220.901 403.552C222.318 404.764 223.026 406.448 223.026 408.604C223.026 410.76 222.297 412.453 220.839 413.685C219.382 414.917 217.595 415.533 215.48 415.533C213.776 415.533 212.267 415.143 210.953 414.363C209.639 413.562 208.704 412.412 208.15 410.914L211.199 409.158C211.774 411.109 213.201 412.084 215.48 412.084C216.692 412.084 217.657 411.776 218.375 411.16C219.115 410.523 219.484 409.671 219.484 408.604C219.484 407.536 219.125 406.694 218.406 406.078C217.688 405.462 216.733 405.154 215.542 405.154H209.259L210.09 393.573H222.102V396.9H213.355L212.986 401.705H215.696Z" fill="white"/>
<path d="M552.94 324.999C555.055 326.169 556.113 327.914 556.113 330.235C556.113 332.206 555.425 333.766 554.049 334.916C552.673 336.045 550.846 336.61 548.567 336.61C546.288 336.61 544.45 336.045 543.054 334.916C541.678 333.766 540.99 332.206 540.99 330.235C540.99 329.126 541.267 328.12 541.822 327.216C542.376 326.292 543.156 325.553 544.162 324.999C542.54 323.931 541.729 322.412 541.729 320.44C541.729 318.469 542.386 316.95 543.7 315.882C545.015 314.794 546.637 314.25 548.567 314.25C550.476 314.25 552.088 314.794 553.402 315.882C554.737 316.95 555.404 318.469 555.404 320.44C555.404 322.412 554.583 323.931 552.94 324.999ZM548.567 317.607C547.602 317.607 546.811 317.864 546.195 318.377C545.579 318.89 545.271 319.629 545.271 320.594C545.271 321.518 545.579 322.247 546.195 322.781C546.832 323.315 547.622 323.582 548.567 323.582C549.491 323.582 550.271 323.315 550.907 322.781C551.544 322.247 551.862 321.518 551.862 320.594C551.862 319.629 551.544 318.89 550.907 318.377C550.291 317.864 549.511 317.607 548.567 317.607ZM548.567 333.253C549.758 333.253 550.723 332.965 551.462 332.391C552.201 331.795 552.571 330.964 552.571 329.896C552.571 328.828 552.201 328.007 551.462 327.432C550.723 326.836 549.758 326.539 548.567 326.539C547.355 326.539 546.38 326.836 545.641 327.432C544.902 328.007 544.532 328.828 544.532 329.896C544.532 330.964 544.902 331.795 545.641 332.391C546.38 332.965 547.355 333.253 548.567 333.253ZM573.192 321.611C573.192 323.253 572.761 324.701 571.899 325.954L565.092 336.21H561.026L565.954 328.972H565.585C563.347 328.972 561.509 328.294 560.072 326.939C558.655 325.563 557.947 323.787 557.947 321.611C557.947 319.434 558.655 317.668 560.072 316.313C561.509 314.938 563.347 314.25 565.585 314.25C567.823 314.25 569.65 314.938 571.067 316.313C572.484 317.668 573.192 319.434 573.192 321.611ZM561.488 321.611C561.488 322.802 561.868 323.767 562.628 324.506C563.408 325.245 564.394 325.615 565.585 325.615C566.776 325.615 567.751 325.255 568.511 324.537C569.27 323.798 569.65 322.822 569.65 321.611C569.65 320.399 569.27 319.434 568.511 318.716C567.751 317.976 566.776 317.607 565.585 317.607C564.394 317.607 563.408 317.976 562.628 318.716C561.868 319.434 561.488 320.399 561.488 321.611Z" fill="white"/>
<path d="M391.494 361.573C393.609 362.743 394.666 364.489 394.666 366.809C394.666 368.78 393.979 370.34 392.603 371.49C391.227 372.62 389.4 373.184 387.121 373.184C384.841 373.184 383.004 372.62 381.607 371.49C380.232 370.34 379.544 368.78 379.544 366.809C379.544 365.7 379.821 364.694 380.375 363.79C380.93 362.866 381.71 362.127 382.716 361.573C381.094 360.505 380.283 358.986 380.283 357.015C380.283 355.043 380.94 353.524 382.254 352.456C383.568 351.368 385.19 350.824 387.121 350.824C389.03 350.824 390.642 351.368 391.956 352.456C393.291 353.524 393.958 355.043 393.958 357.015C393.958 358.986 393.137 360.505 391.494 361.573ZM387.121 354.181C386.155 354.181 385.365 354.438 384.749 354.951C384.133 355.464 383.825 356.204 383.825 357.169C383.825 358.093 384.133 358.822 384.749 359.355C385.386 359.889 386.176 360.156 387.121 360.156C388.045 360.156 388.825 359.889 389.461 359.355C390.098 358.822 390.416 358.093 390.416 357.169C390.416 356.204 390.098 355.464 389.461 354.951C388.845 354.438 388.065 354.181 387.121 354.181ZM387.121 369.827C388.311 369.827 389.276 369.54 390.016 368.965C390.755 368.369 391.124 367.538 391.124 366.47C391.124 365.402 390.755 364.581 390.016 364.006C389.276 363.411 388.311 363.113 387.121 363.113C385.909 363.113 384.934 363.411 384.195 364.006C383.455 364.581 383.086 365.402 383.086 366.47C383.086 367.538 383.455 368.369 384.195 368.965C384.934 369.54 385.909 369.827 387.121 369.827ZM395.892 351.224H409.597V354.304L402.021 372.784H398.294L405.747 354.612H395.892V351.224Z" fill="white"/>
<path d="M1298.41 238.614H1301.49V260.174H1297.95V242.403L1293.61 243.635L1292.75 240.616L1298.41 238.614ZM1319.73 257.525C1318.25 259.558 1316.18 260.574 1313.51 260.574C1310.84 260.574 1308.75 259.558 1307.25 257.525C1305.78 255.492 1305.04 252.782 1305.04 249.394C1305.04 246.006 1305.78 243.296 1307.25 241.263C1308.75 239.23 1310.84 238.214 1313.51 238.214C1316.18 238.214 1318.25 239.23 1319.73 241.263C1321.23 243.296 1321.98 246.006 1321.98 249.394C1321.98 252.782 1321.23 255.492 1319.73 257.525ZM1313.51 257.125C1315.11 257.125 1316.33 256.457 1317.17 255.123C1318.01 253.788 1318.43 251.879 1318.43 249.394C1318.43 246.91 1318.01 245 1317.17 243.665C1316.33 242.331 1315.11 241.663 1313.51 241.663C1311.93 241.663 1310.7 242.331 1309.84 243.665C1309 245 1308.58 246.91 1308.58 249.394C1308.58 251.879 1309 253.788 1309.84 255.123C1310.7 256.457 1311.93 257.125 1313.51 257.125ZM1339.13 257.525C1337.65 259.558 1335.58 260.574 1332.91 260.574C1330.24 260.574 1328.15 259.558 1326.65 257.525C1325.18 255.492 1324.44 252.782 1324.44 249.394C1324.44 246.006 1325.18 243.296 1326.65 241.263C1328.15 239.23 1330.24 238.214 1332.91 238.214C1335.58 238.214 1337.65 239.23 1339.13 241.263C1340.63 243.296 1341.38 246.006 1341.38 249.394C1341.38 252.782 1340.63 255.492 1339.13 257.525ZM1332.91 257.125C1334.51 257.125 1335.73 256.457 1336.57 255.123C1337.41 253.788 1337.83 251.879 1337.83 249.394C1337.83 246.91 1337.41 245 1336.57 243.665C1335.73 242.331 1334.51 241.663 1332.91 241.663C1331.33 241.663 1330.1 242.331 1329.24 243.665C1328.4 245 1327.98 246.91 1327.98 249.394C1327.98 251.879 1328.4 253.788 1329.24 255.123C1330.1 256.457 1331.33 257.125 1332.91 257.125Z" fill="white"/>
<path d="M1070.9 449.62C1070.9 451.263 1070.47 452.711 1069.61 453.963L1062.8 464.219H1058.73L1063.66 456.982H1063.29C1061.05 456.982 1059.22 456.304 1057.78 454.949C1056.36 453.573 1055.65 451.797 1055.65 449.62C1055.65 447.444 1056.36 445.678 1057.78 444.323C1059.22 442.947 1061.05 442.259 1063.29 442.259C1065.53 442.259 1067.36 442.947 1068.78 444.323C1070.19 445.678 1070.9 447.444 1070.9 449.62ZM1059.2 449.62C1059.2 450.811 1059.58 451.776 1060.34 452.516C1061.12 453.255 1062.1 453.624 1063.29 453.624C1064.48 453.624 1065.46 453.265 1066.22 452.546C1066.98 451.807 1067.36 450.832 1067.36 449.62C1067.36 448.409 1066.98 447.444 1066.22 446.725C1065.46 445.986 1064.48 445.617 1063.29 445.617C1062.1 445.617 1061.12 445.986 1060.34 446.725C1059.58 447.444 1059.2 448.409 1059.2 449.62ZM1079.47 449.898C1081.71 449.898 1083.54 450.586 1084.96 451.961C1086.37 453.316 1087.08 455.082 1087.08 457.259C1087.08 459.435 1086.37 461.211 1084.96 462.587C1083.54 463.942 1081.71 464.62 1079.47 464.62C1077.22 464.62 1075.38 463.942 1073.96 462.587C1072.54 461.211 1071.84 459.435 1071.84 457.259C1071.84 455.616 1072.27 454.169 1073.13 452.916L1079.97 442.66H1084L1079.07 449.898H1079.47ZM1079.47 461.263C1080.67 461.263 1081.64 460.903 1082.4 460.185C1083.16 459.445 1083.54 458.47 1083.54 457.259C1083.54 456.047 1083.16 455.082 1082.4 454.364C1081.64 453.624 1080.67 453.255 1079.47 453.255C1078.26 453.255 1077.28 453.624 1076.52 454.364C1075.76 455.082 1075.38 456.047 1075.38 457.259C1075.38 458.47 1075.76 459.445 1076.52 460.185C1077.28 460.903 1078.26 461.263 1079.47 461.263Z" fill="white"/>
<path d="M1549.44 81.0508H1552.52V102.61H1548.98V84.8391L1544.63 86.0711L1543.77 83.0528L1549.44 81.0508ZM1570.75 99.9616C1569.27 101.994 1567.2 103.011 1564.53 103.011C1561.86 103.011 1559.78 101.994 1558.28 99.9616C1556.8 97.9289 1556.06 95.2185 1556.06 91.8306C1556.06 88.4427 1556.8 85.7323 1558.28 83.6996C1559.78 81.6668 1561.86 80.6504 1564.53 80.6504C1567.2 80.6504 1569.27 81.6668 1570.75 83.6996C1572.25 85.7323 1573 88.4427 1573 91.8306C1573 95.2185 1572.25 97.9289 1570.75 99.9616ZM1564.53 99.5612C1566.13 99.5612 1567.35 98.8939 1568.2 97.5593C1569.04 96.2246 1569.46 94.3151 1569.46 91.8306C1569.46 89.3461 1569.04 87.4365 1568.2 86.1019C1567.35 84.7673 1566.13 84.0999 1564.53 84.0999C1562.95 84.0999 1561.73 84.7673 1560.87 86.1019C1560.02 87.4365 1559.6 89.3461 1559.6 91.8306C1559.6 94.3151 1560.02 96.2246 1560.87 97.5593C1561.73 98.8939 1562.95 99.5612 1564.53 99.5612ZM1574.73 102.61V99.8384L1582.25 92.1694C1584.08 90.3419 1584.99 88.7609 1584.99 87.4263C1584.99 86.3791 1584.67 85.568 1584.03 84.9931C1583.42 84.3977 1582.63 84.0999 1581.66 84.0999C1579.86 84.0999 1578.52 84.9931 1577.66 86.7795L1574.67 85.0239C1575.35 83.5866 1576.3 82.4984 1577.54 81.7592C1578.77 81.02 1580.13 80.6504 1581.63 80.6504C1583.52 80.6504 1585.14 81.2459 1586.5 82.4368C1587.85 83.6277 1588.53 85.2498 1588.53 87.3031C1588.53 89.5001 1587.31 91.8408 1584.87 94.3253L1580 99.1916H1588.93V102.61H1574.73Z" fill="white"/>
<path d="M1581.64 376.249H1584.72V397.808H1581.18V380.037L1576.83 381.269L1575.97 378.251L1581.64 376.249ZM1602.95 395.16C1601.47 397.192 1599.4 398.209 1596.73 398.209C1594.06 398.209 1591.98 397.192 1590.48 395.16C1589 393.127 1588.26 390.416 1588.26 387.029C1588.26 383.641 1589 380.93 1590.48 378.898C1591.98 376.865 1594.06 375.848 1596.73 375.848C1599.4 375.848 1601.47 376.865 1602.95 378.898C1604.45 380.93 1605.2 383.641 1605.2 387.029C1605.2 390.416 1604.45 393.127 1602.95 395.16ZM1596.73 394.759C1598.33 394.759 1599.56 394.092 1600.4 392.757C1601.24 391.423 1601.66 389.513 1601.66 387.029C1601.66 384.544 1601.24 382.635 1600.4 381.3C1599.56 379.965 1598.33 379.298 1596.73 379.298C1595.15 379.298 1593.93 379.965 1593.07 381.3C1592.22 382.635 1591.8 384.544 1591.8 387.029C1591.8 389.513 1592.22 391.423 1593.07 392.757C1593.93 394.092 1595.15 394.759 1596.73 394.759ZM1623.77 390.632V393.928H1621.31V397.808H1617.73V393.928H1607.14V390.632L1614.56 376.249H1618.41L1610.99 390.632H1617.73V385.027H1621.31V390.632H1623.77Z" fill="white"/>
<path d="M1339.39 545.868C1339.39 547.511 1338.95 548.959 1338.09 550.211L1331.29 560.467H1327.22L1332.15 553.23H1331.78C1329.54 553.23 1327.7 552.552 1326.27 551.197C1324.85 549.821 1324.14 548.045 1324.14 545.868C1324.14 543.692 1324.85 541.926 1326.27 540.571C1327.7 539.195 1329.54 538.507 1331.78 538.507C1334.02 538.507 1335.84 539.195 1337.26 540.571C1338.68 541.926 1339.39 543.692 1339.39 545.868ZM1327.68 545.868C1327.68 547.059 1328.06 548.024 1328.82 548.764C1329.6 549.503 1330.59 549.872 1331.78 549.872C1332.97 549.872 1333.94 549.513 1334.7 548.794C1335.46 548.055 1335.84 547.08 1335.84 545.868C1335.84 544.657 1335.46 543.692 1334.7 542.973C1333.94 542.234 1332.97 541.865 1331.78 541.865C1330.59 541.865 1329.6 542.234 1328.82 542.973C1328.06 543.692 1327.68 544.657 1327.68 545.868ZM1353.18 549.256C1355.3 550.427 1356.35 552.172 1356.35 554.492C1356.35 556.463 1355.67 558.024 1354.29 559.174C1352.91 560.303 1351.09 560.868 1348.81 560.868C1346.53 560.868 1344.69 560.303 1343.29 559.174C1341.92 558.024 1341.23 556.463 1341.23 554.492C1341.23 553.384 1341.51 552.377 1342.06 551.474C1342.62 550.55 1343.4 549.811 1344.4 549.256C1342.78 548.189 1341.97 546.669 1341.97 544.698C1341.97 542.727 1342.63 541.208 1343.94 540.14C1345.26 539.052 1346.88 538.507 1348.81 538.507C1350.72 538.507 1352.33 539.052 1353.64 540.14C1354.98 541.208 1355.65 542.727 1355.65 544.698C1355.65 546.669 1354.82 548.189 1353.18 549.256ZM1348.81 541.865C1347.84 541.865 1347.05 542.121 1346.44 542.635C1345.82 543.148 1345.51 543.887 1345.51 544.852C1345.51 545.776 1345.82 546.505 1346.44 547.039C1347.07 547.573 1347.86 547.84 1348.81 547.84C1349.73 547.84 1350.51 547.573 1351.15 547.039C1351.79 546.505 1352.1 545.776 1352.1 544.852C1352.1 543.887 1351.79 543.148 1351.15 542.635C1350.53 542.121 1349.75 541.865 1348.81 541.865ZM1348.81 557.511C1350 557.511 1350.96 557.223 1351.7 556.648C1352.44 556.053 1352.81 555.221 1352.81 554.154C1352.81 553.086 1352.44 552.264 1351.7 551.69C1350.96 551.094 1350 550.796 1348.81 550.796C1347.6 550.796 1346.62 551.094 1345.88 551.69C1345.14 552.264 1344.77 553.086 1344.77 554.154C1344.77 555.221 1345.14 556.053 1345.88 556.648C1346.62 557.223 1347.6 557.511 1348.81 557.511Z" fill="white"/>
<path d="M1097.26 576.668C1097.26 578.31 1096.83 579.758 1095.97 581.01L1089.16 591.267H1085.1L1090.02 584.029H1089.65C1087.42 584.029 1085.58 583.351 1084.14 581.996C1082.72 580.62 1082.02 578.844 1082.02 576.668C1082.02 574.491 1082.72 572.725 1084.14 571.37C1085.58 569.994 1087.42 569.307 1089.65 569.307C1091.89 569.307 1093.72 569.994 1095.14 571.37C1096.55 572.725 1097.26 574.491 1097.26 576.668ZM1085.56 576.668C1085.56 577.859 1085.94 578.824 1086.7 579.563C1087.48 580.302 1088.46 580.672 1089.65 580.672C1090.84 580.672 1091.82 580.312 1092.58 579.594C1093.34 578.854 1093.72 577.879 1093.72 576.668C1093.72 575.456 1093.34 574.491 1092.58 573.773C1091.82 573.033 1090.84 572.664 1089.65 572.664C1088.46 572.664 1087.48 573.033 1086.7 573.773C1085.94 574.491 1085.56 575.456 1085.56 576.668ZM1098.19 569.707H1111.9V572.787L1104.32 591.267H1100.59L1108.05 573.095H1098.19V569.707Z" fill="white"/>
<path d="M695.849 517.956C695.849 519.599 695.418 521.047 694.556 522.299L687.749 532.555H683.684L688.611 525.317H688.242C686.004 525.317 684.166 524.64 682.729 523.285C681.312 521.909 680.604 520.133 680.604 517.956C680.604 515.78 681.312 514.014 682.729 512.659C684.166 511.283 686.004 510.595 688.242 510.595C690.48 510.595 692.307 511.283 693.724 512.659C695.141 514.014 695.849 515.78 695.849 517.956ZM684.145 517.956C684.145 519.147 684.525 520.112 685.285 520.852C686.065 521.591 687.051 521.96 688.242 521.96C689.433 521.96 690.408 521.601 691.168 520.882C691.927 520.143 692.307 519.168 692.307 517.956C692.307 516.745 691.927 515.78 691.168 515.061C690.408 514.322 689.433 513.953 688.242 513.953C687.051 513.953 686.065 514.322 685.285 515.061C684.525 515.78 684.145 516.745 684.145 517.956ZM712.54 529.907C711.062 531.939 708.988 532.956 706.319 532.956C703.649 532.956 701.565 531.939 700.066 529.907C698.588 527.874 697.849 525.163 697.849 521.776C697.849 518.388 698.588 515.677 700.066 513.645C701.565 511.612 703.649 510.595 706.319 510.595C708.988 510.595 711.062 511.612 712.54 513.645C714.039 515.677 714.788 518.388 714.788 521.776C714.788 525.163 714.039 527.874 712.54 529.907ZM706.319 529.506C707.92 529.506 709.142 528.839 709.984 527.504C710.826 526.17 711.246 524.26 711.246 521.776C711.246 519.291 710.826 517.382 709.984 516.047C709.142 514.712 707.92 514.045 706.319 514.045C704.738 514.045 703.516 514.712 702.653 516.047C701.812 517.382 701.391 519.291 701.391 521.776C701.391 524.26 701.812 526.17 702.653 527.504C703.516 528.839 704.738 529.506 706.319 529.506Z" fill="white"/>
<path d="M719.069 283.112C719.069 284.754 718.638 286.202 717.775 287.454L710.969 297.711H706.903L711.831 290.473H711.462C709.223 290.473 707.386 289.795 705.948 288.44C704.532 287.064 703.823 285.288 703.823 283.112C703.823 280.935 704.532 279.169 705.948 277.814C707.386 276.438 709.223 275.751 711.462 275.751C713.7 275.751 715.527 276.438 716.944 277.814C718.361 279.169 719.069 280.935 719.069 283.112ZM707.365 283.112C707.365 284.303 707.745 285.268 708.505 286.007C709.285 286.746 710.271 287.116 711.462 287.116C712.652 287.116 713.628 286.756 714.388 286.038C715.147 285.298 715.527 284.323 715.527 283.112C715.527 281.9 715.147 280.935 714.388 280.217C713.628 279.477 712.652 279.108 711.462 279.108C710.271 279.108 709.285 279.477 708.505 280.217C707.745 280.935 707.365 281.9 707.365 283.112ZM725.904 276.151H728.984V297.711H725.442V279.939L721.099 281.171L720.237 278.153L725.904 276.151Z" fill="white"/>
<path d="M880.35 248.462C880.35 250.105 879.919 251.553 879.057 252.805L872.25 263.061H868.184L873.112 255.823H872.743C870.505 255.823 868.667 255.146 867.23 253.791C865.813 252.415 865.104 250.639 865.104 248.462C865.104 246.286 865.813 244.52 867.23 243.165C868.667 241.789 870.505 241.101 872.743 241.101C874.981 241.101 876.808 241.789 878.225 243.165C879.642 244.52 880.35 246.286 880.35 248.462ZM868.646 248.462C868.646 249.653 869.026 250.618 869.786 251.357C870.566 252.097 871.552 252.466 872.743 252.466C873.934 252.466 874.909 252.107 875.669 251.388C876.428 250.649 876.808 249.674 876.808 248.462C876.808 247.251 876.428 246.286 875.669 245.567C874.909 244.828 873.934 244.458 872.743 244.458C871.552 244.458 870.566 244.828 869.786 245.567C869.026 246.286 868.646 247.251 868.646 248.462ZM890.472 250.31C892.033 250.68 893.296 251.409 894.261 252.497C895.246 253.565 895.739 254.91 895.739 256.532C895.739 258.688 895.01 260.382 893.552 261.614C892.094 262.846 890.308 263.462 888.193 263.462C886.551 263.462 885.072 263.082 883.758 262.322C882.464 261.562 881.53 260.454 880.955 258.996L883.974 257.24C884.61 259.088 886.017 260.012 888.193 260.012C889.425 260.012 890.4 259.704 891.119 259.088C891.838 258.452 892.197 257.599 892.197 256.532C892.197 255.464 891.838 254.622 891.119 254.006C890.4 253.39 889.425 253.082 888.193 253.082H887.392L885.976 250.957L890.626 244.828H881.602V241.502H894.846V244.52L890.472 250.31Z" fill="white"/>
<path d="M887.082 505.748C887.082 507.391 886.651 508.839 885.789 510.091L878.982 520.347H874.917L879.844 513.109H879.475C877.237 513.109 875.399 512.432 873.962 511.077C872.545 509.701 871.837 507.925 871.837 505.748C871.837 503.572 872.545 501.806 873.962 500.451C875.399 499.075 877.237 498.387 879.475 498.387C881.713 498.387 883.54 499.075 884.957 500.451C886.374 501.806 887.082 503.572 887.082 505.748ZM875.379 505.748C875.379 506.939 875.758 507.904 876.518 508.643C877.298 509.383 878.284 509.752 879.475 509.752C880.666 509.752 881.641 509.393 882.401 508.674C883.161 507.935 883.54 506.96 883.54 505.748C883.54 504.537 883.161 503.572 882.401 502.853C881.641 502.114 880.666 501.744 879.475 501.744C878.284 501.744 877.298 502.114 876.518 502.853C875.758 503.572 875.379 504.537 875.379 505.748ZM888.654 520.347V517.575L896.169 509.906C897.997 508.079 898.91 506.498 898.91 505.163C898.91 504.116 898.592 503.305 897.956 502.73C897.34 502.135 896.549 501.837 895.584 501.837C893.777 501.837 892.443 502.73 891.58 504.516L888.593 502.761C889.27 501.324 890.225 500.235 891.457 499.496C892.689 498.757 894.054 498.387 895.553 498.387C897.442 498.387 899.064 498.983 900.42 500.174C901.775 501.365 902.452 502.987 902.452 505.04C902.452 507.237 901.231 509.578 898.787 512.062L893.921 516.929H902.853V520.347H888.654Z" fill="white"/>
<path d="M1046.79 136.815C1046.79 138.457 1046.36 139.905 1045.5 141.157L1038.69 151.414H1034.63L1039.55 144.176H1039.19C1036.95 144.176 1035.11 143.498 1033.67 142.143C1032.26 140.767 1031.55 138.991 1031.55 136.815C1031.55 134.638 1032.26 132.872 1033.67 131.517C1035.11 130.141 1036.95 129.454 1039.19 129.454C1041.42 129.454 1043.25 130.141 1044.67 131.517C1046.08 132.872 1046.79 134.638 1046.79 136.815ZM1035.09 136.815C1035.09 138.006 1035.47 138.971 1036.23 139.71C1037.01 140.449 1037.99 140.819 1039.19 140.819C1040.38 140.819 1041.35 140.459 1042.11 139.741C1042.87 139.001 1043.25 138.026 1043.25 136.815C1043.25 135.603 1042.87 134.638 1042.11 133.92C1041.35 133.18 1040.38 132.811 1039.19 132.811C1037.99 132.811 1037.01 133.18 1036.23 133.92C1035.47 134.638 1035.09 135.603 1035.09 136.815ZM1064.3 144.237V147.533H1061.83V151.414H1058.26V147.533H1047.67V144.237L1055.09 129.854H1058.94L1051.52 144.237H1058.26V138.632H1061.83V144.237H1064.3Z" fill="white"/>
<path d="M1064.66 279.262C1064.66 280.904 1064.23 282.352 1063.36 283.604L1056.56 293.861H1052.49L1057.42 286.623H1057.05C1054.81 286.623 1052.97 285.945 1051.54 284.59C1050.12 283.214 1049.41 281.438 1049.41 279.262C1049.41 277.085 1050.12 275.319 1051.54 273.964C1052.97 272.589 1054.81 271.901 1057.05 271.901C1059.29 271.901 1061.12 272.589 1062.53 273.964C1063.95 275.319 1064.66 277.085 1064.66 279.262ZM1052.95 279.262C1052.95 280.453 1053.33 281.418 1054.09 282.157C1054.87 282.896 1055.86 283.266 1057.05 283.266C1058.24 283.266 1059.22 282.906 1059.98 282.188C1060.74 281.448 1061.12 280.473 1061.12 279.262C1061.12 278.05 1060.74 277.085 1059.98 276.367C1059.22 275.627 1058.24 275.258 1057.05 275.258C1055.86 275.258 1054.87 275.627 1054.09 276.367C1053.33 277.085 1052.95 278.05 1052.95 279.262ZM1073.29 280.432C1075.35 280.432 1077.08 281.048 1078.5 282.28C1079.92 283.491 1080.62 285.175 1080.62 287.331C1080.62 289.487 1079.89 291.181 1078.44 292.413C1076.98 293.645 1075.19 294.261 1073.08 294.261C1071.37 294.261 1069.86 293.871 1068.55 293.091C1067.24 292.29 1066.3 291.14 1065.75 289.641L1068.8 287.886C1069.37 289.836 1070.8 290.811 1073.08 290.811C1074.29 290.811 1075.25 290.503 1075.97 289.887C1076.71 289.251 1077.08 288.399 1077.08 287.331C1077.08 286.263 1076.72 285.422 1076 284.806C1075.29 284.19 1074.33 283.882 1073.14 283.882H1066.86L1067.69 272.301H1079.7V275.627H1070.95L1070.58 280.432H1073.29Z" fill="white"/>
<path d="M1274.08 102.579H1277.16V124.138H1273.62V106.367L1269.28 107.599L1268.41 104.581L1274.08 102.579ZM1295.4 121.489C1293.92 123.522 1291.84 124.539 1289.17 124.539C1286.5 124.539 1284.42 123.522 1282.92 121.489C1281.44 119.457 1280.7 116.746 1280.7 113.358C1280.7 109.97 1281.44 107.26 1282.92 105.227C1284.42 103.195 1286.5 102.178 1289.17 102.178C1291.84 102.178 1293.92 103.195 1295.4 105.227C1296.89 107.26 1297.64 109.97 1297.64 113.358C1297.64 116.746 1296.89 119.457 1295.4 121.489ZM1289.17 121.089C1290.78 121.089 1292 120.422 1292.84 119.087C1293.68 117.752 1294.1 115.843 1294.1 113.358C1294.1 110.874 1293.68 108.964 1292.84 107.63C1292 106.295 1290.78 105.628 1289.17 105.628C1287.59 105.628 1286.37 106.295 1285.51 107.63C1284.67 108.964 1284.25 110.874 1284.25 113.358C1284.25 115.843 1284.67 117.752 1285.51 119.087C1286.37 120.422 1287.59 121.089 1289.17 121.089ZM1304.34 102.579H1307.42V124.138H1303.88V106.367L1299.53 107.599L1298.67 104.581L1304.34 102.579Z" fill="white"/>
<path d="M1893.31 485.167H1896.39V506.726H1892.85V488.955L1888.5 490.187L1887.64 487.168L1893.31 485.167ZM1914.62 504.077C1913.14 506.11 1911.07 507.126 1908.4 507.126C1905.73 507.126 1903.65 506.11 1902.15 504.077C1900.67 502.045 1899.93 499.334 1899.93 495.946C1899.93 492.558 1900.67 489.848 1902.15 487.815C1903.65 485.783 1905.73 484.766 1908.4 484.766C1911.07 484.766 1913.14 485.783 1914.62 487.815C1916.12 489.848 1916.87 492.558 1916.87 495.946C1916.87 499.334 1916.12 502.045 1914.62 504.077ZM1908.4 503.677C1910 503.677 1911.23 503.01 1912.07 501.675C1912.91 500.34 1913.33 498.431 1913.33 495.946C1913.33 493.462 1912.91 491.552 1912.07 490.218C1911.23 488.883 1910 488.216 1908.4 488.216C1906.82 488.216 1905.6 488.883 1904.74 490.218C1903.89 491.552 1903.47 493.462 1903.47 495.946C1903.47 498.431 1903.89 500.34 1904.74 501.675C1905.6 503.01 1906.82 503.677 1908.4 503.677ZM1926.51 492.404C1928.75 492.404 1930.57 493.092 1931.99 494.468C1933.41 495.823 1934.12 497.589 1934.12 499.765C1934.12 501.942 1933.41 503.718 1931.99 505.094C1930.57 506.449 1928.75 507.126 1926.51 507.126C1924.25 507.126 1922.41 506.449 1921 505.094C1919.58 503.718 1918.87 501.942 1918.87 499.765C1918.87 498.123 1919.3 496.675 1920.16 495.423L1927 485.167H1931.04L1926.11 492.404H1926.51ZM1926.51 503.769C1927.7 503.769 1928.67 503.41 1929.43 502.691C1930.19 501.952 1930.57 500.977 1930.57 499.765C1930.57 498.554 1930.19 497.589 1929.43 496.87C1928.67 496.131 1927.7 495.762 1926.51 495.762C1925.3 495.762 1924.31 496.131 1923.55 496.87C1922.79 497.589 1922.41 498.554 1922.41 499.765C1922.41 500.977 1922.79 501.952 1923.55 502.691C1924.31 503.41 1925.3 503.769 1926.51 503.769Z" fill="white"/>
<path d="M1887.25 330.144H1890.33V351.704H1886.78V333.933L1882.44 335.165L1881.58 332.146L1887.25 330.144ZM1908.56 349.055C1907.08 351.088 1905.01 352.104 1902.34 352.104C1899.67 352.104 1897.59 351.088 1896.09 349.055C1894.61 347.023 1893.87 344.312 1893.87 340.924C1893.87 337.536 1894.61 334.826 1896.09 332.793C1897.59 330.76 1899.67 329.744 1902.34 329.744C1905.01 329.744 1907.08 330.76 1908.56 332.793C1910.06 334.826 1910.81 337.536 1910.81 340.924C1910.81 344.312 1910.06 347.023 1908.56 349.055ZM1902.34 348.655C1903.94 348.655 1905.16 347.988 1906.01 346.653C1906.85 345.318 1907.27 343.409 1907.27 340.924C1907.27 338.44 1906.85 336.53 1906.01 335.196C1905.16 333.861 1903.94 333.194 1902.34 333.194C1900.76 333.194 1899.54 333.861 1898.68 335.196C1897.83 336.53 1897.41 338.44 1897.41 340.924C1897.41 343.409 1897.83 345.318 1898.68 346.653C1899.54 347.988 1900.76 348.655 1902.34 348.655ZM1911.9 330.144H1925.6V333.224L1918.03 351.704H1914.3L1921.75 333.532H1911.9V330.144Z" fill="white"/>
<path d="M1866.61 177.11H1869.69V198.67H1866.15V180.899L1861.81 182.131L1860.95 179.112L1866.61 177.11ZM1887.93 196.021C1886.45 198.054 1884.38 199.07 1881.71 199.07C1879.04 199.07 1876.95 198.054 1875.46 196.021C1873.98 193.988 1873.24 191.278 1873.24 187.89C1873.24 184.502 1873.98 181.792 1875.46 179.759C1876.95 177.726 1879.04 176.71 1881.71 176.71C1884.38 176.71 1886.45 177.726 1887.93 179.759C1889.43 181.792 1890.18 184.502 1890.18 187.89C1890.18 191.278 1889.43 193.988 1887.93 196.021ZM1881.71 195.621C1883.31 195.621 1884.53 194.953 1885.37 193.619C1886.21 192.284 1886.64 190.375 1886.64 187.89C1886.64 185.406 1886.21 183.496 1885.37 182.161C1884.53 180.827 1883.31 180.159 1881.71 180.159C1880.13 180.159 1878.9 180.827 1878.04 182.161C1877.2 183.496 1876.78 185.406 1876.78 187.89C1876.78 190.375 1877.2 192.284 1878.04 193.619C1878.9 194.953 1880.13 195.621 1881.71 195.621ZM1904.43 187.459C1906.55 188.629 1907.61 190.375 1907.61 192.695C1907.61 194.666 1906.92 196.226 1905.54 197.376C1904.17 198.506 1902.34 199.07 1900.06 199.07C1897.78 199.07 1895.94 198.506 1894.55 197.376C1893.17 196.226 1892.48 194.666 1892.48 192.695C1892.48 191.586 1892.76 190.58 1893.32 189.676C1893.87 188.752 1894.65 188.013 1895.66 187.459C1894.03 186.391 1893.22 184.872 1893.22 182.901C1893.22 180.929 1893.88 179.41 1895.19 178.342C1896.51 177.254 1898.13 176.71 1900.06 176.71C1901.97 176.71 1903.58 177.254 1904.9 178.342C1906.23 179.41 1906.9 180.929 1906.9 182.901C1906.9 184.872 1906.08 186.391 1904.43 187.459ZM1900.06 180.067C1899.1 180.067 1898.3 180.324 1897.69 180.837C1897.07 181.35 1896.76 182.09 1896.76 183.055C1896.76 183.979 1897.07 184.707 1897.69 185.241C1898.33 185.775 1899.12 186.042 1900.06 186.042C1900.98 186.042 1901.76 185.775 1902.4 185.241C1903.04 184.707 1903.36 183.979 1903.36 183.055C1903.36 182.09 1903.04 181.35 1902.4 180.837C1901.79 180.324 1901 180.067 1900.06 180.067ZM1900.06 195.713C1901.25 195.713 1902.22 195.426 1902.96 194.851C1903.69 194.255 1904.06 193.424 1904.06 192.356C1904.06 191.288 1903.69 190.467 1902.96 189.892C1902.22 189.297 1901.25 188.999 1900.06 188.999C1898.85 188.999 1897.87 189.297 1897.13 189.892C1896.4 190.467 1896.03 191.288 1896.03 192.356C1896.03 193.424 1896.4 194.255 1897.13 194.851C1897.87 195.426 1898.85 195.713 1900.06 195.713Z" fill="white"/>
<path d="M499.021 544.622C501.136 545.793 502.193 547.538 502.193 549.858C502.193 551.829 501.506 553.39 500.13 554.54C498.754 555.669 496.927 556.234 494.648 556.234C492.368 556.234 490.531 555.669 489.135 554.54C487.759 553.39 487.071 551.829 487.071 549.858C487.071 548.749 487.348 547.743 487.903 546.84C488.457 545.916 489.237 545.177 490.243 544.622C488.621 543.555 487.81 542.035 487.81 540.064C487.81 538.093 488.467 536.573 489.781 535.506C491.095 534.418 492.718 533.873 494.648 533.873C496.557 533.873 498.169 534.418 499.483 535.506C500.818 536.573 501.485 538.093 501.485 540.064C501.485 542.035 500.664 543.555 499.021 544.622ZM494.648 537.231C493.683 537.231 492.892 537.487 492.276 538.001C491.66 538.514 491.352 539.253 491.352 540.218C491.352 541.142 491.66 541.871 492.276 542.405C492.913 542.939 493.703 543.206 494.648 543.206C495.572 543.206 496.352 542.939 496.988 542.405C497.625 541.871 497.943 541.142 497.943 540.218C497.943 539.253 497.625 538.514 496.988 538.001C496.372 537.487 495.592 537.231 494.648 537.231ZM494.648 552.877C495.839 552.877 496.804 552.589 497.543 552.014C498.282 551.419 498.652 550.587 498.652 549.519C498.652 548.452 498.282 547.63 497.543 547.056C496.804 546.46 495.839 546.162 494.648 546.162C493.436 546.162 492.461 546.46 491.722 547.056C490.982 547.63 490.613 548.452 490.613 549.519C490.613 550.587 490.982 551.419 491.722 552.014C492.461 552.589 493.436 552.877 494.648 552.877ZM516.286 544.622C518.4 545.793 519.458 547.538 519.458 549.858C519.458 551.829 518.77 553.39 517.394 554.54C516.019 555.669 514.191 556.234 511.912 556.234C509.633 556.234 507.795 555.669 506.399 554.54C505.023 553.39 504.335 551.829 504.335 549.858C504.335 548.749 504.613 547.743 505.167 546.84C505.721 545.916 506.502 545.177 507.508 544.622C505.886 543.555 505.075 542.035 505.075 540.064C505.075 538.093 505.732 536.573 507.046 535.506C508.36 534.418 509.982 533.873 511.912 533.873C513.822 533.873 515.433 534.418 516.748 535.506C518.082 536.573 518.75 538.093 518.75 540.064C518.75 542.035 517.928 543.555 516.286 544.622ZM511.912 537.231C510.947 537.231 510.157 537.487 509.541 538.001C508.925 538.514 508.617 539.253 508.617 540.218C508.617 541.142 508.925 541.871 509.541 542.405C510.177 542.939 510.968 543.206 511.912 543.206C512.836 543.206 513.616 542.939 514.253 542.405C514.889 541.871 515.208 541.142 515.208 540.218C515.208 539.253 514.889 538.514 514.253 538.001C513.637 537.487 512.857 537.231 511.912 537.231ZM511.912 552.877C513.103 552.877 514.068 552.589 514.807 552.014C515.546 551.419 515.916 550.587 515.916 549.519C515.916 548.452 515.546 547.63 514.807 547.056C514.068 546.46 513.103 546.162 511.912 546.162C510.701 546.162 509.725 546.46 508.986 547.056C508.247 547.63 507.877 548.452 507.877 549.519C507.877 550.587 508.247 551.419 508.986 552.014C509.725 552.589 510.701 552.877 511.912 552.877Z" fill="white"/>
<path d="M13.9752 551.181C16.0901 552.352 17.1476 554.097 17.1476 556.417C17.1476 558.388 16.4597 559.949 15.084 561.099C13.7083 562.228 11.8809 562.793 9.60172 562.793C7.32257 562.793 5.48487 562.228 4.08864 561.099C2.71293 559.949 2.02508 558.388 2.02508 556.417C2.02508 555.308 2.30228 554.302 2.85666 553.399C3.41105 552.475 4.1913 551.736 5.19741 551.181C3.57532 550.114 2.76427 548.594 2.76427 546.623C2.76427 544.652 3.42132 543.132 4.73542 542.065C6.04953 540.976 7.67163 540.432 9.60172 540.432C11.5113 540.432 13.1231 540.976 14.4372 542.065C15.7719 543.132 16.4392 544.652 16.4392 546.623C16.4392 548.594 15.6179 550.114 13.9752 551.181ZM9.60172 543.79C8.63667 543.79 7.84616 544.046 7.23017 544.559C6.61418 545.073 6.30619 545.812 6.30619 546.777C6.30619 547.701 6.61418 548.43 7.23017 548.964C7.86669 549.498 8.65721 549.765 9.60172 549.765C10.5257 549.765 11.3059 549.498 11.9425 548.964C12.579 548.43 12.8972 547.701 12.8972 546.777C12.8972 545.812 12.579 545.073 11.9425 544.559C11.3265 544.046 10.5462 543.79 9.60172 543.79ZM9.60172 559.436C10.7926 559.436 11.7577 559.148 12.4969 558.573C13.236 557.978 13.6056 557.146 13.6056 556.078C13.6056 555.011 13.236 554.189 12.4969 553.614C11.7577 553.019 10.7926 552.721 9.60172 552.721C8.39028 552.721 7.41497 553.019 6.67578 553.614C5.9366 554.189 5.56701 555.011 5.56701 556.078C5.56701 557.146 5.9366 557.978 6.67578 558.573C7.41497 559.148 8.39028 559.436 9.60172 559.436ZM35.8524 555.216V558.512H33.3884V562.392H29.8157V558.512H19.2207V555.216L26.6434 540.833H30.4933L23.0707 555.216H29.8157V549.611H33.3884V555.216H35.8524Z" fill="white"/>
<line x1="0.290527" y1="569.205" x2="38.7897" y2="569.205" stroke="white" stroke-width="1.92496"/>
<line x1="187.973" y1="422.256" x2="226.473" y2="422.256" stroke="white" stroke-width="1.92496"/>
<line x1="195.674" y1="592.625" x2="234.173" y2="592.625" stroke="white" stroke-width="1.92496"/>
<line x1="483.455" y1="562.789" x2="521.954" y2="562.789" stroke="white" stroke-width="1.92496"/>
<line x1="374.695" y1="381.107" x2="413.194" y2="381.107" stroke="white" stroke-width="1.92496"/>
<line x1="538.316" y1="342.847" x2="576.816" y2="342.847" stroke="white" stroke-width="1.92496"/>
<line x1="698.088" y1="305.081" x2="736.587" y2="305.081" stroke="white" stroke-width="1.92496"/>
<line x1="860.747" y1="270.141" x2="899.246" y2="270.141" stroke="white" stroke-width="1.92496"/>
<line x1="1046.51" y1="300.941" x2="1085.01" y2="300.941" stroke="white" stroke-width="1.92496"/>
<line x1="1293.16" y1="267.129" x2="1341.79" y2="267.129" stroke="white" stroke-width="1.92496"/>
<line x1="1553.73" y1="235.827" x2="1601.86" y2="235.827" stroke="white" stroke-width="1.92496"/>
<line x1="1543.14" y1="109.461" x2="1591.27" y2="109.461" stroke="white" stroke-width="1.92496"/>
<line x1="1838.63" y1="36.343" x2="1886.75" y2="36.343" stroke="white" stroke-width="1.92496"/>
<line x1="1861.73" y1="205.709" x2="1909.85" y2="205.709" stroke="white" stroke-width="1.92496"/>
<line x1="1880.97" y1="358.743" x2="1929.1" y2="358.743" stroke="white" stroke-width="1.92496"/>
<line x1="1574.91" y1="404.91" x2="1623.03" y2="404.91" stroke="white" stroke-width="1.92496"/>
<line x1="1595.12" y1="531.027" x2="1643.24" y2="531.027" stroke="white" stroke-width="1.92496"/>
<line x1="1321.78" y1="567.485" x2="1360.27" y2="567.485" stroke="white" stroke-width="1.92496"/>
<line x1="1052.28" y1="471.175" x2="1090.78" y2="471.175" stroke="white" stroke-width="1.92496"/>
<line x1="869.409" y1="527.177" x2="907.908" y2="527.177" stroke="white" stroke-width="1.92496"/>
<line x1="678.838" y1="539.511" x2="717.337" y2="539.511" stroke="white" stroke-width="1.92496"/>
<line x1="1077.31" y1="598.285" x2="1115.8" y2="598.285" stroke="white" stroke-width="1.92496"/>
<line x1="1317.92" y1="436.704" x2="1356.42" y2="436.704" stroke="white" stroke-width="1.92496"/>
<line x1="1887.71" y1="513.702" x2="1935.84" y2="513.702" stroke="white" stroke-width="1.92496"/>
<line x1="1029.18" y1="158.432" x2="1067.68" y2="158.432" stroke="white" stroke-width="1.92496"/>
<line x1="1264.56" y1="129.673" x2="1313.18" y2="129.673" stroke="white" stroke-width="1.92496"/>
</svg>
