<svg width="33" height="33" viewBox="0 0 33 33" fill="none" xmlns="http://www.w3.org/2000/svg">
<path d="M16.5 0C13.2366 0 10.0465 0.967708 7.3331 2.78075C4.61969 4.59379 2.50484 7.17074 1.25599 10.1857C0.00714922 13.2007 -0.319606 16.5183 0.31705 19.719C0.953706 22.9197 2.52518 25.8597 4.83274 28.1673C7.14031 30.4748 10.0803 32.0463 13.281 32.6829C16.4817 33.3196 19.7993 32.9929 22.8143 31.744C25.8293 30.4952 28.4062 28.3803 30.2192 25.6669C32.0323 22.9535 33 19.7634 33 16.5C32.9953 12.1254 31.2554 7.93129 28.162 4.83796C25.0687 1.74464 20.8746 0.00473149 16.5 0V0ZM30.25 16.5C30.2516 19.1946 29.4566 21.8295 27.9648 24.0735L26.3258 22.4331C26.1972 22.3043 26.125 22.1297 26.125 21.9477V20.625C26.125 19.531 25.6904 18.4818 24.9168 17.7082C24.1432 16.9346 23.094 16.5 22 16.5H17.875C17.5103 16.5 17.1606 16.3551 16.9027 16.0973C16.6449 15.8394 16.5 15.4897 16.5 15.125V14.4375C16.5 14.2552 16.5724 14.0803 16.7014 13.9514C16.8303 13.8224 17.0052 13.75 17.1875 13.75C18.0992 13.75 18.9735 13.3878 19.6182 12.7432C20.2628 12.0985 20.625 11.2242 20.625 10.3125V8.9375C20.625 8.75516 20.6974 8.58029 20.8264 8.45136C20.9553 8.32243 21.1302 8.25 21.3125 8.25H23.2086C24.1194 8.24741 24.9924 7.88575 25.6383 7.2435L26.1566 6.72512C27.4535 8.00123 28.4834 9.52276 29.1861 11.201C29.8889 12.8792 30.2506 14.6806 30.25 16.5ZM2.81738 17.8241L7.15963 22.1664C7.54175 22.551 7.99643 22.8558 8.4973 23.0633C8.99816 23.2708 9.53524 23.3767 10.0774 23.375H13.75C14.1147 23.375 14.4644 23.5199 14.7223 23.7777C14.9801 24.0356 15.125 24.3853 15.125 24.75V30.1799C11.9628 29.8571 9.00955 28.4504 6.76628 26.1983C4.52302 23.9463 3.12783 20.9876 2.81738 17.8241ZM17.875 30.1799V24.75C17.875 23.656 17.4404 22.6068 16.6668 21.8332C15.8932 21.0596 14.844 20.625 13.75 20.625H10.0774C9.8966 20.6251 9.71756 20.5896 9.55051 20.5205C9.38347 20.4514 9.23169 20.35 9.10388 20.2221L2.97413 14.0924C3.36762 11.8555 4.31027 9.75135 5.7175 7.96865C7.12472 6.18594 8.9525 4.78047 11.0368 3.87834C13.1212 2.97621 15.3969 2.60564 17.6598 2.79989C19.9226 2.99413 22.1019 3.7471 24.002 4.99125L23.694 5.29925C23.5646 5.42689 23.3904 5.49892 23.2086 5.5H21.3125C20.4008 5.5 19.5265 5.86216 18.8818 6.50682C18.2372 7.15148 17.875 8.02582 17.875 8.9375V10.3125C17.875 10.4948 17.8026 10.6697 17.6736 10.7986C17.5447 10.9276 17.3698 11 17.1875 11C16.2758 11 15.4015 11.3622 14.7568 12.0068C14.1122 12.6515 13.75 13.5258 13.75 14.4375V15.125C13.75 16.219 14.1846 17.2682 14.9582 18.0418C15.7318 18.8154 16.781 19.25 17.875 19.25H22C22.3647 19.25 22.7144 19.3949 22.9723 19.6527C23.2301 19.9106 23.375 20.2603 23.375 20.625V21.9477C23.3776 22.8585 23.7393 23.7316 24.3815 24.3774L26.2199 26.2157C23.9806 28.4627 21.0315 29.8637 17.875 30.1799Z" fill="white"/>
</svg>
