<svg width="34" height="29" viewBox="0 0 34 29" fill="none" xmlns="http://www.w3.org/2000/svg">
<path d="M24.0633 0C22.5154 0.0240772 21.0012 0.456188 19.6737 1.25269C18.3462 2.0492 17.2523 3.1819 16.5027 4.5364C15.753 3.1819 14.6591 2.0492 13.3316 1.25269C12.0041 0.456188 10.4899 0.0240772 8.94199 0C6.47438 0.107211 4.1495 1.18669 2.47526 3.00259C0.801019 4.8185 -0.0864795 7.22322 0.0066549 9.6914C0.0066549 15.942 6.58581 22.7686 12.1037 27.3971C13.3357 28.4324 14.8934 29 16.5027 29C18.1119 29 19.6696 28.4324 20.9016 27.3971C26.4195 22.7686 32.9987 15.942 32.9987 9.6914C33.0918 7.22322 32.2043 4.8185 30.5301 3.00259C28.8558 1.18669 26.5309 0.107211 24.0633 0ZM19.1351 25.2939C18.3983 25.9144 17.466 26.2546 16.5027 26.2546C15.5394 26.2546 14.607 25.9144 13.8702 25.2939C6.80713 19.3677 2.75599 13.6821 2.75599 9.6914C2.66202 7.95206 3.25962 6.24611 4.41846 4.94564C5.5773 3.64516 7.20336 2.85566 8.94199 2.74933C10.6806 2.85566 12.3067 3.64516 13.4655 4.94564C14.6244 6.24611 15.222 7.95206 15.128 9.6914C15.128 10.056 15.2728 10.4056 15.5306 10.6634C15.7884 10.9212 16.1381 11.0661 16.5027 11.0661C16.8672 11.0661 17.2169 10.9212 17.4747 10.6634C17.7325 10.4056 17.8773 10.056 17.8773 9.6914C17.7833 7.95206 18.381 6.24611 19.5398 4.94564C20.6986 3.64516 22.3247 2.85566 24.0633 2.74933C25.802 2.85566 27.428 3.64516 28.5868 4.94564C29.7457 6.24611 30.3433 7.95206 30.2493 9.6914C30.2493 13.6821 26.1982 19.3677 19.1351 25.2884V25.2939Z" fill="white"/>
</svg>
