<svg width="34" height="34" viewBox="0 0 34 34" fill="none" xmlns="http://www.w3.org/2000/svg">
<path d="M32.7548 12.8175L22.0094 2.07064C20.6794 0.744622 18.878 0 17 0C15.122 0 13.3206 0.744622 11.9907 2.07064L1.24527 12.8175C0.849203 13.211 0.535191 13.6792 0.321434 14.195C0.107677 14.7108 -0.00157307 15.2639 1.71126e-05 15.8222V29.7296C1.71126e-05 30.8568 0.447784 31.9378 1.24481 32.7348C2.04184 33.5319 3.12285 33.9796 4.25002 33.9796H29.75C30.8772 33.9796 31.9582 33.5319 32.7552 32.7348C33.5523 31.9378 34 30.8568 34 29.7296V15.8222C34.0016 15.2639 33.8924 14.7108 33.6786 14.195C33.4648 13.6792 33.1508 13.211 32.7548 12.8175ZM21.25 31.1463H12.75V25.5731C12.75 24.446 13.1978 23.365 13.9948 22.5679C14.7918 21.7709 15.8728 21.3231 17 21.3231C18.1272 21.3231 19.2082 21.7709 20.0052 22.5679C20.8023 23.365 21.25 24.446 21.25 25.5731V31.1463ZM31.1667 29.7296C31.1667 30.1054 31.0174 30.4657 30.7518 30.7314C30.4861 30.9971 30.1257 31.1463 29.75 31.1463H24.0834V25.5731C24.0834 23.6945 23.3371 21.8928 22.0087 20.5645C20.6803 19.2361 18.8786 18.4898 17 18.4898C15.1214 18.4898 13.3197 19.2361 11.9913 20.5645C10.663 21.8928 9.91668 23.6945 9.91668 25.5731V31.1463H4.25002C3.87429 31.1463 3.51396 30.9971 3.24828 30.7314C2.98261 30.4657 2.83335 30.1054 2.83335 29.7296V15.8222C2.83466 15.4468 2.98379 15.087 3.24843 14.8206L13.9939 4.07805C14.7924 3.2832 15.8733 2.83697 17 2.83697C18.1267 2.83697 19.2076 3.2832 20.0062 4.07805L30.7516 14.8249C31.0152 15.0902 31.1643 15.4482 31.1667 15.8222V29.7296Z" fill="white"/>
</svg>
