<svg fill="none" height="480" viewBox="0 0 1434 480" width="1434" xmlns="http://www.w3.org/2000/svg" xmlns:xlink="http://www.w3.org/1999/xlink"><filter id="a" color-interpolation-filters="sRGB" filterUnits="userSpaceOnUse" height="49.9132" width="56.6346" x=".54338" y="410"><feFlood flood-opacity="0" result="BackgroundImageFix"/><feColorMatrix in="SourceAlpha" type="matrix" values="0 0 0 0 0 0 0 0 0 0 0 0 0 0 0 0 0 0 127 0"/><feOffset dy="2.45662"/><feGaussianBlur stdDeviation="1.22831"/><feColorMatrix type="matrix" values="0 0 0 0 0 0 0 0 0 0 0 0 0 0 0 0 0 0 0.25 0"/><feBlend in2="BackgroundImageFix" mode="normal" result="effect1_dropShadow"/><feBlend in="SourceGraphic" in2="effect1_dropShadow" mode="normal" result="shape"/></filter><filter id="b" color-interpolation-filters="sRGB" filterUnits="userSpaceOnUse" height="49.4757" width="56.575" x=".558028" y="410.109"><feFlood flood-opacity="0" result="BackgroundImageFix"/><feColorMatrix in="SourceAlpha" type="matrix" values="0 0 0 0 0 0 0 0 0 0 0 0 0 0 0 0 0 0 127 0"/><feOffset dy="2.45662"/><feGaussianBlur stdDeviation="1.22831"/><feColorMatrix type="matrix" values="0 0 0 0 0 0 0 0 0 0 0 0 0 0 0 0 0 0 0.25 0"/><feBlend in2="BackgroundImageFix" mode="normal" result="effect1_dropShadow"/><feBlend in="SourceGraphic" in2="effect1_dropShadow" mode="normal" result="shape"/></filter><filter id="c" color-interpolation-filters="sRGB" filterUnits="userSpaceOnUse" height="22.5382" width="38.4976" x="162.257" y="334.642"><feFlood flood-opacity="0" result="BackgroundImageFix"/><feColorMatrix in="SourceAlpha" type="matrix" values="0 0 0 0 0 0 0 0 0 0 0 0 0 0 0 0 0 0 127 0"/><feOffset dy="3.17505"/><feGaussianBlur stdDeviation="1.58752"/><feColorMatrix type="matrix" values="0 0 0 0 0 0 0 0 0 0 0 0 0 0 0 0 0 0 0.25 0"/><feBlend in2="BackgroundImageFix" mode="normal" result="effect1_dropShadow"/><feBlend in="SourceGraphic" in2="effect1_dropShadow" mode="normal" result="shape"/></filter><filter id="d" color-interpolation-filters="sRGB" filterUnits="userSpaceOnUse" height="40.7742" width="40.7742" x="140.825" y="307"><feFlood flood-opacity="0" result="BackgroundImageFix"/><feColorMatrix in="SourceAlpha" type="matrix" values="0 0 0 0 0 0 0 0 0 0 0 0 0 0 0 0 0 0 127 0"/><feOffset dy="3.17505"/><feGaussianBlur stdDeviation="1.58752"/><feColorMatrix type="matrix" values="0 0 0 0 0 0 0 0 0 0 0 0 0 0 0 0 0 0 0.25 0"/><feBlend in2="BackgroundImageFix" mode="normal" result="effect1_dropShadow"/><feBlend in="SourceGraphic" in2="effect1_dropShadow" mode="normal" result="shape"/></filter><filter id="e" color-interpolation-filters="sRGB" filterUnits="userSpaceOnUse" height="21.874" width="37.3631" x="499.718" y="421.186"><feFlood flood-opacity="0" result="BackgroundImageFix"/><feColorMatrix in="SourceAlpha" type="matrix" values="0 0 0 0 0 0 0 0 0 0 0 0 0 0 0 0 0 0 127 0"/><feOffset dy="3.08148"/><feGaussianBlur stdDeviation="1.54074"/><feColorMatrix type="matrix" values="0 0 0 0 0 0 0 0 0 0 0 0 0 0 0 0 0 0 0.25 0"/><feBlend in2="BackgroundImageFix" mode="normal" result="effect1_dropShadow"/><feBlend in="SourceGraphic" in2="effect1_dropShadow" mode="normal" result="shape"/></filter><filter id="f" color-interpolation-filters="sRGB" filterUnits="userSpaceOnUse" height="39.5726" width="39.5726" x="478.919" y="394.359"><feFlood flood-opacity="0" result="BackgroundImageFix"/><feColorMatrix in="SourceAlpha" type="matrix" values="0 0 0 0 0 0 0 0 0 0 0 0 0 0 0 0 0 0 127 0"/><feOffset dy="3.08148"/><feGaussianBlur stdDeviation="1.54074"/><feColorMatrix type="matrix" values="0 0 0 0 0 0 0 0 0 0 0 0 0 0 0 0 0 0 0.25 0"/><feBlend in2="BackgroundImageFix" mode="normal" result="effect1_dropShadow"/><feBlend in="SourceGraphic" in2="effect1_dropShadow" mode="normal" result="shape"/></filter><filter id="g" color-interpolation-filters="sRGB" filterUnits="userSpaceOnUse" height="23.4201" width="40.0041" x="1114.97" y="204.178"><feFlood flood-opacity="0" result="BackgroundImageFix"/><feColorMatrix in="SourceAlpha" type="matrix" values="0 0 0 0 0 0 0 0 0 0 0 0 0 0 0 0 0 0 127 0"/><feOffset dy="3.29929"/><feGaussianBlur stdDeviation="1.64965"/><feColorMatrix type="matrix" values="0 0 0 0 0 0 0 0 0 0 0 0 0 0 0 0 0 0 0.25 0"/><feBlend in2="BackgroundImageFix" mode="normal" result="effect1_dropShadow"/><feBlend in="SourceGraphic" in2="effect1_dropShadow" mode="normal" result="shape"/></filter><filter id="h" color-interpolation-filters="sRGB" filterUnits="userSpaceOnUse" height="42.3698" width="42.3698" x="1092.7" y="175.454"><feFlood flood-opacity="0" result="BackgroundImageFix"/><feColorMatrix in="SourceAlpha" type="matrix" values="0 0 0 0 0 0 0 0 0 0 0 0 0 0 0 0 0 0 127 0"/><feOffset dy="3.29929"/><feGaussianBlur stdDeviation="1.64965"/><feColorMatrix type="matrix" values="0 0 0 0 0 0 0 0 0 0 0 0 0 0 0 0 0 0 0.25 0"/><feBlend in2="BackgroundImageFix" mode="normal" result="effect1_dropShadow"/><feBlend in="SourceGraphic" in2="effect1_dropShadow" mode="normal" result="shape"/></filter><filter id="i" color-interpolation-filters="sRGB" filterUnits="userSpaceOnUse" height="42.647" width="49.5937" x="268.703" y="280.249"><feFlood flood-opacity="0" result="BackgroundImageFix"/><feColorMatrix in="SourceAlpha" type="matrix" values="0 0 0 0 0 0 0 0 0 0 0 0 0 0 0 0 0 0 127 0"/><feOffset dy="3.29686"/><feGaussianBlur stdDeviation="1.64843"/><feColorMatrix type="matrix" values="0 0 0 0 0 0 0 0 0 0 0 0 0 0 0 0 0 0 0.25 0"/><feBlend in2="BackgroundImageFix" mode="normal" result="effect1_dropShadow"/><feBlend in="SourceGraphic" in2="effect1_dropShadow" mode="normal" result="shape"/></filter><filter id="j" color-interpolation-filters="sRGB" filterUnits="userSpaceOnUse" height="42.7904" width="49.1814" x="268.809" y="280"><feFlood flood-opacity="0" result="BackgroundImageFix"/><feColorMatrix in="SourceAlpha" type="matrix" values="0 0 0 0 0 0 0 0 0 0 0 0 0 0 0 0 0 0 127 0"/><feOffset dy="3.29686"/><feGaussianBlur stdDeviation="1.64843"/><feColorMatrix type="matrix" values="0 0 0 0 0 0 0 0 0 0 0 0 0 0 0 0 0 0 0.25 0"/><feBlend in2="BackgroundImageFix" mode="normal" result="effect1_dropShadow"/><feBlend in="SourceGraphic" in2="effect1_dropShadow" mode="normal" result="shape"/></filter><filter id="k" color-interpolation-filters="sRGB" filterUnits="userSpaceOnUse" height="40.4233" width="47.1808" x="741.843" y="348"><feFlood flood-opacity="0" result="BackgroundImageFix"/><feColorMatrix in="SourceAlpha" type="matrix" values="0 0 0 0 0 0 0 0 0 0 0 0 0 0 0 0 0 0 127 0"/><feOffset dy="3.15715"/><feGaussianBlur stdDeviation="1.57857"/><feColorMatrix type="matrix" values="0 0 0 0 0 0 0 0 0 0 0 0 0 0 0 0 0 0 0.25 0"/><feBlend in2="BackgroundImageFix" mode="normal" result="effect1_dropShadow"/><feBlend in="SourceGraphic" in2="effect1_dropShadow" mode="normal" result="shape"/></filter><filter id="l" color-interpolation-filters="sRGB" filterUnits="userSpaceOnUse" height="40.5661" width="46.783" x="742.136" y="348.099"><feFlood flood-opacity="0" result="BackgroundImageFix"/><feColorMatrix in="SourceAlpha" type="matrix" values="0 0 0 0 0 0 0 0 0 0 0 0 0 0 0 0 0 0 127 0"/><feOffset dy="3.15715"/><feGaussianBlur stdDeviation="1.57857"/><feColorMatrix type="matrix" values="0 0 0 0 0 0 0 0 0 0 0 0 0 0 0 0 0 0 0.25 0"/><feBlend in2="BackgroundImageFix" mode="normal" result="effect1_dropShadow"/><feBlend in="SourceGraphic" in2="effect1_dropShadow" mode="normal" result="shape"/></filter><filter id="m" color-interpolation-filters="sRGB" filterUnits="userSpaceOnUse" height="42.4069" width="62.8912" x="718.878" y="124"><feFlood flood-opacity="0" result="BackgroundImageFix"/><feColorMatrix in="SourceAlpha" type="matrix" values="0 0 0 0 0 0 0 0 0 0 0 0 0 0 0 0 0 0 127 0"/><feOffset dy="3.12211"/><feGaussianBlur stdDeviation="1.56106"/><feColorMatrix type="matrix" values="0 0 0 0 0 0 0 0 0 0 0 0 0 0 0 0 0 0 0.25 0"/><feBlend in2="BackgroundImageFix" mode="normal" result="effect1_dropShadow"/><feBlend in="SourceGraphic" in2="effect1_dropShadow" mode="normal" result="shape"/></filter><filter id="n" color-interpolation-filters="sRGB" filterUnits="userSpaceOnUse" height="40.5224" width="46.5746" x="725.894" y="124.908"><feFlood flood-opacity="0" result="BackgroundImageFix"/><feColorMatrix in="SourceAlpha" type="matrix" values="0 0 0 0 0 0 0 0 0 0 0 0 0 0 0 0 0 0 127 0"/><feOffset dy="3.12211"/><feGaussianBlur stdDeviation="1.56106"/><feColorMatrix type="matrix" values="0 0 0 0 0 0 0 0 0 0 0 0 0 0 0 0 0 0 0.25 0"/><feBlend in2="BackgroundImageFix" mode="normal" result="effect1_dropShadow"/><feBlend in="SourceGraphic" in2="effect1_dropShadow" mode="normal" result="shape"/></filter><filter id="o" color-interpolation-filters="sRGB" filterUnits="userSpaceOnUse" height="64.5405" width="42.4799" x="618.76" y="377"><feFlood flood-opacity="0" result="BackgroundImageFix"/><feColorMatrix in="SourceAlpha" type="matrix" values="0 0 0 0 0 0 0 0 0 0 0 0 0 0 0 0 0 0 127 0"/><feOffset dy="3.23996"/><feGaussianBlur stdDeviation="1.61998"/><feColorMatrix type="matrix" values="0 0 0 0 0 0 0 0 0 0 0 0 0 0 0 0 0 0 0.25 0"/><feBlend in2="BackgroundImageFix" mode="normal" result="effect1_dropShadow"/><feBlend in="SourceGraphic" in2="effect1_dropShadow" mode="normal" result="shape"/></filter><filter id="p" color-interpolation-filters="sRGB" filterUnits="userSpaceOnUse" height="47.546" width="41.0281" x="619.415" y="386.681"><feFlood flood-opacity="0" result="BackgroundImageFix"/><feColorMatrix in="SourceAlpha" type="matrix" values="0 0 0 0 0 0 0 0 0 0 0 0 0 0 0 0 0 0 127 0"/><feOffset dy="3.23996"/><feGaussianBlur stdDeviation="1.61998"/><feColorMatrix type="matrix" values="0 0 0 0 0 0 0 0 0 0 0 0 0 0 0 0 0 0 0.25 0"/><feBlend in2="BackgroundImageFix" mode="normal" result="effect1_dropShadow"/><feBlend in="SourceGraphic" in2="effect1_dropShadow" mode="normal" result="shape"/></filter><filter id="q" color-interpolation-filters="sRGB" filterUnits="userSpaceOnUse" height="44.0025" width="66.3341" x="923.682" y="322"><feFlood flood-opacity="0" result="BackgroundImageFix"/><feColorMatrix in="SourceAlpha" type="matrix" values="0 0 0 0 0 0 0 0 0 0 0 0 0 0 0 0 0 0 127 0"/><feOffset dy="3.31787"/><feGaussianBlur stdDeviation="1.65894"/><feColorMatrix type="matrix" values="0 0 0 0 0 0 0 0 0 0 0 0 0 0 0 0 0 0 0.25 0"/><feBlend in2="BackgroundImageFix" mode="normal" result="effect1_dropShadow"/><feBlend in="SourceGraphic" in2="effect1_dropShadow" mode="normal" result="shape"/></filter><filter id="r" color-interpolation-filters="sRGB" filterUnits="userSpaceOnUse" height="42.3515" width="48.9495" x="933.588" y="322.887"><feFlood flood-opacity="0" result="BackgroundImageFix"/><feColorMatrix in="SourceAlpha" type="matrix" values="0 0 0 0 0 0 0 0 0 0 0 0 0 0 0 0 0 0 127 0"/><feOffset dy="3.31787"/><feGaussianBlur stdDeviation="1.65894"/><feColorMatrix type="matrix" values="0 0 0 0 0 0 0 0 0 0 0 0 0 0 0 0 0 0 0.25 0"/><feBlend in2="BackgroundImageFix" mode="normal" result="effect1_dropShadow"/><feBlend in="SourceGraphic" in2="effect1_dropShadow" mode="normal" result="shape"/></filter><filter id="s" color-interpolation-filters="sRGB" filterUnits="userSpaceOnUse" height="43.2073" width="65.8318" x="1114.69" y="387"><feFlood flood-opacity="0" result="BackgroundImageFix"/><feColorMatrix in="SourceAlpha" type="matrix" values="0 0 0 0 0 0 0 0 0 0 0 0 0 0 0 0 0 0 127 0"/><feOffset dy="3.3092"/><feGaussianBlur stdDeviation="1.6546"/><feColorMatrix type="matrix" values="0 0 0 0 0 0 0 0 0 0 0 0 0 0 0 0 0 0 0.25 0"/><feBlend in2="BackgroundImageFix" mode="normal" result="effect1_dropShadow"/><feBlend in="SourceGraphic" in2="effect1_dropShadow" mode="normal" result="shape"/></filter><filter id="t" color-interpolation-filters="sRGB" filterUnits="userSpaceOnUse" height="41.7833" width="48.4679" x="1124.55" y="387.413"><feFlood flood-opacity="0" result="BackgroundImageFix"/><feColorMatrix in="SourceAlpha" type="matrix" values="0 0 0 0 0 0 0 0 0 0 0 0 0 0 0 0 0 0 127 0"/><feOffset dy="3.3092"/><feGaussianBlur stdDeviation="1.6546"/><feColorMatrix type="matrix" values="0 0 0 0 0 0 0 0 0 0 0 0 0 0 0 0 0 0 0.25 0"/><feBlend in2="BackgroundImageFix" mode="normal" result="effect1_dropShadow"/><feBlend in="SourceGraphic" in2="effect1_dropShadow" mode="normal" result="shape"/></filter><filter id="u" color-interpolation-filters="sRGB" filterUnits="userSpaceOnUse" height="40.0956" width="60.4444" x="140.977" y="431"><feFlood flood-opacity="0" result="BackgroundImageFix"/><feColorMatrix in="SourceAlpha" type="matrix" values="0 0 0 0 0 0 0 0 0 0 0 0 0 0 0 0 0 0 127 0"/><feOffset dy="3.02329"/><feGaussianBlur stdDeviation="1.51164"/><feColorMatrix type="matrix" values="0 0 0 0 0 0 0 0 0 0 0 0 0 0 0 0 0 0 0.25 0"/><feBlend in2="BackgroundImageFix" mode="normal" result="effect1_dropShadow"/><feBlend in="SourceGraphic" in2="effect1_dropShadow" mode="normal" result="shape"/></filter><filter id="v" color-interpolation-filters="sRGB" filterUnits="userSpaceOnUse" height="38.5912" width="44.6034" x="150.003" y="431.808"><feFlood flood-opacity="0" result="BackgroundImageFix"/><feColorMatrix in="SourceAlpha" type="matrix" values="0 0 0 0 0 0 0 0 0 0 0 0 0 0 0 0 0 0 127 0"/><feOffset dy="3.02329"/><feGaussianBlur stdDeviation="1.51164"/><feColorMatrix type="matrix" values="0 0 0 0 0 0 0 0 0 0 0 0 0 0 0 0 0 0 0.25 0"/><feBlend in2="BackgroundImageFix" mode="normal" result="effect1_dropShadow"/><feBlend in="SourceGraphic" in2="effect1_dropShadow" mode="normal" result="shape"/></filter><filter id="w" color-interpolation-filters="sRGB" filterUnits="userSpaceOnUse" height="42.3455" width="62.8" x="888.163" y="106.39"><feFlood flood-opacity="0" result="BackgroundImageFix"/><feColorMatrix in="SourceAlpha" type="matrix" values="0 0 0 0 0 0 0 0 0 0 0 0 0 0 0 0 0 0 127 0"/><feOffset dy="3.11759"/><feGaussianBlur stdDeviation="1.5588"/><feColorMatrix type="matrix" values="0 0 0 0 0 0 0 0 0 0 0 0 0 0 0 0 0 0 0.25 0"/><feBlend in2="BackgroundImageFix" mode="normal" result="effect1_dropShadow"/><feBlend in="SourceGraphic" in2="effect1_dropShadow" mode="normal" result="shape"/></filter><filter id="x" color-interpolation-filters="sRGB" filterUnits="userSpaceOnUse" height="42.6824" width="63.2805" x="887.882" y="106"><feFlood flood-opacity="0" result="BackgroundImageFix"/><feColorMatrix in="SourceAlpha" type="matrix" values="0 0 0 0 0 0 0 0 0 0 0 0 0 0 0 0 0 0 127 0"/><feOffset dy="3.11759"/><feGaussianBlur stdDeviation="1.5588"/><feColorMatrix type="matrix" values="0 0 0 0 0 0 0 0 0 0 0 0 0 0 0 0 0 0 0.25 0"/><feBlend in2="BackgroundImageFix" mode="normal" result="effect1_dropShadow"/><feBlend in="SourceGraphic" in2="effect1_dropShadow" mode="normal" result="shape"/></filter><filter id="y" color-interpolation-filters="sRGB" filterUnits="userSpaceOnUse" height="44.2835" width="67.5453" x="1321.83" y="266"><feFlood flood-opacity="0" result="BackgroundImageFix"/><feColorMatrix in="SourceAlpha" type="matrix" values="0 0 0 0 0 0 0 0 0 0 0 0 0 0 0 0 0 0 127 0"/><feOffset dy="3.39709"/><feGaussianBlur stdDeviation="1.69854"/><feColorMatrix type="matrix" values="0 0 0 0 0 0 0 0 0 0 0 0 0 0 0 0 0 0 0.25 0"/><feBlend in2="BackgroundImageFix" mode="normal" result="effect1_dropShadow"/><feBlend in="SourceGraphic" in2="effect1_dropShadow" mode="normal" result="shape"/></filter><filter id="z" color-interpolation-filters="sRGB" filterUnits="userSpaceOnUse" height="44.6351" width="68.0602" x="1321.6" y="266.067"><feFlood flood-opacity="0" result="BackgroundImageFix"/><feColorMatrix in="SourceAlpha" type="matrix" values="0 0 0 0 0 0 0 0 0 0 0 0 0 0 0 0 0 0 127 0"/><feOffset dy="3.39709"/><feGaussianBlur stdDeviation="1.69854"/><feColorMatrix type="matrix" values="0 0 0 0 0 0 0 0 0 0 0 0 0 0 0 0 0 0 0.25 0"/><feBlend in2="BackgroundImageFix" mode="normal" result="effect1_dropShadow"/><feBlend in="SourceGraphic" in2="effect1_dropShadow" mode="normal" result="shape"/></filter><filter id="A" color-interpolation-filters="sRGB" filterUnits="userSpaceOnUse" height="42.2144" width="63.5846" x="746.027" y="437"><feFlood flood-opacity="0" result="BackgroundImageFix"/><feColorMatrix in="SourceAlpha" type="matrix" values="0 0 0 0 0 0 0 0 0 0 0 0 0 0 0 0 0 0 127 0"/><feOffset dy="3.1791"/><feGaussianBlur stdDeviation="1.58955"/><feColorMatrix type="matrix" values="0 0 0 0 0 0 0 0 0 0 0 0 0 0 0 0 0 0 0.25 0"/><feBlend in2="BackgroundImageFix" mode="normal" result="effect1_dropShadow"/><feBlend in="SourceGraphic" in2="effect1_dropShadow" mode="normal" result="shape"/></filter><filter id="B" color-interpolation-filters="sRGB" filterUnits="userSpaceOnUse" height="42.5499" width="64.0701" x="745.821" y="437.058"><feFlood flood-opacity="0" result="BackgroundImageFix"/><feColorMatrix in="SourceAlpha" type="matrix" values="0 0 0 0 0 0 0 0 0 0 0 0 0 0 0 0 0 0 127 0"/><feOffset dy="3.1791"/><feGaussianBlur stdDeviation="1.58955"/><feColorMatrix type="matrix" values="0 0 0 0 0 0 0 0 0 0 0 0 0 0 0 0 0 0 0.25 0"/><feBlend in2="BackgroundImageFix" mode="normal" result="effect1_dropShadow"/><feBlend in="SourceGraphic" in2="effect1_dropShadow" mode="normal" result="shape"/></filter><filter id="C" color-interpolation-filters="sRGB" filterUnits="userSpaceOnUse" height="73.6738" width="61.4784" x="599.091" y="185.02"><feFlood flood-opacity="0" result="BackgroundImageFix"/><feColorMatrix in="SourceAlpha" type="matrix" values="0 0 0 0 0 0 0 0 0 0 0 0 0 0 0 0 0 0 127 0"/><feOffset dy="2.9116"/><feGaussianBlur stdDeviation="1.4558"/><feColorMatrix type="matrix" values="0 0 0 0 0 0 0 0 0 0 0 0 0 0 0 0 0 0 0.25 0"/><feBlend in2="BackgroundImageFix" mode="normal" result="effect1_dropShadow"/><feBlend in="SourceGraphic" in2="effect1_dropShadow" mode="normal" result="shape"/></filter><filter id="D" color-interpolation-filters="sRGB" filterUnits="userSpaceOnUse" height="73.8232" width="61.4965" x="599.088" y="185"><feFlood flood-opacity="0" result="BackgroundImageFix"/><feColorMatrix in="SourceAlpha" type="matrix" values="0 0 0 0 0 0 0 0 0 0 0 0 0 0 0 0 0 0 127 0"/><feOffset dy="2.9116"/><feGaussianBlur stdDeviation="1.4558"/><feColorMatrix type="matrix" values="0 0 0 0 0 0 0 0 0 0 0 0 0 0 0 0 0 0 0.25 0"/><feBlend in2="BackgroundImageFix" mode="normal" result="effect1_dropShadow"/><feBlend in="SourceGraphic" in2="effect1_dropShadow" mode="normal" result="shape"/></filter><filter id="E" color-interpolation-filters="sRGB" filterUnits="userSpaceOnUse" height="52.2948" width="62.7402" x="918.954" y="401.002"><feFlood flood-opacity="0" result="BackgroundImageFix"/><feColorMatrix in="SourceAlpha" type="matrix" values="0 0 0 0 0 0 0 0 0 0 0 0 0 0 0 0 0 0 127 0"/><feOffset dy="3.15401"/><feGaussianBlur stdDeviation="1.57701"/><feColorMatrix type="matrix" values="0 0 0 0 0 0 0 0 0 0 0 0 0 0 0 0 0 0 0.25 0"/><feBlend in2="BackgroundImageFix" mode="normal" result="effect1_dropShadow"/><feBlend in="SourceGraphic" in2="effect1_dropShadow" mode="normal" result="shape"/></filter><filter id="F" color-interpolation-filters="sRGB" filterUnits="userSpaceOnUse" height="52.308" width="62.8659" x="918.846" y="401"><feFlood flood-opacity="0" result="BackgroundImageFix"/><feColorMatrix in="SourceAlpha" type="matrix" values="0 0 0 0 0 0 0 0 0 0 0 0 0 0 0 0 0 0 127 0"/><feOffset dy="3.15401"/><feGaussianBlur stdDeviation="1.57701"/><feColorMatrix type="matrix" values="0 0 0 0 0 0 0 0 0 0 0 0 0 0 0 0 0 0 0.25 0"/><feBlend in2="BackgroundImageFix" mode="normal" result="effect1_dropShadow"/><feBlend in="SourceGraphic" in2="effect1_dropShadow" mode="normal" result="shape"/></filter><filter id="G" color-interpolation-filters="sRGB" filterUnits="userSpaceOnUse" height="50.6358" width="43.4746" x="386.624" y="252"><feFlood flood-opacity="0" result="BackgroundImageFix"/><feColorMatrix in="SourceAlpha" type="matrix" values="0 0 0 0 0 0 0 0 0 0 0 0 0 0 0 0 0 0 127 0"/><feOffset dy="3.3756"/><feGaussianBlur stdDeviation="1.6878"/><feColorMatrix type="matrix" values="0 0 0 0 0 0 0 0 0 0 0 0 0 0 0 0 0 0 0.25 0"/><feBlend in2="BackgroundImageFix" mode="normal" result="effect1_dropShadow"/><feBlend in="SourceGraphic" in2="effect1_dropShadow" mode="normal" result="shape"/></filter><filter id="H" color-interpolation-filters="sRGB" filterUnits="userSpaceOnUse" height="50.4126" width="43.6483" x="386.727" y="252.075"><feFlood flood-opacity="0" result="BackgroundImageFix"/><feColorMatrix in="SourceAlpha" type="matrix" values="0 0 0 0 0 0 0 0 0 0 0 0 0 0 0 0 0 0 127 0"/><feOffset dy="3.3756"/><feGaussianBlur stdDeviation="1.6878"/><feColorMatrix type="matrix" values="0 0 0 0 0 0 0 0 0 0 0 0 0 0 0 0 0 0 0.25 0"/><feBlend in2="BackgroundImageFix" mode="normal" result="effect1_dropShadow"/><feBlend in="SourceGraphic" in2="effect1_dropShadow" mode="normal" result="shape"/></filter><filter id="I" color-interpolation-filters="sRGB" filterUnits="userSpaceOnUse" height="53.732" width="45.6829" x="348.661" y="403"><feFlood flood-opacity="0" result="BackgroundImageFix"/><feColorMatrix in="SourceAlpha" type="matrix" values="0 0 0 0 0 0 0 0 0 0 0 0 0 0 0 0 0 0 127 0"/><feOffset dy="3.64624"/><feGaussianBlur stdDeviation="1.82312"/><feColorMatrix type="matrix" values="0 0 0 0 0 0 0 0 0 0 0 0 0 0 0 0 0 0 0.25 0"/><feBlend in2="BackgroundImageFix" mode="normal" result="effect1_dropShadow"/><feBlend in="SourceGraphic" in2="effect1_dropShadow" mode="normal" result="shape"/></filter><filter id="J" color-interpolation-filters="sRGB" filterUnits="userSpaceOnUse" height="53.483" width="45.8799" x="348.354" y="403.129"><feFlood flood-opacity="0" result="BackgroundImageFix"/><feColorMatrix in="SourceAlpha" type="matrix" values="0 0 0 0 0 0 0 0 0 0 0 0 0 0 0 0 0 0 127 0"/><feOffset dy="3.64624"/><feGaussianBlur stdDeviation="1.82312"/><feColorMatrix type="matrix" values="0 0 0 0 0 0 0 0 0 0 0 0 0 0 0 0 0 0 0.25 0"/><feBlend in2="BackgroundImageFix" mode="normal" result="effect1_dropShadow"/><feBlend in="SourceGraphic" in2="effect1_dropShadow" mode="normal" result="shape"/></filter><filter id="K" color-interpolation-filters="sRGB" filterUnits="userSpaceOnUse" height="43.1506" width="50.0007" x="911.697" y="201.271"><feFlood flood-opacity="0" result="BackgroundImageFix"/><feColorMatrix in="SourceAlpha" type="matrix" values="0 0 0 0 0 0 0 0 0 0 0 0 0 0 0 0 0 0 127 0"/><feOffset dy="3.30298"/><feGaussianBlur stdDeviation="1.65149"/><feColorMatrix type="matrix" values="0 0 0 0 0 0 0 0 0 0 0 0 0 0 0 0 0 0 0.25 0"/><feBlend in2="BackgroundImageFix" mode="normal" result="effect1_dropShadow"/><feBlend in="SourceGraphic" in2="effect1_dropShadow" mode="normal" result="shape"/></filter><filter id="L" color-interpolation-filters="sRGB" filterUnits="userSpaceOnUse" height="43.3159" width="49.7864" x="911.791" y="201"><feFlood flood-opacity="0" result="BackgroundImageFix"/><feColorMatrix in="SourceAlpha" type="matrix" values="0 0 0 0 0 0 0 0 0 0 0 0 0 0 0 0 0 0 127 0"/><feOffset dy="3.30298"/><feGaussianBlur stdDeviation="1.65149"/><feColorMatrix type="matrix" values="0 0 0 0 0 0 0 0 0 0 0 0 0 0 0 0 0 0 0.25 0"/><feBlend in2="BackgroundImageFix" mode="normal" result="effect1_dropShadow"/><feBlend in="SourceGraphic" in2="effect1_dropShadow" mode="normal" result="shape"/></filter><filter id="M" color-interpolation-filters="sRGB" filterUnits="userSpaceOnUse" height="48.9174" width="38.6561" x="742.041" y="221"><feFlood flood-opacity="0" result="BackgroundImageFix"/><feColorMatrix in="SourceAlpha" type="matrix" values="0 0 0 0 0 0 0 0 0 0 0 0 0 0 0 0 0 0 127 0"/><feOffset dy="2.95869"/><feGaussianBlur stdDeviation="1.47934"/><feColorMatrix type="matrix" values="0 0 0 0 0 0 0 0 0 0 0 0 0 0 0 0 0 0 0.25 0"/><feBlend in2="BackgroundImageFix" mode="normal" result="effect1_dropShadow"/><feBlend in="SourceGraphic" in2="effect1_dropShadow" mode="normal" result="shape"/></filter><filter id="N" color-interpolation-filters="sRGB" filterUnits="userSpaceOnUse" height="44.1863" width="38.2574" x="742.35" y="225.665"><feFlood flood-opacity="0" result="BackgroundImageFix"/><feColorMatrix in="SourceAlpha" type="matrix" values="0 0 0 0 0 0 0 0 0 0 0 0 0 0 0 0 0 0 127 0"/><feOffset dy="2.95869"/><feGaussianBlur stdDeviation="1.47934"/><feColorMatrix type="matrix" values="0 0 0 0 0 0 0 0 0 0 0 0 0 0 0 0 0 0 0.25 0"/><feBlend in2="BackgroundImageFix" mode="normal" result="effect1_dropShadow"/><feBlend in="SourceGraphic" in2="effect1_dropShadow" mode="normal" result="shape"/></filter><filter id="O" color-interpolation-filters="sRGB" filterUnits="userSpaceOnUse" height="59.838" width="47.5137" x="1328.4" y="360.519"><feFlood flood-opacity="0" result="BackgroundImageFix"/><feColorMatrix in="SourceAlpha" type="matrix" values="0 0 0 0 0 0 0 0 0 0 0 0 0 0 0 0 0 0 127 0"/><feOffset dy="3.60164"/><feGaussianBlur stdDeviation="1.80082"/><feColorMatrix type="matrix" values="0 0 0 0 0 0 0 0 0 0 0 0 0 0 0 0 0 0 0.25 0"/><feBlend in2="BackgroundImageFix" mode="normal" result="effect1_dropShadow"/><feBlend in="SourceGraphic" in2="effect1_dropShadow" mode="normal" result="shape"/></filter><filter id="P" color-interpolation-filters="sRGB" filterUnits="userSpaceOnUse" height="54.0887" width="46.9679" x="1329.24" y="366.138"><feFlood flood-opacity="0" result="BackgroundImageFix"/><feColorMatrix in="SourceAlpha" type="matrix" values="0 0 0 0 0 0 0 0 0 0 0 0 0 0 0 0 0 0 127 0"/><feOffset dy="3.60164"/><feGaussianBlur stdDeviation="1.80082"/><feColorMatrix type="matrix" values="0 0 0 0 0 0 0 0 0 0 0 0 0 0 0 0 0 0 0.25 0"/><feBlend in2="BackgroundImageFix" mode="normal" result="effect1_dropShadow"/><feBlend in="SourceGraphic" in2="effect1_dropShadow" mode="normal" result="shape"/></filter><filter id="Q" color-interpolation-filters="sRGB" filterUnits="userSpaceOnUse" height="43.343" width="54.9672" x="1293.67" y="39.2769"><feFlood flood-opacity="0" result="BackgroundImageFix"/><feColorMatrix in="SourceAlpha" type="matrix" values="0 0 0 0 0 0 0 0 0 0 0 0 0 0 0 0 0 0 127 0"/><feOffset dy="3.33194"/><feGaussianBlur stdDeviation="1.66597"/><feColorMatrix type="matrix" values="0 0 0 0 0 0 0 0 0 0 0 0 0 0 0 0 0 0 0.25 0"/><feBlend in2="BackgroundImageFix" mode="normal" result="effect1_dropShadow"/><feBlend in="SourceGraphic" in2="effect1_dropShadow" mode="normal" result="shape"/></filter><filter id="R" color-interpolation-filters="sRGB" filterUnits="userSpaceOnUse" height="42.919" width="49.6354" x="1298.88" y="39"><feFlood flood-opacity="0" result="BackgroundImageFix"/><feColorMatrix in="SourceAlpha" type="matrix" values="0 0 0 0 0 0 0 0 0 0 0 0 0 0 0 0 0 0 127 0"/><feOffset dy="3.33194"/><feGaussianBlur stdDeviation="1.66597"/><feColorMatrix type="matrix" values="0 0 0 0 0 0 0 0 0 0 0 0 0 0 0 0 0 0 0.25 0"/><feBlend in2="BackgroundImageFix" mode="normal" result="effect1_dropShadow"/><feBlend in="SourceGraphic" in2="effect1_dropShadow" mode="normal" result="shape"/></filter><filter id="S" color-interpolation-filters="sRGB" filterUnits="userSpaceOnUse" height="42.2259" width="53.5504" x="1086.75" y="89.2844"><feFlood flood-opacity="0" result="BackgroundImageFix"/><feColorMatrix in="SourceAlpha" type="matrix" values="0 0 0 0 0 0 0 0 0 0 0 0 0 0 0 0 0 0 127 0"/><feOffset dy="3.24606"/><feGaussianBlur stdDeviation="1.62303"/><feColorMatrix type="matrix" values="0 0 0 0 0 0 0 0 0 0 0 0 0 0 0 0 0 0 0.25 0"/><feBlend in2="BackgroundImageFix" mode="normal" result="effect1_dropShadow"/><feBlend in="SourceGraphic" in2="effect1_dropShadow" mode="normal" result="shape"/></filter><filter id="T" color-interpolation-filters="sRGB" filterUnits="userSpaceOnUse" height="41.8275" width="48.4823" x="1091.83" y="89"><feFlood flood-opacity="0" result="BackgroundImageFix"/><feColorMatrix in="SourceAlpha" type="matrix" values="0 0 0 0 0 0 0 0 0 0 0 0 0 0 0 0 0 0 127 0"/><feOffset dy="3.24606"/><feGaussianBlur stdDeviation="1.62303"/><feColorMatrix type="matrix" values="0 0 0 0 0 0 0 0 0 0 0 0 0 0 0 0 0 0 0.25 0"/><feBlend in2="BackgroundImageFix" mode="normal" result="effect1_dropShadow"/><feBlend in="SourceGraphic" in2="effect1_dropShadow" mode="normal" result="shape"/></filter><filter id="U" color-interpolation-filters="sRGB" filterUnits="userSpaceOnUse" height="80.6118" width="46.3403" x="496.695" y="206.004"><feFlood flood-opacity="0" result="BackgroundImageFix"/><feColorMatrix in="SourceAlpha" type="matrix" values="0 0 0 0 0 0 0 0 0 0 0 0 0 0 0 0 0 0 127 0"/><feOffset dy="3.30545"/><feGaussianBlur stdDeviation="1.65273"/><feColorMatrix type="matrix" values="0 0 0 0 0 0 0 0 0 0 0 0 0 0 0 0 0 0 0.25 0"/><feBlend in2="BackgroundImageFix" mode="normal" result="effect1_dropShadow"/><feBlend in="SourceGraphic" in2="effect1_dropShadow" mode="normal" result="shape"/></filter><filter id="V" color-interpolation-filters="sRGB" filterUnits="userSpaceOnUse" height="78.279" width="46.2865" x="496.695" y="206"><feFlood flood-opacity="0" result="BackgroundImageFix"/><feColorMatrix in="SourceAlpha" type="matrix" values="0 0 0 0 0 0 0 0 0 0 0 0 0 0 0 0 0 0 127 0"/><feOffset dy="3.30545"/><feGaussianBlur stdDeviation="1.65273"/><feColorMatrix type="matrix" values="0 0 0 0 0 0 0 0 0 0 0 0 0 0 0 0 0 0 0.25 0"/><feBlend in2="BackgroundImageFix" mode="normal" result="effect1_dropShadow"/><feBlend in="SourceGraphic" in2="effect1_dropShadow" mode="normal" result="shape"/></filter><filter id="W" color-interpolation-filters="sRGB" filterUnits="userSpaceOnUse" height="40.9305" width="72.096" x="1306.04" y="158"><feFlood flood-opacity="0" result="BackgroundImageFix"/><feColorMatrix in="SourceAlpha" type="matrix" values="0 0 0 0 0 0 0 0 0 0 0 0 0 0 0 0 0 0 127 0"/><feOffset dy="2.96539"/><feGaussianBlur stdDeviation="1.48269"/><feColorMatrix type="matrix" values="0 0 0 0 0 0 0 0 0 0 0 0 0 0 0 0 0 0 0.25 0"/><feBlend in2="BackgroundImageFix" mode="normal" result="effect1_dropShadow"/><feBlend in="SourceGraphic" in2="effect1_dropShadow" mode="normal" result="shape"/></filter><filter id="X" color-interpolation-filters="sRGB" filterUnits="userSpaceOnUse" height="40.9053" width="69.9984" x="1306.03" y="158.025"><feFlood flood-opacity="0" result="BackgroundImageFix"/><feColorMatrix in="SourceAlpha" type="matrix" values="0 0 0 0 0 0 0 0 0 0 0 0 0 0 0 0 0 0 127 0"/><feOffset dy="2.96539"/><feGaussianBlur stdDeviation="1.48269"/><feColorMatrix type="matrix" values="0 0 0 0 0 0 0 0 0 0 0 0 0 0 0 0 0 0 0.25 0"/><feBlend in2="BackgroundImageFix" mode="normal" result="effect1_dropShadow"/><feBlend in="SourceGraphic" in2="effect1_dropShadow" mode="normal" result="shape"/></filter><filter id="Y" color-interpolation-filters="sRGB" filterUnits="userSpaceOnUse" height="41.2071" width="73.0156" x="1099.99" y="297"><feFlood flood-opacity="0" result="BackgroundImageFix"/><feColorMatrix in="SourceAlpha" type="matrix" values="0 0 0 0 0 0 0 0 0 0 0 0 0 0 0 0 0 0 127 0"/><feOffset dy="3.00767"/><feGaussianBlur stdDeviation="1.50384"/><feColorMatrix type="matrix" values="0 0 0 0 0 0 0 0 0 0 0 0 0 0 0 0 0 0 0.25 0"/><feBlend in2="BackgroundImageFix" mode="normal" result="effect1_dropShadow"/><feBlend in="SourceGraphic" in2="effect1_dropShadow" mode="normal" result="shape"/></filter><filter id="Z" color-interpolation-filters="sRGB" filterUnits="userSpaceOnUse" height="41.1924" width="70.8858" x="1100.01" y="297.222"><feFlood flood-opacity="0" result="BackgroundImageFix"/><feColorMatrix in="SourceAlpha" type="matrix" values="0 0 0 0 0 0 0 0 0 0 0 0 0 0 0 0 0 0 127 0"/><feOffset dy="3.00767"/><feGaussianBlur stdDeviation="1.50384"/><feColorMatrix type="matrix" values="0 0 0 0 0 0 0 0 0 0 0 0 0 0 0 0 0 0 0.25 0"/><feBlend in2="BackgroundImageFix" mode="normal" result="effect1_dropShadow"/><feBlend in="SourceGraphic" in2="effect1_dropShadow" mode="normal" result="shape"/></filter><linearGradient id="aa" gradientUnits="userSpaceOnUse" x1="20.02" x2="30.1536" y1="405.133" y2="460.407"><stop offset="0" stop-color="#a9a9a9"/><stop offset="1" stop-color="#6c4788" stop-opacity=".8"/></linearGradient><linearGradient id="ab"><stop offset="0" stop-color="#a9a9a9"/><stop offset="1" stop-color="#9578aa"/></linearGradient><linearGradient id="ac" gradientUnits="userSpaceOnUse" x1="155.833" x2="155.833" xlink:href="#ab" y1="310.875" y2="337.884"/><linearGradient id="ad" gradientUnits="userSpaceOnUse" x1="493.484" x2="493.484" xlink:href="#ab" y1="398.12" y2="424.332"/><linearGradient id="ae" gradientUnits="userSpaceOnUse" x1="1108.3" x2="1108.3" xlink:href="#ab" y1="179.481" y2="207.547"/><linearGradient id="af" gradientUnits="userSpaceOnUse" x1="286.945" x2="290.427" xlink:href="#ab" y1="283.016" y2="310.467"/><linearGradient id="ag" gradientUnits="userSpaceOnUse" x1="771.53" x2="768.52" xlink:href="#ab" y1="379.743" y2="353.416"/><linearGradient id="ah" gradientUnits="userSpaceOnUse" x1="743.068" x2="746.366" xlink:href="#ab" y1="127.764" y2="153.76"/><linearGradient id="ai" gradientUnits="userSpaceOnUse" x1="624.926" x2="651.992" xlink:href="#ab" y1="413.116" y2="410.495"/><linearGradient id="aj" gradientUnits="userSpaceOnUse" x1="964.251" x2="961.305" xlink:href="#ab" y1="356.051" y2="328.36"/><linearGradient id="ak" gradientUnits="userSpaceOnUse" x1="1151.81" x2="1154.39" xlink:href="#ab" y1="388.809" y2="416.463"/><linearGradient id="al" gradientUnits="userSpaceOnUse" x1="177.943" x2="175.259" xlink:href="#ab" y1="462.028" y2="436.795"/><linearGradient id="am" gradientUnits="userSpaceOnUse" x1="912.318" x2="915.611" xlink:href="#ab" y1="110.148" y2="136.106"/><linearGradient id="an" gradientUnits="userSpaceOnUse" x1="1362.95" x2="1360.34" xlink:href="#ab" y1="300.585" y2="272.193"/><linearGradient id="ao" gradientUnits="userSpaceOnUse" x1="784.927" x2="782.077" xlink:href="#ab" y1="469.646" y2="443.116"/><linearGradient id="ap" gradientUnits="userSpaceOnUse" x1="653.024" x2="610.817" xlink:href="#ab" y1="208.883" y2="214.01"/><linearGradient id="aq" gradientUnits="userSpaceOnUse" x1="958.466" x2="954.72" xlink:href="#ab" y1="443.603" y2="408.096"/><linearGradient id="ar" gradientUnits="userSpaceOnUse" x1="424.026" x2="395.901" xlink:href="#ab" y1="267.356" y2="270.772"/><linearGradient id="as" gradientUnits="userSpaceOnUse" x1="353.473" x2="383.955" xlink:href="#ab" y1="422.78" y2="420.07"/><linearGradient id="at" gradientUnits="userSpaceOnUse" x1="938.999" x2="942.821" xlink:href="#ab" y1="203.077" y2="230.534"/><linearGradient id="au" gradientUnits="userSpaceOnUse" x1="747.915" x2="772.567" xlink:href="#ab" y1="250.541" y2="247.547"/><linearGradient id="av" gradientUnits="userSpaceOnUse" x1="1370.46" x2="1340.49" xlink:href="#ab" y1="392.229" y2="396.186"/><linearGradient id="aw" gradientUnits="userSpaceOnUse" x1="1326.39" x2="1329.64" xlink:href="#ab" y1="40.7621" y2="68.5386"/><linearGradient id="ax" gradientUnits="userSpaceOnUse" x1="1118.64" x2="1121.8" xlink:href="#ab" y1="90.7314" y2="117.792"/><linearGradient id="ay" gradientUnits="userSpaceOnUse" x1="534.601" x2="507.031" xlink:href="#ab" y1="232.072" y2="235.421"/><linearGradient id="az" gradientUnits="userSpaceOnUse" x1="1332.42" x2="1335.16" xlink:href="#ab" y1="162.175" y2="186.939"/><linearGradient id="aA" gradientUnits="userSpaceOnUse" x1="1129.81" x2="1127.16" xlink:href="#ab" y1="329.892" y2="304.761"/><path d="m49.5686 383.161c1.4788.818 2.2181 2.039 2.2181 3.661 0 1.378-.4809 2.47-1.4428 3.274-.9619.789-2.2397 1.184-3.8333 1.184-1.5937 0-2.8786-.395-3.8549-1.184-.9619-.804-1.4429-1.896-1.4429-3.274 0-.775.1938-1.479.5815-2.11.3876-.646.9332-1.163 1.6367-1.551-1.1342-.746-1.7013-1.809-1.7013-3.187s.4594-2.441 1.3783-3.187c.9188-.761 2.053-1.142 3.4026-1.142 1.3352 0 2.4622.381 3.381 1.142.9332.746 1.3998 1.809 1.3998 3.187s-.5742 2.441-1.7228 3.187zm-3.058-5.168c-.6748 0-1.2276.179-1.6583.538s-.646.876-.646 1.551c0 .646.2153 1.155.646 1.529.4451.373.9978.559 1.6583.559.646 0 1.1916-.186 1.6367-.559.445-.374.6676-.883.6676-1.529 0-.675-.2226-1.192-.6676-1.551-.4308-.359-.9763-.538-1.6367-.538zm0 10.94c.8327 0 1.5074-.201 2.0243-.603.5168-.417.7753-.998.7753-1.745 0-.746-.2585-1.321-.7753-1.723-.5169-.416-1.1916-.624-2.0243-.624-.8471 0-1.5291.208-2.0459.624-.5169.402-.7753.977-.7753 1.723 0 .747.2584 1.328.7753 1.745.5168.402 1.1988.603 2.0459.603zm18.3549-2.951v2.305h-1.7228v2.713h-2.4981v-2.713h-7.4082v-2.305l5.19-10.057h2.6919l-5.19 10.057h4.7163v-3.919h2.4981v3.919z" fill="#fff"/><path d="m40 396.04h26.9193" stroke="#fff" stroke-width="1.34597"/><path d="m207.605 290.161c1.479.818 2.218 2.039 2.218 3.661 0 1.378-.481 2.47-1.443 3.274-.962.789-2.24 1.184-3.833 1.184-1.594 0-2.879-.395-3.855-1.184-.962-.804-1.443-1.896-1.443-3.274 0-.775.194-1.479.582-2.11.387-.646.933-1.163 1.636-1.551-1.134-.746-1.701-1.809-1.701-3.187s.459-2.441 1.378-3.187c.919-.761 2.053-1.142 3.403-1.142 1.335 0 2.462.381 3.381 1.142.933.746 1.4 1.809 1.4 3.187s-.575 2.441-1.723 3.187zm-3.058-5.168c-.675 0-1.228.179-1.658.538-.431.359-.646.876-.646 1.551 0 .646.215 1.155.646 1.529.445.373.997.559 1.658.559.646 0 1.191-.186 1.637-.559.445-.374.667-.883.667-1.529 0-.675-.222-1.192-.667-1.551-.431-.359-.977-.538-1.637-.538zm0 10.94c.833 0 1.507-.201 2.024-.603.517-.417.775-.998.775-1.745 0-.746-.258-1.321-.775-1.723-.517-.416-1.191-.624-2.024-.624-.847 0-1.529.208-2.046.624-.517.402-.775.977-.775 1.723 0 .747.258 1.328.775 1.745.517.402 1.199.603 2.046.603zm11.837-7.322c1.436 0 2.649.43 3.64 1.292.99.847 1.486 2.024 1.486 3.531 0 1.508-.51 2.692-1.529 3.554-1.02.861-2.269 1.292-3.748 1.292-1.191 0-2.247-.273-3.165-.818-.919-.56-1.572-1.364-1.96-2.412l2.132-1.228c.402 1.364 1.4 2.046 2.993 2.046.847 0 1.522-.215 2.025-.646.517-.445.775-1.041.775-1.788 0-.746-.251-1.335-.754-1.765-.502-.431-1.17-.646-2.003-.646h-4.393l.582-8.098h8.398v2.326h-6.116l-.258 3.36z" fill="#fff"/><path d="m197 303.258h26.919" stroke="#fff" stroke-width="1.34597"/><path d="m219.62 413.161c1.478.818 2.218 2.039 2.218 3.661 0 1.378-.481 2.47-1.443 3.274-.962.789-2.24 1.184-3.834 1.184-1.593 0-2.878-.395-3.854-1.184-.962-.804-1.443-1.896-1.443-3.274 0-.775.194-1.479.581-2.11.388-.646.933-1.163 1.637-1.551-1.134-.746-1.701-1.809-1.701-3.187s.459-2.441 1.378-3.187c.919-.761 2.053-1.142 3.402-1.142 1.336 0 2.463.381 3.382 1.142.933.746 1.399 1.809 1.399 3.187s-.574 2.441-1.722 3.187zm-3.059-5.168c-.674 0-1.227.179-1.658.538-.43.359-.646.876-.646 1.551 0 .646.216 1.155.646 1.529.445.373.998.559 1.658.559.647 0 1.192-.186 1.637-.559.445-.374.668-.883.668-1.529 0-.675-.223-1.192-.668-1.551-.431-.359-.976-.538-1.637-.538zm0 10.94c.833 0 1.508-.201 2.025-.603.517-.417.775-.998.775-1.745 0-.746-.258-1.321-.775-1.723-.517-.416-1.192-.624-2.025-.624-.847 0-1.529.208-2.045.624-.517.402-.776.977-.776 1.723 0 .747.259 1.328.776 1.745.516.402 1.198.603 2.045.603zm12.11-7.947c1.565 0 2.843.481 3.833 1.443.991.947 1.486 2.182 1.486 3.704s-.495 2.764-1.486 3.726c-.99.947-2.268 1.421-3.833 1.421-1.579 0-2.864-.474-3.855-1.421-.99-.962-1.486-2.204-1.486-3.726 0-1.149.302-2.161.905-3.037l4.781-7.171h2.821l-3.446 5.061zm0 7.947c.833 0 1.515-.252 2.046-.754.531-.517.797-1.199.797-2.046s-.266-1.522-.797-2.024c-.531-.517-1.213-.776-2.046-.776-.847 0-1.536.259-2.067.776-.531.502-.797 1.177-.797 2.024s.266 1.529.797 2.046c.531.502 1.22.754 2.067.754z" fill="#fff"/><path d="m208 426.099h26.919" stroke="#fff" stroke-width="1.34597"/><path d="m409.884 385.161c1.479.818 2.218 2.039 2.218 3.661 0 1.378-.481 2.47-1.443 3.274-.962.789-2.239 1.184-3.833 1.184s-2.879-.395-3.855-1.184c-.962-.804-1.443-1.896-1.443-3.274 0-.775.194-1.479.582-2.11.387-.646.933-1.163 1.636-1.551-1.134-.746-1.701-1.809-1.701-3.187s.46-2.441 1.378-3.187c.919-.761 2.053-1.142 3.403-1.142 1.335 0 2.462.381 3.381 1.142.933.746 1.4 1.809 1.4 3.187s-.574 2.441-1.723 3.187zm-3.058-5.168c-.675 0-1.228.179-1.658.538-.431.359-.646.876-.646 1.551 0 .646.215 1.155.646 1.529.445.373.998.559 1.658.559.646 0 1.192-.186 1.637-.559.445-.374.667-.883.667-1.529 0-.675-.222-1.192-.667-1.551-.431-.359-.977-.538-1.637-.538zm0 10.94c.833 0 1.508-.201 2.024-.603.517-.417.776-.998.776-1.745 0-.746-.259-1.321-.776-1.723-.516-.416-1.191-.624-2.024-.624-.847 0-1.529.208-2.046.624-.517.402-.775.977-.775 1.723 0 .747.258 1.328.775 1.745.517.402 1.199.603 2.046.603zm15.13-5.772c1.478.818 2.218 2.039 2.218 3.661 0 1.378-.481 2.47-1.443 3.274-.962.789-2.24 1.184-3.833 1.184-1.594 0-2.879-.395-3.855-1.184-.962-.804-1.443-1.896-1.443-3.274 0-.775.194-1.479.581-2.11.388-.646.934-1.163 1.637-1.551-1.134-.746-1.701-1.809-1.701-3.187s.459-2.441 1.378-3.187c.919-.761 2.053-1.142 3.403-1.142 1.335 0 2.462.381 3.381 1.142.933.746 1.4 1.809 1.4 3.187s-.575 2.441-1.723 3.187zm-3.058-5.168c-.675 0-1.228.179-1.659.538-.43.359-.646.876-.646 1.551 0 .646.216 1.155.646 1.529.445.373.998.559 1.659.559.646 0 1.191-.186 1.636-.559.445-.374.668-.883.668-1.529 0-.675-.223-1.192-.668-1.551-.43-.359-.976-.538-1.636-.538zm0 10.94c.832 0 1.507-.201 2.024-.603.517-.417.775-.998.775-1.745 0-.746-.258-1.321-.775-1.723-.517-.416-1.192-.624-2.024-.624-.847 0-1.529.208-2.046.624-.517.402-.775.977-.775 1.723 0 .747.258 1.328.775 1.745.517.402 1.199.603 2.046.603z" fill="#fff"/><path d="m399 398.14 26.919.001" stroke="#fff" stroke-width="1.34597"/><path d="m320.746 250.161c1.479.818 2.218 2.039 2.218 3.661 0 1.378-.48 2.47-1.442 3.274-.962.789-2.24 1.184-3.834 1.184-1.593 0-2.878-.395-3.855-1.184-.961-.804-1.442-1.896-1.442-3.274 0-.775.193-1.479.581-2.11.388-.646.933-1.163 1.637-1.551-1.134-.746-1.702-1.809-1.702-3.187s.46-2.441 1.379-3.187c.919-.761 2.053-1.142 3.402-1.142 1.335 0 2.462.381 3.381 1.142.934.746 1.4 1.809 1.4 3.187s-.574 2.441-1.723 3.187zm-3.058-5.168c-.675 0-1.227.179-1.658.538s-.646.876-.646 1.551c0 .646.215 1.155.646 1.529.445.373.998.559 1.658.559.646 0 1.192-.186 1.637-.559.445-.374.668-.883.668-1.529 0-.675-.223-1.192-.668-1.551-.431-.359-.976-.538-1.637-.538zm0 10.94c.833 0 1.508-.201 2.025-.603.516-.417.775-.998.775-1.745 0-.746-.259-1.321-.775-1.723-.517-.416-1.192-.624-2.025-.624-.847 0-1.529.208-2.046.624-.516.402-.775.977-.775 1.723 0 .747.259 1.328.775 1.745.517.402 1.199.603 2.046.603zm6.133-13.008h9.583v2.154l-5.297 12.921h-2.606l5.212-12.706h-6.892z" fill="#fff"/><path d="m309 264.097h26.919" stroke="#fff" stroke-width="1.34597"/><path d="m428.225 217.161c1.479.818 2.218 2.039 2.218 3.661 0 1.378-.481 2.47-1.443 3.274-.961.789-2.239 1.184-3.833 1.184s-2.878-.395-3.855-1.184c-.962-.804-1.443-1.896-1.443-3.274 0-.775.194-1.479.582-2.11.387-.646.933-1.163 1.637-1.551-1.135-.746-1.702-1.809-1.702-3.187s.46-2.441 1.379-3.187c.918-.761 2.053-1.142 3.402-1.142 1.335 0 2.462.381 3.381 1.142.933.746 1.4 1.809 1.4 3.187s-.574 2.441-1.723 3.187zm-3.058-5.168c-.675 0-1.227.179-1.658.538s-.646.876-.646 1.551c0 .646.215 1.155.646 1.529.445.373.998.559 1.658.559.646 0 1.192-.186 1.637-.559.445-.374.667-.883.667-1.529 0-.675-.222-1.192-.667-1.551-.431-.359-.976-.538-1.637-.538zm0 10.94c.833 0 1.508-.201 2.024-.603.517-.417.776-.998.776-1.745 0-.746-.259-1.321-.776-1.723-.516-.416-1.191-.624-2.024-.624-.847 0-1.529.208-2.046.624-.517.402-.775.977-.775 1.723 0 .747.258 1.328.775 1.745.517.402 1.199.603 2.046.603zm17.219-8.141c0 1.149-.302 2.161-.905 3.037l-4.759 7.171h-2.843l3.446-5.061h-.259c-1.564 0-2.849-.474-3.854-1.421-.991-.962-1.486-2.204-1.486-3.726s.495-2.756 1.486-3.704c1.005-.962 2.29-1.443 3.854-1.443 1.565 0 2.843.481 3.834 1.443.99.948 1.486 2.182 1.486 3.704zm-8.184 0c0 .833.266 1.508.797 2.025.546.516 1.235.775 2.067.775.833 0 1.515-.251 2.046-.754.532-.517.797-1.199.797-2.046s-.265-1.522-.797-2.024c-.531-.517-1.213-.775-2.046-.775-.832 0-1.521.258-2.067.775-.531.502-.797 1.177-.797 2.024z" fill="#fff"/><path d="m418 229.918h26.919" stroke="#fff" stroke-width="1.34597"/><path d="m543.67 173.792c0 1.149-.301 2.161-.904 3.037l-4.76 7.171h-2.842l3.445-5.061h-.258c-1.565 0-2.85-.474-3.855-1.421-.991-.962-1.486-2.204-1.486-3.726s.495-2.756 1.486-3.704c1.005-.962 2.29-1.443 3.855-1.443s2.843.481 3.833 1.443c.991.948 1.486 2.182 1.486 3.704zm-8.183 0c0 .833.265 1.508.797 2.025.545.516 1.234.775 2.067.775s1.515-.251 2.046-.754c.531-.517.797-1.199.797-2.046s-.266-1.522-.797-2.024c-.531-.517-1.213-.775-2.046-.775s-1.522.258-2.067.775c-.532.502-.797 1.177-.797 2.024zm12.962-4.867h2.154v15.075h-2.477v-12.426l-3.036.861-.603-2.11z" fill="#fff"/><path d="m529 189.431h26.919" stroke="#fff" stroke-width="1.34597"/><path d="m655.707 142.792c0 1.149-.301 2.161-.904 3.037l-4.76 7.171h-2.842l3.445-5.061h-.258c-1.565 0-2.85-.474-3.855-1.421-.991-.962-1.486-2.204-1.486-3.726s.495-2.756 1.486-3.704c1.005-.962 2.29-1.443 3.855-1.443s2.843.481 3.833 1.443c.991.948 1.486 2.182 1.486 3.704zm-8.183 0c0 .833.265 1.508.796 2.025.546.516 1.235.775 2.068.775s1.514-.251 2.046-.754c.531-.517.797-1.199.797-2.046s-.266-1.522-.797-2.024c-.532-.517-1.213-.775-2.046-.775s-1.522.258-2.068.775c-.531.502-.796 1.177-.796 2.024zm15.261 1.292c1.091.259 1.974.768 2.649 1.529.689.747 1.033 1.687 1.033 2.821 0 1.508-.509 2.692-1.529 3.554-1.019.861-2.268 1.292-3.747 1.292-1.149 0-2.182-.266-3.101-.797-.905-.531-1.558-1.306-1.96-2.326l2.111-1.227c.445 1.292 1.428 1.938 2.95 1.938.861 0 1.543-.215 2.046-.646.502-.445.754-1.041.754-1.788 0-.746-.252-1.335-.754-1.765-.503-.431-1.185-.646-2.046-.646h-.56l-.99-1.486 3.251-4.286h-6.31v-2.326h9.261v2.111z" fill="#fff"/><path d="m642 158.228h26.919" stroke="#fff" stroke-width="1.34597"/><path d="m801.692 207.792c0 1.149-.301 2.161-.904 3.037l-4.76 7.171h-2.842l3.445-5.061h-.258c-1.565 0-2.85-.474-3.855-1.421-.991-.962-1.486-2.204-1.486-3.726s.495-2.756 1.486-3.704c1.005-.962 2.29-1.443 3.855-1.443s2.843.481 3.833 1.443c.991.948 1.486 2.182 1.486 3.704zm-8.183 0c0 .833.265 1.508.796 2.025.546.516 1.235.775 2.068.775s1.515-.251 2.046-.754c.531-.517.797-1.199.797-2.046s-.266-1.522-.797-2.024c-.531-.517-1.213-.775-2.046-.775s-1.522.258-2.068.775c-.531.502-.796 1.177-.796 2.024zm14.222.819c1.435 0 2.648.43 3.639 1.292.991.847 1.486 2.024 1.486 3.531 0 1.508-.51 2.692-1.529 3.554-1.019.861-2.268 1.292-3.747 1.292-1.192 0-2.247-.273-3.166-.818-.919-.56-1.572-1.364-1.96-2.412l2.132-1.228c.402 1.364 1.4 2.046 2.994 2.046.847 0 1.522-.215 2.024-.646.517-.445.775-1.041.775-1.788 0-.746-.251-1.335-.753-1.765-.503-.431-1.17-.646-2.003-.646h-4.393l.581-8.098h8.399v2.326h-6.116l-.259 3.36z" fill="#fff"/><path d="m789 223.228h26.919" stroke="#fff" stroke-width="1.34597"/><path d="m980.671 175.925h2.154v15.075h-2.477v-12.426l-3.036.861-.603-2.11zm14.904 13.223c-1.033 1.421-2.483 2.132-4.35 2.132-1.866 0-3.323-.711-4.371-2.132-1.034-1.421-1.551-3.317-1.551-5.685 0-2.369.517-4.264 1.551-5.686 1.048-1.421 2.505-2.132 4.371-2.132 1.867 0 3.317.711 4.35 2.132 1.048 1.422 1.572 3.317 1.572 5.686 0 2.368-.524 4.264-1.572 5.685zm-4.35-.28c1.12 0 1.974-.467 2.563-1.4s.883-2.268.883-4.005c0-1.738-.294-3.073-.883-4.006s-1.443-1.4-2.563-1.4c-1.105 0-1.96.467-2.563 1.4-.588.933-.882 2.268-.882 4.006 0 1.737.294 3.072.882 4.005.603.933 1.458 1.4 2.563 1.4zm17.915.28c-1.03 1.421-2.48 2.132-4.35 2.132s-3.32-.711-4.37-2.132c-1.035-1.421-1.552-3.317-1.552-5.685 0-2.369.517-4.264 1.552-5.686 1.05-1.421 2.5-2.132 4.37-2.132s3.32.711 4.35 2.132c1.05 1.422 1.57 3.317 1.57 5.686 0 2.368-.52 4.264-1.57 5.685zm-4.35-.28c1.12 0 1.97-.467 2.56-1.4s.89-2.268.89-4.005c0-1.738-.3-3.073-.89-4.006s-1.44-1.4-2.56-1.4c-1.11 0-1.96.467-2.56 1.4-.59.933-.89 2.268-.89 4.006 0 1.737.3 3.072.89 4.005.6.933 1.45 1.4 2.56 1.4z" fill="#fff"/><path d="m977 196.14h34" stroke="#fff" stroke-width="1.34597"/><path d="m1177.43 153.925h2.16v15.075h-2.48v-12.426l-3.04.861-.6-2.11zm14.91 13.223c-1.04 1.421-2.49 2.132-4.35 2.132-1.87 0-3.33-.711-4.38-2.132-1.03-1.421-1.55-3.317-1.55-5.685 0-2.369.52-4.264 1.55-5.686 1.05-1.421 2.51-2.132 4.38-2.132 1.86 0 3.31.711 4.35 2.132 1.04 1.422 1.57 3.317 1.57 5.686 0 2.368-.53 4.264-1.57 5.685zm-4.35-.28c1.12 0 1.97-.467 2.56-1.4s.88-2.268.88-4.005c0-1.738-.29-3.073-.88-4.006s-1.44-1.4-2.56-1.4c-1.11 0-1.96.467-2.57 1.4-.59.933-.88 2.268-.88 4.006 0 1.737.29 3.072.88 4.005.61.933 1.46 1.4 2.57 1.4zm13.42-6.784c1.09.259 1.98.768 2.65 1.529.69.747 1.04 1.687 1.04 2.821 0 1.508-.51 2.692-1.53 3.554-1.02.861-2.27 1.292-3.75 1.292-1.15 0-2.18-.266-3.1-.797-.91-.531-1.56-1.306-1.96-2.326l2.11-1.227c.44 1.292 1.43 1.938 2.95 1.938.86 0 1.54-.215 2.04-.646.51-.445.76-1.041.76-1.788 0-.746-.25-1.335-.76-1.765-.5-.431-1.18-.646-2.04-.646h-.56l-.99-1.486 3.25-4.286h-6.31v-2.326h9.26v2.111z" fill="#fff"/><path d="m1171 174.462h33.65" stroke="#fff" stroke-width="1.34597"/><path d="m1169.75 71.9252h2.15v15.0748h-2.48v-12.426l-3.03.8614-.61-2.1104zm14.9 13.2227c-1.03 1.4214-2.48 2.1321-4.35 2.1321s-3.32-.7107-4.37-2.1321c-1.04-1.4213-1.55-3.3164-1.55-5.6853s.51-4.264 1.55-5.6854c1.05-1.4213 2.5-2.132 4.37-2.132s3.32.7107 4.35 2.132c1.05 1.4214 1.57 3.3165 1.57 5.6854s-.52 4.264-1.57 5.6853zm-4.35-.2799c1.12 0 1.97-.4666 2.56-1.3998s.89-2.2684.89-4.0056-.3-3.0724-.89-4.0056-1.44-1.3998-2.56-1.3998c-1.11 0-1.96.4666-2.56 1.3998-.59.9332-.89 2.2684-.89 4.0056s.3 3.0724.89 4.0056c.6.9332 1.45 1.3998 2.56 1.3998zm7.13 2.132v-1.9382l5.26-5.3623c1.28-1.2778 1.91-2.3833 1.91-3.3165 0-.7322-.22-1.2993-.66-1.7013-.43-.4163-.99-.6245-1.66-.6245-1.26 0-2.2.6245-2.8 1.8736l-2.09-1.2276c.47-1.0049 1.14-1.7659 2-2.2827.86-.5169 1.82-.7753 2.87-.7753 1.32 0 2.45.4164 3.4 1.2491s1.42 1.9669 1.42 3.4026c0 1.5362-.85 3.1729-2.56 4.9101l-3.4 3.4026h6.24v2.3904z" fill="#fff"/><path d="m1165.35 92.0673h33.65" stroke="#fff" stroke-width="1.34597"/><path d="m1301.59 4.92517h2.15v15.07483h-2.48v-12.42597l-3.03.86142-.61-2.11048zm14.9 13.22273c-1.03 1.4214-2.48 2.1321-4.35 2.1321s-3.32-.7107-4.37-2.1321c-1.04-1.4213-1.55-3.3164-1.55-5.6853s.51-4.26404 1.55-5.68538c1.05-1.42134 2.5-2.13202 4.37-2.13202s3.32.71068 4.35 2.13202c1.05 1.42134 1.57 3.31648 1.57 5.68538s-.52 4.264-1.57 5.6853zm-4.35-.2799c1.12 0 1.97-.4666 2.56-1.3998s.89-2.2684.89-4.0056-.3-3.07241-.89-4.00562c-.59-.9332-1.44-1.3998-2.56-1.3998-1.11 0-1.96.4666-2.56 1.3998-.59.93321-.89 2.26842-.89 4.00562s.3 3.0724.89 4.0056c.6.9332 1.45 1.3998 2.56 1.3998zm17.98-8.07582c0 1.14852-.3 2.16072-.9 3.03652l-4.76 7.1713h-2.85l3.45-5.0608h-.26c-1.56 0-2.85-.4738-3.85-1.4214-1-.9619-1.49-2.2038-1.49-3.72562 0-1.52184.49-2.75654 1.49-3.7041 1-.96192 2.29-1.44288 3.85-1.44288 1.57 0 2.84.48096 3.83 1.44288.99.94756 1.49 2.18226 1.49 3.7041zm-8.18 0c0 .83272.26 1.50752.79 2.02432.55.5169 1.24.7753 2.07.7753s1.52-.2513 2.05-.7537c.53-.5169.79-1.1989.79-2.04592 0-.84706-.26-1.52184-.79-2.02433-.53-.51685-1.22-.77528-2.05-.77528s-1.52.25843-2.07.77528c-.53.50249-.79 1.17727-.79 2.02433z" fill="#fff"/><path d="m1297.33 25.2867h33.65" stroke="#fff" stroke-width="1.34597"/><path d="m1382.42 126.925h2.15v15.075h-2.48v-12.426l-3.03.861-.6-2.11zm14.9 13.223c-1.03 1.421-2.48 2.132-4.35 2.132-1.86 0-3.32-.711-4.37-2.132-1.03-1.421-1.55-3.317-1.55-5.685 0-2.369.52-4.264 1.55-5.686 1.05-1.421 2.51-2.132 4.37-2.132 1.87 0 3.32.711 4.35 2.132 1.05 1.422 1.57 3.317 1.57 5.686 0 2.368-.52 4.264-1.57 5.685zm-4.35-.28c1.12 0 1.98-.467 2.56-1.4.59-.933.89-2.268.89-4.005 0-1.738-.3-3.073-.89-4.006-.58-.933-1.44-1.4-2.56-1.4-1.1 0-1.96.467-2.56 1.4-.59.933-.88 2.268-.88 4.006 0 1.737.29 3.072.88 4.005.6.933 1.46 1.4 2.56 1.4zm15.89-5.707c1.48.818 2.22 2.039 2.22 3.661 0 1.378-.48 2.47-1.44 3.274-.96.789-2.24 1.184-3.84 1.184-1.59 0-2.87-.395-3.85-1.184-.96-.804-1.44-1.896-1.44-3.274 0-.775.19-1.479.58-2.11.39-.646.93-1.163 1.63-1.551-1.13-.746-1.7-1.809-1.7-3.187s.46-2.441 1.38-3.187c.92-.761 2.05-1.142 3.4-1.142 1.34 0 2.47.381 3.39 1.142.93.746 1.4 1.809 1.4 3.187s-.58 2.441-1.73 3.187zm-3.06-5.168c-.67 0-1.22.179-1.65.538s-.65.876-.65 1.551c0 .646.22 1.155.65 1.529.44.373.99.559 1.65.559.65 0 1.2-.186 1.64-.559.45-.374.67-.883.67-1.529 0-.675-.22-1.192-.67-1.551-.43-.359-.98-.538-1.64-.538zm0 10.94c.84 0 1.51-.201 2.03-.603.52-.417.77-.998.77-1.745 0-.746-.25-1.321-.77-1.723-.52-.416-1.19-.624-2.03-.624s-1.52.208-2.04.624c-.52.402-.78.977-.78 1.723 0 .747.26 1.328.78 1.745.52.402 1.2.603 2.04.603z" fill="#fff"/><path d="m1379 147.199h33.65" stroke="#fff" stroke-width="1.34597"/><path d="m1404.39 237.925h2.15v15.075h-2.48v-12.426l-3.03.861-.61-2.11zm14.9 13.223c-1.03 1.421-2.48 2.132-4.35 2.132s-3.32-.711-4.37-2.132c-1.04-1.421-1.55-3.317-1.55-5.685 0-2.369.51-4.264 1.55-5.686 1.05-1.421 2.5-2.132 4.37-2.132s3.32.711 4.35 2.132c1.05 1.422 1.57 3.317 1.57 5.686 0 2.368-.52 4.264-1.57 5.685zm-4.35-.28c1.12 0 1.97-.467 2.56-1.4s.88-2.268.88-4.005c0-1.738-.29-3.073-.88-4.006s-1.44-1.4-2.56-1.4c-1.11 0-1.96.467-2.56 1.4-.59.933-.89 2.268-.89 4.006 0 1.737.3 3.072.89 4.005.6.933 1.45 1.4 2.56 1.4zm6.68-12.943h9.59v2.154l-5.3 12.921h-2.61l5.21-12.706h-6.89z" fill="#fff"/><path d="m1400 258.199h33.65" stroke="#fff" stroke-width="1.34597"/><path d="m1191.71 281.925h2.15v15.075h-2.48v-12.426l-3.03.861-.6-2.11zm14.9 13.223c-1.03 1.421-2.48 2.132-4.35 2.132-1.86 0-3.32-.711-4.37-2.132-1.03-1.421-1.55-3.317-1.55-5.685 0-2.369.52-4.264 1.55-5.686 1.05-1.421 2.51-2.132 4.37-2.132 1.87 0 3.32.711 4.35 2.132 1.05 1.422 1.57 3.317 1.57 5.686 0 2.368-.52 4.264-1.57 5.685zm-4.35-.28c1.12 0 1.98-.467 2.56-1.4.59-.933.89-2.268.89-4.005 0-1.738-.3-3.073-.89-4.006-.58-.933-1.44-1.4-2.56-1.4-1.1 0-1.96.467-2.56 1.4-.59.933-.88 2.268-.88 4.006 0 1.737.29 3.072.88 4.005.6.933 1.46 1.4 2.56 1.4zm18.91-2.886v2.305h-1.73v2.713h-2.49v-2.713h-7.41v-2.305l5.19-10.057h2.69l-5.19 10.057h4.72v-3.919h2.49v3.919z" fill="#fff"/><path d="m1187 302.243h33.65" stroke="#fff" stroke-width="1.34597"/><path d="m1203.64 363.925h2.15v15.075h-2.47v-12.426l-3.04.861-.6-2.11zm14.9 13.223c-1.03 1.421-2.48 2.132-4.35 2.132-1.86 0-3.32-.711-4.37-2.132-1.03-1.421-1.55-3.317-1.55-5.685 0-2.369.52-4.264 1.55-5.686 1.05-1.421 2.51-2.132 4.37-2.132 1.87 0 3.32.711 4.35 2.132 1.05 1.422 1.57 3.317 1.57 5.686 0 2.368-.52 4.264-1.57 5.685zm-4.35-.28c1.12 0 1.98-.467 2.57-1.4.58-.933.88-2.268.88-4.005 0-1.738-.3-3.073-.88-4.006-.59-.933-1.45-1.4-2.57-1.4-1.1 0-1.96.467-2.56 1.4-.59.933-.88 2.268-.88 4.006 0 1.737.29 3.072.88 4.005.6.933 1.46 1.4 2.56 1.4zm12.6-7.257c1.44 0 2.65.43 3.64 1.292.99.847 1.49 2.024 1.49 3.531 0 1.508-.51 2.692-1.53 3.554-1.02.861-2.27 1.292-3.75 1.292-1.19 0-2.25-.273-3.17-.818-.91-.56-1.57-1.364-1.96-2.412l2.14-1.228c.4 1.364 1.4 2.046 2.99 2.046.85 0 1.52-.215 2.02-.646.52-.445.78-1.041.78-1.788 0-.746-.25-1.335-.75-1.765-.51-.431-1.17-.646-2.01-.646h-4.39l.58-8.098h8.4v2.326h-6.12l-.25 3.36z" fill="#fff"/><path d="m1200 384.243h33.65" stroke="#fff" stroke-width="1.34597"/><path d="m1020.31 394.792c0 1.149-.3 2.161-.9 3.037l-4.76 7.171h-2.84l3.44-5.061h-.26c-1.56 0-2.85-.474-3.85-1.421-.99-.962-1.49-2.204-1.49-3.726s.5-2.756 1.49-3.704c1-.962 2.29-1.443 3.85-1.443 1.57 0 2.85.481 3.84 1.443.99.948 1.48 2.182 1.48 3.704zm-8.18 0c0 .833.27 1.508.8 2.025.54.516 1.23.775 2.06.775.84 0 1.52-.251 2.05-.754.53-.517.8-1.199.8-2.046s-.27-1.522-.8-2.024c-.53-.517-1.21-.775-2.05-.775-.83 0-1.52.258-2.06.775-.53.502-.8 1.177-.8 2.024zm17.83 2.369c1.48.818 2.22 2.039 2.22 3.661 0 1.378-.48 2.47-1.44 3.274-.97.789-2.24 1.184-3.84 1.184-1.59 0-2.88-.395-3.85-1.184-.96-.804-1.45-1.896-1.45-3.274 0-.775.2-1.479.59-2.11.38-.646.93-1.163 1.63-1.551-1.13-.746-1.7-1.809-1.7-3.187s.46-2.441 1.38-3.187c.92-.761 2.05-1.142 3.4-1.142 1.34 0 2.46.381 3.38 1.142.94.746 1.4 1.809 1.4 3.187s-.57 2.441-1.72 3.187zm-3.06-5.168c-.67 0-1.23.179-1.66.538s-.64.876-.64 1.551c0 .646.21 1.155.64 1.529.45.373 1 .559 1.66.559.65 0 1.19-.186 1.64-.559.44-.374.67-.883.67-1.529 0-.675-.23-1.192-.67-1.551-.43-.359-.98-.538-1.64-.538zm0 10.94c.83 0 1.51-.201 2.03-.603.51-.417.77-.998.77-1.745 0-.746-.26-1.321-.77-1.723-.52-.416-1.2-.624-2.03-.624-.85 0-1.53.208-2.04.624-.52.402-.78.977-.78 1.723 0 .747.26 1.328.78 1.745.51.402 1.19.603 2.04.603z" fill="#fff"/><path d="m1008 410.184h26.92" stroke="#fff" stroke-width="1.34597"/><path d="m814.02 335.792c0 1.149-.302 2.161-.905 3.037l-4.759 7.171h-2.843l3.446-5.061h-.258c-1.565 0-2.85-.474-3.855-1.421-.991-.962-1.486-2.204-1.486-3.726s.495-2.756 1.486-3.704c1.005-.962 2.29-1.443 3.855-1.443 1.564 0 2.842.481 3.833 1.443.99.948 1.486 2.182 1.486 3.704zm-8.184 0c0 .833.266 1.508.797 2.025.546.516 1.235.775 2.068.775.832 0 1.514-.251 2.045-.754.532-.517.797-1.199.797-2.046s-.265-1.522-.797-2.024c-.531-.517-1.213-.775-2.045-.775-.833 0-1.522.258-2.068.775-.531.502-.797 1.177-.797 2.024zm14.179.194c1.565 0 2.843.481 3.833 1.443.991.947 1.486 2.182 1.486 3.704s-.495 2.764-1.486 3.726c-.99.947-2.268 1.421-3.833 1.421-1.579 0-2.864-.474-3.855-1.421-.99-.962-1.486-2.204-1.486-3.726 0-1.149.302-2.161.905-3.037l4.781-7.171h2.821l-3.446 5.061zm0 7.947c.833 0 1.515-.252 2.046-.754.531-.517.797-1.199.797-2.046s-.266-1.522-.797-2.024c-.531-.517-1.213-.776-2.046-.776-.847 0-1.536.259-2.067.776-.532.502-.797 1.177-.797 2.024s.265 1.529.797 2.046c.531.502 1.22.754 2.067.754z" fill="#fff"/><path d="m801 351.14 26.919.001" stroke="#fff" stroke-width="1.34597"/><path d="m670.357 350.792c0 1.149-.301 2.161-.904 3.037l-4.759 7.171h-2.843l3.446-5.061h-.259c-1.565 0-2.85-.474-3.855-1.421-.99-.962-1.486-2.204-1.486-3.726s.496-2.756 1.486-3.704c1.005-.962 2.29-1.443 3.855-1.443s2.843.481 3.834 1.443c.99.948 1.485 2.182 1.485 3.704zm-8.183 0c0 .833.266 1.508.797 2.025.545.516 1.234.775 2.067.775s1.515-.251 2.046-.754c.531-.517.797-1.199.797-2.046s-.266-1.522-.797-2.024c-.531-.517-1.213-.775-2.046-.775s-1.522.258-2.067.775c-.531.502-.797 1.177-.797 2.024zm9.283 10.208v-1.938l5.254-5.363c1.278-1.277 1.917-2.383 1.917-3.316 0-.732-.223-1.299-.668-1.701-.43-.417-.983-.625-1.658-.625-1.263 0-2.197.625-2.8 1.874l-2.088-1.228c.473-1.005 1.141-1.766 2.002-2.283.862-.516 1.816-.775 2.865-.775 1.32 0 2.455.417 3.402 1.249.948.833 1.422 1.967 1.422 3.403 0 1.536-.855 3.173-2.563 4.91l-3.403 3.403h6.245v2.39z" fill="#fff"/><path d="m658 366.053h26.919" stroke="#fff" stroke-width="1.34597"/><path d="m546.895 366.792c0 1.149-.302 2.161-.905 3.037l-4.759 7.171h-2.843l3.446-5.061h-.259c-1.565 0-2.849-.474-3.854-1.421-.991-.962-1.486-2.204-1.486-3.726s.495-2.756 1.486-3.704c1.005-.962 2.289-1.443 3.854-1.443s2.843.481 3.834 1.443c.99.948 1.486 2.182 1.486 3.704zm-8.184 0c0 .833.266 1.508.797 2.025.546.516 1.235.775 2.067.775.833 0 1.515-.251 2.046-.754.531-.517.797-1.199.797-2.046s-.266-1.522-.797-2.024c-.531-.517-1.213-.775-2.046-.775-.832 0-1.521.258-2.067.775-.531.502-.797 1.177-.797 2.024zm19.854 8.356c-1.034 1.421-2.484 2.132-4.35 2.132s-3.324-.711-4.372-2.132c-1.033-1.421-1.55-3.317-1.55-5.685 0-2.369.517-4.264 1.55-5.686 1.048-1.421 2.506-2.132 4.372-2.132s3.316.711 4.35 2.132c1.048 1.422 1.572 3.317 1.572 5.686 0 2.368-.524 4.264-1.572 5.685zm-4.35-.28c1.12 0 1.974-.467 2.563-1.4.588-.933.883-2.268.883-4.005 0-1.738-.295-3.073-.883-4.006-.589-.933-1.443-1.4-2.563-1.4-1.105 0-1.96.467-2.563 1.4-.588.933-.883 2.268-.883 4.006 0 1.737.295 3.072.883 4.005.603.933 1.458 1.4 2.563 1.4z" fill="#fff"/><path d="m535 382.141h26.919" stroke="#fff" stroke-width="1.34597"/><path d="m828.954 415.792c0 1.149-.302 2.161-.905 3.037l-4.759 7.171h-2.843l3.446-5.061h-.259c-1.565 0-2.85-.474-3.855-1.421-.99-.962-1.485-2.204-1.485-3.726s.495-2.756 1.485-3.704c1.005-.962 2.29-1.443 3.855-1.443s2.843.481 3.834 1.443c.99.948 1.486 2.182 1.486 3.704zm-8.184 0c0 .833.266 1.508.797 2.025.545.516 1.235.775 2.067.775.833 0 1.515-.251 2.046-.754.531-.517.797-1.199.797-2.046s-.266-1.522-.797-2.024c-.531-.517-1.213-.775-2.046-.775-.832 0-1.522.258-2.067.775-.531.502-.797 1.177-.797 2.024zm8.833-4.867h9.583v2.154l-5.297 12.921h-2.606l5.211-12.706h-6.891z" fill="#fff"/><path d="m815 431.184h26.919" stroke="#fff" stroke-width="1.34597"/><path d="m1015.16 308.792c0 1.149-.31 2.161-.91 3.037l-4.76 7.171h-2.84l3.44-5.061h-.25c-1.57 0-2.85-.474-3.86-1.421-.99-.962-1.48-2.204-1.48-3.726s.49-2.756 1.48-3.704c1.01-.962 2.29-1.443 3.86-1.443 1.56 0 2.84.481 3.83 1.443.99.948 1.49 2.182 1.49 3.704zm-8.19 0c0 .833.27 1.508.8 2.025.54.516 1.23.775 2.07.775.83 0 1.51-.251 2.04-.754.53-.517.8-1.199.8-2.046s-.27-1.522-.8-2.024c-.53-.517-1.21-.775-2.04-.775-.84 0-1.53.258-2.07.775-.53.502-.8 1.177-.8 2.024zm19.92 0c0 1.149-.3 2.161-.9 3.037l-4.76 7.171h-2.85l3.45-5.061h-.26c-1.56 0-2.85-.474-3.85-1.421-.99-.962-1.49-2.204-1.49-3.726s.5-2.756 1.49-3.704c1-.962 2.29-1.443 3.85-1.443 1.57 0 2.84.481 3.83 1.443 1 .948 1.49 2.182 1.49 3.704zm-8.18 0c0 .833.26 1.508.79 2.025.55.516 1.24.775 2.07.775s1.52-.251 2.05-.754c.53-.517.79-1.199.79-2.046s-.26-1.522-.79-2.024c-.53-.517-1.22-.775-2.05-.775s-1.52.258-2.07.775c-.53.502-.79 1.177-.79 2.024z" fill="#fff"/><path d="m1002 324.272h26.92" stroke="#fff" stroke-width="1.34597"/><path d="m1400.59 342.925h2.15v15.075h-2.48v-12.426l-3.03.861-.61-2.11zm14.9 13.223c-1.03 1.421-2.48 2.132-4.35 2.132s-3.32-.711-4.37-2.132c-1.04-1.421-1.55-3.317-1.55-5.685 0-2.369.51-4.264 1.55-5.686 1.05-1.421 2.5-2.132 4.37-2.132s3.32.711 4.35 2.132c1.05 1.422 1.57 3.317 1.57 5.686 0 2.368-.52 4.264-1.57 5.685zm-4.35-.28c1.12 0 1.97-.467 2.56-1.4s.89-2.268.89-4.005c0-1.738-.3-3.073-.89-4.006s-1.44-1.4-2.56-1.4c-1.11 0-1.96.467-2.56 1.4-.59.933-.89 2.268-.89 4.006 0 1.737.3 3.072.89 4.005.6.933 1.45 1.4 2.56 1.4zm12.66-7.882c1.57 0 2.84.481 3.83 1.443.99.947 1.49 2.182 1.49 3.704s-.5 2.764-1.49 3.726c-.99.947-2.26 1.421-3.83 1.421-1.58 0-2.86-.474-3.85-1.421-1-.962-1.49-2.204-1.49-3.726 0-1.149.3-2.161.9-3.037l4.78-7.171h2.83l-3.45 5.061zm0 7.947c.83 0 1.52-.252 2.05-.754.53-.517.79-1.199.79-2.046s-.26-1.522-.79-2.024c-.53-.517-1.22-.776-2.05-.776-.85 0-1.54.259-2.07.776-.53.502-.79 1.177-.79 2.024s.26 1.529.79 2.046c.53.502 1.22.754 2.07.754z" fill="#fff"/><path d="m1396.67 363.155h33.65" stroke="#fff" stroke-width="1.34597"/><path d="m789.314 96.7922c0 1.1485-.301 2.1607-.904 3.0365l-4.76 7.1713h-2.842l3.445-5.061h-.258c-1.565 0-2.85-.474-3.855-1.421-.991-.9621-1.486-2.204-1.486-3.7258 0-1.5219.495-2.7566 1.486-3.7041 1.005-.9619 2.29-1.4429 3.855-1.4429s2.843.481 3.833 1.4429c.991.9475 1.486 2.1822 1.486 3.7041zm-8.183 0c0 .8327.265 1.5075.796 2.0243.546.5169 1.235.7753 2.068.7753s1.514-.2513 2.046-.7537c.531-.5169.797-1.1989.797-2.0459 0-.8471-.266-1.5219-.797-2.0244-.532-.5168-1.213-.7752-2.046-.7752s-1.522.2584-2.068.7752c-.531.5025-.796 1.1773-.796 2.0244zm20.424 5.1898v2.305h-1.723v2.713h-2.498v-2.713h-7.409v-2.305l5.191-10.0568h2.691l-5.19 10.0568h4.717v-3.9192h2.498v3.9192z" fill="#fff"/><path d="m777 112.184h26.919" stroke="#fff" stroke-width="1.34597"/><path d="m972.658 84.9252h2.153v15.0748h-2.476v-12.426l-3.037.8614-.603-2.1104zm14.904 13.2227c-1.034 1.4214-2.484 2.1321-4.35 2.1321-1.867 0-3.324-.7107-4.372-2.1321-1.034-1.4213-1.551-3.3164-1.551-5.6853s.517-4.264 1.551-5.6854c1.048-1.4213 2.505-2.132 4.372-2.132 1.866 0 3.316.7107 4.35 2.132 1.048 1.4214 1.572 3.3165 1.572 5.6854s-.524 4.264-1.572 5.6853zm-4.35-.2799c1.119 0 1.974-.4666 2.562-1.3998.589-.9332.883-2.2684.883-4.0056s-.294-3.0724-.883-4.0056c-.588-.9332-1.443-1.3998-2.562-1.3998-1.106 0-1.96.4666-2.563 1.3998-.589.9332-.883 2.2684-.883 4.0056s.294 3.0724.883 4.0056c.603.9332 1.457 1.3998 2.563 1.3998zm10.603-12.9428h2.153v15.0748h-2.476v-12.426l-3.037.8614-.603-2.1104z" fill="#fff"/><path d="m966 104.147h34" stroke="#fff" stroke-width="1.34597"/><g filter="url(#a)"><path d="m17.5636 414.346 31.9362-3.992 3.6848 31.322-15.3539 1.228.6142 7.984-30.40074 2.457-2.76368-26.716 13.51142-1.536z" fill="#c4c4c4"/></g><g filter="url(#b)"><path d="m20.6342 414.039 28.8653-3.685 2.4566 22.109-15.0468 1.536.6141 6.448-9.2123.614.9212 10.748-21.18839 1.535-2.76369-26.715 16.58218-1.843z" fill="url(#aa)"/></g><g filter="url(#c)"><path d="m165.432 338.522 30.548-3.875 1.599 12.303-30.549 3.876z" fill="#c4c4c4"/></g><g filter="url(#d)"><path d="m144 310.875h30.7936v30.7936h-30.7936z" fill="url(#ac)" transform="matrix(.99204958 -.12584767 .12584767 .99204958 -37.978032 20.593651)"/></g><path d="m492.188 396.761h29.8862v29.8862h-29.8862z" fill="#c4c4c4" transform="matrix(.99204958 -.12584767 .12584767 .99204958 -46.018343 65.095128)"/><g filter="url(#e)"><path d="m502.8 424.952 29.648-3.761 1.552 11.941-29.649 3.761z" fill="#c4c4c4"/></g><g filter="url(#f)"><path d="m482 398.12h29.8862v29.8862h-29.8862z" fill="url(#ad)" transform="matrix(.99204958 -.12584767 .12584767 .99204958 -46.270369 63.823797)"/></g><path d="m1106.91 178.027h31.9986v31.9986h-31.9986z" fill="#c4c4c4" transform="matrix(.99204958 -.12584767 .12584767 .99204958 -13.603881 140.717429)"/><g filter="url(#g)"><path d="m1118.27 208.21 31.74-4.027 1.67 12.785-31.75 4.027z" fill="#c4c4c4"/></g><g filter="url(#h)"><path d="m1096 179.481h31.9986v31.9986h-31.9986z" fill="url(#ae)" transform="matrix(.99204958 -.12584767 .12584767 .99204958 -13.873602 139.355991)"/></g><g filter="url(#i)"><path d="m272 285.203h39.3679v31.3482h-39.3679z" fill="#c4c4c4" transform="matrix(.99204958 -.12584767 .12584767 .99204958 -33.729617 36.498049)"/></g><g filter="url(#j)"><path d="m272.106 284.899 38.617-4.899 2.44 19.229-9.019 1.213 1.649 11.951-9.479 1.236-9.654 1.225-1.885-11.939-10.23 1.213z" fill="url(#af)"/></g><g filter="url(#k)"><path d="m785.867 377.825h37.6996v30.0197h-37.6996z" fill="#c4c4c4" transform="matrix(-.99352237 .11363673 -.11363673 -.99352237 1609.57824 663.899232)"/></g><g filter="url(#l)"><path d="m785.762 378.115-37.036 4.236-2.109-18.441 8.649-1.056-1.437-11.463 9.09-1.072 9.259-1.059 1.664 11.455 9.811-1.041z" fill="url(#ag)"/></g><g filter="url(#m)"><path d="m722 130.712h53.335v29.6866h-53.335z" fill="#c4c4c4" transform="matrix(.99204958 -.12584767 .12584767 .99204958 -10.709595 91.90123)"/></g><g filter="url(#n)"><path d="m729.016 129.547 36.57-4.639 2.31 18.209-8.54 1.149 1.561 11.318-8.976 1.17-9.143 1.16-1.784-11.306-9.688 1.148z" fill="url(#ah)"/></g><g filter="url(#o)"><path d="m627.336 435.061h55.3481v30.8072h-55.3481z" fill="#c4c4c4" transform="matrix(-.09641383 -.99534133 .99534133 -.09641383 254.785671 1101.42035)"/></g><g filter="url(#p)"><path d="m626.343 427.748-3.688-38.077 18.959-1.837.93 8.894 11.788-1.271.938 9.346.922 9.52-11.783 1.503.894 10.085z" fill="url(#ai)"/></g><g filter="url(#q)"><path d="m986.698 353.371h56.6791v31.548h-56.6791z" fill="#c4c4c4" transform="matrix(-.99438976 .10577813 -.10577813 -.99438976 2005.239308 600.38843)"/></g><g filter="url(#r)"><path d="m979.22 354.458-38.955 4.145-2.064-19.397 9.099-1.038-1.416-12.058 9.562-1.051 9.739-1.036 1.653 12.051 10.318-1.012z" fill="url(#aj)"/></g><g filter="url(#s)"><path d="m0 0h56.531v31.4655h-56.531z" fill="#c4c4c4" transform="matrix(-.995662 .0930442 .0930442 .995662 1174.29 387)"/></g><g filter="url(#t)"><path d="m1166.76 387.413-38.9 3.635 1.81 19.371 9.1-.781.99 12.068 9.56-.859 9.72-.909-.76-12.108 10.29-1.046z" fill="url(#ak)"/></g><g filter="url(#u)"><path d="m198.398 459.586h51.6467v28.7469h-51.6467z" fill="#c4c4c4" transform="matrix(-.99438976 .10577813 -.10577813 -.99438976 444.297088 895.60744)"/></g><g filter="url(#v)"><path d="m191.583 460.577-35.496 3.776-1.881-17.675 8.291-.945-1.29-10.988 8.713-.958 8.874-.944 1.507 10.982 9.402-.923z" fill="url(#al)"/></g><g filter="url(#w)"><path d="m891.28 113.092h53.2577v29.6436h-53.2577z" fill="#c4c4c4" transform="matrix(.99204958 -.12584767 .12584767 .99204958 -7.146312 113.064636)"/></g><g filter="url(#x)"><path d="m891.28 113.015 52.999-7.015 2.307 18.183-18.004 2.443 1.559 11.302-8.963 1.169-9.13 1.158-2.842-18.277-16.757 2.205z" fill="url(#am)"/></g><g filter="url(#y)"><path d="m1385.97 298.165h58.0323v32.3012h-58.0323z" fill="#c4c4c4" transform="matrix(-.99578254 .09174494 -.09174494 -.99578254 2793.449856 467.916771)"/></g><g filter="url(#z)"><path d="m1385.97 298.249-57.98 5.659-1.83-19.888 19.7-1.988-1.28-12.366 9.81-.938 9.98-.92 2.41 20.01 18.33-1.775z" fill="url(#an)"/></g><g filter="url(#A)"><path d="m806.433 467.055h54.3084v30.2284h-54.3084z" fill="#c4c4c4" transform="matrix(-.9942803 .10680204 -.10680204 -.9942803 1658.135877 845.309894)"/></g><g filter="url(#B)"><path d="m806.431 467.134-54.172 6.116-1.996-18.583 18.404-2.14-1.369-11.552 9.161-1.017 9.331-1.002 2.54 18.69 17.128-1.921z" fill="url(#ao)"/></g><g filter="url(#C)"><path d="m650.145 185.18 3.756 30.923 1.878 15.461 1.879 15.461-24.062 2.923-24.062 2.923-1.878-15.461 14.019-1.641-5.823-46.585z" fill="#c4c4c4"/></g><g filter="url(#D)"><path d="m650.145 185.18 3.558 30.208-4.732.728 1.174 8.007 2.466-.364 2.911 23.657-21.926 2.532-24.062 2.923-1.325-12.371 19.653-2.547-6.187-49.497z" fill="url(#ap)"/></g><g filter="url(#E)"><path d="m978.406 441.499-26.013 2.745-13.006 1.372-13.007 1.373-2.136-20.242-2.136-20.241 13.007-1.373 1.192 11.793 39.191-4.274z" fill="#c4c4c4"/></g><g filter="url(#F)"><path d="m978.406 441.499-25.41 2.587-.549-3.982-6.738.88.273 2.075-19.901 2.132-1.837-18.444-2.136-20.241 10.404-.949 1.88 16.535 41.64-4.541z" fill="url(#aq)"/></g><g filter="url(#G)"><path d="m421.863 252h40.3082v32.0969h-40.3082z" fill="#c4c4c4" transform="matrix(.12058906 .99270251 -.99270251 .12058906 621.151971 -197.172903)"/></g><g filter="url(#H)"><path d="m422.174 252.11 4.806 39.566-25.809 3.303-1.193-9.24-6.138.713-1.214-9.711-1.202-9.892 12.235-1.865-1.571-10.469z" fill="url(#ar)"/></g><g filter="url(#I)"><path d="m0 0h43.5399v34.6702h-43.5399z" fill="#c4c4c4" transform="matrix(.0885717 .99607 .99607 -.0885717 352.307 406.071)"/></g><g filter="url(#J)"><path d="m352.003 406.257 3.814 42.883 28.01-2.31-.816-10.031 6.645-.626-.899-10.533-.954-10.721-13.345.779-.693-11.414z" fill="url(#as)"/></g><g filter="url(#K)"><path d="m0 0h39.4411v31.4064h-39.4411z" fill="#c4c4c4" transform="matrix(-.990449 .137881 .137881 .990449 954.064 201.271)"/></g><g filter="url(#L)"><path d="m953.882 201.005-38.626 5.377 3.348 25.238 9.039-1.189.865 5.984 9.489-1.287 9.657-1.344-1.305-12.039 10.297-1.14z" fill="url(#at)"/></g><g filter="url(#M)"><path d="m749.812 264h39.8987v28.1327h-39.8987z" fill="#c4c4c4" transform="matrix(-.12058906 -.99270251 .99270251 -.12058906 578.157659 1040.175768)"/></g><g filter="url(#N)"><path d="m749.539 263.904-4.213-34.679 22.621-2.895 1.046 8.098 5.38-.625 1.064 8.512 1.053 8.67-10.723 1.635 1.377 9.176z" fill="url(#au)"/></g><g filter="url(#O)"><path d="m0 0h48.5691v34.2462h-48.5691z" fill="#c4c4c4" transform="matrix(-.130927 -.991392 -.991392 .130927 1372.31 408.67)"/></g><g filter="url(#P)"><path d="m1372.6 408.474-5.57-42.16-27.54 3.458 1.23 9.865-6.54.897 1.34 10.358 1.39 10.539 13.14-1.33 1.16 11.236z" fill="url(#av)"/></g><g filter="url(#Q)"><path d="m0 0h44.9321v31.6818h-44.9321z" fill="#c4c4c4" transform="matrix(-.993252 .115978 .115978 .993252 1341.63 39.2769)"/></g><g filter="url(#R)"><path d="m1341.45 39.004-39.07 4.5627 2.81 25.5279 9.14-.9975.74 6.054 9.6-1.0866 9.77-1.1407-1.05-12.1709 10.41-.9199z" fill="url(#aw)"/></g><g filter="url(#S)"><path d="m0 0h43.774v30.8652h-43.774z" fill="#c4c4c4" transform="matrix(-.993252 .115978 .115978 .993252 1133.48 89.2844)"/></g><g filter="url(#T)"><path d="m1133.31 89.0187-38.07 4.4451 2.74 24.8702 8.91-.972.72 5.898 9.35-1.059 9.51-1.111 10.6-1.238-1.47-11.516z" fill="url(#ax)"/></g><g filter="url(#U)"><path d="m531.201 206.004 4.264 35.105 2.132 17.553 2.133 17.553-15.601 1.895-15.6 1.895-8.529-70.211z" fill="#c4c4c4"/></g><g filter="url(#V)"><path d="m531.404 206.038 8.261 67.728-9.503 1.239-.826-6.611-16.114 2.066-3.552-31.492-6.01.698-1.189-9.509-1.177-9.686 11.981-1.826-1.539-10.252z" fill="url(#ay)"/></g><g filter="url(#W)"><path d="m1309 164.974 31.53-3.487 15.77-1.743 15.77-1.744 1.55 14.013 1.55 14.013-63.07 6.974z" fill="#c4c4c4"/></g><g filter="url(#X)"><path d="m1309.03 164.792 60.84-6.758 1.02 8.537-5.94.677 1.7 14.476-28.29 2.882.57 5.399-8.54.975-8.7.962-1.52-10.765-9.21 1.281z" fill="url(#az)"/></g><g filter="url(#Y)"><path d="m1106 332.192 32-3.376 16-1.688 16-1.687-1.5-14.221-1.5-14.22-64 6.751z" fill="#c4c4c4"/></g><g filter="url(#Z)"><path d="m1106.07 332.365 61.75-6.482-.84-8.68-6.03.615-1.46-14.711-28.65 3.271-.6-5.472-8.68.884-8.83.932.82 10.996-9.4.726z" fill="url(#aA)"/></g></svg>