<svg width="11" height="10" viewBox="0 0 11 10" fill="none" xmlns="http://www.w3.org/2000/svg">
<path d="M4.88571 5.718C5.49868 6.33975 6.24036 6.81978 7.05865 7.12437L8.16568 6.24356C8.1985 6.22096 8.23741 6.20886 8.27726 6.20886C8.31711 6.20886 8.35602 6.22096 8.38884 6.24356L10.4443 7.56771C10.5224 7.61462 10.5884 7.67903 10.6373 7.75585C10.6861 7.83267 10.7165 7.9198 10.7259 8.01036C10.7353 8.10091 10.7235 8.19241 10.6914 8.27763C10.6594 8.36284 10.608 8.43944 10.5412 8.50138L9.57809 9.45265C9.44016 9.58892 9.27063 9.68893 9.08464 9.74375C8.89865 9.79856 8.70197 9.80649 8.51217 9.76681C6.61884 9.37582 4.87372 8.46012 3.47624 7.12437C2.10978 5.77533 1.1642 4.0588 0.754194 2.18301C0.713691 1.99617 0.722145 1.80204 0.778735 1.61942C0.835326 1.43681 0.938135 1.27191 1.0772 1.14071L2.07558 0.177686C2.13736 0.114205 2.2127 0.0655218 2.29597 0.0352814C2.37923 0.00504094 2.46826 -0.00597293 2.55639 0.00306447C2.64451 0.0121019 2.72945 0.0409563 2.80484 0.0874673C2.88023 0.133978 2.94413 0.19694 2.99173 0.27164L4.3601 2.30045C4.3837 2.3323 4.39644 2.3709 4.39644 2.41055C4.39644 2.4502 4.3837 2.48879 4.3601 2.52065L3.45862 3.60405C3.77152 4.40587 4.25901 5.12798 4.88571 5.718Z" fill="white"/>
</svg>
