<svg width="21" height="21" viewBox="0 0 21 21" fill="none" xmlns="http://www.w3.org/2000/svg">
<path d="M20.6022 6.57894C20.591 5.73779 20.4335 4.90499 20.1369 4.11782C19.8796 3.45383 19.4866 2.85082 18.9831 2.3473C18.4796 1.84378 17.8766 1.45083 17.2126 1.19356C16.4355 0.901863 15.6146 0.744138 14.7848 0.7271C13.7164 0.679343 13.3776 0.666016 10.6655 0.666016C7.95339 0.666016 7.60576 0.666016 6.54512 0.7271C5.71567 0.744263 4.89513 0.901986 4.11843 1.19356C3.45434 1.45066 2.85123 1.84354 2.34769 2.34708C1.84415 2.85062 1.45127 3.45373 1.19417 4.11782C0.901889 4.89428 0.744506 5.71501 0.728821 6.54451C0.681064 7.61404 0.666626 7.95278 0.666626 10.6649C0.666626 13.377 0.666626 13.7235 0.728821 14.7853C0.74548 15.616 0.902077 16.4357 1.19417 17.2142C1.4517 17.8781 1.84488 18.481 2.34859 18.9843C2.85229 19.4876 3.45546 19.8803 4.11954 20.1374C4.89412 20.4408 5.7148 20.6098 6.54624 20.6371C7.61576 20.6849 7.9545 20.6993 10.6666 20.6993C13.3788 20.6993 13.7264 20.6993 14.787 20.6371C15.6168 20.6208 16.4378 20.4634 17.2148 20.1718C17.8786 19.9142 18.4815 19.5212 18.985 19.0177C19.4885 18.5142 19.8815 17.9113 20.1391 17.2475C20.4312 16.4701 20.5878 15.6505 20.6044 14.8186C20.6522 13.7502 20.6666 13.4115 20.6666 10.6982C20.6644 7.9861 20.6644 7.6418 20.6022 6.57894ZM10.6589 15.7937C7.82234 15.7937 5.52447 13.4959 5.52447 10.6594C5.52447 7.82283 7.82234 5.52497 10.6589 5.52497C12.0206 5.52497 13.3265 6.06591 14.2894 7.02879C15.2523 7.99168 15.7932 9.29763 15.7932 10.6594C15.7932 12.0211 15.2523 13.327 14.2894 14.2899C13.3265 15.2528 12.0206 15.7937 10.6589 15.7937ZM15.9976 6.5323C15.3346 6.5323 14.8003 5.99698 14.8003 5.33505C14.8003 5.1779 14.8313 5.02229 14.8914 4.8771C14.9516 4.73191 15.0397 4.59999 15.1508 4.48886C15.262 4.37774 15.3939 4.28959 15.5391 4.22945C15.6843 4.16931 15.8399 4.13836 15.997 4.13836C16.1542 4.13836 16.3098 4.16931 16.455 4.22945C16.6002 4.28959 16.7321 4.37774 16.8432 4.48886C16.9543 4.59999 17.0425 4.73191 17.1026 4.8771C17.1628 5.02229 17.1937 5.1779 17.1937 5.33505C17.1937 5.99698 16.6584 6.5323 15.9976 6.5323Z" fill="white"/>
<path d="M10.6589 13.9946C12.5009 13.9946 13.9941 12.5014 13.9941 10.6594C13.9941 8.81743 12.5009 7.32422 10.6589 7.32422C8.81694 7.32422 7.32373 8.81743 7.32373 10.6594C7.32373 12.5014 8.81694 13.9946 10.6589 13.9946Z" fill="white"/>
</svg>
