<svg width="153" height="49" viewBox="0 0 153 49" fill="none" xmlns="http://www.w3.org/2000/svg">
<path d="M71.0937 16.5915H77.3647V32.2689H74.7891V26.5578H72.3031L68.5182 32.2689H65.6067L69.5932 26.3338C68.548 26.0204 67.697 25.4307 67.04 24.5647C66.3831 23.6836 66.0546 22.7056 66.0546 21.6306C66.0546 20.2272 66.5399 19.0401 67.5104 18.0696C68.4958 17.0843 69.6902 16.5915 71.0937 16.5915ZM71.0937 24.2511H74.7891V19.0103H71.0937C70.4069 19.0103 69.8246 19.2642 69.3468 19.7718C68.869 20.2793 68.6302 20.8992 68.6302 21.6306C68.6302 22.3622 68.869 22.9818 69.3468 23.4896C69.8246 23.9972 70.4069 24.2511 71.0937 24.2511ZM80.5012 16.5915H86.2794C87.7575 16.5915 88.9892 17.0843 89.9747 18.0696C90.9751 19.0552 91.4754 20.2793 91.4754 21.7426C91.4754 23.1909 90.9751 24.4153 89.9747 25.4156C88.9892 26.4012 87.7575 26.8937 86.2794 26.8937H83.0767V32.2689H80.5012V16.5915ZM83.0767 24.4749H86.2794C87.0409 24.4749 87.6679 24.2213 88.1606 23.7135C88.6533 23.1909 88.8997 22.5339 88.8997 21.7426C88.8997 20.9513 88.6533 20.3019 88.1606 19.7941C87.6679 19.2717 87.0409 19.0103 86.2794 19.0103H83.0767V24.4749ZM102.939 24.1391C103.625 24.4975 104.163 24.9975 104.551 25.6397C104.939 26.2666 105.133 26.9834 105.133 27.7895C105.133 29.0736 104.678 30.1411 103.767 30.9923C102.856 31.8433 101.744 32.2689 100.43 32.2689H93.7113V16.5915H99.9376C101.221 16.5915 102.304 17.0096 103.185 17.8458C104.081 18.6819 104.529 19.7121 104.529 20.9363C104.529 22.2803 103.999 23.3478 102.939 24.1391ZM99.9376 19.0103H96.2869V23.1312H99.9376C100.505 23.1312 100.983 22.9372 101.371 22.549C101.759 22.1457 101.953 21.6531 101.953 21.0709C101.953 20.4884 101.759 20.0031 101.371 19.6151C100.983 19.2118 100.505 19.0103 99.9376 19.0103ZM96.2869 29.8501H100.43C101.027 29.8501 101.528 29.6411 101.931 29.223C102.349 28.7899 102.558 28.2675 102.558 27.6552C102.558 27.0431 102.349 26.528 101.931 26.1099C101.528 25.6768 101.027 25.4605 100.43 25.4605H96.2869V29.8501ZM119.363 32.2689H116.787V21.6306L109.397 32.2689H107.381V16.5915H109.957V27.2298L117.347 16.5915H119.363V32.2689ZM131.788 23.0192V16.5915H134.364V32.2689H131.788V25.4828H125.07V32.2689H122.494V16.5915H125.07V23.0192H131.788ZM150.599 30.2083C149.032 31.7761 147.113 32.5599 144.843 32.5599C142.574 32.5599 140.648 31.7761 139.065 30.2083C137.498 28.6257 136.714 26.6997 136.714 24.4301C136.714 22.1607 137.498 20.2422 139.065 18.6744C140.648 17.0918 142.574 16.3003 144.843 16.3003C147.113 16.3003 149.032 17.0918 150.599 18.6744C152.182 20.2422 152.973 22.1607 152.973 24.4301C152.973 26.6997 152.182 28.6257 150.599 30.2083ZM140.879 28.4615C141.969 29.5215 143.291 30.0516 144.843 30.0516C146.411 30.0516 147.725 29.5215 148.785 28.4615C149.86 27.3865 150.398 26.0427 150.398 24.4301C150.398 22.8177 149.86 21.4814 148.785 20.4212C147.725 19.3462 146.411 18.8088 144.843 18.8088C143.276 18.8088 141.954 19.3462 140.879 20.4212C139.819 21.4814 139.289 22.8177 139.289 24.4301C139.289 26.0277 139.819 27.3714 140.879 28.4615Z" fill="#664A3A"/>
<path d="M16.5682 12.0264C16.0098 12.3176 14.5027 12.7286 13.9067 12.6122C13.1326 12.4615 12.7045 11.7387 12.6701 10.9885C13.9341 9.71774 16.1024 10.3001 16.5682 12.0264ZM5.34675 7.86805C5.7715 8.3339 6.55933 9.68006 6.60043 10.2898C6.65524 11.0742 6.06608 11.6771 5.35018 11.9065C3.79507 11.0091 3.79505 8.76206 5.34675 7.86805ZM15.7975 40.0972C16.2634 39.6725 17.6095 38.8846 18.2193 38.8435C19.0037 38.7888 19.6065 39.3779 19.8361 40.0939C18.9386 41.6456 16.6949 41.6456 15.7975 40.0972ZM19.5381 48.2188C19.401 47.6057 19.3941 46.0437 19.6614 45.4957C20.0073 44.7866 20.819 44.5606 21.5521 44.7215C22.4496 46.2732 21.3295 48.2188 19.5381 48.2188ZM30.2285 38.9155C30.7869 38.6244 32.294 38.2133 32.89 38.3297C33.6642 38.4805 34.0924 39.2032 34.1266 39.9534C32.8627 41.2242 30.6911 40.6454 30.2285 38.9155ZM41.248 40.289C40.8232 39.8232 40.0353 38.4771 39.9942 37.8673C39.9395 37.0829 40.5286 36.48 41.2446 36.2506C42.7997 37.1446 42.7997 39.3917 41.248 40.289ZM40.1518 11.8107C39.5524 11.6188 38.196 10.8481 37.8534 10.3412C37.415 9.68692 37.6205 8.87168 38.1274 8.31677C39.9224 8.31677 41.0459 10.2589 40.1518 11.8107ZM47.1156 15.4724C46.6498 15.8971 45.3036 16.685 44.6939 16.7261C43.9094 16.7808 43.3066 16.1917 43.0772 15.4757C43.9712 13.9206 46.2182 13.9206 47.1156 15.4724ZM30.3245 12.7184C29.7936 12.3793 28.6837 11.2797 28.485 10.7042C28.2281 9.95752 28.6392 9.22449 29.2729 8.8203C31.0096 9.28273 31.5918 11.451 30.3245 12.7184ZM6.6107 37.2817C7.21015 37.4735 8.56659 38.2441 8.90912 38.7511C9.351 39.4054 9.14205 40.2206 8.63509 40.7754C6.84021 40.7789 5.71669 38.8333 6.6107 37.2817ZM0.677979 32.8081C1.14383 32.3834 2.49 31.5955 3.09971 31.5544C3.88412 31.4996 4.48699 32.0888 4.71649 32.8047C3.81904 34.3563 1.572 34.3598 0.677979 32.8081ZM28.4268 43.2691C28.9578 43.6082 30.0676 44.7078 30.2663 45.2833C30.5231 46.0266 30.1121 46.763 29.4785 47.1672C27.7417 46.7048 27.1595 44.5366 28.4268 43.2691ZM43.5052 32.0134C43.3717 31.3968 43.3614 29.8383 43.6286 29.2902C43.9745 28.5813 44.7863 28.3551 45.5194 28.5162C46.4169 30.0679 45.2967 32.0134 43.5052 32.0134ZM3.56899 15.9828C3.70258 16.5993 3.71285 18.1578 3.44568 18.7059C3.09971 19.4149 2.29133 19.6411 1.55487 19.48C0.657431 17.9283 1.77753 15.9828 3.56899 15.9828ZM6.05238 23.8919C6.09005 24.7277 6.61756 26.7349 7.14849 27.3447C7.83699 28.1359 8.95365 28.1496 9.84082 27.6906C10.4608 25.3854 8.35079 23.2753 6.05238 23.8919ZM20.4972 2.69917C20.0313 3.12392 18.6851 3.91176 18.0753 3.95286C17.291 4.00766 16.6882 3.4185 16.4586 2.70261C17.3526 1.14748 19.5997 1.14749 20.4972 2.69917ZM40.9362 24.8956C40.8986 24.0597 40.3711 22.0524 39.8402 21.4428C39.1516 20.6515 38.035 20.6378 37.1478 21.0968C36.5278 23.3986 38.6344 25.5087 40.9362 24.8956ZM27.5465 0.116455C27.6801 0.733017 27.6904 2.29156 27.4232 2.83961C27.0772 3.54866 26.2655 3.77474 25.5324 3.61375C24.6349 2.06548 25.7551 0.119881 27.5465 0.116455Z" fill="#5EB0C1"/>
</svg>
