<svg width="70" height="100" viewBox="0 0 70 100" fill="none" xmlns="http://www.w3.org/2000/svg">
<path d="M8.9109 81.0782H13.1855V91.7646H11.4298V87.8717H9.73528L7.15527 91.7646H5.17066L7.88806 87.7191C7.17563 87.5054 6.59551 87.1033 6.1477 86.513C5.69989 85.9126 5.47598 85.2459 5.47598 84.5132C5.47598 83.5565 5.80675 82.7474 6.46829 82.0858C7.14001 81.4141 7.95421 81.0782 8.9109 81.0782ZM8.9109 86.2993H11.4298V82.727H8.9109C8.44273 82.727 8.04581 82.9 7.72013 83.2461C7.39445 83.5921 7.2316 84.0145 7.2316 84.5132C7.2316 85.0119 7.39445 85.4342 7.72013 85.7803C8.04581 86.1263 8.44273 86.2993 8.9109 86.2993ZM15.3235 81.0782H19.2622C20.2697 81.0782 21.1094 81.4141 21.7811 82.0858C22.463 82.7575 22.8039 83.5921 22.8039 84.5895C22.8039 85.5767 22.463 86.4113 21.7811 87.0932C21.1094 87.7649 20.2697 88.1007 19.2622 88.1007H17.0791V91.7646H15.3235V81.0782ZM17.0791 86.452H19.2622C19.7812 86.452 20.2087 86.279 20.5445 85.9329C20.8804 85.5767 21.0483 85.1289 21.0483 84.5895C21.0483 84.0501 20.8804 83.6074 20.5445 83.2613C20.2087 82.9051 19.7812 82.727 19.2622 82.727H17.0791V86.452ZM30.6179 86.223C31.0861 86.4672 31.4524 86.8082 31.7171 87.2458C31.9817 87.6733 32.114 88.1618 32.114 88.7114C32.114 89.5867 31.8036 90.3144 31.1827 90.8945C30.5619 91.4746 29.8037 91.7646 28.9081 91.7646H24.3282V81.0782H28.5722C29.4475 81.0782 30.1853 81.3632 30.7858 81.9332C31.3965 82.5031 31.7018 83.2054 31.7018 84.0399C31.7018 84.9559 31.3405 85.6836 30.6179 86.223ZM28.5722 82.727H26.0838V85.536H28.5722C28.9589 85.536 29.2846 85.4037 29.5492 85.1391C29.8139 84.8643 29.9462 84.5284 29.9462 84.1315C29.9462 83.7346 29.8139 83.4038 29.5492 83.1392C29.2846 82.8644 28.9589 82.727 28.5722 82.727ZM26.0838 90.1159H28.9081C29.3152 90.1159 29.6561 89.9734 29.9309 89.6884C30.2159 89.3933 30.3584 89.0371 30.3584 88.6198C30.3584 88.2025 30.2159 87.8514 29.9309 87.5664C29.6561 87.2713 29.3152 87.1237 28.9081 87.1237H26.0838V90.1159ZM41.8134 91.7646H40.0578V84.5132L35.0199 91.7646H33.646V81.0782H35.4016V88.3297L40.4395 81.0782H41.8134V91.7646ZM50.2832 85.4597V81.0782H52.0389V91.7646H50.2832V87.139H45.7034V91.7646H43.9477V81.0782H45.7034V85.4597H50.2832ZM63.1057 90.3602C62.0371 91.4288 60.7293 91.9631 59.1823 91.9631C57.6353 91.9631 56.3224 91.4288 55.2436 90.3602C54.175 89.2813 53.6406 87.9684 53.6406 86.4214C53.6406 84.8745 54.175 83.5667 55.2436 82.498C56.3224 81.4192 57.6353 80.8798 59.1823 80.8798C60.7293 80.8798 62.0371 81.4192 63.1057 82.498C64.1846 83.5667 64.724 84.8745 64.724 86.4214C64.724 87.9684 64.1846 89.2813 63.1057 90.3602ZM56.4802 89.1694C57.2231 89.892 58.1238 90.2533 59.1823 90.2533C60.2509 90.2533 61.1466 89.892 61.8692 89.1694C62.6019 88.4366 62.9683 87.5206 62.9683 86.4214C62.9683 85.3223 62.6019 84.4114 61.8692 83.6888C61.1466 82.956 60.2509 82.5896 59.1823 82.5896C58.1137 82.5896 57.2129 82.956 56.4802 83.6888C55.7576 84.4114 55.3963 85.3223 55.3963 86.4214C55.3963 87.5104 55.7576 88.4264 56.4802 89.1694Z" fill="white"/>
<path d="M24.6994 18.3133C23.9144 18.7226 21.7955 19.3005 20.9576 19.1367C19.8693 18.9249 19.2673 17.9088 19.2192 16.8541C20.9961 15.0675 24.0444 15.8862 24.6994 18.3133ZM8.92337 12.4671C9.52051 13.122 10.6281 15.0146 10.6859 15.8717C10.7629 16.9745 9.93466 17.8221 8.92819 18.1447C6.7419 16.883 6.7419 13.724 8.92337 12.4671ZM23.6159 57.7773C24.2708 57.1802 26.1633 56.0726 27.0205 56.0148C28.1233 55.9377 28.9708 56.766 29.2935 57.7725C28.0318 59.954 24.8775 59.954 23.6159 57.7773ZM28.8745 69.1952C28.6819 68.3332 28.6723 66.1372 29.0479 65.3667C29.5343 64.3699 30.6756 64.0521 31.7061 64.2784C32.9678 66.4599 31.3931 69.1952 28.8745 69.1952ZM43.9041 56.1159C44.689 55.7066 46.8079 55.1287 47.6458 55.2925C48.7342 55.5043 49.3361 56.5204 49.3843 57.5751C47.6073 59.3617 44.5542 58.5478 43.9041 56.1159ZM59.396 58.047C58.7988 57.3921 57.6912 55.4995 57.6334 54.6423C57.5564 53.5396 58.3847 52.692 59.3911 52.3694C61.5774 53.6263 61.5774 56.7853 59.396 58.047ZM57.8549 18.0099C57.0122 17.7402 55.1052 16.6567 54.6237 15.944C54.0073 15.0242 54.2962 13.8781 55.0089 13.0979C57.5323 13.0979 59.1118 15.8284 57.8549 18.0099ZM67.6451 23.1578C66.9902 23.7549 65.0976 24.8625 64.2405 24.9203C63.1377 24.9974 62.2901 24.1691 61.9675 23.1626C63.2244 20.9763 66.3834 20.9763 67.6451 23.1578ZM44.0389 19.286C43.2925 18.8093 41.7322 17.2635 41.4529 16.4544C41.0918 15.4046 41.6696 14.3741 42.5605 13.8058C45.002 14.456 45.8207 17.5042 44.0389 19.286ZM10.7003 53.8189C11.5431 54.0885 13.4501 55.1721 13.9316 55.8848C14.5528 56.8046 14.2591 57.9507 13.5464 58.7308C11.023 58.7356 9.44346 56.0003 10.7003 53.8189ZM2.35968 47.5297C3.01461 46.9325 4.90714 45.8249 5.76432 45.7671C6.8671 45.6901 7.71466 46.5184 8.0373 47.5248C6.77561 49.7063 3.61656 49.7111 2.35968 47.5297ZM41.3711 62.2366C42.1175 62.7133 43.6777 64.2591 43.9571 65.0682C44.3182 66.1132 43.7403 67.1485 42.8495 67.7168C40.4079 67.0667 39.5893 64.0184 41.3711 62.2366ZM62.5694 46.4124C62.3816 45.5456 62.3672 43.3545 62.7428 42.584C63.2292 41.5872 64.3705 41.2694 65.401 41.4957C66.6627 43.6772 65.088 46.4124 62.5694 46.4124ZM6.42407 23.8753C6.61188 24.7421 6.62632 26.9332 6.2507 27.7037C5.76432 28.7006 4.62784 29.0184 3.59248 28.7921C2.33079 26.6106 3.9055 23.8753 6.42407 23.8753ZM9.9154 34.9946C9.96837 36.1696 10.71 38.9916 11.4564 39.8487C12.4243 40.9612 13.9942 40.9804 15.2415 40.3351C16.1131 37.0942 13.1467 34.1278 9.9154 34.9946ZM30.2229 5.20032C29.568 5.79746 27.6754 6.90505 26.8182 6.96284C25.7155 7.03989 24.8679 6.2116 24.5453 5.20513C25.8021 3.01884 28.9612 3.01884 30.2229 5.20032ZM58.9577 36.4056C58.9048 35.2306 58.1631 32.4086 57.4167 31.5514C56.4488 30.439 54.8789 30.4197 53.6316 31.065C52.76 34.3011 55.7216 37.2676 58.9577 36.4056ZM40.1334 1.56934C40.3213 2.43615 40.3357 4.62726 39.9601 5.39776C39.4737 6.39459 38.3324 6.71243 37.3019 6.48609C36.0402 4.30943 37.6149 1.57415 40.1334 1.56934Z" fill="#5EB0C1"/>
<path fill-rule="evenodd" clip-rule="evenodd" d="M49.6829 52.2351H20.322V30.1747V26.6593L35.0049 18.1886L42.3439 22.4264L49.6829 26.6593V52.2351ZM49.6347 9.6457V7.83021H41.9875L46.9862 2.82678L45.7004 1.541L35.9054 11.3408V0.337094H34.0899V3.68877L30.4011 0L29.1154 1.28578L34.0851 6.2555V16.6235L33.8154 16.7776L23.8808 6.843V2.43671H22.0653V5.02751L20.2739 3.23128L18.9881 4.51706L32.1877 17.7167L19.4071 25.099L17.0618 23.7458L15.4968 17.9093L20.2257 9.71793L18.6606 8.81259L14.837 15.4389L13.0071 8.61034L11.2542 9.07745L14.8419 22.4649L5.29728 16.9558L4.39675 18.5209L7.31021 20.2015L2.25862 21.5547L2.72573 23.3076L9.5254 21.4825L18.4921 26.6593V26.982L4.92166 30.6177L1.10769 28.417L0.20716 29.9821L2.45125 31.2775L9.15527e-05 31.9324L0.467205 33.6853L18.4873 28.8552V30.1699V43.6248L16.1469 44.978L10.3152 43.4129L5.5814 35.2167L4.01632 36.122L7.83993 42.7483L1.00174 40.9184L0.534625 42.6713L13.9221 46.2589L4.38231 51.768L5.28283 53.3331L8.2011 51.6524L6.84791 56.6944L8.6008 57.1615L10.4211 50.3714L18.4873 45.7147V49.7695L16.0361 58.924L12.2318 61.1199L13.1323 62.685L15.3764 61.3896L14.7166 63.8456L16.4695 64.3127L19.2193 54.0554H34.0803V56.3813L29.8184 60.6432H20.3557V62.4587H28.0029L23.0091 67.4621L24.2949 68.7479L34.0947 58.9529V69.9566H35.9102V66.6049L39.599 70.2937L40.8847 69.0079L35.915 64.0382V54.0602H36.7289L46.1193 63.4507V67.857H47.9348V65.2662L49.7311 67.0624L51.0168 65.7766L39.3004 54.0602H51.508V45.7196L52.9479 46.5527L54.513 52.3844L49.784 60.5758L51.3491 61.4811L55.1775 54.8548L57.0075 61.6833L58.7604 61.2162L55.1727 47.8288L64.7125 53.3379L65.613 51.7728L62.6995 50.0921L67.7511 48.7389L67.284 46.9861L60.4843 48.8112L51.5177 43.6344V43.3117L65.0833 39.6759L68.8924 41.8767L69.7978 40.3116L67.5537 39.0162L70 38.3613L69.5329 36.6084L51.5128 41.4385V40.7691V26.6738L53.8532 25.3206L59.685 26.8856L64.4139 35.0818L65.979 34.1765L62.1554 27.5502L68.9887 29.3801L69.4559 27.6272L56.0684 24.0396L65.6082 18.5305L64.7077 16.9655L61.7894 18.6509L63.1426 13.609L61.3897 13.1418L59.5694 19.9319L50.2174 25.3302L53.9544 11.3745L57.7587 9.17858L56.8582 7.6135L54.6141 8.90891L55.2738 6.45294L53.521 5.98583L48.6909 24.0155L35.9102 16.6332V13.9172L40.172 9.65533H49.6347V9.6457Z" fill="#6FA97B"/>
<rect x="30.4706" y="30.2354" width="3.47058" height="3.47058" fill="white"/>
<rect x="36.0588" y="30.2354" width="3.47058" height="3.47058" fill="white"/>
<rect x="30.4706" y="35.7646" width="3.47058" height="3.47058" fill="white"/>
<rect x="36.0588" y="35.7646" width="3.47058" height="3.47058" fill="white"/>
</svg>
