<svg width="154" height="50" viewBox="0 0 154 50" fill="none" xmlns="http://www.w3.org/2000/svg">
<path d="M72.0937 17.5915H78.3647V33.2689H75.7891V27.5578H73.3031L69.5182 33.2689H66.6067L70.5932 27.3338C69.548 27.0204 68.697 26.4307 68.04 25.5647C67.3831 24.6836 67.0546 23.7056 67.0546 22.6306C67.0546 21.2272 67.5399 20.0401 68.5104 19.0696C69.4958 18.0843 70.6902 17.5915 72.0937 17.5915ZM72.0937 25.2511H75.7891V20.0103H72.0937C71.4069 20.0103 70.8246 20.2642 70.3468 20.7718C69.869 21.2793 69.6302 21.8992 69.6302 22.6306C69.6302 23.3622 69.869 23.9818 70.3468 24.4896C70.8246 24.9972 71.4069 25.2511 72.0937 25.2511ZM81.5012 17.5915H87.2794C88.7575 17.5915 89.9892 18.0843 90.9747 19.0696C91.9751 20.0552 92.4754 21.2793 92.4754 22.7426C92.4754 24.1909 91.9751 25.4153 90.9747 26.4156C89.9892 27.4012 88.7575 27.8937 87.2794 27.8937H84.0767V33.2689H81.5012V17.5915ZM84.0767 25.4749H87.2794C88.0409 25.4749 88.6679 25.2213 89.1606 24.7135C89.6533 24.1909 89.8997 23.5339 89.8997 22.7426C89.8997 21.9513 89.6533 21.3019 89.1606 20.7941C88.6679 20.2717 88.0409 20.0103 87.2794 20.0103H84.0767V25.4749ZM103.939 25.1391C104.625 25.4975 105.163 25.9975 105.551 26.6397C105.939 27.2666 106.133 27.9834 106.133 28.7895C106.133 30.0736 105.678 31.1411 104.767 31.9923C103.856 32.8433 102.744 33.2689 101.43 33.2689H94.7113V17.5915H100.938C102.221 17.5915 103.304 18.0096 104.185 18.8458C105.081 19.6819 105.529 20.7121 105.529 21.9363C105.529 23.2803 104.999 24.3478 103.939 25.1391ZM100.938 20.0103H97.2869V24.1312H100.938C101.505 24.1312 101.983 23.9372 102.371 23.549C102.759 23.1457 102.953 22.6531 102.953 22.0709C102.953 21.4884 102.759 21.0031 102.371 20.6151C101.983 20.2118 101.505 20.0103 100.938 20.0103ZM97.2869 30.8501H101.43C102.027 30.8501 102.528 30.6411 102.931 30.223C103.349 29.7899 103.558 29.2675 103.558 28.6552C103.558 28.0431 103.349 27.528 102.931 27.1099C102.528 26.6768 102.027 26.4605 101.43 26.4605H97.2869V30.8501ZM120.363 33.2689H117.787V22.6306L110.397 33.2689H108.381V17.5915H110.957V28.2298L118.347 17.5915H120.363V33.2689ZM132.788 24.0192V17.5915H135.364V33.2689H132.788V26.4828H126.07V33.2689H123.494V17.5915H126.07V24.0192H132.788ZM151.599 31.2083C150.032 32.7761 148.113 33.5599 145.843 33.5599C143.574 33.5599 141.648 32.7761 140.065 31.2083C138.498 29.6257 137.714 27.6997 137.714 25.4301C137.714 23.1607 138.498 21.2422 140.065 19.6744C141.648 18.0918 143.574 17.3003 145.843 17.3003C148.113 17.3003 150.032 18.0918 151.599 19.6744C153.182 21.2422 153.973 23.1607 153.973 25.4301C153.973 27.6997 153.182 29.6257 151.599 31.2083ZM141.879 29.4615C142.969 30.5215 144.291 31.0516 145.843 31.0516C147.411 31.0516 148.725 30.5215 149.785 29.4615C150.86 28.3865 151.398 27.0427 151.398 25.4301C151.398 23.8177 150.86 22.4814 149.785 21.4212C148.725 20.3462 147.411 19.8088 145.843 19.8088C144.276 19.8088 142.954 20.3462 141.879 21.4212C140.819 22.4814 140.289 23.8177 140.289 25.4301C140.289 27.0277 140.819 28.3714 141.879 29.4615Z" fill="#664A3A"/>
<path d="M17.5682 13.0264C17.0098 13.3176 15.5027 13.7286 14.9067 13.6122C14.1326 13.4615 13.7045 12.7387 13.6701 11.9885C14.9341 10.7177 17.1024 11.3001 17.5682 13.0264ZM6.34675 8.86805C6.7715 9.3339 7.55933 10.6801 7.60043 11.2898C7.65524 12.0742 7.06608 12.6771 6.35018 12.9065C4.79507 12.0091 4.79505 9.76206 6.34675 8.86805ZM16.7975 41.0972C17.2634 40.6725 18.6095 39.8846 19.2193 39.8435C20.0037 39.7888 20.6065 40.3779 20.8361 41.0939C19.9386 42.6456 17.6949 42.6456 16.7975 41.0972ZM20.5381 49.2188C20.401 48.6057 20.3941 47.0437 20.6614 46.4957C21.0073 45.7866 21.819 45.5606 22.5521 45.7215C23.4496 47.2732 22.3295 49.2188 20.5381 49.2188ZM31.2285 39.9155C31.7869 39.6244 33.294 39.2133 33.89 39.3297C34.6642 39.4805 35.0924 40.2032 35.1266 40.9534C33.8627 42.2242 31.6911 41.6454 31.2285 39.9155ZM42.248 41.289C41.8232 40.8232 41.0353 39.4771 40.9942 38.8673C40.9395 38.0829 41.5286 37.48 42.2446 37.2506C43.7997 38.1446 43.7997 40.3917 42.248 41.289ZM41.1518 12.8107C40.5524 12.6188 39.196 11.8481 38.8534 11.3412C38.415 10.6869 38.6205 9.87168 39.1274 9.31677C40.9224 9.31677 42.0459 11.2589 41.1518 12.8107ZM48.1156 16.4724C47.6498 16.8971 46.3036 17.685 45.6939 17.7261C44.9094 17.7808 44.3066 17.1917 44.0772 16.4757C44.9712 14.9206 47.2182 14.9206 48.1156 16.4724ZM31.3245 13.7184C30.7936 13.3793 29.6837 12.2797 29.485 11.7042C29.2281 10.9575 29.6392 10.2245 30.2729 9.8203C32.0096 10.2827 32.5918 12.451 31.3245 13.7184ZM7.6107 38.2817C8.21015 38.4735 9.56659 39.2441 9.90912 39.7511C10.351 40.4054 10.142 41.2206 9.63509 41.7754C7.84021 41.7789 6.71669 39.8333 7.6107 38.2817ZM1.67798 33.8081C2.14383 33.3834 3.49 32.5955 4.09971 32.5544C4.88412 32.4996 5.48699 33.0888 5.71649 33.8047C4.81904 35.3563 2.572 35.3598 1.67798 33.8081ZM29.4268 44.2691C29.9578 44.6082 31.0676 45.7078 31.2663 46.2833C31.5231 47.0266 31.1121 47.763 30.4785 48.1672C28.7417 47.7048 28.1595 45.5366 29.4268 44.2691ZM44.5052 33.0134C44.3717 32.3968 44.3614 30.8383 44.6286 30.2902C44.9745 29.5813 45.7863 29.3551 46.5194 29.5162C47.4169 31.0679 46.2967 33.0134 44.5052 33.0134ZM4.56899 16.9828C4.70258 17.5993 4.71285 19.1578 4.44568 19.7059C4.09971 20.4149 3.29133 20.6411 2.55487 20.48C1.65743 18.9283 2.77753 16.9828 4.56899 16.9828ZM7.05238 24.8919C7.09005 25.7277 7.61756 27.7349 8.14849 28.3447C8.83699 29.1359 9.95365 29.1496 10.8408 28.6906C11.4608 26.3854 9.35079 24.2753 7.05238 24.8919ZM21.4972 3.69917C21.0313 4.12392 19.6851 4.91176 19.0753 4.95286C18.291 5.00766 17.6882 4.4185 17.4586 3.70261C18.3526 2.14748 20.5997 2.14749 21.4972 3.69917ZM41.9362 25.8956C41.8986 25.0597 41.3711 23.0524 40.8402 22.4428C40.1516 21.6515 39.035 21.6378 38.1478 22.0968C37.5278 24.3986 39.6344 26.5087 41.9362 25.8956ZM28.5465 1.11646C28.6801 1.73302 28.6904 3.29156 28.4232 3.83961C28.0772 4.54866 27.2655 4.77474 26.5324 4.61375C25.6349 3.06548 26.7551 1.11988 28.5465 1.11646Z" fill="#5EB0C1"/>
<path fill-rule="evenodd" clip-rule="evenodd" d="M35.3394 37.1549H14.455V21.4633V18.9627L24.8989 12.9376L30.1192 15.9519L35.3394 18.9627V37.1549ZM35.3052 6.861V5.56964H29.8658L33.4213 2.01069L32.5067 1.09612L25.5395 8.06672V0.239775H24.2482V2.62383L21.6243 0L20.7097 0.914574L24.2447 4.44954V11.8244L24.0529 11.934L16.9864 4.86744V1.73323H15.6951V3.57608L14.4207 2.29842L13.5061 3.21299L22.8951 12.6019L13.8041 17.853L12.1361 16.8905L11.0228 12.7389L14.3865 6.91238L13.2732 6.26841L10.5535 10.9817L9.25189 6.12455L8.00506 6.45681L10.557 15.9794L3.7679 12.0607L3.12735 13.1739L5.1997 14.3694L1.60649 15.3319L1.93875 16.5787L6.77536 15.2805L13.1534 18.9627V19.1923L3.50072 21.7784L0.787833 20.2131L0.147288 21.3263L1.74351 22.2477L0 22.7135L0.332258 23.9605L13.1499 20.5248V21.4599V31.0303L11.4852 31.9929L7.33712 30.8796L3.97 25.0496L2.85676 25.6936L5.57648 30.407L0.712473 29.1053L0.380215 30.3521L9.90272 32.904L3.11707 36.8226L3.75762 37.9359L5.83339 36.7404L4.87086 40.3267L6.11769 40.659L7.41248 35.8293L13.1499 32.5169V35.4011L11.4065 41.9127L8.70042 43.4747L9.34096 44.5879L10.9372 43.6666L10.4679 45.4134L11.7147 45.7457L13.6707 38.4497H24.2413V40.1041L21.2098 43.1356H14.479V44.427H19.9185L16.3664 47.9859L17.2809 48.9005L24.2515 41.9333V49.7602H25.5429V47.3761L28.1668 50L29.0814 49.0854L25.5464 45.5504V38.4532H26.1252L32.8047 45.1326V48.2667H34.0961V46.4239L35.3737 47.7016L36.2883 46.787L27.9543 38.4532H36.6376V32.5203L37.6618 33.113L38.7751 37.2611L35.4114 43.0876L36.5247 43.7316L39.2478 39.0183L40.5495 43.8755L41.7962 43.5431L39.2444 34.0207L46.03 37.9393L46.6705 36.8261L44.5982 35.6306L48.1915 34.668L47.8591 33.4212L43.0225 34.7195L36.6445 31.0372V30.8077L46.2938 28.2215L49.0032 29.787L49.6472 28.6737L48.0509 27.7522L49.791 27.2864L49.4588 26.0396L36.641 29.4752V28.9991V18.9731L38.3058 18.0105L42.4539 19.1238L45.8176 24.9538L46.9309 24.3098L44.2112 19.5965L49.0717 20.8981L49.404 19.6513L39.8815 17.0994L46.6671 13.1808L46.0265 12.0675L43.9508 13.2664L44.9134 9.68007L43.6665 9.34781L42.3717 14.1775L35.7197 18.0174L38.3778 8.0907L41.0838 6.52874L40.4433 5.41549L38.8471 6.33692L39.3163 4.58998L38.0694 4.25772L34.6339 17.0823L25.5429 11.8312V9.89929L28.5743 6.86785H35.3052V6.861Z" fill="#52885D"/>
<path d="M25.373 27.8193V25.6741H27.5183V27.8193H25.373Z" fill="#664A3A"/>
<path d="M22.2593 25.6741H24.4045V27.8193H22.2593V25.6741Z" fill="#664A3A"/>
<path d="M24.4045 22.4563V24.6016H22.2593V22.4563H24.4045Z" fill="#664A3A"/>
<path d="M25.373 22.4563H27.5183V24.6016H25.373V22.4563Z" fill="#664A3A"/>
<path d="M13.1385 18.2219L14.4775 18.954V37.1131L13.0967 38.473L13.1385 18.2219Z" fill="#52885D"/>
<path d="M36.6499 38.4939L35.3145 37.134V18.9686L36.6499 18.2009V38.4939Z" fill="#52885D"/>
<path d="M13.0967 38.4626L14.4775 37.113L35.3143 37.134L36.6533 38.4938L13.0967 38.4626Z" fill="#52885D"/>
<path d="M36.6531 18.2009L35.3142 18.975L24.8957 12.9499L14.4774 18.954L13.1384 18.2218L24.9123 11.4226L36.6531 18.2009Z" fill="#52885D"/>
</svg>
