<svg width="71" height="94" viewBox="0 0 71 94" fill="none" xmlns="http://www.w3.org/2000/svg">
<path d="M5.57136 81.0579H10.5125V93.4108H8.48313V88.9108H6.52431L3.54196 93.4108H1.24783L4.38901 88.7343C3.56548 88.4874 2.89489 88.0227 2.37725 87.3403C1.8596 86.6461 1.60078 85.8755 1.60078 85.0284C1.60078 83.9226 1.98313 82.9872 2.74783 82.2225C3.5243 81.4461 4.46548 81.0579 5.57136 81.0579ZM5.57136 87.0932H8.48313V82.9637H5.57136C5.03019 82.9637 4.57136 83.1638 4.19489 83.5637C3.81842 83.9637 3.6302 84.4521 3.6302 85.0284C3.6302 85.6049 3.81842 86.0931 4.19489 86.4932C4.57136 86.8932 5.03019 87.0932 5.57136 87.0932ZM12.984 81.0579H17.5369C18.7016 81.0579 19.6721 81.4461 20.4487 82.2225C21.2369 82.9991 21.6311 83.9637 21.6311 85.1167C21.6311 86.2578 21.2369 87.2226 20.4487 88.0108C19.6721 88.7874 18.7016 89.1755 17.5369 89.1755H15.0134V93.4108H12.984V81.0579ZM15.0134 87.2696H17.5369C18.1369 87.2696 18.631 87.0697 19.0192 86.6696C19.4075 86.2578 19.6016 85.7402 19.6016 85.1167C19.6016 84.4932 19.4075 83.9814 19.0192 83.5813C18.631 83.1697 18.1369 82.9637 17.5369 82.9637H15.0134V87.2696ZM30.6636 87.005C31.2048 87.2874 31.6282 87.6814 31.9341 88.1874C32.2401 88.6813 32.3929 89.2462 32.3929 89.8813C32.3929 90.8931 32.0343 91.7343 31.3165 92.405C30.5988 93.0755 29.7223 93.4108 28.6871 93.4108H23.3929V81.0579H28.299C29.3106 81.0579 30.1636 81.3873 30.8578 82.0461C31.5636 82.705 31.9166 83.5167 31.9166 84.4813C31.9166 85.5403 31.4988 86.3814 30.6636 87.005ZM28.299 82.9637H25.4224V86.2108H28.299C28.7459 86.2108 29.1223 86.0579 29.4283 85.752C29.7342 85.4342 29.8871 85.0461 29.8871 84.5874C29.8871 84.1284 29.7342 83.746 29.4283 83.4403C29.1223 83.1225 28.7459 82.9637 28.299 82.9637ZM25.4224 91.505H28.6871C29.1577 91.505 29.5519 91.3402 29.8695 91.0108C30.1989 90.6696 30.3636 90.258 30.3636 89.7755C30.3636 89.2932 30.1989 88.8873 29.8695 88.5579C29.5519 88.2166 29.1577 88.0462 28.6871 88.0462H25.4224V91.505ZM43.6051 93.4108H41.5756V85.0284L35.7522 93.4108H34.1639V81.0579H36.1934V89.4403L42.0168 81.0579H43.6051V93.4108ZM53.3957 86.1225V81.0579H55.4252V93.4108H53.3957V88.0637H48.1017V93.4108H46.0722V81.0579H48.1017V86.1225H53.3957ZM68.2179 91.7872C66.9826 93.0226 65.4709 93.6401 63.6826 93.6401C61.8944 93.6401 60.3768 93.0226 59.1296 91.7872C57.8945 90.5402 57.2767 89.0226 57.2767 87.2343C57.2767 85.4461 57.8945 83.9344 59.1296 82.6991C60.3768 81.4521 61.8944 80.8284 63.6826 80.8284C65.4709 80.8284 66.9826 81.4521 68.2179 82.6991C69.465 83.9344 70.0885 85.4461 70.0885 87.2343C70.0885 89.0226 69.465 90.5402 68.2179 91.7872ZM60.5591 90.4108C61.4179 91.2461 62.4591 91.6638 63.6826 91.6638C64.9179 91.6638 65.9532 91.2461 66.7885 90.4108C67.6355 89.5637 68.0592 88.505 68.0592 87.2343C68.0592 85.9637 67.6355 84.9109 66.7885 84.0755C65.9532 83.2284 64.9179 82.8049 63.6826 82.8049C62.4474 82.8049 61.4062 83.2284 60.5591 84.0755C59.7239 84.9109 59.3062 85.9637 59.3062 87.2343C59.3062 88.4931 59.7239 89.5519 60.5591 90.4108Z" fill="#664A3A"/>
<path d="M25.4283 18.3137C24.6433 18.7232 22.5245 19.3009 21.6866 19.1373C20.5983 18.9254 19.9964 17.9093 19.9481 16.8546C21.7251 15.068 24.7734 15.8867 25.4283 18.3137ZM9.65233 12.4676C10.2495 13.1225 11.3571 15.0151 11.4149 15.8723C11.4919 16.975 10.6636 17.8226 9.65716 18.1452C7.47086 16.8836 7.47085 13.7245 9.65233 12.4676ZM24.3448 57.7778C24.9998 57.1807 26.8923 56.0731 27.7496 56.0153C28.8523 55.9384 29.6997 56.7666 30.0225 57.7732C28.7608 59.9546 25.6065 59.9546 24.3448 57.7778ZM29.6036 69.1958C29.4109 68.3339 29.4012 66.1379 29.7769 65.3674C30.2633 64.3705 31.4045 64.0527 32.4351 64.279C33.6968 66.4605 32.1222 69.1958 29.6036 69.1958ZM44.6331 56.1165C45.4181 55.7073 47.5369 55.1293 48.3748 55.293C49.4632 55.5049 50.0652 56.521 50.1133 57.5756C48.3364 59.3622 45.2833 58.5485 44.6331 56.1165ZM60.1251 58.0475C59.5278 57.3926 58.4202 55.5002 58.3624 54.6429C58.2854 53.5401 59.1137 52.6925 60.1203 52.3699C62.3066 53.6268 62.3066 56.786 60.1251 58.0475ZM58.584 18.0105C57.7412 17.7407 55.8343 16.6572 55.3527 15.9445C54.7364 15.0247 55.0253 13.8786 55.7379 13.0985C58.2614 13.0985 59.8409 15.8289 58.584 18.0105ZM68.3742 23.1584C67.7193 23.7555 65.8267 24.8631 64.9696 24.9209C63.8667 24.9979 63.0193 24.1696 62.6966 23.1631C63.9535 20.9768 67.1125 20.9768 68.3742 23.1584ZM44.768 19.2866C44.0216 18.8098 42.4613 17.264 42.1819 16.455C41.8207 15.4051 42.3987 14.3746 43.2895 13.8064C45.7311 14.4565 46.5497 17.5048 44.768 19.2866ZM11.4293 53.8195C12.272 54.0892 14.179 55.1726 14.6606 55.8854C15.2818 56.8052 14.9881 57.9514 14.2753 58.7313C11.752 58.7362 10.1724 56.001 11.4293 53.8195ZM3.08862 47.5303C3.74355 46.9331 5.6361 45.8255 6.49328 45.7678C7.59607 45.6906 8.44363 46.519 8.76627 47.5254C7.50456 49.7069 4.34551 49.7117 3.08862 47.5303ZM42.1001 62.2371C42.8465 62.7139 44.4068 64.2598 44.6862 65.0688C45.0472 66.1138 44.4694 67.1491 43.5786 67.7174C41.1369 67.0673 40.3184 64.019 42.1001 62.2371ZM63.2984 46.413C63.1108 45.5462 63.0962 43.355 63.4719 42.5845C63.9582 41.5878 65.0995 41.2699 66.1301 41.4963C67.3919 43.6778 65.8171 46.413 63.2984 46.413ZM7.15303 23.8759C7.34083 24.7427 7.35528 26.9337 6.97967 27.7044C6.49328 28.7011 5.35679 29.019 4.32143 28.7926C3.05974 26.6111 4.63445 23.8759 7.15303 23.8759ZM10.6444 34.9952C10.6973 36.1702 11.4389 38.9921 12.1854 39.8494C13.1533 40.9616 14.7232 40.981 15.9704 40.3356C16.8421 37.0948 13.8757 34.1284 10.6444 34.9952ZM30.952 5.20081C30.2971 5.79796 28.4045 6.90555 27.5472 6.96333C26.4444 7.04038 25.597 6.21209 25.2742 5.20563C26.5311 3.01932 29.6902 3.01934 30.952 5.20081ZM59.6868 36.4062C59.6338 35.2311 58.8923 32.4091 58.1458 31.552C57.1778 30.4395 55.608 30.4203 54.3607 31.0655C53.489 34.3017 56.4506 37.2681 59.6868 36.4062ZM40.8624 1.56982C41.0503 2.43663 41.0648 4.62775 40.6891 5.39825C40.2027 6.39509 39.0615 6.71292 38.0309 6.48659C36.7692 4.30992 38.344 1.57464 40.8624 1.56982Z" fill="#5EB0C1"/>
<path fill-rule="evenodd" clip-rule="evenodd" d="M50.4118 52.2353H21.051V30.1748V26.6593L35.7338 18.1887L43.0729 22.4264L50.4118 26.6593V52.2353ZM50.3637 9.64572V7.83023H42.7166L47.7152 2.82678L46.4295 1.541L36.6344 11.3408V0.337094H34.8189V3.68878L31.1301 0L29.8443 1.28578L34.8141 6.25551V16.6236L34.5444 16.7777L24.6098 6.84302V2.4367H22.7943V5.02753L21.0027 3.23129L19.717 4.51706L32.9167 17.7167L20.1359 25.0992L17.7908 23.7459L16.2257 17.9094L20.9547 9.71796L19.3895 8.81261L15.566 15.4389L13.736 8.61036L11.9831 9.07748L15.5708 22.465L6.02621 16.9558L5.12567 18.5209L8.03914 20.2015L2.98753 21.5548L3.45465 23.3076L10.2543 21.4825L19.221 26.6593V26.9821L5.65058 30.6178L1.8366 28.4171L0.936073 29.9821L3.18017 31.2775L0.729004 31.9324L1.19612 33.6854L19.2162 28.8553V30.1699V43.6248L16.8758 44.978L11.0441 43.4129L6.31033 35.2167L4.74525 36.1221L8.56885 42.7485L1.73065 40.9185L1.26354 42.6713L14.651 46.2589L5.11123 51.768L6.01175 53.3332L8.93003 51.6525L7.57683 56.6944L9.32972 57.1616L11.15 50.3716L19.2162 45.7147V49.7696L16.7651 58.9241L12.9607 61.1201L13.8612 62.6851L16.1053 61.3898L15.4456 63.8456L17.1985 64.3128L19.9483 54.0556H34.8093V56.3815L30.5473 60.6434H21.0847V62.4588H28.7319L23.7381 67.4623L25.0239 68.7481L34.8236 58.953V69.9567H36.6392V66.605L40.3281 70.2938L41.6138 69.0081L36.6441 64.0383V54.0604H37.4578L46.8484 63.4509V67.857H48.6638V65.2663L50.4601 67.0625L51.7459 65.7768L40.0293 54.0604H52.2369V45.7196L53.6768 46.5528L55.242 52.3846L50.513 60.5759L52.0782 61.4813L55.9066 54.8549L57.7366 61.6835L59.4894 61.2163L55.9017 47.8289L65.4415 53.338L66.342 51.7729L63.4285 50.0922L68.4803 48.739L68.013 46.9861L61.2133 48.8113L52.2466 43.6345V43.3119L65.8124 39.676L69.6214 41.8768L70.5268 40.3117L68.2827 39.0162L70.729 38.3613L70.262 36.6085L52.2418 41.4385V40.7692V26.6738L54.5822 25.3206L60.414 26.8857L65.1429 35.0819L66.7081 34.1765L62.8845 27.5503L69.7178 29.3801L70.185 27.6273L56.7974 24.0397L66.3372 18.5305L65.4366 16.9655L62.5184 18.6509L63.8717 13.609L62.1187 13.1419L60.2984 19.9319L50.9465 25.3303L54.6834 11.3745L58.4878 9.1786L57.5873 7.61352L55.3432 8.90892L56.0029 6.45295L54.2499 5.98583L49.42 24.0156L36.6392 16.6332V13.9172L40.901 9.65535H50.3637V9.64572Z" fill="#52885D"/>
<path d="M36.4011 39.1105V36.0945H39.4171V39.1105H36.4011Z" fill="#664A3A"/>
<path d="M32.0231 36.0945H35.0391V39.1105H32.0231V36.0945Z" fill="#664A3A"/>
<path d="M35.0391 31.5706V34.5865H32.0231V31.5706H35.0391Z" fill="#664A3A"/>
<path d="M36.4011 31.5706H39.4171V34.5865H36.4011V31.5706Z" fill="#664A3A"/>
<path d="M19.1997 25.6179L21.0821 26.6471V52.1766L19.1409 54.0884L19.1997 25.6179Z" fill="#52885D"/>
<path d="M52.2537 54.1177L50.3762 52.2059V26.6676L52.2537 25.5884V54.1177Z" fill="#52885D"/>
<path d="M19.1409 54.0738L21.0821 52.1765L50.3762 52.2059L52.2585 54.1177L19.1409 54.0738Z" fill="#52885D"/>
<path d="M52.2585 25.5883L50.3761 26.6765L35.729 18.206L21.082 26.6471L19.1997 25.6177L35.7523 16.0588L52.2585 25.5883Z" fill="#52885D"/>
</svg>
