<svg width="15" height="17" viewBox="0 0 15 17" fill="none" xmlns="http://www.w3.org/2000/svg">
<path d="M7.14925 4.85742C6.68776 4.85742 6.23664 4.99985 5.85292 5.26671C5.46921 5.53356 5.17014 5.91286 4.99353 6.35662C4.81693 6.80038 4.77072 7.28869 4.86075 7.75978C4.95079 8.23088 5.17301 8.66361 5.49934 9.00325C5.82566 9.34289 6.24142 9.57419 6.69404 9.6679C7.14666 9.76161 7.61582 9.71351 8.04218 9.5297C8.46854 9.34589 8.83296 9.03461 9.08935 8.63523C9.34574 8.23586 9.48258 7.76632 9.48258 7.28599C9.48258 6.6419 9.23675 6.02418 8.79917 5.56873C8.36158 5.11329 7.76809 4.85742 7.14925 4.85742ZM7.14925 8.50028C6.91851 8.50028 6.69294 8.42906 6.50109 8.29563C6.30923 8.16221 6.1597 7.97256 6.07139 7.75068C5.98309 7.5288 5.95999 7.28465 6.005 7.0491C6.05002 6.81355 6.16113 6.59718 6.32429 6.42736C6.48746 6.25754 6.69534 6.14189 6.92165 6.09504C7.14796 6.04819 7.38254 6.07223 7.59572 6.16414C7.8089 6.25605 7.99111 6.41168 8.1193 6.61137C8.24749 6.81106 8.31592 7.04583 8.31592 7.28599C8.31592 7.60804 8.193 7.9169 7.97421 8.14462C7.75542 8.37234 7.45867 8.50028 7.14925 8.50028Z" fill="white"/>
<path d="M7.14941 17C6.5632 17.003 5.9848 16.8631 5.46264 16.592C4.94048 16.3209 4.48976 15.9265 4.14822 15.4418C1.49511 11.7184 0.149414 8.91927 0.149414 7.12168C0.149414 5.23289 0.886912 3.42146 2.19967 2.08589C3.51242 0.750318 5.2929 0 7.14941 0C9.00593 0 10.7864 0.750318 12.0992 2.08589C13.4119 3.42146 14.1494 5.23289 14.1494 7.12168C14.1494 8.91927 12.8037 11.7184 10.1506 15.4418C9.80907 15.9265 9.35835 16.3209 8.83619 16.592C8.31403 16.8631 7.73563 17.003 7.14941 17ZM7.14941 1.54616C5.6961 1.54785 4.30278 2.13596 3.27513 3.18147C2.24748 4.22698 1.66942 5.64452 1.66776 7.12309C1.66776 8.54672 2.98561 11.1794 5.37766 14.5359C5.58073 14.8204 5.84714 15.052 6.15508 15.2118C6.46303 15.3715 6.80377 15.4547 7.14941 15.4547C7.49506 15.4547 7.8358 15.3715 8.14375 15.2118C8.45169 15.052 8.7181 14.8204 8.92117 14.5359C11.3132 11.1794 12.6311 8.54672 12.6311 7.12309C12.6294 5.64452 12.0513 4.22698 11.0237 3.18147C9.99605 2.13596 8.60273 1.54785 7.14941 1.54616Z" fill="white"/>
</svg>
