<svg width="16" height="14" viewBox="0 0 16 14" fill="none" xmlns="http://www.w3.org/2000/svg">
<path d="M12.0244 0H3.27441C2.44592 0.00101045 1.65164 0.336561 1.0658 0.933049C0.479965 1.52954 0.150406 2.33826 0.149414 3.18182L0.149414 10.8182C0.150406 11.6617 0.479965 12.4705 1.0658 13.067C1.65164 13.6634 2.44592 13.999 3.27441 14H12.0244C12.8529 13.999 13.6472 13.6634 14.233 13.067C14.8189 12.4705 15.1484 11.6617 15.1494 10.8182V3.18182C15.1484 2.33826 14.8189 1.52954 14.233 0.933049C13.6472 0.336561 12.8529 0.00101045 12.0244 0ZM3.27441 1.27273H12.0244C12.3987 1.27348 12.7641 1.38824 13.0738 1.60224C13.3834 1.81624 13.6231 2.11969 13.7619 2.47355L8.97566 7.34745C8.62343 7.70465 8.14655 7.90521 7.64941 7.90521C7.15228 7.90521 6.6754 7.70465 6.32316 7.34745L1.53691 2.47355C1.67576 2.11969 1.91542 1.81624 2.22507 1.60224C2.53471 1.38824 2.90017 1.27348 3.27441 1.27273ZM12.0244 12.7273H3.27441C2.77713 12.7273 2.30022 12.5261 1.94859 12.1681C1.59696 11.8101 1.39941 11.3245 1.39941 10.8182V4.13636L5.43941 8.24727C6.02606 8.84307 6.82082 9.17766 7.64941 9.17766C8.478 9.17766 9.27277 8.84307 9.85941 8.24727L13.8994 4.13636V10.8182C13.8994 11.3245 13.7019 11.8101 13.3502 12.1681C12.9986 12.5261 12.5217 12.7273 12.0244 12.7273Z" fill="white"/>
</svg>
