<svg width="21" height="32" viewBox="0 0 21 32" fill="none" xmlns="http://www.w3.org/2000/svg">
<path d="M10.729 32C8.07684 32 5.5333 30.9464 3.65794 29.0711C1.78257 27.1957 0.729004 24.6522 0.729004 22V10C0.729004 7.34783 1.78257 4.8043 3.65794 2.92893C5.5333 1.05357 8.07684 0 10.729 0C13.3812 0 15.9247 1.05357 17.8001 2.92893C19.6754 4.8043 20.729 7.34783 20.729 10V22C20.729 23.3132 20.4703 24.6136 19.9678 25.8268C19.4653 27.0401 18.7287 28.1425 17.8001 29.0711C16.8715 29.9996 15.7691 30.7362 14.5558 31.2388C13.3426 31.7413 12.0422 32 10.729 32ZM10.729 2C8.60727 2 6.57244 2.84285 5.07215 4.34314C3.57186 5.84344 2.729 7.87827 2.729 10V22C2.729 24.1217 3.57186 26.1566 5.07215 27.6568C6.57244 29.1571 8.60727 30 10.729 30C12.8507 30 14.8856 29.1571 16.3859 27.6568C17.8862 26.1566 18.729 24.1217 18.729 22V10C18.729 7.87827 17.8862 5.84344 16.3859 4.34314C14.8856 2.84285 12.8507 2 10.729 2Z" fill="#686868"/>
<path d="M10.729 13C10.4638 13 10.2094 12.8946 10.0219 12.7071C9.83436 12.5196 9.729 12.2652 9.729 12V8C9.729 7.73478 9.83436 7.48043 10.0219 7.29289C10.2094 7.10536 10.4638 7 10.729 7C10.9942 7 11.2486 7.10536 11.4361 7.29289C11.6236 7.48043 11.729 7.73478 11.729 8V12C11.729 12.2652 11.6236 12.5196 11.4361 12.7071C11.2486 12.8946 10.9942 13 10.729 13Z" fill="#686868"/>
</svg>
