<svg width="287" height="135" viewBox="0 0 287 135" fill="none" xmlns="http://www.w3.org/2000/svg">
<rect x="284.229" y="101.419" width="282.101" height="99.0391" rx="17.6983" transform="rotate(-180 284.229 101.419)" fill="white" stroke="#DFDFDF" stroke-width="3.93296"/>
<path d="M145.597 131.899C144.84 133.21 142.948 133.21 142.191 131.899L125.161 102.402C124.404 101.091 125.35 99.4525 126.864 99.4525L160.924 99.4525C162.438 99.4525 163.384 101.091 162.627 102.402L145.597 131.899Z" fill="white"/>
<path d="M40.3163 29.7096V44.7263H37.8492V32.0693H31.7352V44.7263H29.2682V29.7096H40.3163ZM52.2283 34.0001V44.7263H49.9114V36.2311H46.3288V40.2213C46.3288 41.9232 45.957 43.1317 45.2133 43.8468C44.4696 44.5618 43.4113 44.855 42.0383 44.7263V42.5596C42.6962 42.674 43.1896 42.5382 43.5185 42.152C43.8475 41.7659 44.012 41.0865 44.012 40.114V34.0001H52.2283ZM59.9909 45.0052C58.4177 45.0052 57.0805 44.4617 55.9793 43.3748C54.878 42.2879 54.3274 40.9507 54.3274 39.3632C54.3274 37.7757 54.878 36.4385 55.9793 35.3516C57.0805 34.2646 58.4177 33.7212 59.9909 33.7212C61.5784 33.7212 62.9156 34.2646 64.0025 35.3516C65.1037 36.4385 65.6544 37.7757 65.6544 39.3632C65.6544 40.9507 65.1037 42.2879 64.0025 43.3748C62.9156 44.4617 61.5784 45.0052 59.9909 45.0052ZM57.6097 41.7873C58.2532 42.4309 59.047 42.7527 59.9909 42.7527C60.9348 42.7527 61.7285 42.4309 62.3721 41.7873C63.0157 41.1437 63.3375 40.3357 63.3375 39.3632C63.3375 38.3907 63.0157 37.5826 62.3721 36.9391C61.7285 36.2955 60.9348 35.9737 59.9909 35.9737C59.047 35.9737 58.2532 36.2955 57.6097 36.9391C56.9661 37.5826 56.6443 38.3907 56.6443 39.3632C56.6443 40.3357 56.9661 41.1437 57.6097 41.7873ZM82.5516 42.5382H83.9889V47.601H81.7149V44.7263H67.7493V34.0001H70.0662V42.5382H73.992V34.0001H76.3089V42.5382H80.2347V34.0001H82.5516V42.5382ZM93.947 34.0001H96.2639V44.7263H93.947V43.1817C93.0746 44.3974 91.8232 45.0052 90.1928 45.0052C88.7198 45.0052 87.4612 44.4617 86.4172 43.3748C85.3732 42.2736 84.8512 40.9364 84.8512 39.3632C84.8512 37.7757 85.3732 36.4385 86.4172 35.3516C87.4612 34.2646 88.7198 33.7212 90.1928 33.7212C91.8232 33.7212 93.0746 34.3218 93.947 35.5232V34.0001ZM88.1334 41.8302C88.777 42.4738 89.585 42.7956 90.5575 42.7956C91.53 42.7956 92.3381 42.4738 92.9817 41.8302C93.6252 41.1724 93.947 40.35 93.947 39.3632C93.947 38.3764 93.6252 37.5612 92.9817 36.9176C92.3381 36.2597 91.53 35.9308 90.5575 35.9308C89.585 35.9308 88.777 36.2597 88.1334 36.9176C87.4898 37.5612 87.168 38.3764 87.168 39.3632C87.168 40.35 87.4898 41.1724 88.1334 41.8302ZM108.404 42.5382H109.841V47.601H107.567V44.7263H100.209V47.601H97.9347V42.5382H99.2433C99.9012 41.6086 100.23 40.3143 100.23 38.6553V34.0001H108.404V42.5382ZM101.796 42.5382H106.13V36.1239H102.504V38.6553C102.504 40.1855 102.268 41.4798 101.796 42.5382ZM121.205 44.7263H118.437L114.04 39.7708V44.7263H111.723V34.0001H114.04V38.7411L118.201 34.0001H121.033L116.314 39.2559L121.205 44.7263ZM130.529 34.0001H132.31V44.7263H130.036V37.9044L124.544 44.7263H122.763V34.0001H125.037V40.8005L130.529 34.0001ZM149.8 42.5382H151.237V47.601H148.964V44.7263H141.605V47.601H139.331V42.5382H140.64C141.298 41.6086 141.627 40.3143 141.627 38.6553V34.0001H149.8V42.5382ZM143.193 42.5382H147.526V36.1239H143.901V38.6553C143.901 40.1855 143.665 41.4798 143.193 42.5382ZM162.172 34.0001V44.7263H159.856V36.2311H156.273V40.2213C156.273 41.9232 155.901 43.1317 155.157 43.8468C154.414 44.5618 153.355 44.855 151.982 44.7263V42.5596C152.64 42.674 153.134 42.5382 153.463 42.152C153.792 41.7659 153.956 41.0865 153.956 40.114V34.0001H162.172ZM173.174 34.0001V44.7263H170.9V41.1223H169.613L166.889 44.7263H164.164L167.06 40.9078C166.317 40.6646 165.716 40.2356 165.258 39.6206C164.815 39.0056 164.593 38.3192 164.593 37.5612C164.593 36.5744 164.944 35.7377 165.645 35.0512C166.36 34.3505 167.275 34.0001 168.39 34.0001H173.174ZM168.519 39.1272H170.9V36.1024H168.519C168.047 36.1024 167.654 36.2383 167.339 36.51C167.025 36.7817 166.867 37.1536 166.867 37.6255C166.867 38.0832 167.025 38.4479 167.339 38.7196C167.654 38.9913 168.047 39.1272 168.519 39.1272ZM186.297 45.0052C184.724 45.0052 183.386 44.4617 182.285 43.3748C181.184 42.2879 180.633 40.9507 180.633 39.3632C180.633 37.7757 181.184 36.4385 182.285 35.3516C183.386 34.2646 184.724 33.7212 186.297 33.7212C187.884 33.7212 189.221 34.2646 190.308 35.3516C191.41 36.4385 191.96 37.7757 191.96 39.3632C191.96 40.9507 191.41 42.2879 190.308 43.3748C189.221 44.4617 187.884 45.0052 186.297 45.0052ZM183.916 41.7873C184.559 42.4309 185.353 42.7527 186.297 42.7527C187.241 42.7527 188.034 42.4309 188.678 41.7873C189.322 41.1437 189.643 40.3357 189.643 39.3632C189.643 38.3907 189.322 37.5826 188.678 36.9391C188.034 36.2955 187.241 35.9737 186.297 35.9737C185.353 35.9737 184.559 36.2955 183.916 36.9391C183.272 37.5826 182.95 38.3907 182.95 39.3632C182.95 40.3357 183.272 41.1437 183.916 41.7873ZM201.831 34.0001V36.2311H198.334V44.7263H196.017V36.2311H192.499V34.0001H201.831ZM212.188 42.5382H213.626V47.601H211.352V44.7263H203.994V47.601H201.72V42.5382H203.028C203.686 41.6086 204.015 40.3143 204.015 38.6553V34.0001H212.188V42.5382ZM205.581 42.5382H209.914V36.1239H206.289V38.6553C206.289 40.1855 206.053 41.4798 205.581 42.5382ZM220.184 37.647C221.328 37.647 222.265 37.9759 222.995 38.6338C223.724 39.2774 224.089 40.1283 224.089 41.1867C224.089 42.2307 223.724 43.0816 222.995 43.7395C222.265 44.3974 221.328 44.7263 220.184 44.7263H215.508V34.0001H217.825V37.647H220.184ZM225.376 34.0001H227.693V44.7263H225.376V34.0001ZM220.206 42.6454C220.663 42.6454 221.042 42.5096 221.343 42.2378C221.657 41.9661 221.815 41.6157 221.815 41.1867C221.815 40.7433 221.657 40.3929 221.343 40.1355C221.042 39.8637 220.663 39.7279 220.206 39.7279H217.825V42.6454H220.206ZM239.971 44.7263H237.29L234.63 41.0579L231.948 44.7263H229.245L233.278 39.213L229.46 34.0001H232.141L234.608 37.3896L237.075 34.0001H239.778L235.96 39.2345L239.971 44.7263ZM249.247 34.0001H251.564V44.7263H249.247V43.1817C248.375 44.3974 247.124 45.0052 245.493 45.0052C244.02 45.0052 242.761 44.4617 241.717 43.3748C240.673 42.2736 240.151 40.9364 240.151 39.3632C240.151 37.7757 240.673 36.4385 241.717 35.3516C242.761 34.2646 244.02 33.7212 245.493 33.7212C247.124 33.7212 248.375 34.3218 249.247 35.5232V34.0001ZM243.434 41.8302C244.077 42.4738 244.885 42.7956 245.858 42.7956C246.83 42.7956 247.638 42.4738 248.282 41.8302C248.926 41.1724 249.247 40.35 249.247 39.3632C249.247 38.3764 248.926 37.5612 248.282 36.9176C247.638 36.2597 246.83 35.9308 245.858 35.9308C244.885 35.9308 244.077 36.2597 243.434 36.9176C242.79 37.5612 242.468 38.3764 242.468 39.3632C242.468 40.35 242.79 41.1724 243.434 41.8302ZM257.483 42.152L255.981 47.7297H254.05L254.908 42.152H257.483ZM58.6898 68.5382H60.1271V73.601H57.8532V70.7263H50.495V73.601H48.221V68.5382H49.5296C50.1875 67.6086 50.5164 66.3143 50.5164 64.6553V60.0001H58.6898V68.5382ZM52.0824 68.5382H56.4159V62.1239H52.7904V64.6553C52.7904 66.1855 52.5544 67.4798 52.0824 68.5382ZM63.4136 66.35C63.5852 67.1652 63.9785 67.7945 64.5935 68.2378C65.2084 68.6669 65.9593 68.8814 66.846 68.8814C68.0759 68.8814 68.9984 68.4381 69.6133 67.5513L71.5226 68.6669C70.4643 70.2258 68.8983 71.0052 66.8245 71.0052C65.0797 71.0052 63.671 70.476 62.5984 69.4177C61.5257 68.3451 60.9894 66.9936 60.9894 65.3632C60.9894 63.7614 61.5186 62.4242 62.5769 61.3516C63.6352 60.2646 64.9939 59.7212 66.6529 59.7212C68.2261 59.7212 69.5132 60.2718 70.5143 61.373C71.5298 62.4743 72.0375 63.8115 72.0375 65.3846C72.0375 65.6278 72.0089 65.9496 71.9517 66.35H63.4136ZM63.3921 64.4622H69.6992C69.5418 63.5898 69.1771 62.9319 68.6051 62.4886C68.0473 62.0452 67.3894 61.8235 66.6314 61.8235C65.7733 61.8235 65.0583 62.0595 64.4862 62.5315C63.9141 63.0034 63.5494 63.647 63.3921 64.4622ZM81.852 60.0001V62.2311H78.3552V70.7263H76.0384V62.2311H72.5202V60.0001H81.852ZM88.0635 71.0052C86.4474 71.0052 85.0959 70.4617 84.009 69.3748C82.9364 68.2879 82.4 66.9507 82.4 65.3632C82.4 63.7614 82.9364 62.4242 84.009 61.3516C85.0959 60.2646 86.4474 59.7212 88.0635 59.7212C89.1075 59.7212 90.0586 59.9715 90.9167 60.472C91.7748 60.9726 92.4184 61.6448 92.8474 62.4886L90.8523 63.647C90.6092 63.1321 90.2374 62.7317 89.7368 62.4456C89.2505 62.1453 88.6856 61.9951 88.0421 61.9951C87.0981 61.9951 86.3044 62.3169 85.6608 62.9605C85.0316 63.6041 84.7169 64.405 84.7169 65.3632C84.7169 66.3214 85.0316 67.1223 85.6608 67.7659C86.3044 68.4094 87.0981 68.7312 88.0421 68.7312C88.6713 68.7312 89.2362 68.5811 89.7368 68.2807C90.2517 67.9804 90.6378 67.5799 90.8952 67.0794L92.8903 68.2164C92.4327 69.0745 91.7748 69.7538 90.9167 70.2544C90.0586 70.7549 89.1075 71.0052 88.0635 71.0052ZM104.11 70.7263H101.342L96.9447 65.7708V70.7263H94.6278V60.0001H96.9447V64.7411L101.106 60.0001H103.938L99.2186 65.2559L104.11 70.7263ZM113.434 60.0001H115.215V70.7263H112.941V63.9044L107.449 70.7263H105.668V60.0001H107.942V66.8005L113.434 60.0001ZM119.726 66.35C119.898 67.1652 120.291 67.7945 120.906 68.2378C121.521 68.6669 122.272 68.8814 123.159 68.8814C124.389 68.8814 125.311 68.4381 125.926 67.5513L127.835 68.6669C126.777 70.2258 125.211 71.0052 123.137 71.0052C121.393 71.0052 119.984 70.476 118.911 69.4177C117.839 68.3451 117.302 66.9936 117.302 65.3632C117.302 63.7614 117.831 62.4242 118.89 61.3516C119.948 60.2646 121.307 59.7212 122.966 59.7212C124.539 59.7212 125.826 60.2718 126.827 61.373C127.843 62.4743 128.35 63.8115 128.35 65.3846C128.35 65.6278 128.322 65.9496 128.265 66.35H119.726ZM119.705 64.4622H126.012C125.855 63.5898 125.49 62.9319 124.918 62.4886C124.36 62.0452 123.702 61.8235 122.944 61.8235C122.086 61.8235 121.371 62.0595 120.799 62.5315C120.227 63.0034 119.862 63.647 119.705 64.4622ZM145.298 60.0001V70.7263H142.982V62.1882H138.069V70.7263H135.752V60.0001H145.298ZM157.04 60.0001V70.7263H154.723V62.2311H151.14V66.2213C151.14 67.9232 150.768 69.1317 150.025 69.8468C149.281 70.5618 148.223 70.855 146.85 70.7263V68.5596C147.508 68.674 148.001 68.5382 148.33 68.152C148.659 67.7659 148.823 67.0865 148.823 66.114V60.0001H157.04ZM164.802 71.0052C163.229 71.0052 161.892 70.4617 160.791 69.3748C159.689 68.2879 159.139 66.9507 159.139 65.3632C159.139 63.7757 159.689 62.4385 160.791 61.3516C161.892 60.2646 163.229 59.7212 164.802 59.7212C166.39 59.7212 167.727 60.2646 168.814 61.3516C169.915 62.4385 170.466 63.7757 170.466 65.3632C170.466 66.9507 169.915 68.2879 168.814 69.3748C167.727 70.4617 166.39 71.0052 164.802 71.0052ZM162.421 67.7873C163.065 68.4309 163.858 68.7527 164.802 68.7527C165.746 68.7527 166.54 68.4309 167.184 67.7873C167.827 67.1437 168.149 66.3357 168.149 65.3632C168.149 64.3907 167.827 63.5826 167.184 62.9391C166.54 62.2955 165.746 61.9737 164.802 61.9737C163.858 61.9737 163.065 62.2955 162.421 62.9391C161.778 63.5826 161.456 64.3907 161.456 65.3632C161.456 66.3357 161.778 67.1437 162.421 67.7873ZM187.363 68.5382H188.8V73.601H186.526V70.7263H172.561V60.0001H174.878V68.5382H178.803V60.0001H181.12V68.5382H185.046V60.0001H187.363V68.5382ZM198.758 60.0001H201.075V70.7263H198.758V69.1817C197.886 70.3974 196.635 71.0052 195.004 71.0052C193.531 71.0052 192.273 70.4617 191.229 69.3748C190.185 68.2736 189.663 66.9364 189.663 65.3632C189.663 63.7757 190.185 62.4385 191.229 61.3516C192.273 60.2646 193.531 59.7212 195.004 59.7212C196.635 59.7212 197.886 60.3218 198.758 61.5232V60.0001ZM192.945 67.8302C193.588 68.4738 194.396 68.7956 195.369 68.7956C196.341 68.7956 197.15 68.4738 197.793 67.8302C198.437 67.1724 198.758 66.35 198.758 65.3632C198.758 64.3764 198.437 63.5612 197.793 62.9176C197.15 62.2597 196.341 61.9308 195.369 61.9308C194.396 61.9308 193.588 62.2597 192.945 62.9176C192.301 63.5612 191.979 64.3764 191.979 65.3632C191.979 66.35 192.301 67.1724 192.945 67.8302ZM213.215 68.5382H214.652V73.601H212.378V70.7263H205.02V73.601H202.746V68.5382H204.055C204.713 67.6086 205.042 66.3143 205.042 64.6553V60.0001H213.215V68.5382ZM206.608 68.5382H210.941V62.1239H207.316V64.6553C207.316 66.1855 207.08 67.4798 206.608 68.5382ZM226.016 70.7263H223.249L218.851 65.7708V70.7263H216.534V60.0001H218.851V64.7411L223.013 60.0001H225.845L221.125 65.2559L226.016 70.7263ZM235.341 60.0001H237.121V70.7263H234.847V63.9044L229.355 70.7263H227.575V60.0001H229.849V66.8005L235.341 60.0001Z" fill="#333333"/>
</svg>
