<svg width="30" height="30" viewBox="0 0 30 30" fill="none" xmlns="http://www.w3.org/2000/svg">
<path d="M28.5663 1.43445C27.7165 0.58595 26.5647 0.109375 25.3638 0.109375C24.1629 0.109375 23.0111 0.58595 22.1613 1.43445L1.83127 21.7645C1.24908 22.3434 0.787472 23.032 0.473141 23.7904C0.158811 24.5489 -0.00199747 25.3622 1.87265e-05 26.1832V28.7495C1.87265e-05 29.081 0.131715 29.3989 0.366135 29.6333C0.600556 29.8678 0.918498 29.9995 1.25002 29.9995H3.81627C4.63722 30.0018 5.45048 29.8412 6.20896 29.5271C6.96745 29.213 7.65609 28.7515 8.23502 28.1695L28.5663 7.8382C29.4144 6.98845 29.8907 5.83691 29.8907 4.63633C29.8907 3.43575 29.4144 2.28421 28.5663 1.43445ZM6.46752 26.402C5.76252 27.1023 4.80997 27.4966 3.81627 27.4995H2.50002V26.1832C2.49875 25.6906 2.59521 25.2026 2.78382 24.7475C2.97242 24.2924 3.24941 23.8793 3.59877 23.532L19.0275 8.1032L21.9025 10.9782L6.46752 26.402ZM26.7975 6.0707L23.665 9.20445L20.79 6.3357L23.9238 3.20195C24.1125 3.01359 24.3366 2.86425 24.5831 2.76247C24.8295 2.66068 25.0937 2.60844 25.3604 2.60873C25.627 2.60902 25.891 2.66184 26.1373 2.76416C26.3836 2.86648 26.6073 3.0163 26.7956 3.20508C26.984 3.39385 27.1333 3.61788 27.2351 3.86437C27.3369 4.11086 27.3892 4.37499 27.3889 4.64166C27.3886 4.90834 27.3358 5.17235 27.2334 5.41862C27.1311 5.66489 26.9813 5.88859 26.7925 6.07695L26.7975 6.0707Z" fill="white"/>
</svg>
