<svg width="17" height="17" viewBox="0 0 17 17" fill="none" xmlns="http://www.w3.org/2000/svg">
<path d="M7.45079 9.94861C8.43154 10.9434 9.61822 11.7115 10.9275 12.1988L12.6987 10.7895C12.7512 10.7533 12.8135 10.734 12.8773 10.734C12.941 10.734 13.0033 10.7533 13.0558 10.7895L16.3446 12.9081C16.4694 12.9832 16.5751 13.0863 16.6533 13.2092C16.7315 13.3321 16.78 13.4715 16.795 13.6164C16.8101 13.7613 16.7912 13.9077 16.7399 14.044C16.6887 14.1804 16.6064 14.3029 16.4996 14.402L14.9586 15.9241C14.7379 16.1421 14.4667 16.3021 14.1691 16.3898C13.8715 16.4775 13.5568 16.4902 13.2531 16.4267C10.2238 15.8011 7.43159 14.336 5.19563 12.1988C3.00929 10.0403 1.49636 7.29389 0.840353 4.29261C0.775548 3.99367 0.789074 3.68306 0.879619 3.39088C0.970164 3.0987 1.13466 2.83487 1.35716 2.62494L2.95456 1.0841C3.05341 0.982533 3.17397 0.90464 3.30719 0.856255C3.44041 0.80787 3.58286 0.790248 3.72386 0.804708C3.86486 0.819168 4.00076 0.865335 4.12139 0.939752C4.24202 1.01417 4.34424 1.11491 4.42042 1.23443L6.6098 4.48052C6.64756 4.53149 6.66795 4.59325 6.66795 4.65668C6.66795 4.72012 6.64756 4.78187 6.6098 4.83285L5.16744 6.56629C5.66807 7.84919 6.44805 9.00458 7.45079 9.94861Z" fill="white"/>
</svg>
