<svg width="20" height="26" viewBox="0 0 20 26" fill="none" xmlns="http://www.w3.org/2000/svg">
<path d="M12.3315 0H4.55977C3.75836 0 3.10863 0.644339 3.10863 1.43911V12.3316H1.45114C0.649724 12.3316 0 12.9759 0 13.7707C0 14.5655 0.649724 15.2098 1.45114 15.2098H3.10863V18.4974H1.45114C0.649724 18.4974 0 19.1418 0 19.9365C0 20.7313 0.649724 21.3756 1.45114 21.3756H3.10863V24.5609C3.10863 25.3557 3.75836 26 4.55977 26C5.36119 26 6.01091 25.3557 6.01091 24.5609V21.3756H12.3315C13.1329 21.3756 13.7826 20.7313 13.7826 19.9365C13.7826 19.1418 13.1329 18.4974 12.3315 18.4974H6.01091V15.2098H12.3315C16.5599 15.2098 20 11.7982 20 7.60486C19.9999 3.30785 16.4704 0 12.3315 0ZM12.3315 12.3316H6.01091V2.87823H12.3315C14.9437 2.87823 17.0977 4.96782 17.0977 7.60495C17.0976 10.2113 14.9596 12.3316 12.3315 12.3316Z" fill="white"/>
</svg>
