<svg width="267" height="194" viewBox="0 0 267 194" fill="none" xmlns="http://www.w3.org/2000/svg">
<rect x="264.637" y="159.905" width="262.078" height="157.676" rx="17.6983" transform="rotate(-180 264.637 159.905)" fill="white" stroke="#DFDFDF" stroke-width="3.93296"/>
<path d="M136.016 190.385C135.259 191.696 133.367 191.696 132.61 190.385L115.579 160.888C114.822 159.577 115.769 157.939 117.282 157.939L151.343 157.939C152.857 157.939 153.803 159.577 153.046 160.888L136.016 190.385Z" fill="white"/>
<path d="M45.9581 38.4548V57.7263H42.792V43.9885L36.928 53.6793H36.5426L30.6785 43.961V57.7263H27.5125V38.4548H30.9263L36.7353 48.0906L42.5718 38.4548H45.9581ZM60.51 43.961H63.4833V57.7263H60.51V55.7441C59.3904 57.3042 57.7845 58.0842 55.6921 58.0842C53.8017 58.0842 52.1865 57.3868 50.8467 55.9919C49.5069 54.5786 48.837 52.8626 48.837 50.8436C48.837 48.8064 49.5069 47.0903 50.8467 45.6954C52.1865 44.3005 53.8017 43.6031 55.6921 43.6031C57.7845 43.6031 59.3904 44.3739 60.51 45.9156V43.961ZM53.0492 54.0097C53.8751 54.8356 54.9121 55.2486 56.1601 55.2486C57.4082 55.2486 58.4452 54.8356 59.2711 54.0097C60.097 53.1654 60.51 52.1101 60.51 50.8436C60.51 49.5772 60.097 48.5311 59.2711 47.7051C58.4452 46.8609 57.4082 46.4387 56.1601 46.4387C54.9121 46.4387 53.8751 46.8609 53.0492 47.7051C52.2232 48.5311 51.8103 49.5772 51.8103 50.8436C51.8103 52.1101 52.2232 53.1654 53.0492 54.0097ZM76.1718 43.961V46.8242H69.9223V57.7263H66.949V43.961H76.1718ZM88.5515 43.961H91.5249V57.7263H88.5515V55.7441C87.432 57.3042 85.826 58.0842 83.7337 58.0842C81.8432 58.0842 80.2281 57.3868 78.8883 55.9919C77.5484 54.5786 76.8785 52.8626 76.8785 50.8436C76.8785 48.8064 77.5484 47.0903 78.8883 45.6954C80.2281 44.3005 81.8432 43.6031 83.7337 43.6031C85.826 43.6031 87.432 44.3739 88.5515 45.9156V43.961ZM81.0907 54.0097C81.9166 54.8356 82.9536 55.2486 84.2017 55.2486C85.4497 55.2486 86.4867 54.8356 87.3127 54.0097C88.1386 53.1654 88.5515 52.1101 88.5515 50.8436C88.5515 49.5772 88.1386 48.5311 87.3127 47.7051C86.4867 46.8609 85.4497 46.4387 84.2017 46.4387C82.9536 46.4387 81.9166 46.8609 81.0907 47.7051C80.2648 48.5311 79.8518 49.5772 79.8518 50.8436C79.8518 52.1101 80.2648 53.1654 81.0907 54.0097ZM102.727 50.6785C104.195 51.3392 104.929 52.4312 104.929 53.9546C104.929 55.1293 104.452 56.1112 103.498 56.9004C102.543 57.6896 101.212 58.0842 99.5055 58.0842C96.7341 58.0842 94.862 56.983 93.8893 54.7805L96.312 53.3489C96.8075 54.7255 97.8812 55.4137 99.5331 55.4137C100.304 55.4137 100.91 55.2577 101.35 54.9457C101.791 54.6153 102.011 54.184 102.011 53.6518C102.011 53.1746 101.836 52.7983 101.488 52.523C101.139 52.2293 100.653 52.0825 100.029 52.0825H98.074V49.4671H99.5331C100.139 49.4671 100.607 49.3294 100.937 49.0541C101.286 48.7605 101.46 48.3659 101.46 47.8703C101.46 47.3931 101.268 47.0077 100.882 46.714C100.497 46.402 99.9827 46.246 99.3404 46.246C97.9638 46.246 97.0094 46.8517 96.4772 48.063L94.0545 46.6865C95.0823 44.6309 96.8259 43.6031 99.2853 43.6031C100.827 43.6031 102.048 43.9977 102.947 44.7869C103.865 45.5577 104.323 46.503 104.323 47.6225C104.323 48.9991 103.791 50.0177 102.727 50.6785ZM117.324 43.961H119.609V57.7263H116.691V48.9715L109.643 57.7263H107.358V43.961H110.276V52.6882L117.324 43.961ZM132.337 43.961H135.31V57.7263H132.337V52.2477H126.032V57.7263H123.059V43.961H126.032V49.4396H132.337V43.961ZM144.762 48.6412C146.23 48.6412 147.432 49.0633 148.368 49.9076C149.304 50.7335 149.772 51.8256 149.772 53.1837C149.772 54.5236 149.304 55.6156 148.368 56.4599C147.432 57.3042 146.23 57.7263 144.762 57.7263H138.76V43.961H141.733V48.6412H144.762ZM151.424 43.961H154.398V57.7263H151.424V43.961ZM144.789 55.0558C145.377 55.0558 145.863 54.8815 146.248 54.5328C146.652 54.184 146.854 53.7344 146.854 53.1837C146.854 52.6148 146.652 52.1651 146.248 51.8347C145.863 51.486 145.377 51.3117 144.789 51.3117H141.733V55.0558H144.789ZM161.978 54.4226L160.051 61.5806H157.573L158.675 54.4226H161.978ZM184.186 57.7263H180.635L174.991 51.3667V57.7263H172.017V43.961H174.991V50.0452L180.332 43.961H183.966L177.909 50.706L184.186 57.7263ZM195.986 43.961H198.959V57.7263H195.986V55.7441C194.866 57.3042 193.26 58.0842 191.168 58.0842C189.278 58.0842 187.662 57.3868 186.323 55.9919C184.983 54.5786 184.313 52.8626 184.313 50.8436C184.313 48.8064 184.983 47.0903 186.323 45.6954C187.662 44.3005 189.278 43.6031 191.168 43.6031C193.26 43.6031 194.866 44.3739 195.986 45.9156V43.961ZM188.525 54.0097C189.351 54.8356 190.388 55.2486 191.636 55.2486C192.884 55.2486 193.921 54.8356 194.747 54.0097C195.573 53.1654 195.986 52.1101 195.986 50.8436C195.986 49.5772 195.573 48.5311 194.747 47.7051C193.921 46.8609 192.884 46.4387 191.636 46.4387C190.388 46.4387 189.351 46.8609 188.525 47.7051C187.699 48.5311 187.286 49.5772 187.286 50.8436C187.286 52.1101 187.699 53.1654 188.525 54.0097ZM216.576 46.0808C217.824 47.3839 218.448 48.9715 218.448 50.8436C218.448 52.7157 217.824 54.3033 216.576 55.6065C215.328 56.9096 213.639 57.6988 211.51 57.9741V63.2325H208.592V57.9741C206.463 57.6988 204.774 56.9096 203.526 55.6065C202.278 54.3033 201.654 52.7157 201.654 50.8436C201.654 48.9715 202.278 47.3839 203.526 46.0808C204.774 44.7777 206.463 43.9885 208.592 43.7132V38.4548H211.51V43.7132C213.639 43.9885 215.328 44.7777 216.576 46.0808ZM211.51 55.1384C212.776 54.8998 213.758 54.4043 214.456 53.6518C215.153 52.8809 215.502 51.9449 215.502 50.8436C215.502 49.7424 215.153 48.8155 214.456 48.063C213.758 47.2922 212.776 46.7874 211.51 46.5488V55.1384ZM205.646 48.063C204.949 48.8339 204.6 49.7608 204.6 50.8436C204.6 51.9265 204.949 52.8534 205.646 53.6242C206.343 54.3951 207.325 54.8998 208.592 55.1384V46.5488C207.325 46.7874 206.343 47.2922 205.646 48.063ZM223.477 52.1101C223.698 53.1562 224.202 53.9638 224.991 54.5328C225.781 55.0834 226.744 55.3587 227.882 55.3587C229.461 55.3587 230.644 54.7897 231.434 53.6518L233.884 55.0834C232.526 57.0839 230.516 58.0842 227.855 58.0842C225.615 58.0842 223.808 57.4051 222.431 56.0469C221.055 54.6704 220.366 52.936 220.366 50.8436C220.366 48.788 221.045 47.0719 222.404 45.6954C223.762 44.3005 225.505 43.6031 227.634 43.6031C229.653 43.6031 231.305 44.3097 232.59 45.7229C233.893 47.1362 234.545 48.8522 234.545 50.8712C234.545 51.1832 234.508 51.5961 234.434 52.1101H223.477ZM223.45 49.6873H231.544C231.342 48.5678 230.874 47.7235 230.14 47.1545C229.424 46.5856 228.58 46.3011 227.607 46.3011C226.506 46.3011 225.588 46.6039 224.854 47.2096C224.12 47.8153 223.652 48.6412 223.45 49.6873ZM240.188 54.4226L238.261 61.5806H235.783L236.885 54.4226H240.188ZM74.1457 76.961V90.7263H71.1723V79.7691H64.8678V90.7263H61.8945V76.961H74.1457ZM88.4978 76.961H91.4711V90.7263H88.4978V88.7441C87.3782 90.3042 85.7722 91.0842 83.6799 91.0842C81.7895 91.0842 80.1743 90.3868 78.8345 88.9919C77.4947 87.5786 76.8247 85.8626 76.8247 83.8436C76.8247 81.8064 77.4947 80.0903 78.8345 78.6954C80.1743 77.3005 81.7895 76.6031 83.6799 76.6031C85.7722 76.6031 87.3782 77.3739 88.4978 78.9156V76.961ZM81.0369 87.0097C81.8629 87.8356 82.8999 88.2486 84.1479 88.2486C85.396 88.2486 86.433 87.8356 87.2589 87.0097C88.0848 86.1654 88.4978 85.1101 88.4978 83.8436C88.4978 82.5772 88.0848 81.5311 87.2589 80.7051C86.433 79.8609 85.396 79.4387 84.1479 79.4387C82.8999 79.4387 81.8629 79.8609 81.0369 80.7051C80.211 81.5311 79.7981 82.5772 79.7981 83.8436C79.7981 85.1101 80.211 86.1654 81.0369 87.0097ZM102.728 76.6031C104.618 76.6031 106.234 77.3097 107.573 78.7229C108.913 80.1178 109.583 81.8247 109.583 83.8436C109.583 85.8809 108.913 87.597 107.573 88.9919C106.234 90.3868 104.618 91.0842 102.728 91.0842C100.636 91.0842 99.0296 90.3134 97.9101 88.7716V96.2325H94.9367V76.961H97.9101V78.9432C99.0296 77.3831 100.636 76.6031 102.728 76.6031ZM99.1489 87.0097C99.9749 87.8356 101.012 88.2486 102.26 88.2486C103.508 88.2486 104.545 87.8356 105.371 87.0097C106.197 86.1654 106.61 85.1101 106.61 83.8436C106.61 82.5772 106.197 81.5311 105.371 80.7051C104.545 79.8609 103.508 79.4387 102.26 79.4387C101.012 79.4387 99.9749 79.8609 99.1489 80.7051C98.323 81.5311 97.9101 82.5772 97.9101 83.8436C97.9101 85.1101 98.323 86.1654 99.1489 87.0097ZM124.446 90.7263H120.895L115.251 84.3667V90.7263H112.278V76.961H115.251V83.0452L120.592 76.961H124.226L118.169 83.706L124.446 90.7263ZM131.841 91.0842C129.823 91.0842 128.106 90.3868 126.693 88.9919C125.28 87.597 124.573 85.8809 124.573 83.8436C124.573 81.8064 125.28 80.0903 126.693 78.6954C128.106 77.3005 129.823 76.6031 131.841 76.6031C133.879 76.6031 135.595 77.3005 136.99 78.6954C138.403 80.0903 139.11 81.8064 139.11 83.8436C139.11 85.8809 138.403 87.597 136.99 88.9919C135.595 90.3868 133.879 91.0842 131.841 91.0842ZM128.786 86.9546C129.611 87.7805 130.63 88.1935 131.841 88.1935C133.053 88.1935 134.071 87.7805 134.897 86.9546C135.723 86.1287 136.136 85.0917 136.136 83.8436C136.136 82.5956 135.723 81.5586 134.897 80.7327C134.071 79.9067 133.053 79.4938 131.841 79.4938C130.63 79.4938 129.611 79.9067 128.786 80.7327C127.96 81.5586 127.547 82.5956 127.547 83.8436C127.547 85.0917 127.96 86.1287 128.786 86.9546ZM151.324 83.6509C152.682 84.275 153.361 85.3303 153.361 86.817C153.361 87.9732 152.966 88.9185 152.177 89.6526C151.406 90.3684 150.296 90.7263 148.846 90.7263H141.798V76.961H148.295C149.709 76.961 150.801 77.3189 151.572 78.0347C152.361 78.7321 152.755 79.6406 152.755 80.7602C152.755 82.0633 152.278 83.0269 151.324 83.6509ZM148.075 79.4938H144.634V82.5497H148.075C149.286 82.5497 149.892 82.0358 149.892 81.008C149.892 79.9985 149.286 79.4938 148.075 79.4938ZM148.571 88.1384C149.819 88.1384 150.443 87.597 150.443 86.5141C150.443 86.0369 150.278 85.6698 149.947 85.4129C149.617 85.1376 149.158 84.9999 148.571 84.9999H144.634V88.1384H148.571ZM167.947 90.7263H164.396L158.752 84.3667V90.7263H155.779V76.961H158.752V83.0452L164.093 76.961H167.727L161.67 83.706L167.947 90.7263ZM179.747 76.961H182.72V90.7263H179.747V88.7441C178.627 90.3042 177.022 91.0842 174.929 91.0842C173.039 91.0842 171.424 90.3868 170.084 88.9919C168.744 87.5786 168.074 85.8626 168.074 83.8436C168.074 81.8064 168.744 80.0903 170.084 78.6954C171.424 77.3005 173.039 76.6031 174.929 76.6031C177.022 76.6031 178.627 77.3739 179.747 78.9156V76.961ZM172.286 87.0097C173.112 87.8356 174.149 88.2486 175.397 88.2486C176.645 88.2486 177.682 87.8356 178.508 87.0097C179.334 86.1654 179.747 85.1101 179.747 83.8436C179.747 82.5772 179.334 81.5311 178.508 80.7051C177.682 79.8609 176.645 79.4387 175.397 79.4387C174.149 79.4387 173.112 79.8609 172.286 80.7051C171.46 81.5311 171.047 82.5772 171.047 83.8436C171.047 85.1101 171.46 86.1654 172.286 87.0097ZM203.035 76.961H205.32V90.7263H202.402V81.9715L195.354 90.7263H193.069V76.961H195.987V85.6882L203.035 76.961ZM50.0041 109.961V123.726H47.1134V114.669L43.149 120.973H42.7911L38.8542 114.696V123.726H35.9634V109.961H38.9918L42.9838 116.321L46.9757 109.961H50.0041ZM59.9363 124.084C57.9173 124.084 56.2013 123.387 54.788 121.992C53.3748 120.597 52.6681 118.881 52.6681 116.844C52.6681 114.806 53.3748 113.09 54.788 111.695C56.2013 110.301 57.9173 109.603 59.9363 109.603C61.9735 109.603 63.6896 110.301 65.0845 111.695C66.4977 113.09 67.2044 114.806 67.2044 116.844C67.2044 118.881 66.4977 120.597 65.0845 121.992C63.6896 123.387 61.9735 124.084 59.9363 124.084ZM56.8803 119.955C57.7063 120.781 58.7249 121.193 59.9363 121.193C61.1476 121.193 62.1662 120.781 62.9922 119.955C63.8181 119.129 64.231 118.092 64.231 116.844C64.231 115.596 63.8181 114.559 62.9922 113.733C62.1662 112.907 61.1476 112.494 59.9363 112.494C58.7249 112.494 57.7063 112.907 56.8803 113.733C56.0544 114.559 55.6415 115.596 55.6415 116.844C55.6415 118.092 56.0544 119.129 56.8803 119.955ZM72.1504 108.034V105.446H79.859V108.034H72.1504ZM79.859 109.961H82.1441V123.726H79.2258V114.972L72.178 123.726H69.8929V109.961H72.8112V118.688L79.859 109.961ZM97.7626 123.726H94.2111L88.5674 117.367V123.726H85.594V109.961H88.5674V116.045L93.9083 109.961H97.5424L91.4856 116.706L97.7626 123.726ZM109.563 109.961H112.536V123.726H109.563V121.744C108.443 123.304 106.837 124.084 104.745 124.084C102.854 124.084 101.239 123.387 99.8993 121.992C98.5594 120.579 97.8895 118.863 97.8895 116.844C97.8895 114.806 98.5594 113.09 99.8993 111.695C101.239 110.301 102.854 109.603 104.745 109.603C106.837 109.603 108.443 110.374 109.563 111.916V109.961ZM102.102 120.01C102.928 120.836 103.965 121.249 105.213 121.249C106.461 121.249 107.498 120.836 108.324 120.01C109.15 119.165 109.563 118.11 109.563 116.844C109.563 115.577 109.15 114.531 108.324 113.705C107.498 112.861 106.461 112.439 105.213 112.439C103.965 112.439 102.928 112.861 102.102 113.705C101.276 114.531 100.863 115.577 100.863 116.844C100.863 118.11 101.276 119.165 102.102 120.01ZM134.998 120.918H136.842V127.415H133.924V123.726H124.481V127.415H121.563V120.918H123.242C124.086 119.725 124.508 118.064 124.508 115.935V109.961H134.998V120.918ZM126.518 120.918H132.079V112.686H127.427V115.935C127.427 117.899 127.124 119.56 126.518 120.918ZM150.875 109.961V123.726H147.902V112.824H143.304V117.945C143.304 120.129 142.827 121.68 141.873 122.598C140.918 123.515 139.56 123.892 137.798 123.726V120.946C138.643 121.093 139.276 120.918 139.698 120.423C140.12 119.927 140.331 119.055 140.331 117.807V109.961H150.875ZM164.995 109.961V123.726H162.076V119.101H160.424L156.928 123.726H153.432L157.148 118.826C156.194 118.514 155.423 117.963 154.836 117.174C154.267 116.385 153.982 115.504 153.982 114.531C153.982 113.265 154.432 112.191 155.331 111.31C156.249 110.411 157.424 109.961 158.855 109.961H164.995ZM159.02 116.541H162.076V112.659H159.02C158.415 112.659 157.91 112.833 157.506 113.182C157.102 113.531 156.901 114.008 156.901 114.614C156.901 115.201 157.102 115.669 157.506 116.018C157.91 116.366 158.415 116.541 159.02 116.541ZM186.24 109.961H189.213V123.726H186.24V121.744C185.12 123.304 183.514 124.084 181.422 124.084C179.532 124.084 177.916 123.387 176.577 121.992C175.237 120.579 174.567 118.863 174.567 116.844C174.567 114.806 175.237 113.09 176.577 111.695C177.916 110.301 179.532 109.603 181.422 109.603C183.514 109.603 185.12 110.374 186.24 111.916V109.961ZM178.779 120.01C179.605 120.836 180.642 121.249 181.89 121.249C183.138 121.249 184.175 120.836 185.001 120.01C185.827 119.165 186.24 118.11 186.24 116.844C186.24 115.577 185.827 114.531 185.001 113.705C184.175 112.861 183.138 112.439 181.89 112.439C180.642 112.439 179.605 112.861 178.779 113.705C177.953 114.531 177.54 115.577 177.54 116.844C177.54 118.11 177.953 119.165 178.779 120.01ZM202.204 116.651C203.563 117.275 204.242 118.33 204.242 119.817C204.242 120.973 203.847 121.918 203.058 122.653C202.287 123.368 201.177 123.726 199.727 123.726H192.679V109.961H199.176C200.589 109.961 201.681 110.319 202.452 111.035C203.241 111.732 203.636 112.641 203.636 113.76C203.636 115.063 203.159 116.027 202.204 116.651ZM198.956 112.494H195.515V115.55H198.956C200.167 115.55 200.773 115.036 200.773 114.008C200.773 112.999 200.167 112.494 198.956 112.494ZM199.451 121.138C200.699 121.138 201.324 120.597 201.324 119.514C201.324 119.037 201.158 118.67 200.828 118.413C200.498 118.138 200.039 118 199.451 118H195.515V121.138H199.451ZM216.773 109.961V112.824H212.285V123.726H209.312V112.824H204.797V109.961H216.773ZM224.744 124.084C222.725 124.084 221.009 123.387 219.596 121.992C218.183 120.597 217.476 118.881 217.476 116.844C217.476 114.806 218.183 113.09 219.596 111.695C221.009 110.301 222.725 109.603 224.744 109.603C226.781 109.603 228.498 110.301 229.892 111.695C231.306 113.09 232.012 114.806 232.012 116.844C232.012 118.881 231.306 120.597 229.892 121.992C228.498 123.387 226.781 124.084 224.744 124.084ZM221.688 119.955C222.514 120.781 223.533 121.193 224.744 121.193C225.956 121.193 226.974 120.781 227.8 119.955C228.626 119.129 229.039 118.092 229.039 116.844C229.039 115.596 228.626 114.559 227.8 113.733C226.974 112.907 225.956 112.494 224.744 112.494C223.533 112.494 222.514 112.907 221.688 113.733C220.862 114.559 220.449 115.596 220.449 116.844C220.449 118.092 220.862 119.129 221.688 119.955Z" fill="#333333"/>
</svg>
