<svg width="18" height="17" viewBox="0 0 18 17" fill="none" xmlns="http://www.w3.org/2000/svg">
<path d="M16.6521 6.49748L11.4329 1.27759C10.787 0.633524 9.91201 0.271851 8.99983 0.271851C8.08765 0.271851 7.21268 0.633524 6.56672 1.27759L1.34752 6.49748C1.15515 6.68862 1.00263 6.91605 0.898801 7.16657C0.794976 7.4171 0.741912 7.68574 0.742684 7.95693V14.712C0.742684 15.2594 0.960171 15.7845 1.3473 16.1716C1.73443 16.5588 2.25949 16.7762 2.80697 16.7762H15.1927C15.7402 16.7762 16.2652 16.5588 16.6524 16.1716C17.0395 15.7845 17.257 15.2594 17.257 14.712V7.95693C17.2577 7.68574 17.2047 7.4171 17.1009 7.16657C16.997 6.91605 16.8445 6.68862 16.6521 6.49748ZM11.0641 15.4001H6.93554V12.6931C6.93554 12.1456 7.15303 11.6205 7.54016 11.2334C7.92729 10.8463 8.45235 10.6288 8.99983 10.6288C9.54731 10.6288 10.0724 10.8463 10.4595 11.2334C10.8466 11.6205 11.0641 12.1456 11.0641 12.6931V15.4001ZM15.8808 14.712C15.8808 14.8945 15.8083 15.0695 15.6792 15.1985C15.5502 15.3276 15.3752 15.4001 15.1927 15.4001H12.4403V12.6931C12.4403 11.7806 12.0778 10.9055 11.4326 10.2603C10.7874 9.61509 9.9123 9.25261 8.99983 9.25261C8.08736 9.25261 7.21226 9.61509 6.56704 10.2603C5.92183 10.9055 5.55935 11.7806 5.55935 12.6931V15.4001H2.80697C2.62448 15.4001 2.44946 15.3276 2.32041 15.1985C2.19137 15.0695 2.11887 14.8945 2.11887 14.712V7.95693C2.11951 7.77457 2.19194 7.5998 2.32049 7.47045L7.53969 2.25262C7.92757 1.86655 8.45256 1.64981 8.99983 1.64981C9.54709 1.64981 10.0721 1.86655 10.46 2.25262L15.6792 7.47251C15.8072 7.60135 15.8796 7.77529 15.8808 7.95693V14.712Z" fill="white"/>
</svg>
