<svg width="34" height="34" viewBox="0 0 34 34" fill="none" xmlns="http://www.w3.org/2000/svg">
<path d="M27.4366 20.8632C28.5063 20.4441 29.4297 19.7205 30.0927 18.7821C30.7556 17.8438 31.129 16.7317 31.1667 15.5833C31.1667 11.8688 27.625 9.41517 21.5333 8.71392C22.2672 7.86864 22.6698 6.78605 22.6667 5.66667C22.6667 2.22417 19.3304 0 14.1667 0C9.00292 0 5.66667 2.22417 5.66667 5.66667C5.67702 6.56441 5.93345 7.44211 6.40805 8.20421C6.88265 8.96632 7.55722 9.58362 8.35833 9.98892C5.134 11.407 4.25 13.6085 4.25 15.5833C4.24272 16.6471 4.53502 17.6914 5.09345 18.5968C5.65189 19.5023 6.4539 20.2322 7.40775 20.7032C2.54008 21.7883 0 23.8807 0 26.9167C0 31.5506 5.87775 34 17 34C28.2809 34 34 31.6172 34 26.9167C34 24.0026 31.7971 21.981 27.4366 20.8632ZM14.1667 2.83333C16.9872 2.83333 19.8333 3.71025 19.8333 5.66667C19.8333 7.62308 16.9872 8.5 14.1667 8.5C11.3461 8.5 8.5 7.62308 8.5 5.66667C8.5 3.71025 11.3461 2.83333 14.1667 2.83333ZM17.7083 11.3333C22.61 11.3333 28.3333 12.4468 28.3333 15.5833C28.3333 18.7198 22.61 19.8333 17.7083 19.8333C14.5137 19.8333 7.08333 19.4197 7.08333 15.5833C7.08333 11.747 14.5137 11.3333 17.7083 11.3333ZM17 31.1667C8.39375 31.1667 2.83333 29.4978 2.83333 26.9167C2.83333 24.3355 8.39375 22.6667 17 22.6667C25.8712 22.6667 31.1667 24.2562 31.1667 26.9167C31.1667 29.5772 25.8712 31.1667 17 31.1667Z" fill="white"/>
</svg>
