<svg width="33" height="33" viewBox="0 0 33 33" fill="none" xmlns="http://www.w3.org/2000/svg">
<path d="M32.7746 12.0917C32.4933 11.1965 31.9314 10.4155 31.172 9.86429C30.4125 9.31308 29.4958 9.02092 28.5575 9.031H22.5501L20.7255 3.344C20.4385 2.44882 19.8747 1.66789 19.1153 1.11384C18.3559 0.559784 17.4401 0.26123 16.5001 0.26123C15.56 0.26123 14.6443 0.559784 13.8849 1.11384C13.1255 1.66789 12.5616 2.44882 12.2747 3.344L10.4501 9.031H4.44271C3.50735 9.03233 2.59635 9.32921 1.8398 9.87924C1.08326 10.4293 0.519888 11.2043 0.230149 12.0937C-0.05959 12.983 -0.0608724 13.9412 0.226485 14.8313C0.513842 15.7214 1.07514 16.4979 1.83021 17.05L6.71971 20.625L4.86071 26.3821C4.56029 27.275 4.55648 28.2411 4.84986 29.1364C5.14323 30.0316 5.71808 30.8081 6.48871 31.35C7.24613 31.9093 8.164 32.209 9.10554 32.2042C10.0471 32.1995 10.9619 31.8907 11.7137 31.3239L16.5001 27.8011L21.2878 31.3197C22.0439 31.8759 22.9568 32.1779 23.8953 32.1825C24.8339 32.1871 25.7497 31.8939 26.5111 31.3452C27.2726 30.7965 27.8404 30.0204 28.133 29.1286C28.4256 28.2369 28.4278 27.2753 28.1395 26.3821L26.2805 20.625L31.1755 17.05C31.9392 16.5049 32.507 15.7283 32.795 14.8353C33.083 13.9423 33.0759 12.9803 32.7746 12.0917ZM29.553 14.8294L23.855 18.9942C23.6209 19.165 23.4468 19.4053 23.3574 19.6808C23.268 19.9564 23.2679 20.2531 23.3572 20.5287L25.5228 27.225C25.6324 27.5646 25.6315 27.9303 25.5202 28.2693C25.4088 28.6084 25.1929 28.9034 24.9033 29.112C24.6137 29.3206 24.2655 29.432 23.9086 29.4302C23.5517 29.4283 23.2046 29.3134 22.9172 29.1019L17.3141 24.9769C17.0781 24.8035 16.7929 24.71 16.5001 24.71C16.2073 24.71 15.9221 24.8035 15.6861 24.9769L10.083 29.1019C9.79569 29.3163 9.44762 29.4336 9.0892 29.4368C8.73077 29.4401 8.38062 29.3291 8.08952 29.12C7.79842 28.9108 7.58149 28.6144 7.47018 28.2737C7.35887 27.933 7.35896 27.5657 7.47046 27.225L9.64296 20.5287C9.73222 20.2531 9.73215 19.9564 9.64277 19.6808C9.55338 19.4053 9.37925 19.165 9.14521 18.9942L3.44721 14.8294C3.16025 14.6193 2.94703 14.3238 2.838 13.9853C2.72897 13.6468 2.72972 13.2825 2.84012 12.9444C2.95053 12.6063 3.16495 12.3118 3.45276 12.1028C3.74058 11.8939 4.08705 11.7812 4.44271 11.781H11.4552C11.7463 11.781 12.0299 11.6886 12.2651 11.5171C12.5004 11.3456 12.6751 11.1039 12.7642 10.8267L14.8955 4.18412C15.0049 3.8442 15.2193 3.54776 15.5079 3.33747C15.7965 3.12717 16.1444 3.01387 16.5015 3.01387C16.8585 3.01387 17.2064 3.12717 17.495 3.33747C17.7836 3.54776 17.9981 3.8442 18.1075 4.18412L20.2387 10.8267C20.3278 11.1039 20.5025 11.3456 20.7378 11.5171C20.973 11.6886 21.2566 11.781 21.5477 11.781H28.5602C28.9159 11.7812 29.2623 11.8939 29.5501 12.1028C29.838 12.3118 30.0524 12.6063 30.1628 12.9444C30.2732 13.2825 30.2739 13.6468 30.1649 13.9853C30.0559 14.3238 29.8427 14.6193 29.5557 14.8294H29.553Z" fill="white"/>
</svg>
