<svg width="40" height="34" viewBox="0 0 40 34" fill="none" xmlns="http://www.w3.org/2000/svg">
<path d="M31.6446 0C29.7493 0 27.8917 0.653438 26.4139 1.83992C25.9092 2.24516 25.8286 2.98266 26.2336 3.48734C26.6389 3.99195 27.3765 4.07273 27.8811 3.6675C28.9444 2.81383 30.281 2.34375 31.6446 2.34375C34.9594 2.34375 37.6562 5.04055 37.6562 8.35539C37.6562 11.6702 34.9594 14.367 31.6446 14.367H9.60925C8.96207 14.367 8.43738 14.8917 8.43738 15.5389C8.43738 16.1861 8.96207 16.7108 9.60925 16.7108H31.6446C36.2518 16.7108 40 12.9626 40 8.35539C40 3.7482 36.2517 0 31.6446 0Z" fill="white"/>
<path d="M7.36407 12.0311H19.8826C20.5299 12.0311 21.0545 11.5064 21.0545 10.8593C21.0545 10.2121 20.5299 9.68738 19.8826 9.68738H7.36407C6.71689 9.68738 6.1922 10.2121 6.1922 10.8593C6.1922 11.5064 6.71689 12.0311 7.36407 12.0311Z" fill="white"/>
<path d="M19.5543 19.0625H1.17188C0.524687 19.0625 0 19.5872 0 20.2344C0 20.8816 0.524687 21.4062 1.17188 21.4062H19.5543C22.2125 21.4062 24.3752 23.5688 24.3752 26.227C24.3752 28.8852 22.2125 31.0478 19.5543 31.0478C18.4608 31.0478 17.3891 30.6708 16.5363 29.9862C16.0317 29.5811 15.2941 29.6617 14.8889 30.1664C14.4837 30.6711 14.5644 31.4087 15.0691 31.8138C16.3363 32.8312 17.9292 33.3915 19.5543 33.3915C23.5048 33.3915 26.7189 30.1775 26.7189 26.227C26.7189 22.2764 23.5048 19.0625 19.5543 19.0625Z" fill="white"/>
<path d="M1.17188 12.0311H2.75273C3.39992 12.0311 3.92461 11.5064 3.92461 10.8593C3.92461 10.2121 3.39992 9.68738 2.75273 9.68738H1.17188C0.524687 9.68738 0 10.2121 0 10.8593C0 11.5064 0.524687 12.0311 1.17188 12.0311Z" fill="white"/>
<path d="M15.3125 24.8989C15.3125 24.2517 14.7878 23.7271 14.1406 23.7271H7.10938C6.46219 23.7271 5.9375 24.2517 5.9375 24.8989C5.9375 25.5461 6.46219 26.0708 7.10938 26.0708H14.1406C14.7879 26.0708 15.3125 25.5461 15.3125 24.8989Z" fill="white"/>
</svg>
