<svg width="255" height="200" viewBox="0 0 255 200" fill="none" xmlns="http://www.w3.org/2000/svg">
<path d="M220.547 25.886C220.577 27.4519 220.614 29.6317 220.644 32.296C220.707 38.0027 220.74 45.9282 220.618 54.8025C220.372 72.5964 219.5 94.0456 217.033 109.096C216.067 114.987 214.949 119.017 213.191 122.672C211.427 126.343 208.953 129.772 205.083 134.395C204.64 134.925 204.206 135.445 203.779 135.956C197.394 143.606 192.66 149.278 184.235 154.223C175.385 159.417 167.488 163.415 157.887 163.655C131.073 164.324 98.5163 161.893 72.6052 159.284C59.662 157.98 48.4009 156.635 40.3765 155.615C36.3647 155.106 33.1627 154.678 30.965 154.377C30.3966 154.299 29.8954 154.23 29.4647 154.17L18.8322 69.3119L39.4226 66.5871C46.9487 65.5911 52.2643 58.7135 51.3309 51.1793L50.9199 47.8625L220.547 25.886Z" fill="white" fill-opacity="0.4" stroke="white" stroke-width="5"/>
</svg>
