<svg width="194" height="149" viewBox="0 0 194 149" fill="none" xmlns="http://www.w3.org/2000/svg">
<path d="M190.617 123.312L17.6302 145.975L3.45952 33.9431C4.02685 33.4972 4.80171 32.8938 5.74913 32.1694C7.88086 30.5396 10.8815 28.3008 14.354 25.8674C21.3419 20.9703 30.0812 15.3989 37.4604 12.348C45.0096 9.22673 49.9399 7.40347 55.4979 6.15949C61.0789 4.91036 67.379 4.22618 77.677 3.49373C87.335 2.8068 100.762 4.89103 110.364 7.4177C119.728 9.88196 127.899 12.7589 136.788 17.6865C141.146 20.1028 143.78 21.7087 146.162 23.5672C148.547 25.4285 150.748 27.5967 154.186 31.2207C155.669 32.7833 156.999 34.129 158.228 35.3728C162.244 39.437 165.186 42.4145 168.88 48.325C169.348 49.074 169.806 49.7994 170.252 50.5066C173.966 56.3961 176.888 61.0291 178.578 67.6208C181.5 79.0224 184.633 93.585 187.04 105.323C188.242 111.186 189.26 116.335 189.979 120.017C190.23 121.306 190.445 122.415 190.617 123.312Z" fill="white" fill-opacity="0.4" stroke="white" stroke-width="5"/>
</svg>
