<svg width="122" height="167" viewBox="0 0 122 167" fill="none" xmlns="http://www.w3.org/2000/svg">
<path d="M119.118 163.549C118.024 163.54 116.639 163.526 115.004 163.503C110.628 163.441 104.466 163.318 97.3227 163.072C83.0215 162.579 64.8473 161.594 49.2179 159.633C41.9181 158.717 36.333 156.672 31.4058 153.503C26.4409 150.309 22.0291 145.903 17.1603 140.083C11.1819 132.938 8.59188 128.119 5.94645 119.188C3.28049 110.188 3.04857 104.671 4.01467 95.1977C5.32774 82.3218 7.32989 74.5987 15.077 64.6975C19.3062 59.2924 23.0035 56.805 28.1669 53.3311C29.5722 52.3857 31.0861 51.3672 32.7488 50.197C39.392 45.5214 45.5511 43.6926 51.9373 41.7964C52.378 41.6656 52.8199 41.5344 53.263 41.4019C60.1374 39.3469 67.2215 37.0019 74.5349 30.6026C80.6293 25.27 87.7258 18.0175 93.2663 12.1376C95.5649 9.69813 97.6052 7.48477 99.2077 5.72777L119.118 163.549Z" fill="white" fill-opacity="0.4" stroke="white" stroke-width="5"/>
</svg>
